<svg width="172" height="185" viewBox="0 0 172 185" fill="none" xmlns="http://www.w3.org/2000/svg">
<path d="M45.7525 95.16H52.1525V106.936H45.7525V115H31.0325V106.936H1.9765V104.632L43.8325 24.12H45.7525V95.16ZM32.0565 71.864L20.5365 95.16H32.0565V71.864ZM87.1875 116.28C81.7262 116.28 76.9048 114.403 72.7235 110.648C68.6275 106.808 65.4275 101.389 63.1235 94.392C60.9048 87.3947 59.7955 79.3307 59.7955 70.2C59.7955 61.0693 60.9048 53.0053 63.1235 46.008C65.4275 39.0107 68.6275 33.6347 72.7235 29.88C76.9048 26.04 81.7262 24.12 87.1875 24.12C92.6488 24.12 97.4275 26.04 101.524 29.88C105.705 33.6347 108.905 39.0107 111.124 46.008C113.428 52.92 114.58 60.984 114.58 70.2C114.58 79.416 113.428 87.5227 111.124 94.52C108.905 101.432 105.705 106.808 101.524 110.648C97.4275 114.403 92.6488 116.28 87.1875 116.28ZM87.1875 102.072C91.1128 102.072 94.1848 99.2133 96.4035 93.496C98.7075 87.7787 99.8595 80.0133 99.8595 70.2C99.8595 60.3867 98.7075 52.6213 96.4035 46.904C94.1848 41.1867 91.1128 38.328 87.1875 38.328C83.2622 38.328 80.1475 41.1867 77.8435 46.904C75.6248 52.6213 74.5155 60.3867 74.5155 70.2C74.5155 80.0133 75.6248 87.7787 77.8435 93.496C80.1475 99.2133 83.2622 102.072 87.1875 102.072ZM159.753 95.16H166.153V106.936H159.753V115H145.033V106.936H115.977V104.632L157.833 24.12H159.753V95.16ZM146.057 71.864L134.537 95.16H146.057V71.864Z" fill="#EF5243"/>
<path d="M51.4158 177.4C48.7758 177.4 46.3891 176.787 44.2558 175.56C42.1224 174.307 40.4424 172.587 39.2158 170.4C38.0158 168.213 37.4158 165.747 37.4158 163C37.4158 160.253 38.0158 157.787 39.2158 155.6C40.4424 153.413 42.1091 151.707 44.2158 150.48C46.3491 149.227 48.7491 148.6 51.4158 148.6C54.0824 148.6 56.4824 149.227 58.6158 150.48C60.7491 151.707 62.4158 153.413 63.6158 155.6C64.8158 157.787 65.4158 160.253 65.4158 163C65.4158 165.747 64.8024 168.213 63.5758 170.4C62.3758 172.587 60.7091 174.307 58.5758 175.56C56.4691 176.787 54.0824 177.4 51.4158 177.4ZM51.4158 172.96C53.2024 172.96 54.7758 172.547 56.1358 171.72C57.5224 170.867 58.6024 169.693 59.3758 168.2C60.1491 166.68 60.5358 164.947 60.5358 163C60.5358 161.053 60.1491 159.333 59.3758 157.84C58.6024 156.32 57.5224 155.147 56.1358 154.32C54.7758 153.467 53.2024 153.04 51.4158 153.04C49.6558 153.04 48.0824 153.467 46.6958 154.32C45.3358 155.147 44.2691 156.32 43.4958 157.84C42.7224 159.333 42.3358 161.053 42.3358 163C42.3358 164.947 42.7224 166.68 43.4958 168.2C44.2691 169.693 45.3358 170.867 46.6958 171.72C48.0824 172.547 49.6558 172.96 51.4158 172.96ZM81.8064 177.4C79.1664 177.4 76.7797 176.787 74.6464 175.56C72.5131 174.307 70.8331 172.587 69.6064 170.4C68.4064 168.213 67.8064 165.747 67.8064 163C67.8064 160.253 68.4064 157.787 69.6064 155.6C70.8331 153.413 72.4997 151.707 74.6064 150.48C76.7397 149.227 79.1397 148.6 81.8064 148.6C84.4731 148.6 86.8731 149.227 89.0064 150.48C91.1397 151.707 92.8064 153.413 94.0064 155.6C95.2064 157.787 95.8064 160.253 95.8064 163C95.8064 165.747 95.1931 168.213 93.9664 170.4C92.7664 172.587 91.0997 174.307 88.9664 175.56C86.8597 176.787 84.4731 177.4 81.8064 177.4ZM81.8064 172.96C83.5931 172.96 85.1664 172.547 86.5264 171.72C87.9131 170.867 88.9931 169.693 89.7664 168.2C90.5397 166.68 90.9264 164.947 90.9264 163C90.9264 161.053 90.5397 159.333 89.7664 157.84C88.9931 156.32 87.9131 155.147 86.5264 154.32C85.1664 153.467 83.5931 153.04 81.8064 153.04C80.0464 153.04 78.4731 153.467 77.0864 154.32C75.7264 155.147 74.6597 156.32 73.8864 157.84C73.1131 159.333 72.7264 161.053 72.7264 163C72.7264 164.947 73.1131 166.68 73.8864 168.2C74.6597 169.693 75.7264 170.867 77.0864 171.72C78.4731 172.547 80.0464 172.96 81.8064 172.96ZM113.034 159.84C113.034 161.733 112.621 163.453 111.794 165C110.994 166.547 109.874 167.813 108.434 168.8C107.021 169.76 105.408 170.347 103.594 170.56V177H98.9942V149H101.514C103.728 149 105.701 149.453 107.434 150.36C109.194 151.24 110.568 152.507 111.554 154.16C112.541 155.787 113.034 157.68 113.034 159.84ZM103.594 166.2C104.901 166.067 105.981 165.413 106.834 164.24C107.688 163.067 108.114 161.6 108.114 159.84C108.114 158.053 107.688 156.587 106.834 155.44C105.981 154.267 104.901 153.613 103.594 153.48V166.2ZM118.209 177.4C116.529 177.4 115.076 177.133 113.849 176.6V171.96C115.049 172.627 116.316 172.96 117.649 172.96C118.662 172.96 119.449 172.68 120.009 172.12C120.596 171.533 120.889 170.68 120.889 169.56C120.889 168.76 120.756 168.027 120.489 167.36C120.222 166.667 119.742 165.733 119.049 164.56L116.889 161.08C115.502 158.813 114.809 156.693 114.809 154.72C114.809 152.933 115.396 151.467 116.569 150.32C117.742 149.173 119.329 148.6 121.329 148.6C122.582 148.6 123.676 148.8 124.609 149.2V153.52C123.676 153.093 122.809 152.88 122.009 152.88C121.236 152.88 120.622 153.08 120.169 153.48C119.742 153.88 119.529 154.44 119.529 155.16C119.529 155.747 119.649 156.32 119.889 156.88C120.129 157.44 120.516 158.16 121.049 159.04L122.969 162.24C123.849 163.707 124.516 165.04 124.969 166.24C125.422 167.413 125.649 168.653 125.649 169.96C125.649 172.28 124.982 174.107 123.649 175.44C122.342 176.747 120.529 177.4 118.209 177.4ZM133 169.08H129.68L129.2 149H133.48L133 169.08ZM133.4 177H129.28V172.64H133.4V177Z" fill="#EF5243"/>
</svg>
