<svg width="133" height="36" viewBox="0 0 133 36" fill="none" xmlns="http://www.w3.org/2000/svg">
<path d="M9.19918 5.67803V0.500121L123.801 0.5V5.67791H128.546V10.8558H132.5V25.144H128.546V30.322H123.801V35.4999L9.19918 35.5V30.3221H4.45417V25.1442H0.5V10.8559H4.45417V5.67803H9.19918Z" stroke="#171717"/>
<path d="M18.3044 23.5L21.9364 11.98H24.7604L28.3924 23.5H26.4084L23.1124 13.164H23.5444L20.2884 23.5H18.3044ZM20.3284 21.004V19.204H26.3764V21.004H20.3284ZM33.3028 23.74C32.5081 23.74 31.8148 23.54 31.2228 23.14C30.6308 22.74 30.1721 22.196 29.8468 21.508C29.5214 20.82 29.3588 20.044 29.3588 19.18C29.3588 18.3053 29.5214 17.5267 29.8468 16.844C30.1774 16.156 30.6441 15.6147 31.2468 15.22C31.8494 14.82 32.5588 14.62 33.3748 14.62C34.1961 14.62 34.8841 14.82 35.4388 15.22C35.9988 15.6147 36.4228 16.156 36.7108 16.844C36.9988 17.532 37.1428 18.3107 37.1428 19.18C37.1428 20.0387 36.9988 20.8147 36.7108 21.508C36.4228 22.196 35.9934 22.74 35.4228 23.14C34.8521 23.54 34.1454 23.74 33.3028 23.74ZM33.5988 22.012C34.1161 22.012 34.5321 21.8947 34.8468 21.66C35.1668 21.42 35.3988 21.0867 35.5428 20.66C35.6921 20.2333 35.7668 19.74 35.7668 19.18C35.7668 18.6147 35.6921 18.1213 35.5428 17.7C35.3988 17.2733 35.1721 16.9427 34.8628 16.708C34.5534 16.468 34.1534 16.348 33.6628 16.348C33.1454 16.348 32.7188 16.476 32.3828 16.732C32.0468 16.9827 31.7988 17.324 31.6388 17.756C31.4788 18.1827 31.3988 18.6573 31.3988 19.18C31.3988 19.708 31.4761 20.188 31.6308 20.62C31.7908 21.0467 32.0334 21.3853 32.3588 21.636C32.6841 21.8867 33.0974 22.012 33.5988 22.012ZM35.7668 23.5V17.436H35.5268V11.98H37.4708V23.5H35.7668ZM43.1778 23.74C42.3831 23.74 41.6898 23.54 41.0978 23.14C40.5058 22.74 40.0471 22.196 39.7218 21.508C39.3964 20.82 39.2338 20.044 39.2338 19.18C39.2338 18.3053 39.3964 17.5267 39.7218 16.844C40.0524 16.156 40.5191 15.6147 41.1218 15.22C41.7244 14.82 42.4338 14.62 43.2498 14.62C44.0711 14.62 44.7591 14.82 45.3138 15.22C45.8738 15.6147 46.2978 16.156 46.5858 16.844C46.8738 17.532 47.0178 18.3107 47.0178 19.18C47.0178 20.0387 46.8738 20.8147 46.5858 21.508C46.2978 22.196 45.8684 22.74 45.2978 23.14C44.7271 23.54 44.0204 23.74 43.1778 23.74ZM43.4738 22.012C43.9911 22.012 44.4071 21.8947 44.7218 21.66C45.0418 21.42 45.2738 21.0867 45.4178 20.66C45.5671 20.2333 45.6418 19.74 45.6418 19.18C45.6418 18.6147 45.5671 18.1213 45.4178 17.7C45.2738 17.2733 45.0471 16.9427 44.7378 16.708C44.4284 16.468 44.0284 16.348 43.5378 16.348C43.0204 16.348 42.5938 16.476 42.2578 16.732C41.9218 16.9827 41.6738 17.324 41.5138 17.756C41.3538 18.1827 41.2738 18.6573 41.2738 19.18C41.2738 19.708 41.3511 20.188 41.5058 20.62C41.6658 21.0467 41.9084 21.3853 42.2338 21.636C42.5591 21.8867 42.9724 22.012 43.4738 22.012ZM45.6418 23.5V17.436H45.4018V11.98H47.3458V23.5H45.6418ZM52.7919 23.5V11.98H54.5279L58.5119 20.14L62.4959 11.98H64.2319V23.5H62.4319V16.116L58.8959 23.5H58.1279L54.5999 16.116V23.5H52.7919ZM70.4074 23.74C69.5327 23.74 68.7647 23.5507 68.1034 23.172C67.442 22.7933 66.9247 22.268 66.5514 21.596C66.1834 20.924 65.9994 20.1507 65.9994 19.276C65.9994 18.332 66.1807 17.5133 66.5434 16.82C66.906 16.1213 67.41 15.58 68.0554 15.196C68.7007 14.812 69.4474 14.62 70.2954 14.62C71.1914 14.62 71.9514 14.8307 72.5754 15.252C73.2047 15.668 73.6714 16.2573 73.9754 17.02C74.2794 17.7827 74.394 18.6813 74.3194 19.716H72.4074V19.012C72.402 18.0733 72.2367 17.388 71.9114 16.956C71.586 16.524 71.074 16.308 70.3754 16.308C69.586 16.308 68.9994 16.5533 68.6154 17.044C68.2314 17.5293 68.0394 18.2413 68.0394 19.18C68.0394 20.0547 68.2314 20.732 68.6154 21.212C68.9994 21.692 69.5594 21.932 70.2954 21.932C70.77 21.932 71.178 21.828 71.5194 21.62C71.866 21.4067 72.1327 21.1 72.3194 20.7L74.2234 21.276C73.8927 22.0547 73.3807 22.66 72.6874 23.092C71.9994 23.524 71.2394 23.74 70.4074 23.74ZM67.4314 19.716V18.26H73.3754V19.716H67.4314ZM86.246 23.5V18.252C86.246 17.66 86.0993 17.1987 85.806 16.868C85.5127 16.532 85.1153 16.364 84.614 16.364C84.3047 16.364 84.0273 16.436 83.782 16.58C83.5367 16.7187 83.342 16.9267 83.198 17.204C83.054 17.476 82.982 17.8013 82.982 18.18L82.126 17.676C82.1207 17.0787 82.254 16.5533 82.526 16.1C82.8033 15.6413 83.1767 15.284 83.646 15.028C84.1153 14.772 84.638 14.644 85.214 14.644C86.1687 14.644 86.8993 14.932 87.406 15.508C87.918 16.0787 88.174 16.8307 88.174 17.764V23.5H86.246ZM75.854 23.5V14.86H77.558V17.54H77.798V23.5H75.854ZM81.062 23.5V18.276C81.062 17.6733 80.9153 17.204 80.622 16.868C80.3287 16.532 79.9287 16.364 79.422 16.364C78.9313 16.364 78.5367 16.532 78.238 16.868C77.9447 17.204 77.798 17.6413 77.798 18.18L76.934 17.604C76.934 17.044 77.0727 16.54 77.35 16.092C77.6273 15.644 78.0007 15.292 78.47 15.036C78.9447 14.7747 79.4753 14.644 80.062 14.644C80.7073 14.644 81.246 14.7827 81.678 15.06C82.1153 15.332 82.4407 15.7053 82.654 16.18C82.8727 16.6493 82.982 17.18 82.982 17.772V23.5H81.062ZM94.4126 23.74C93.57 23.74 92.8633 23.54 92.2926 23.14C91.722 22.74 91.2926 22.196 91.0046 21.508C90.7166 20.8147 90.5726 20.0387 90.5726 19.18C90.5726 18.3107 90.7166 17.532 91.0046 16.844C91.2926 16.156 91.714 15.6147 92.2686 15.22C92.8286 14.82 93.5193 14.62 94.3406 14.62C95.1566 14.62 95.8633 14.82 96.4606 15.22C97.0633 15.6147 97.53 16.156 97.8606 16.844C98.1913 17.5267 98.3566 18.3053 98.3566 19.18C98.3566 20.044 98.194 20.82 97.8686 21.508C97.5433 22.196 97.0846 22.74 96.4926 23.14C95.9006 23.54 95.2073 23.74 94.4126 23.74ZM90.2446 23.5V11.98H92.1886V17.436H91.9486V23.5H90.2446ZM94.1166 22.012C94.618 22.012 95.0313 21.8867 95.3566 21.636C95.682 21.3853 95.922 21.0467 96.0766 20.62C96.2366 20.188 96.3166 19.708 96.3166 19.18C96.3166 18.6573 96.2366 18.1827 96.0766 17.756C95.9166 17.324 95.6686 16.9827 95.3326 16.732C94.9966 16.476 94.57 16.348 94.0526 16.348C93.562 16.348 93.162 16.468 92.8526 16.708C92.5433 16.9427 92.314 17.2733 92.1646 17.7C92.0206 18.1213 91.9486 18.6147 91.9486 19.18C91.9486 19.74 92.0206 20.2333 92.1646 20.66C92.314 21.0867 92.546 21.42 92.8606 21.66C93.1806 21.8947 93.5993 22.012 94.1166 22.012ZM104.048 23.74C103.173 23.74 102.405 23.5507 101.744 23.172C101.083 22.7933 100.565 22.268 100.192 21.596C99.824 20.924 99.64 20.1507 99.64 19.276C99.64 18.332 99.8213 17.5133 100.184 16.82C100.547 16.1213 101.051 15.58 101.696 15.196C102.341 14.812 103.088 14.62 103.936 14.62C104.832 14.62 105.592 14.8307 106.216 15.252C106.845 15.668 107.312 16.2573 107.616 17.02C107.92 17.7827 108.035 18.6813 107.96 19.716H106.048V19.012C106.043 18.0733 105.877 17.388 105.552 16.956C105.227 16.524 104.715 16.308 104.016 16.308C103.227 16.308 102.64 16.5533 102.256 17.044C101.872 17.5293 101.68 18.2413 101.68 19.18C101.68 20.0547 101.872 20.732 102.256 21.212C102.64 21.692 103.2 21.932 103.936 21.932C104.411 21.932 104.819 21.828 105.16 21.62C105.507 21.4067 105.773 21.1 105.96 20.7L107.864 21.276C107.533 22.0547 107.021 22.66 106.328 23.092C105.64 23.524 104.88 23.74 104.048 23.74ZM101.072 19.716V18.26H107.016V19.716H101.072ZM109.745 23.5V14.86H111.449V16.964L111.241 16.692C111.348 16.404 111.489 16.1427 111.665 15.908C111.846 15.668 112.062 15.4707 112.313 15.316C112.526 15.172 112.761 15.06 113.017 14.98C113.278 14.8947 113.545 14.844 113.817 14.828C114.089 14.8067 114.353 14.8173 114.609 14.86V16.66C114.353 16.5853 114.057 16.5613 113.721 16.588C113.39 16.6147 113.092 16.708 112.825 16.868C112.558 17.012 112.34 17.196 112.169 17.42C112.004 17.644 111.881 17.9 111.801 18.188C111.721 18.4707 111.681 18.7773 111.681 19.108V23.5H109.745Z" fill="#090909"/>
</svg>
