<svg width="166" height="53" viewBox="0 0 166 53" fill="none" xmlns="http://www.w3.org/2000/svg">
<path d="M5.17152 42.8488C5.91079 41.3595 6.73536 39.9506 7.92957 38.8065C9.09534 37.686 10.2611 36.5607 11.7302 35.7665C11.7586 35.8799 11.806 35.9839 11.806 36.0832C11.7918 36.5087 11.7965 36.9342 11.7349 37.3503C11.6733 37.7333 11.5217 38.102 11.4364 38.4803C11.3132 39.0003 11.171 39.5109 11.1663 40.0547C11.1663 40.2059 11.0525 40.362 10.9672 40.5038C10.754 40.8584 10.7398 40.9624 11.0336 41.2224C11.4838 41.6243 11.9956 41.9316 12.5216 42.2153C12.8675 42.4044 13.2229 42.5746 13.6163 42.6266C13.8769 42.6644 14.1518 42.6975 14.4551 42.5652C14.3224 42.4564 14.2229 42.3619 14.1091 42.2815C13.7916 42.0545 13.4694 41.8465 13.1566 41.6149C12.8438 41.3832 12.55 41.109 12.4742 40.7166C12.4079 40.3667 12.4079 39.9932 12.4268 39.6339C12.441 39.3691 12.5168 39.1091 12.5785 38.8538C12.7301 38.2628 12.8912 37.6718 13.1566 37.1139C13.3367 36.7357 13.5025 36.348 13.6779 35.965C13.8201 35.6577 13.9764 35.3504 14.1281 35.0478C14.3319 34.6412 14.5404 34.2393 14.7489 33.8375C14.7773 33.7807 14.82 33.7335 14.8579 33.6815C14.8721 33.6862 14.891 33.6862 14.9053 33.6909C14.9053 33.88 14.9053 34.0691 14.9053 34.2583C14.9053 34.3245 14.8816 34.3859 14.8816 34.4521C14.8816 35.2511 14.8863 36.0501 14.8816 36.8539C14.8721 38.3857 14.8674 39.9175 14.8437 41.4494C14.8389 41.8087 14.7868 42.168 14.7584 42.551C14.7204 42.4328 14.6873 42.3335 14.6541 42.2295C14.6304 42.2295 14.6067 42.2342 14.583 42.2342C14.583 42.4091 14.5783 42.5793 14.583 42.7543C14.5878 42.8867 14.5309 42.9339 14.3982 42.9481C14.0996 42.9765 13.8058 43.0238 13.5073 43.0663C13.4599 43.071 13.4078 43.0758 13.3604 43.0805C12.8675 43.09 12.3747 43.1041 11.8818 43.1136C11.4553 43.123 11.0288 43.1325 10.6023 43.1467C10.0573 43.1656 9.50763 43.1845 8.96266 43.2176C8.87261 43.2223 8.78258 43.2791 8.69254 43.3122C8.64515 43.3263 8.6025 43.3453 8.55511 43.3453C7.96274 43.35 7.37512 43.35 6.78275 43.3453C6.45576 43.3405 6.12878 43.3311 5.80179 43.3074C5.67858 43.298 5.55537 43.2554 5.44163 43.2129C5.31368 43.1656 5.20943 43.2082 5.10043 43.2554C5.01513 43.2933 4.92035 43.3405 4.83031 43.3405C4.56493 43.3405 4.29955 43.3264 4.03417 43.3074C3.99626 43.3074 3.95835 43.2696 3.92044 43.2554C3.83988 43.2271 3.75932 43.1892 3.67876 43.1751C3.5745 43.1561 3.4892 43.1798 3.5745 43.3311C3.49868 43.3358 3.44655 43.3405 3.39442 43.3405C2.93948 43.3405 2.47981 43.3358 2.02487 43.3453C1.8211 43.35 1.62206 43.3973 1.41829 43.402C1.20978 43.4067 1.00126 43.3784 0.792751 43.3642C0.773795 43.3642 0.7501 43.3405 0.731145 43.3453C0.337814 43.4114 0.252513 43.0663 0.0771732 42.8488C0.0487396 42.811 0.0487396 42.7448 0.0487396 42.6928C0.0487396 42.2248 0.0487396 41.7614 0.0487396 41.2934C0.0345229 38.485 0.0203061 35.6672 0.0155672 32.8541C0.0155672 32.594 0.0440007 32.334 0.0440007 32.0787C0.0440007 31.8754 0.0155672 31.6721 0.0155672 31.4688C0.0155672 31.2088 0.0392618 30.9487 0.0440007 30.6934C0.0440007 30.5752 0.0203061 30.4523 0.0155672 30.3341C0.0155672 30.2159 0.0345229 30.1072 0.09139 29.989C0.162474 29.8377 0.124562 29.6297 0.105607 29.45C0.086651 29.2089 0.0392618 28.963 0.0155672 28.7219C0.00608933 28.6415 0.0297839 28.5517 0.0108283 28.4713C-0.0697334 28.0789 0.233558 27.8993 0.461026 27.6865C0.494199 27.6534 0.565282 27.6534 0.61741 27.6534C2.48929 27.6534 4.36116 27.6534 6.23303 27.6534C6.3752 27.6534 6.51263 27.6534 6.6548 27.6534C7.20925 27.6629 7.76371 27.6818 8.31816 27.6818C8.89157 27.6818 9.46024 27.6534 10.0337 27.6534C10.934 27.6534 11.8344 27.6723 12.7348 27.6865C12.9007 27.6865 12.9244 27.7338 12.896 27.904C12.8628 28.1073 12.8486 28.3153 12.8154 28.5233C12.768 28.859 12.7254 29.1947 12.6638 29.5256C12.5879 29.9417 12.5168 30.3625 12.4126 30.7691C12.2799 31.2844 12.133 31.7998 11.9529 32.3009C11.7871 32.7548 11.6022 33.2087 11.37 33.6295C11.1473 34.0313 10.8772 34.4096 10.5834 34.7641C10.1663 35.2606 9.7114 35.7286 9.26121 36.192C8.87261 36.5938 8.46033 36.9721 8.06226 37.3598C7.55993 37.8515 7.05287 38.3384 6.55528 38.8301C6.44629 38.9389 6.36099 38.9625 6.26147 38.8349C6.18091 38.7308 6.09087 38.7308 6.01504 38.8349C5.78758 39.1469 5.54589 39.4448 5.35159 39.7757C5.13834 40.1398 4.94879 40.518 4.78292 40.9057C4.57915 41.3785 4.52228 41.8749 4.71184 42.3713C4.77819 42.5604 4.93457 42.7117 5.17152 42.8488Z" fill="#EF5243"/>
<path d="M22.3075 25.3651C22.663 25.3651 23.0136 25.3651 23.3691 25.3651C23.3691 25.384 23.3738 25.3982 23.3738 25.4171C23.3548 25.4266 23.3359 25.4455 23.3122 25.4455C23.0231 25.4597 22.7388 25.4691 22.4497 25.4833C21.99 25.5022 21.5351 25.5353 21.0754 25.5448C20.9664 25.5448 20.8622 25.4644 20.7532 25.4218C20.7058 25.4029 20.6584 25.3556 20.611 25.3556C20.2935 25.3509 19.9807 25.3509 19.6585 25.3793C19.758 25.3982 19.8575 25.4171 19.9523 25.4407C19.7627 25.6062 19.1277 25.6062 18.8102 25.4407C18.8813 25.4124 18.9476 25.384 19.0235 25.3509C18.8149 25.228 18.6254 25.2233 18.4169 25.3462C18.45 25.3935 18.488 25.4407 18.5353 25.5117C18.4785 25.5306 18.4311 25.5542 18.3837 25.5542C18.2368 25.5589 18.0946 25.5495 17.9477 25.5589C17.8056 25.5684 17.7676 25.488 17.7866 25.3793C17.8482 24.9207 17.9288 24.4621 17.9809 24.0035C18.0378 23.5023 18.0994 23.0012 18.1136 22.4953C18.142 21.5828 18.142 20.6656 18.1515 19.7531C18.1515 19.5923 18.1278 19.4363 18.1183 19.2756C18.0852 18.4056 18.3647 17.6303 18.8244 16.9022C19.1514 16.3868 19.4642 15.8573 19.6916 15.2852C19.8954 14.7746 20.1087 14.264 20.3267 13.7581C20.611 13.082 20.9143 12.4107 21.1844 11.7299C21.3361 11.3375 21.4403 10.9261 21.5588 10.5195C21.5777 10.4486 21.5635 10.3682 21.5635 10.2926C21.5493 10.2879 21.5303 10.2831 21.5161 10.2784C21.4877 10.3399 21.4498 10.4013 21.4356 10.4628C21.3692 10.8221 21.2081 11.1389 21.0422 11.4557C20.8669 11.7913 20.5778 11.8764 20.2271 11.8008C20.2177 11.8008 20.2082 11.8055 20.175 11.8102C20.1703 11.8623 20.1608 11.919 20.1655 11.9757C20.1892 12.3398 20.1324 12.7038 20.0234 13.0442C19.9002 13.4272 19.739 13.8007 19.5637 14.1647C19.3931 14.5241 19.2083 14.8834 18.9903 15.2191C18.7391 15.602 18.4548 15.9661 18.1657 16.3206C17.9951 16.5334 17.7913 16.7225 17.5876 16.9069C17.4596 17.0251 17.3127 17.1291 17.1611 17.2095C16.9336 17.323 16.6872 17.4033 16.4265 17.5073C16.4123 17.3797 16.3886 17.2899 16.3886 17.2C16.3886 15.1434 16.3886 13.0868 16.3839 11.0301C16.3839 10.789 16.3507 10.5432 16.3554 10.302C16.3554 10.1933 16.3934 10.0751 16.455 9.98528C16.6208 9.73943 16.8104 9.59286 17.1421 9.59759C18.7012 9.6165 20.2603 9.60232 21.8194 9.60705C24.0752 9.6165 26.3261 9.62596 28.5819 9.64014C28.9894 9.64487 29.1648 9.96164 29.378 10.25C29.0889 10.3493 29.2074 10.5479 29.2169 10.7276C29.2406 11.1342 29.2974 11.5549 29.2406 11.9521C29.1221 12.8126 29.16 13.673 29.1553 14.5335C29.1411 16.349 29.1316 18.1645 29.1174 19.98C29.1126 20.3204 29.0795 20.6656 29.0889 21.006C29.0984 21.2944 29.1553 21.5828 29.179 21.8712C29.1885 21.9847 29.16 22.0981 29.1505 22.2163C29.1268 22.5851 29.1079 22.9539 29.0842 23.3179C29.0605 23.6631 29.0415 24.0082 29.0131 24.3533C29.0084 24.4101 28.9562 24.4621 28.8946 24.4999C28.8804 24.6512 28.852 24.8072 28.8567 24.9585C28.8662 25.1713 28.7098 25.1665 28.5819 25.1713C28.1317 25.1902 27.6862 25.1996 27.236 25.2091C26.0465 25.2233 24.8571 25.228 23.6676 25.2469C23.2127 25.2564 22.753 25.2989 22.2981 25.3273C22.3075 25.3415 22.3075 25.3509 22.3075 25.3651Z" fill="#EF5243"/>
<path d="M27.6671 40.8442C27.6387 40.8962 27.5913 40.9435 27.5866 40.9955C27.5724 41.1042 27.5771 41.2177 27.5866 41.3265C27.596 41.4588 27.5202 41.5061 27.4112 41.5108C27.1695 41.525 26.9279 41.5345 26.6814 41.5439C26.018 41.5676 25.3545 41.5818 24.6911 41.6149C24.5821 41.6196 24.4778 41.6952 24.3736 41.7425C24.3167 41.7661 24.2646 41.7945 24.1888 41.8323C24.1888 41.752 24.1888 41.7047 24.1888 41.6385C24.1366 41.629 24.0703 41.6101 24.0039 41.6101C23.0941 41.6101 22.1889 41.6054 21.2791 41.6101C21.1369 41.6101 20.99 41.6432 20.8478 41.6952C21.3312 41.7851 21.8146 41.6574 22.3169 41.7283C22.2174 41.856 22.0752 41.8654 21.952 41.8749C21.4828 41.8985 21.0089 41.908 20.5398 41.9127C20.3313 41.9127 20.1228 41.8938 19.9095 41.8796C19.8763 41.8749 19.8289 41.8654 19.8053 41.8418C19.682 41.6952 19.5257 41.6716 19.3456 41.681C19.1323 41.6905 18.9143 41.6858 18.7011 41.6858C18.6963 41.7 18.6963 41.7141 18.6916 41.7283C18.7959 41.752 18.9001 41.7709 19.0044 41.7945C18.8433 41.9647 18.085 41.9694 17.8481 41.7898C17.886 41.7661 17.9192 41.7425 17.9618 41.7094C17.9334 41.6952 17.9192 41.6858 17.9097 41.6858C17.7912 41.6905 17.6396 41.6338 17.6111 41.8323C17.6064 41.8512 17.5637 41.8796 17.5353 41.8796C17.123 41.9033 16.7107 41.9269 16.2937 41.9505C16.27 41.9505 16.2321 41.9505 16.2179 41.9316C15.9999 41.6905 15.7393 41.4967 15.7393 41.0995C15.7535 38.1446 15.7535 35.1849 15.7393 32.23C15.7393 31.8329 15.8293 31.4641 15.9525 31.0953C16.1184 30.6131 16.2842 30.1355 16.4454 29.6486C16.616 29.1332 16.7866 28.6179 16.9477 28.0978C17.0899 27.6439 17.2131 27.1853 17.3505 26.7267C17.3742 26.6416 17.4074 26.5613 17.4311 26.4809C17.4595 26.3769 17.54 26.3769 17.6253 26.3769C18.2651 26.3769 18.9049 26.3816 19.5494 26.3769C22.1558 26.3674 24.7574 26.3532 27.3638 26.3438C27.5013 26.3438 27.6055 26.3627 27.6813 26.4951C27.7619 26.6322 27.8756 26.7504 27.9609 26.8828C27.9941 26.9348 27.9941 27.0293 27.9704 27.0908C27.8851 27.3319 27.9325 27.573 27.9372 27.8236C27.9515 28.2775 27.923 28.7314 27.9136 29.1852C27.9136 29.2278 27.9136 29.2751 27.9136 29.3176C27.9136 29.6769 27.9183 30.041 27.9136 30.4003C27.9041 31.1189 27.8899 31.8423 27.8804 32.5609C27.8662 33.4923 27.8567 34.4237 27.8472 35.3551C27.8377 36.0549 27.814 36.7499 27.8188 37.4496C27.8188 37.8184 27.9278 38.1966 27.8662 38.5512C27.7714 39.1185 27.7998 39.6811 27.7761 40.2485C27.7666 40.4518 27.7287 40.6504 27.7003 40.8489C27.6956 40.8489 27.6813 40.8489 27.6671 40.8442Z" fill="#EF5243"/>
<path d="M13.2373 16.9778C13.0999 16.992 12.9956 17.0109 12.8914 17.0062C12.4175 16.9873 11.9388 16.9967 11.4697 16.9305C11.119 16.8833 10.7683 16.7651 10.4413 16.6327C10.0338 16.4719 9.63572 16.2828 9.2566 16.0606C8.65002 15.706 8.06239 15.3089 7.46055 14.9401C7.04826 14.6895 6.70232 14.368 6.40851 13.9945C6.24738 13.796 6.12417 13.5643 5.99622 13.3421C5.93462 13.2381 5.88723 13.2475 5.82088 13.3232C5.71189 13.4461 5.62185 13.4177 5.51759 13.3137C5.31856 13.1104 5.11952 12.9118 4.91575 12.7133C4.88731 12.6849 4.84466 12.666 4.77832 12.666C4.83519 12.7464 4.88731 12.8315 4.94892 12.9071C5.55076 13.6778 6.15735 14.4484 6.75919 15.2238C7.01983 15.5595 7.27099 15.9046 7.52216 16.2497C7.73067 16.5334 8.01026 16.7462 8.33251 16.8644C8.76375 17.0204 9.21869 17.1197 9.65941 17.2426C10.1049 17.3655 10.5219 17.5404 10.8963 17.8147C11.2612 18.0842 11.6308 18.3395 11.9767 18.6326C12.3559 18.9541 12.7302 19.2945 13.0714 19.6585C13.4174 20.0273 13.7396 20.4197 14.0382 20.8216C14.2751 21.1431 14.3841 21.5166 14.3889 21.9232C14.3936 22.3014 14.4078 22.6749 14.2467 23.0248C14.1093 23.3227 13.9576 23.6205 13.7965 23.9089C13.5074 24.4195 13.242 24.9349 13.1804 25.5306C13.1473 25.8568 13.0904 26.1783 13.0525 26.5045C13.0383 26.6322 12.9577 26.6464 12.8534 26.6464C12.2848 26.6464 11.7161 26.6416 11.1474 26.6464C10.7304 26.6511 10.3181 26.6653 9.90109 26.6795C9.56937 26.6936 9.23765 26.7125 8.87749 26.7315C9.09548 26.7456 9.28503 26.7598 9.46985 26.774C9.46985 26.7929 9.47459 26.8118 9.47459 26.8307C9.40825 26.8497 9.33716 26.878 9.27082 26.878C8.59789 26.8922 7.92496 26.9111 7.25678 26.9064C7.06722 26.9064 6.87766 26.8449 6.67863 26.8071C6.65967 26.8686 6.6881 27.0151 6.52224 26.9773C6.47959 26.9679 6.41799 26.93 6.40851 26.8969C6.37534 26.774 6.2853 26.7551 6.18578 26.7504C5.86353 26.7362 5.54602 26.722 5.22378 26.7173C4.94892 26.7125 4.6788 26.7173 4.36603 26.7173C4.47029 26.7646 4.53663 26.7929 4.60298 26.826C4.60298 26.8449 4.60298 26.8591 4.60298 26.878C4.46081 26.9017 4.31864 26.9395 4.17647 26.9489C3.74997 26.9679 3.32347 26.9773 2.89697 26.982C2.83062 26.982 2.7548 26.9584 2.70267 26.9158C2.4752 26.7504 2.31882 26.566 2.31882 26.2398C2.33303 23.8853 2.33303 21.5261 2.32356 19.1716C2.30934 16.6705 2.29512 14.1695 2.28564 11.6731C2.28564 11.3327 2.61263 11.0112 2.96331 11.0065C3.31399 11.0065 3.66467 11.0065 4.01535 11.0065C6.07678 11.016 8.14295 11.0301 10.2091 11.0396C11.1095 11.0443 12.0147 11.0349 12.9151 11.0396C13.5501 11.0443 14.1803 11.0585 14.8154 11.0727C14.8533 11.0727 14.9007 11.1011 14.9338 11.1294C15.0286 11.2003 15.1234 11.276 15.2182 11.3516C15.3461 11.4509 15.3982 11.5644 15.3935 11.7346C15.3793 12.3067 15.3935 12.8787 15.3888 13.4508C15.3793 14.491 15.3698 15.5358 15.3556 16.576C15.3509 16.784 15.3129 16.992 15.2893 17.2095C15.1186 17.1859 15.0807 17.0629 15.0618 16.9589C14.9765 16.4814 14.9717 15.9992 15.0144 15.5122C15.0476 15.1292 15.0476 14.7415 15.0144 14.3586C14.9907 14.0985 14.8011 13.9142 14.5642 13.7912C14.2846 13.6541 14.0097 13.5265 13.6828 13.5265C13.2041 13.5265 12.9151 13.7912 12.6876 14.1647C12.5265 14.4342 12.4222 14.7274 12.3796 15.0441C12.3085 15.5358 12.3322 16.0086 12.6781 16.401C12.8155 16.5618 12.9956 16.6894 13.152 16.836C13.1757 16.8691 13.1946 16.9116 13.2373 16.9778Z" fill="#EF5243"/>
<path d="M47.7899 27.2242H43.5885L43.0596 25.3145H38.7113L38.1825 27.2242H33.9811L40.6504 5.48269H41.0912L47.7899 27.2242ZM40.8855 17.3818L39.6515 21.9357H42.1488L40.8855 17.3818ZM57.9319 27.2242H48.8239V6.65791H52.9372V23.2578H57.9319V27.2242ZM68.9552 27.518C66.6832 27.518 64.7147 27.0773 63.0498 26.1959C61.4045 25.3145 60.1411 24.0805 59.2597 22.4939C58.3783 20.8878 57.9376 19.0368 57.9376 16.941C57.9376 14.8452 58.3783 13.0041 59.2597 11.4175C60.1411 9.8114 61.4045 8.56764 63.0498 7.68622C64.7147 6.80481 66.6832 6.3641 68.9552 6.3641C70.3655 6.3641 71.7856 6.53059 73.2154 6.86357V11.0356C72.0206 10.6634 70.7572 10.4774 69.4253 10.4774C67.2512 10.4774 65.5275 11.0552 64.2544 12.2108C62.9812 13.3664 62.3447 14.9432 62.3447 16.941C62.3447 18.9389 62.9812 20.5157 64.2544 21.6713C65.5275 22.8269 67.2512 23.4047 69.4253 23.4047C70.7572 23.4047 72.0206 23.2187 73.2154 22.8465V26.9891C71.8443 27.3417 70.4243 27.518 68.9552 27.518ZM82.7732 11.7995V6.65791H86.8865V27.2242H82.7732V15.6189H79.2476V27.2242H75.1343V6.65791H79.2476V11.7995H82.7732ZM98.2048 27.2242H89.5376V6.65791H98.2048V10.6243H93.6508V13.1216H97.7641V16.6472H93.6508V23.2578H98.2048V27.2242ZM107.375 27.2242L104.848 22.729L104.525 22.7584V27.2242H100.412V6.65791H103.144C104.77 6.65791 106.219 6.99089 107.492 7.65684C108.785 8.3228 109.784 9.27276 110.489 10.5067C111.214 11.7211 111.576 13.151 111.576 14.7963C111.576 16.1478 111.312 17.372 110.783 18.4688C110.274 19.5461 109.549 20.4471 108.609 21.1718L112.017 27.2242H107.375ZM107.169 14.7963C107.169 13.6602 106.924 12.7299 106.435 12.0051C105.945 11.2608 105.309 10.8201 104.525 10.683V18.9389C105.309 18.7822 105.945 18.3317 106.435 17.5874C106.924 16.8235 107.169 15.8931 107.169 14.7963ZM117.899 27.2242H113.932V6.65791H117.899V27.2242ZM128.479 11.7995V6.65791H132.592V27.2242H128.479V16.6472L124.954 13.9149V27.2242H120.84V6.3641H121.281L128.479 11.7995ZM142.736 14.855H150.668V26.7541C149.513 27.2634 147.897 27.518 145.821 27.518C143.646 27.518 141.727 27.0773 140.062 26.1959C138.397 25.2949 137.104 24.0413 136.184 22.4352C135.263 20.8291 134.803 18.9879 134.803 16.9117C134.803 14.8355 135.263 13.0041 136.184 11.4175C137.104 9.8114 138.397 8.56764 140.062 7.68622C141.727 6.80481 143.646 6.3641 145.821 6.3641C147.466 6.3641 148.886 6.53059 150.081 6.86357V10.8887C148.886 10.5165 147.574 10.3305 146.144 10.3305C144.753 10.3305 143.529 10.6047 142.471 11.1531C141.433 11.7015 140.63 12.4752 140.062 13.4742C139.494 14.4535 139.21 15.5993 139.21 16.9117C139.21 18.224 139.494 19.3796 140.062 20.3786C140.63 21.3775 141.433 22.161 142.471 22.729C143.529 23.2774 144.753 23.5516 146.144 23.5516C146.398 23.5516 146.584 23.5418 146.702 23.5223V18.5276H142.736V14.855ZM165.512 27.2242H161.311L160.782 25.3145H156.434L155.905 27.2242H151.704L158.373 5.48269H158.814L165.512 27.2242ZM158.608 17.3818L157.374 21.9357H159.871L158.608 17.3818Z" fill="#171717"/>
<path d="M74.4501 46.7758V36.1989H75.5298V46.7758H74.4501ZM77.8788 46.7758V36.1989H78.9585V46.7758H77.8788ZM83.9737 46.7758V37.2345H80.2791V36.1989H88.748V37.2345H85.0535V46.7758H83.9737ZM96.6602 46.9962C95.9159 46.9962 95.245 46.8664 94.6476 46.6069C94.0502 46.3474 93.541 45.9777 93.1199 45.4978C92.7036 45.0179 92.3854 44.4401 92.165 43.7643C91.9446 43.0837 91.8345 42.3247 91.8345 41.4873C91.8345 40.3807 92.0254 39.416 92.4074 38.5934C92.7942 37.7658 93.3476 37.1244 94.0674 36.669C94.7872 36.2136 95.6515 35.9859 96.6602 35.9859C97.7864 35.9859 98.7021 36.2503 99.4073 36.7791C100.117 37.3031 100.612 38.0082 100.891 38.8945L99.8039 39.159C99.5738 38.5126 99.1943 37.996 98.6654 37.6091C98.1415 37.2223 97.4877 37.0289 96.7043 37.0289C95.8767 37.024 95.1887 37.2101 94.6403 37.5871C94.0919 37.9593 93.6781 38.4832 93.399 39.159C93.1248 39.8298 92.9852 40.6059 92.9803 41.4873C92.9754 42.3688 93.1101 43.1449 93.3843 43.8157C93.6634 44.4817 94.0796 45.0056 94.633 45.3876C95.1863 45.7646 95.8767 45.9556 96.7043 45.9605C97.4633 45.9605 98.09 45.8136 98.5846 45.5198C99.0792 45.226 99.4538 44.8049 99.7084 44.2564C99.9679 43.708 100.115 43.0592 100.149 42.31H97.7106V41.3845H101.28C101.295 41.4971 101.302 41.6171 101.302 41.7444C101.307 41.8668 101.31 41.955 101.31 42.0088C101.31 42.9637 101.138 43.8182 100.795 44.5723C100.453 45.3215 99.9361 45.914 99.2457 46.3498C98.5601 46.7807 97.6983 46.9962 96.6602 46.9962ZM106.908 46.9962C106.1 46.9962 105.385 46.8297 104.763 46.4967C104.146 46.1637 103.661 45.6936 103.309 45.0864C102.956 44.4793 102.78 43.7692 102.78 42.9564V36.2062L103.867 36.1989V42.8168C103.867 43.3652 103.96 43.8402 104.146 44.2418C104.332 44.6384 104.574 44.9665 104.873 45.226C105.177 45.4806 105.507 45.6692 105.865 45.7916C106.222 45.914 106.57 45.9752 106.908 45.9752C107.251 45.9752 107.601 45.914 107.958 45.7916C108.316 45.6692 108.644 45.4806 108.942 45.226C109.241 44.9665 109.483 44.6384 109.67 44.2418C109.856 43.8402 109.949 43.3652 109.949 42.8168V36.1989H111.036V42.9564C111.036 43.7692 110.859 44.4793 110.507 45.0864C110.154 45.6887 109.667 46.1588 109.045 46.4967C108.428 46.8297 107.716 46.9962 106.908 46.9962ZM115.364 46.7758L112.309 36.1989H113.432L115.908 44.9322L118.368 36.2062L119.499 36.1989L121.975 44.9322L124.435 36.1989H125.566L122.518 46.7758H121.431L118.934 38.1013L116.451 46.7758H115.364ZM125.07 46.7758L128.714 36.1989H130.146L133.789 46.7758H132.665L129.206 36.8012H129.632L126.194 46.7758H125.07ZM126.694 44.2124V43.1988H132.158V44.2124H126.694ZM135.115 46.7758V36.1989H136.195V40.9658H142.042V36.1989H143.114V46.7758H142.042V42.0015H136.195V46.7758H135.115ZM144.437 46.7758L148.081 36.1989H149.513L153.156 46.7758H152.032L148.573 36.8012H148.999L145.561 46.7758H144.437ZM146.061 44.2124V43.1988H151.525V44.2124H146.061ZM156.42 46.7758V37.2345H152.726V36.1989H161.195V37.2345H157.5V46.7758H156.42ZM162.52 46.7758V36.1989H163.599V46.7758H162.52Z" fill="#171717"/>
</svg>
