<svg width="166" height="54" viewBox="0 0 166 54" fill="none" xmlns="http://www.w3.org/2000/svg">
<path d="M5.17152 43.3478C5.91079 41.8585 6.73536 40.4496 7.92957 39.3054C9.09534 38.1849 10.2611 37.0597 11.7302 36.2654C11.7586 36.3789 11.806 36.4829 11.806 36.5822C11.7918 37.0077 11.7965 37.4332 11.7349 37.8492C11.6733 38.2322 11.5217 38.601 11.4364 38.9792C11.3132 39.4993 11.171 40.0099 11.1663 40.5536C11.1663 40.7049 11.0525 40.8609 10.9672 41.0027C10.754 41.3573 10.7398 41.4613 11.0336 41.7214C11.4838 42.1233 11.9956 42.4306 12.5216 42.7142C12.8675 42.9034 13.2229 43.0736 13.6163 43.1256C13.8769 43.1634 14.1518 43.1965 14.4551 43.0641C14.3224 42.9554 14.2229 42.8608 14.1091 42.7804C13.7916 42.5535 13.4694 42.3455 13.1566 42.1138C12.8438 41.8821 12.55 41.6079 12.4742 41.2155C12.4079 40.8656 12.4079 40.4921 12.4268 40.1328C12.441 39.868 12.5168 39.608 12.5785 39.3527C12.7301 38.7617 12.8912 38.1707 13.1566 37.6128C13.3367 37.2346 13.5025 36.8469 13.6779 36.464C13.8201 36.1567 13.9764 35.8493 14.1281 35.5468C14.3319 35.1402 14.5404 34.7383 14.7489 34.3364C14.7773 34.2797 14.82 34.2324 14.8579 34.1804C14.8721 34.1851 14.891 34.1851 14.9053 34.1899C14.9053 34.379 14.9053 34.5681 14.9053 34.7572C14.9053 34.8234 14.8816 34.8849 14.8816 34.951C14.8816 35.7501 14.8863 36.5491 14.8816 37.3528C14.8721 38.8847 14.8674 40.4165 14.8437 41.9483C14.8389 42.3076 14.7868 42.667 14.7584 43.0499C14.7204 42.9317 14.6873 42.8324 14.6541 42.7284C14.6304 42.7284 14.6067 42.7331 14.583 42.7331C14.583 42.9081 14.5783 43.0783 14.583 43.2532C14.5878 43.3856 14.5309 43.4329 14.3982 43.4471C14.0996 43.4754 13.8058 43.5227 13.5073 43.5653C13.4599 43.57 13.4078 43.5747 13.3604 43.5794C12.8675 43.5889 12.3747 43.6031 11.8818 43.6125C11.4553 43.622 11.0288 43.6314 10.6023 43.6456C10.0573 43.6645 9.50763 43.6835 8.96266 43.7166C8.87261 43.7213 8.78258 43.778 8.69254 43.8111C8.64515 43.8253 8.6025 43.8442 8.55511 43.8442C7.96274 43.8489 7.37512 43.8489 6.78275 43.8442C6.45576 43.8395 6.12878 43.83 5.80179 43.8064C5.67858 43.7969 5.55537 43.7544 5.44163 43.7118C5.31368 43.6645 5.20943 43.7071 5.10043 43.7544C5.01513 43.7922 4.92035 43.8395 4.83031 43.8395C4.56493 43.8395 4.29955 43.8253 4.03417 43.8064C3.99626 43.8064 3.95835 43.7686 3.92044 43.7544C3.83988 43.726 3.75932 43.6882 3.67876 43.674C3.5745 43.6551 3.4892 43.6787 3.5745 43.83C3.49868 43.8347 3.44655 43.8395 3.39442 43.8395C2.93948 43.8395 2.47981 43.8347 2.02487 43.8442C1.8211 43.8489 1.62206 43.8962 1.41829 43.9009C1.20978 43.9057 1.00126 43.8773 0.792751 43.8631C0.773795 43.8631 0.7501 43.8395 0.731145 43.8442C0.337814 43.9104 0.252513 43.5653 0.0771732 43.3478C0.0487396 43.31 0.0487396 43.2438 0.0487396 43.1918C0.0487396 42.7237 0.0487396 42.2604 0.0487396 41.7923C0.0345229 38.9839 0.0203061 36.1661 0.0155672 33.353C0.0155672 33.093 0.0440007 32.833 0.0440007 32.5776C0.0440007 32.3743 0.0155672 32.171 0.0155672 31.9677C0.0155672 31.7077 0.0392618 31.4477 0.0440007 31.1924C0.0440007 31.0742 0.0203061 30.9513 0.0155672 30.8331C0.0155672 30.7149 0.0345229 30.6061 0.09139 30.4879C0.162474 30.3366 0.124562 30.1286 0.105607 29.9489C0.086651 29.7078 0.0392618 29.462 0.0155672 29.2208C0.00608933 29.1405 0.0297839 29.0506 0.0108283 28.9703C-0.0697334 28.5779 0.233558 28.3982 0.461026 28.1854C0.494199 28.1523 0.565282 28.1523 0.61741 28.1523C2.48929 28.1523 4.36116 28.1523 6.23303 28.1523C6.3752 28.1523 6.51263 28.1523 6.6548 28.1523C7.20925 28.1618 7.76371 28.1807 8.31816 28.1807C8.89157 28.1807 9.46024 28.1523 10.0337 28.1523C10.934 28.1523 11.8344 28.1713 12.7348 28.1854C12.9007 28.1854 12.9244 28.2327 12.896 28.4029C12.8628 28.6062 12.8486 28.8142 12.8154 29.0223C12.768 29.358 12.7254 29.6936 12.6638 30.0246C12.5879 30.4406 12.5168 30.8614 12.4126 31.268C12.2799 31.7834 12.133 32.2987 11.9529 32.7999C11.7871 33.2537 11.6022 33.7076 11.37 34.1284C11.1473 34.5303 10.8772 34.9085 10.5834 35.2631C10.1663 35.7595 9.7114 36.2276 9.26121 36.6909C8.87261 37.0928 8.46033 37.471 8.06226 37.8587C7.55993 38.3504 7.05287 38.8374 6.55528 39.3291C6.44629 39.4378 6.36099 39.4615 6.26147 39.3338C6.18091 39.2298 6.09087 39.2298 6.01504 39.3338C5.78758 39.6458 5.54589 39.9437 5.35159 40.2746C5.13834 40.6387 4.94879 41.0169 4.78292 41.4046C4.57915 41.8774 4.52228 42.3738 4.71184 42.8703C4.77819 43.0594 4.93457 43.2107 5.17152 43.3478Z" fill="#EF5243"/>
<path d="M22.308 25.8653C22.6634 25.8653 23.0141 25.8653 23.3695 25.8653C23.3695 25.8842 23.3743 25.8984 23.3743 25.9173C23.3553 25.9267 23.3364 25.9456 23.3127 25.9456C23.0236 25.9598 22.7393 25.9693 22.4502 25.9835C21.9905 26.0024 21.5356 26.0355 21.0759 26.0449C20.9669 26.0449 20.8626 25.9646 20.7537 25.922C20.7063 25.9031 20.6589 25.8558 20.6115 25.8558C20.294 25.8511 19.9812 25.8511 19.659 25.8795C19.7585 25.8984 19.858 25.9173 19.9528 25.9409C19.7632 26.1064 19.1282 26.1064 18.8107 25.9409C18.8818 25.9126 18.9481 25.8842 19.0239 25.8511C18.8154 25.7282 18.6259 25.7234 18.4174 25.8464C18.4505 25.8936 18.4884 25.9409 18.5358 26.0118C18.479 26.0308 18.4316 26.0544 18.3842 26.0544C18.2373 26.0591 18.0951 26.0497 17.9482 26.0591C17.806 26.0686 17.7681 25.9882 17.7871 25.8795C17.8487 25.4209 17.9293 24.9622 17.9814 24.5036C18.0383 24.0025 18.0999 23.5013 18.1141 22.9954C18.1425 22.083 18.1425 21.1658 18.152 20.2533C18.152 20.0925 18.1283 19.9365 18.1188 19.7758C18.0856 18.9058 18.3652 18.1304 18.8249 17.4024C19.1519 16.887 19.4647 16.3575 19.6921 15.7854C19.8959 15.2748 20.1092 14.7642 20.3272 14.2583C20.6115 13.5822 20.9148 12.9109 21.1849 12.23C21.3365 11.8376 21.4408 11.4263 21.5593 11.0197C21.5782 10.9488 21.564 10.8684 21.564 10.7928C21.5498 10.788 21.5308 10.7833 21.5166 10.7786C21.4882 10.84 21.4503 10.9015 21.4361 10.963C21.3697 11.3223 21.2086 11.6391 21.0427 11.9558C20.8674 12.2915 20.5783 12.3766 20.2276 12.301C20.2182 12.301 20.2087 12.3057 20.1755 12.3104C20.1708 12.3624 20.1613 12.4192 20.166 12.4759C20.1897 12.8399 20.1329 13.204 20.0239 13.5444C19.9006 13.9274 19.7395 14.3009 19.5642 14.6649C19.3936 15.0242 19.2088 15.3835 18.9908 15.7192C18.7396 16.1022 18.4553 16.4662 18.1662 16.8208C17.9956 17.0336 17.7918 17.2227 17.5881 17.4071C17.4601 17.5253 17.3132 17.6293 17.1615 17.7097C16.9341 17.8231 16.6877 17.9035 16.427 18.0075C16.4128 17.8799 16.3891 17.79 16.3891 17.7002C16.3891 15.6436 16.3891 13.5869 16.3844 11.5303C16.3844 11.2892 16.3512 11.0433 16.3559 10.8022C16.3559 10.6935 16.3938 10.5753 16.4554 10.4855C16.6213 10.2396 16.8109 10.093 17.1426 10.0978C18.7017 10.1167 20.2608 10.1025 21.8199 10.1072C24.0756 10.1167 26.3266 10.1261 28.5824 10.1403C28.9899 10.145 29.1652 10.4618 29.3785 10.7502C29.0894 10.8495 29.2079 11.0481 29.2174 11.2277C29.2411 11.6343 29.2979 12.0551 29.2411 12.4523C29.1226 13.3127 29.1605 14.1732 29.1558 15.0337C29.1416 16.8492 29.1321 18.6647 29.1179 20.4802C29.1131 20.8206 29.0799 21.1658 29.0894 21.5062C29.0989 21.7946 29.1558 22.083 29.1795 22.3714C29.1889 22.4848 29.1605 22.5983 29.151 22.7165C29.1273 23.0853 29.1084 23.4541 29.0847 23.8181C29.061 24.1632 29.042 24.5084 29.0136 24.8535C29.0089 24.9102 28.9567 24.9622 28.8951 25.0001C28.8809 25.1514 28.8525 25.3074 28.8572 25.4587C28.8667 25.6714 28.7103 25.6667 28.5824 25.6714C28.1322 25.6903 27.6867 25.6998 27.2365 25.7093C26.047 25.7234 24.8576 25.7282 23.6681 25.7471C23.2132 25.7565 22.7535 25.7991 22.2985 25.8275C22.308 25.8416 22.308 25.8511 22.308 25.8653Z" fill="#EF5243"/>
<path d="M27.6676 41.3442C27.6392 41.3962 27.5918 41.4435 27.5871 41.4955C27.5728 41.6042 27.5776 41.7177 27.5871 41.8264C27.5965 41.9588 27.5207 42.0061 27.4117 42.0108C27.17 42.025 26.9283 42.0345 26.6819 42.0439C26.0185 42.0676 25.355 42.0817 24.6916 42.1148C24.5826 42.1196 24.4783 42.1952 24.3741 42.2425C24.3172 42.2661 24.2651 42.2945 24.1892 42.3323C24.1892 42.2519 24.1892 42.2047 24.1892 42.1385C24.1371 42.129 24.0708 42.1101 24.0044 42.1101C23.0946 42.1101 22.1894 42.1054 21.2795 42.1101C21.1374 42.1101 20.9905 42.1432 20.8483 42.1952C21.3317 42.285 21.815 42.1574 22.3174 42.2283C22.2179 42.356 22.0757 42.3654 21.9525 42.3749C21.4833 42.3985 21.0094 42.408 20.5403 42.4127C20.3318 42.4127 20.1233 42.3938 19.91 42.3796C19.8768 42.3749 19.8294 42.3654 19.8057 42.3418C19.6825 42.1952 19.5261 42.1716 19.3461 42.181C19.1328 42.1905 18.9148 42.1858 18.7016 42.1858C18.6968 42.1999 18.6968 42.2141 18.6921 42.2283C18.7964 42.2519 18.9006 42.2709 19.0049 42.2945C18.8437 42.4647 18.0855 42.4694 17.8486 42.2898C17.8865 42.2661 17.9197 42.2425 17.9623 42.2094C17.9339 42.1952 17.9197 42.1858 17.9102 42.1858C17.7917 42.1905 17.6401 42.1337 17.6116 42.3323C17.6069 42.3512 17.5642 42.3796 17.5358 42.3796C17.1235 42.4032 16.7112 42.4269 16.2942 42.4505C16.2705 42.4505 16.2326 42.4505 16.2184 42.4316C16.0004 42.1905 15.7397 41.9966 15.7397 41.5995C15.754 38.6446 15.754 35.6849 15.7397 32.73C15.7397 32.3328 15.8298 31.9641 15.953 31.5953C16.1189 31.113 16.2847 30.6355 16.4458 30.1485C16.6164 29.6332 16.787 29.1179 16.9482 28.5978C17.0903 28.1439 17.2136 27.6853 17.351 27.2267C17.3747 27.1416 17.4078 27.0612 17.4315 26.9809C17.46 26.8768 17.5405 26.8768 17.6258 26.8768C18.2656 26.8768 18.9053 26.8816 19.5498 26.8768C22.1562 26.8674 24.7579 26.8532 27.3643 26.8438C27.5018 26.8438 27.606 26.8627 27.6818 26.995C27.7624 27.1322 27.8761 27.2503 27.9614 27.3827C27.9946 27.4347 27.9946 27.5293 27.9709 27.5908C27.8856 27.8319 27.933 28.073 27.9377 28.3236C27.952 28.7775 27.9235 29.2313 27.914 29.6852C27.914 29.7278 27.914 29.775 27.914 29.8176C27.914 30.1769 27.9188 30.541 27.914 30.9003C27.9046 31.6189 27.8903 32.3423 27.8809 33.0609C27.8667 33.9923 27.8572 34.9237 27.8477 35.8551C27.8382 36.5548 27.8145 37.2498 27.8193 37.9496C27.8193 38.3183 27.9283 38.6966 27.8667 39.0512C27.7719 39.6185 27.8003 40.1811 27.7766 40.7485C27.7671 40.9518 27.7292 41.1503 27.7008 41.3489C27.6961 41.3489 27.6818 41.3489 27.6676 41.3442Z" fill="#EF5243"/>
<path d="M13.2373 17.4791C13.0999 17.4933 12.9956 17.5122 12.8914 17.5075C12.4175 17.4886 11.9388 17.498 11.4697 17.4319C11.119 17.3846 10.7683 17.2664 10.4413 17.134C10.0338 16.9733 9.63572 16.7841 9.2566 16.5619C8.65002 16.2073 8.06239 15.8102 7.46055 15.4414C7.04826 15.1908 6.70232 14.8693 6.40851 14.4958C6.24738 14.2973 6.12417 14.0656 5.99622 13.8434C5.93462 13.7394 5.88723 13.7488 5.82088 13.8245C5.71189 13.9474 5.62185 13.919 5.51759 13.815C5.31856 13.6117 5.11952 13.4132 4.91575 13.2146C4.88731 13.1862 4.84466 13.1673 4.77832 13.1673C4.83519 13.2477 4.88731 13.3328 4.94892 13.4084C5.55076 14.1791 6.15735 14.9497 6.75919 15.7251C7.01983 16.0608 7.27099 16.4059 7.52216 16.751C7.73067 17.0347 8.01026 17.2475 8.33251 17.3657C8.76375 17.5217 9.21869 17.621 9.65941 17.7439C10.1049 17.8668 10.5219 18.0418 10.8963 18.316C11.2612 18.5855 11.6308 18.8408 11.9767 19.1339C12.3559 19.4554 12.7302 19.7958 13.0714 20.1598C13.4174 20.5286 13.7396 20.921 14.0382 21.3229C14.2751 21.6444 14.3841 22.0179 14.3889 22.4245C14.3936 22.8027 14.4078 23.1762 14.2467 23.5261C14.1093 23.824 13.9576 24.1218 13.7965 24.4102C13.5074 24.9208 13.242 25.4362 13.1804 26.0319C13.1473 26.3581 13.0904 26.6796 13.0525 27.0058C13.0383 27.1335 12.9577 27.1477 12.8534 27.1477C12.2848 27.1477 11.7161 27.1429 11.1474 27.1477C10.7304 27.1524 10.3181 27.1666 9.90109 27.1808C9.56937 27.1949 9.23765 27.2139 8.87749 27.2328C9.09548 27.247 9.28503 27.2611 9.46985 27.2753C9.46985 27.2942 9.47459 27.3131 9.47459 27.3321C9.40825 27.351 9.33716 27.3793 9.27082 27.3793C8.59789 27.3935 7.92496 27.4124 7.25678 27.4077C7.06722 27.4077 6.87766 27.3462 6.67863 27.3084C6.65967 27.3699 6.6881 27.5164 6.52224 27.4786C6.47959 27.4692 6.41799 27.4313 6.40851 27.3982C6.37534 27.2753 6.2853 27.2564 6.18578 27.2517C5.86353 27.2375 5.54602 27.2233 5.22378 27.2186C4.94892 27.2139 4.6788 27.2186 4.36603 27.2186C4.47029 27.2659 4.53663 27.2942 4.60298 27.3273C4.60298 27.3462 4.60298 27.3604 4.60298 27.3793C4.46081 27.403 4.31864 27.4408 4.17647 27.4503C3.74997 27.4692 3.32347 27.4786 2.89697 27.4833C2.83062 27.4833 2.7548 27.4597 2.70267 27.4172C2.4752 27.2517 2.31882 27.0673 2.31882 26.7411C2.33303 24.3866 2.33303 22.0274 2.32356 19.6729C2.30934 17.1718 2.29512 14.6708 2.28564 12.1744C2.28564 11.834 2.61263 11.5125 2.96331 11.5078C3.31399 11.5078 3.66467 11.5078 4.01535 11.5078C6.07678 11.5173 8.14295 11.5315 10.2091 11.5409C11.1095 11.5456 12.0147 11.5362 12.9151 11.5409C13.5501 11.5456 14.1803 11.5598 14.8154 11.574C14.8533 11.574 14.9007 11.6024 14.9338 11.6307C15.0286 11.7017 15.1234 11.7773 15.2182 11.8529C15.3461 11.9522 15.3982 12.0657 15.3935 12.2359C15.3793 12.808 15.3935 13.3801 15.3888 13.9521C15.3793 14.9923 15.3698 16.0371 15.3556 17.0773C15.3509 17.2853 15.3129 17.4933 15.2893 17.7108C15.1186 17.6872 15.0807 17.5642 15.0618 17.4602C14.9765 16.9827 14.9717 16.5005 15.0144 16.0135C15.0476 15.6305 15.0476 15.2428 15.0144 14.8599C14.9907 14.5999 14.8011 14.4155 14.5642 14.2925C14.2846 14.1554 14.0097 14.0278 13.6828 14.0278C13.2041 14.0278 12.9151 14.2925 12.6876 14.666C12.5265 14.9355 12.4222 15.2287 12.3796 15.5454C12.3085 16.0371 12.3322 16.5099 12.6781 16.9023C12.8155 17.0631 12.9956 17.1907 13.152 17.3373C13.1757 17.3704 13.1946 17.4129 13.2373 17.4791Z" fill="#EF5243"/>
<path d="M47.7899 27.7246H43.5885L43.0596 25.8149H38.7113L38.1825 27.7246H33.9811L40.6504 5.98312H41.0912L47.7899 27.7246ZM40.8855 17.8822L39.6515 22.4361H42.1488L40.8855 17.8822ZM57.9319 27.7246H48.8239V7.15833H52.9372V23.7583H57.9319V27.7246ZM68.9552 28.0184C66.6832 28.0184 64.7147 27.5777 63.0498 26.6963C61.4045 25.8149 60.1411 24.5809 59.2597 22.9944C58.3783 21.3882 57.9376 19.5373 57.9376 17.4415C57.9376 15.3457 58.3783 13.5045 59.2597 11.918C60.1411 10.3118 61.4045 9.06806 63.0498 8.18665C64.7147 7.30524 66.6832 6.86453 68.9552 6.86453C70.3655 6.86453 71.7856 7.03102 73.2154 7.364V11.536C72.0206 11.1639 70.7572 10.9778 69.4253 10.9778C67.2512 10.9778 65.5275 11.5556 64.2544 12.7112C62.9812 13.8669 62.3447 15.4436 62.3447 17.4415C62.3447 19.4393 62.9812 21.0161 64.2544 22.1717C65.5275 23.3273 67.2512 23.9052 69.4253 23.9052C70.7572 23.9052 72.0206 23.7191 73.2154 23.3469V27.4896C71.8443 27.8421 70.4243 28.0184 68.9552 28.0184ZM82.7732 12.2999V7.15833H86.8865V27.7246H82.7732V16.1194H79.2476V27.7246H75.1343V7.15833H79.2476V12.2999H82.7732ZM98.2048 27.7246H89.5376V7.15833H98.2048V11.1247H93.6508V13.622H97.7641V17.1477H93.6508V23.7583H98.2048V27.7246ZM107.375 27.7246L104.848 23.2294L104.525 23.2588V27.7246H100.412V7.15833H103.144C104.77 7.15833 106.219 7.49131 107.492 8.15727C108.785 8.82322 109.784 9.77319 110.489 11.0072C111.214 12.2216 111.576 13.6514 111.576 15.2967C111.576 16.6482 111.312 17.8724 110.783 18.9693C110.274 20.0465 109.549 20.9475 108.609 21.6722L112.017 27.7246H107.375ZM107.169 15.2967C107.169 14.1607 106.924 13.2303 106.435 12.5056C105.945 11.7613 105.309 11.3206 104.525 11.1834V19.4393C105.309 19.2826 105.945 18.8321 106.435 18.0878C106.924 17.324 107.169 16.3936 107.169 15.2967ZM117.899 27.7246H113.932V7.15833H117.899V27.7246ZM128.479 12.2999V7.15833H132.592V27.7246H128.479V17.1477L124.954 14.4153V27.7246H120.84V6.86453H121.281L128.479 12.2999ZM142.736 15.3555H150.668V27.2545C149.513 27.7638 147.897 28.0184 145.821 28.0184C143.646 28.0184 141.727 27.5777 140.062 26.6963C138.397 25.7953 137.104 24.5417 136.184 22.9356C135.263 21.3295 134.803 19.4883 134.803 17.4121C134.803 15.3359 135.263 13.5045 136.184 11.918C137.104 10.3118 138.397 9.06806 140.062 8.18665C141.727 7.30524 143.646 6.86453 145.821 6.86453C147.466 6.86453 148.886 7.03102 150.081 7.364V11.3891C148.886 11.017 147.574 10.8309 146.144 10.8309C144.753 10.8309 143.529 11.1051 142.471 11.6535C141.433 12.202 140.63 12.9757 140.062 13.9746C139.494 14.9539 139.21 16.0998 139.21 17.4121C139.21 18.7244 139.494 19.88 140.062 20.879C140.63 21.8779 141.433 22.6614 142.471 23.2294C143.529 23.7778 144.753 24.0521 146.144 24.0521C146.398 24.0521 146.584 24.0423 146.702 24.0227V19.028H142.736V15.3555ZM165.512 27.7246H161.311L160.782 25.8149H156.434L155.905 27.7246H151.704L158.373 5.98312H158.814L165.512 27.7246ZM158.608 17.8822L157.374 22.4361H159.871L158.608 17.8822Z" fill="#EEECD9"/>
<path d="M74.4501 47.2754V36.6984H75.5298V47.2754H74.4501ZM77.8788 47.2754V36.6984H78.9585V47.2754H77.8788ZM83.9737 47.2754V37.7341H80.2791V36.6984H88.748V37.7341H85.0535V47.2754H83.9737ZM96.6602 47.4957C95.9159 47.4957 95.245 47.366 94.6476 47.1065C94.0502 46.8469 93.541 46.4772 93.1199 45.9973C92.7036 45.5175 92.3854 44.9396 92.165 44.2639C91.9446 43.5833 91.8345 42.8243 91.8345 41.9869C91.8345 40.8803 92.0254 39.9156 92.4074 39.093C92.7942 38.2654 93.3476 37.6239 94.0674 37.1685C94.7872 36.7131 95.6515 36.4854 96.6602 36.4854C97.7864 36.4854 98.7021 36.7499 99.4073 37.2787C100.117 37.8027 100.612 38.5078 100.891 39.3941L99.8039 39.6585C99.5738 39.0122 99.1943 38.4956 98.6654 38.1087C98.1415 37.7219 97.4877 37.5284 96.7043 37.5284C95.8767 37.5235 95.1887 37.7096 94.6403 38.0867C94.0919 38.4588 93.6781 38.9828 93.399 39.6585C93.1248 40.3294 92.9852 41.1055 92.9803 41.9869C92.9754 42.8683 93.1101 43.6445 93.3843 44.3153C93.6634 44.9813 94.0796 45.5052 94.633 45.8872C95.1863 46.2642 95.8767 46.4552 96.7043 46.4601C97.4633 46.4601 98.09 46.3132 98.5846 46.0194C99.0792 45.7256 99.4538 45.3045 99.7084 44.756C99.9679 44.2076 100.115 43.5588 100.149 42.8096H97.7106V41.8841H101.28C101.295 41.9967 101.302 42.1167 101.302 42.244C101.307 42.3664 101.31 42.4546 101.31 42.5084C101.31 43.4633 101.138 44.3178 100.795 45.0719C100.453 45.8211 99.9361 46.4136 99.2457 46.8494C98.5601 47.2803 97.6983 47.4957 96.6602 47.4957ZM106.908 47.4957C106.1 47.4957 105.385 47.3293 104.763 46.9963C104.146 46.6633 103.661 46.1932 103.309 45.586C102.956 44.9788 102.78 44.2688 102.78 43.4559V36.7058L103.867 36.6984V43.3164C103.867 43.8648 103.96 44.3398 104.146 44.7413C104.332 45.138 104.574 45.466 104.873 45.7256C105.177 45.9802 105.507 46.1687 105.865 46.2911C106.222 46.4136 106.57 46.4748 106.908 46.4748C107.251 46.4748 107.601 46.4136 107.958 46.2911C108.316 46.1687 108.644 45.9802 108.942 45.7256C109.241 45.466 109.483 45.138 109.67 44.7413C109.856 44.3398 109.949 43.8648 109.949 43.3164V36.6984H111.036V43.4559C111.036 44.2688 110.859 44.9788 110.507 45.586C110.154 46.1883 109.667 46.6584 109.045 46.9963C108.428 47.3293 107.716 47.4957 106.908 47.4957ZM115.364 47.2754L112.309 36.6984H113.432L115.908 45.4318L118.368 36.7058L119.499 36.6984L121.975 45.4318L124.435 36.6984H125.566L122.518 47.2754H121.431L118.934 38.6008L116.451 47.2754H115.364ZM125.07 47.2754L128.714 36.6984H130.146L133.789 47.2754H132.665L129.206 37.3007H129.632L126.194 47.2754H125.07ZM126.694 44.712V43.6983H132.158V44.712H126.694ZM135.115 47.2754V36.6984H136.195V41.4654H142.042V36.6984H143.114V47.2754H142.042V42.5011H136.195V47.2754H135.115ZM144.437 47.2754L148.081 36.6984H149.513L153.156 47.2754H152.032L148.573 37.3007H148.999L145.561 47.2754H144.437ZM146.061 44.712V43.6983H151.525V44.712H146.061ZM156.42 47.2754V37.7341H152.726V36.6984H161.195V37.7341H157.5V47.2754H156.42ZM162.52 47.2754V36.6984H163.599V47.2754H162.52Z" fill="#EEECD9"/>
</svg>
