<svg width="80" height="34" viewBox="0 0 80 34" fill="none" xmlns="http://www.w3.org/2000/svg">
<rect x="10" y="24" width="10" height="10" fill="#FFB261"/>
<rect x="5" y="18" width="10" height="10" fill="#FFB261"/>
<rect x="65" y="18" width="10" height="10" fill="#FFB261"/>
<rect x="5" y="6" width="10" height="10" fill="#FFB261"/>
<rect x="65" y="6" width="10" height="10" fill="#FFB261"/>
<rect width="10" height="10" transform="matrix(-1 0 0 1 70 24)" fill="#FFB261"/>
<rect x="20" y="24" width="10" height="10" fill="#FFB261"/>
<rect x="30" y="24" width="10" height="10" fill="#FFB261"/>
<rect x="40" y="24" width="10" height="10" fill="#FFB261"/>
<rect x="50" y="24" width="10" height="10" fill="#FFB261"/>
<rect x="10" y="12" width="10" height="10" fill="#FFB261"/>
<rect x="10" y="16" width="10" height="10" fill="#FFB261"/>
<rect x="10" y="7" width="10" height="10" fill="#FFB261"/>
<rect width="10" height="10" transform="matrix(-1 0 0 1 70 12)" fill="#FFB261"/>
<rect width="10" height="10" transform="matrix(-1 0 0 1 70 16)" fill="#FFB261"/>
<rect width="10" height="10" transform="matrix(-1 0 0 1 70 7)" fill="#FFB261"/>
<rect x="20" y="12" width="10" height="10" fill="#FFB261"/>
<rect x="20" y="16" width="10" height="10" fill="#FFB261"/>
<rect x="20" y="7" width="10" height="10" fill="#FFB261"/>
<rect x="30" y="12" width="10" height="10" fill="#FFB261"/>
<rect x="30" y="16" width="10" height="10" fill="#FFB261"/>
<rect x="30" y="7" width="10" height="10" fill="#FFB261"/>
<rect x="40" y="12" width="10" height="10" fill="#FFB261"/>
<rect x="40" y="16" width="10" height="10" fill="#FFB261"/>
<rect x="40" y="7" width="10" height="10" fill="#FFB261"/>
<rect x="50" y="12" width="10" height="10" fill="#FFB261"/>
<rect x="50" y="16" width="10" height="10" fill="#FFB261"/>
<rect x="50" y="7" width="10" height="10" fill="#FFB261"/>
<rect y="12" width="10" height="10" fill="#FFB261"/>
<rect width="10" height="10" transform="matrix(-1 0 0 1 80 12)" fill="#FFB261"/>
<rect x="10" width="10" height="10" fill="#FFB261"/>
<rect width="10" height="10" transform="matrix(-1 0 0 1 70 0)" fill="#FFB261"/>
<rect x="20" width="10" height="10" fill="#FFB261"/>
<rect x="30" width="10" height="10" fill="#FFB261"/>
<rect x="40" width="10" height="10" fill="#FFB261"/>
<rect x="50" width="10" height="10" fill="#FFB261"/>
</svg>
