<svg width="192" height="34" viewBox="0 0 192 34" fill="none" xmlns="http://www.w3.org/2000/svg">
<path d="M5.856 23.24C4.70933 23.24 3.736 22.9867 2.936 22.48C2.136 21.9733 1.52533 21.2693 1.104 20.368C0.688 19.4667 0.48 18.424 0.48 17.24C0.48 16.056 0.688 15.0133 1.104 14.112C1.52533 13.2107 2.136 12.5067 2.936 12C3.736 11.4933 4.70933 11.24 5.856 11.24C7.18933 11.24 8.28533 11.5787 9.144 12.256C10.008 12.9333 10.6027 13.8453 10.928 14.992L9.48 15.376C9.24533 14.5173 8.82667 13.84 8.224 13.344C7.62133 12.848 6.832 12.6 5.856 12.6C4.99733 12.6 4.28267 12.7947 3.712 13.184C3.14133 13.5733 2.712 14.1173 2.424 14.816C2.136 15.5093 1.98933 16.3173 1.984 17.24C1.97867 18.1573 2.12 18.9653 2.408 19.664C2.696 20.3573 3.128 20.9013 3.704 21.296C4.28 21.6853 4.99733 21.88 5.856 21.88C6.832 21.88 7.62133 21.632 8.224 21.136C8.82667 20.6347 9.24533 19.9573 9.48 19.104L10.928 19.488C10.6027 20.6293 10.008 21.5413 9.144 22.224C8.28533 22.9013 7.18933 23.24 5.856 23.24ZM16.3625 23.24C15.5038 23.24 14.7625 23.0453 14.1385 22.656C13.5198 22.2667 13.0425 21.728 12.7065 21.04C12.3705 20.352 12.2025 19.5627 12.2025 18.672C12.2025 17.7653 12.3732 16.9707 12.7145 16.288C13.0558 15.6053 13.5385 15.0747 14.1625 14.696C14.7865 14.312 15.5198 14.12 16.3625 14.12C17.2265 14.12 17.9705 14.3147 18.5945 14.704C19.2185 15.088 19.6958 15.624 20.0265 16.312C20.3625 16.9947 20.5305 17.7813 20.5305 18.672C20.5305 19.5733 20.3625 20.368 20.0265 21.056C19.6905 21.7387 19.2105 22.2747 18.5865 22.664C17.9625 23.048 17.2212 23.24 16.3625 23.24ZM16.3625 21.888C17.2585 21.888 17.9252 21.5893 18.3625 20.992C18.7998 20.3947 19.0185 19.6213 19.0185 18.672C19.0185 17.696 18.7972 16.92 18.3545 16.344C17.9118 15.7627 17.2478 15.472 16.3625 15.472C15.7598 15.472 15.2638 15.608 14.8745 15.88C14.4852 16.152 14.1945 16.528 14.0025 17.008C13.8105 17.488 13.7145 18.0427 13.7145 18.672C13.7145 19.6427 13.9385 20.4213 14.3865 21.008C14.8345 21.5947 15.4932 21.888 16.3625 21.888ZM28.4439 23V18.672C28.4439 18.2613 28.4065 17.8667 28.3319 17.488C28.2625 17.1093 28.1372 16.7707 27.9559 16.472C27.7799 16.168 27.5399 15.928 27.2359 15.752C26.9372 15.576 26.5585 15.488 26.0999 15.488C25.7425 15.488 25.4172 15.5493 25.1239 15.672C24.8359 15.7893 24.5879 15.9707 24.3799 16.216C24.1719 16.4613 24.0092 16.7707 23.8919 17.144C23.7799 17.512 23.7239 17.9467 23.7239 18.448L22.7879 18.16C22.7879 17.3227 22.9372 16.6053 23.2359 16.008C23.5399 15.4053 23.9639 14.944 24.5079 14.624C25.0572 14.2987 25.7025 14.136 26.4439 14.136C27.0039 14.136 27.4812 14.224 27.8759 14.4C28.2705 14.576 28.5985 14.8107 28.8599 15.104C29.1212 15.392 29.3265 15.7173 29.4759 16.08C29.6252 16.4373 29.7292 16.8027 29.7879 17.176C29.8519 17.544 29.8839 17.8933 29.8839 18.224V23H28.4439ZM22.2839 23V14.36H23.5639V16.672H23.7239V23H22.2839ZM36.7878 23C36.2758 23.1013 35.7691 23.1413 35.2678 23.12C34.7718 23.104 34.3291 23.0053 33.9398 22.824C33.5504 22.6373 33.2544 22.3493 33.0518 21.96C32.8811 21.6187 32.7878 21.2747 32.7718 20.928C32.7611 20.576 32.7558 20.1787 32.7558 19.736V11.96H34.1798V19.672C34.1798 20.024 34.1824 20.3253 34.1878 20.576C34.1984 20.8267 34.2544 21.0427 34.3558 21.224C34.5478 21.5653 34.8518 21.7653 35.2678 21.824C35.6891 21.8827 36.1958 21.8667 36.7878 21.776V23ZM31.0038 15.536V14.36H36.7878V15.536H31.0038ZM40.9979 23.24C40.3525 23.24 39.8112 23.1227 39.3739 22.888C38.9419 22.648 38.6139 22.3333 38.3899 21.944C38.1712 21.5547 38.0619 21.128 38.0619 20.664C38.0619 20.2107 38.1472 19.8187 38.3179 19.488C38.4939 19.152 38.7392 18.8747 39.0539 18.656C39.3685 18.432 39.7445 18.256 40.1819 18.128C40.5925 18.016 41.0512 17.92 41.5579 17.84C42.0699 17.7547 42.5872 17.6773 43.1099 17.608C43.6325 17.5387 44.1205 17.472 44.5739 17.408L44.0619 17.704C44.0779 16.936 43.9232 16.368 43.5979 16C43.2779 15.632 42.7232 15.448 41.9339 15.448C41.4112 15.448 40.9525 15.568 40.5579 15.808C40.1685 16.0427 39.8939 16.4267 39.7339 16.96L38.3819 16.552C38.5899 15.7947 38.9925 15.2 39.5899 14.768C40.1872 14.336 40.9739 14.12 41.9499 14.12C42.7339 14.12 43.4059 14.2613 43.9659 14.544C44.5312 14.8213 44.9365 15.2427 45.1819 15.808C45.3045 16.0747 45.3819 16.3653 45.4139 16.68C45.4459 16.9893 45.4619 17.3147 45.4619 17.656V23H44.1979V20.928L44.4939 21.12C44.1685 21.8187 43.7125 22.3467 43.1259 22.704C42.5445 23.0613 41.8352 23.24 40.9979 23.24ZM41.2139 22.048C41.7259 22.048 42.1685 21.9573 42.5419 21.776C42.9205 21.5893 43.2245 21.3467 43.4539 21.048C43.6832 20.744 43.8325 20.4133 43.9019 20.056C43.9819 19.7893 44.0245 19.4933 44.0299 19.168C44.0405 18.8373 44.0459 18.584 44.0459 18.408L44.5419 18.624C44.0779 18.688 43.6219 18.7493 43.1739 18.808C42.7259 18.8667 42.3019 18.9307 41.9019 19C41.5019 19.064 41.1419 19.1413 40.8219 19.232C40.5872 19.3067 40.3659 19.4027 40.1579 19.52C39.9552 19.6373 39.7899 19.7893 39.6619 19.976C39.5392 20.1573 39.4779 20.384 39.4779 20.656C39.4779 20.8907 39.5365 21.1147 39.6539 21.328C39.7765 21.5413 39.9632 21.7147 40.2139 21.848C40.4699 21.9813 40.8032 22.048 41.2139 22.048ZM51.1819 23.24C50.3072 23.24 49.5632 23.0453 48.9499 22.656C48.3419 22.2613 47.8779 21.72 47.5579 21.032C47.2379 20.344 47.0725 19.56 47.0619 18.68C47.0725 17.7787 47.2405 16.9867 47.5659 16.304C47.8965 15.616 48.3685 15.08 48.9819 14.696C49.5952 14.312 50.3339 14.12 51.1979 14.12C52.1099 14.12 52.8939 14.344 53.5499 14.792C54.2112 15.24 54.6539 15.8533 54.8779 16.632L53.4699 17.056C53.2885 16.5547 52.9925 16.1653 52.5819 15.888C52.1765 15.6107 51.7099 15.472 51.1819 15.472C50.5899 15.472 50.1019 15.6107 49.7179 15.888C49.3339 16.16 49.0485 16.5387 48.8619 17.024C48.6752 17.504 48.5792 18.056 48.5739 18.68C48.5845 19.64 48.8059 20.416 49.2379 21.008C49.6752 21.5947 50.3232 21.888 51.1819 21.888C51.7472 21.888 52.2165 21.76 52.5899 21.504C52.9632 21.2427 53.2459 20.8667 53.4379 20.376L54.8779 20.752C54.5792 21.5573 54.1125 22.1733 53.4779 22.6C52.8432 23.0267 52.0779 23.24 51.1819 23.24ZM61.3346 23C60.8226 23.1013 60.316 23.1413 59.8146 23.12C59.3186 23.104 58.876 23.0053 58.4866 22.824C58.0973 22.6373 57.8013 22.3493 57.5986 21.96C57.428 21.6187 57.3346 21.2747 57.3186 20.928C57.308 20.576 57.3026 20.1787 57.3026 19.736V11.96H58.7266V19.672C58.7266 20.024 58.7293 20.3253 58.7346 20.576C58.7453 20.8267 58.8013 21.0427 58.9026 21.224C59.0946 21.5653 59.3986 21.7653 59.8146 21.824C60.236 21.8827 60.7426 21.8667 61.3346 21.776V23ZM55.5506 15.536V14.36H61.3346V15.536H55.5506ZM69.5719 23.224C69.0172 23.224 68.5399 23.136 68.1399 22.96C67.7452 22.784 67.4172 22.5493 67.1559 22.256C66.8945 21.9627 66.6892 21.6373 66.5399 21.28C66.3905 20.9227 66.2839 20.5573 66.2199 20.184C66.1612 19.8107 66.1319 19.4613 66.1319 19.136V14.36H67.5719V18.688C67.5719 19.0933 67.6092 19.4853 67.6839 19.864C67.7585 20.2427 67.8839 20.584 68.0599 20.888C68.2412 21.192 68.4812 21.432 68.7799 21.608C69.0839 21.784 69.4625 21.872 69.9159 21.872C70.2732 21.872 70.5985 21.8107 70.8919 21.688C71.1852 21.5653 71.4359 21.384 71.6439 21.144C71.8519 20.8987 72.0119 20.5893 72.1239 20.216C72.2359 19.8427 72.2919 19.408 72.2919 18.912L73.2279 19.2C73.2279 20.032 73.0759 20.7493 72.7719 21.352C72.4732 21.9547 72.0492 22.4187 71.4999 22.744C70.9559 23.064 70.3132 23.224 69.5719 23.224ZM72.4519 23V20.688H72.2919V14.36H73.7239V23H72.4519ZM79.2278 23.232C78.1984 23.232 77.3531 23.008 76.6918 22.56C76.0358 22.1067 75.6331 21.4747 75.4838 20.664L76.9398 20.432C77.0571 20.9013 77.3264 21.2747 77.7478 21.552C78.1691 21.824 78.6918 21.96 79.3158 21.96C79.9078 21.96 80.3718 21.8373 80.7078 21.592C81.0438 21.3467 81.2118 21.0133 81.2118 20.592C81.2118 20.3467 81.1558 20.1493 81.0438 20C80.9318 19.8453 80.6998 19.7013 80.3478 19.568C80.0011 19.4347 79.4758 19.2747 78.7718 19.088C78.0091 18.8853 77.4091 18.6747 76.9718 18.456C76.5344 18.2373 76.2224 17.984 76.0358 17.696C75.8491 17.408 75.7558 17.0587 75.7558 16.648C75.7558 16.1413 75.8944 15.6987 76.1718 15.32C76.4491 14.936 76.8358 14.64 77.3318 14.432C77.8331 14.224 78.4144 14.12 79.0758 14.12C79.7318 14.12 80.3184 14.224 80.8358 14.432C81.3531 14.64 81.7691 14.936 82.0838 15.32C82.4038 15.6987 82.5931 16.1413 82.6518 16.648L81.1958 16.912C81.1264 16.448 80.9024 16.0827 80.5238 15.816C80.1504 15.5493 79.6678 15.408 79.0758 15.392C78.5158 15.3707 78.0598 15.4693 77.7078 15.688C77.3611 15.9067 77.1878 16.2027 77.1878 16.576C77.1878 16.784 77.2518 16.9627 77.3798 17.112C77.5131 17.2613 77.7558 17.4027 78.1078 17.536C78.4651 17.6693 78.9824 17.8213 79.6598 17.992C80.4224 18.184 81.0224 18.3947 81.4598 18.624C81.9024 18.848 82.2171 19.1147 82.4038 19.424C82.5904 19.728 82.6838 20.104 82.6838 20.552C82.6838 21.384 82.3771 22.04 81.7638 22.52C81.1504 22.9947 80.3051 23.232 79.2278 23.232Z" fill="#EEECD9"/>
<rect x="122" y="24" width="10" height="10" fill="#FFB261"/>
<rect x="117" y="18" width="10" height="10" fill="#FFB261"/>
<rect x="177" y="18" width="10" height="10" fill="#FFB261"/>
<rect x="117" y="6" width="10" height="10" fill="#FFB261"/>
<rect x="177" y="6" width="10" height="10" fill="#FFB261"/>
<rect width="10" height="10" transform="matrix(-1 0 0 1 182 24)" fill="#FFB261"/>
<rect x="132" y="24" width="10" height="10" fill="#FFB261"/>
<rect x="142" y="24" width="10" height="10" fill="#FFB261"/>
<rect x="152" y="24" width="10" height="10" fill="#FFB261"/>
<rect x="162" y="24" width="10" height="10" fill="#FFB261"/>
<rect x="122" y="12" width="10" height="10" fill="#FFB261"/>
<rect x="122" y="16" width="10" height="10" fill="#FFB261"/>
<rect x="122" y="7" width="10" height="10" fill="#FFB261"/>
<rect width="10" height="10" transform="matrix(-1 0 0 1 182 12)" fill="#FFB261"/>
<rect width="10" height="10" transform="matrix(-1 0 0 1 182 16)" fill="#FFB261"/>
<rect width="10" height="10" transform="matrix(-1 0 0 1 182 7)" fill="#FFB261"/>
<rect x="132" y="12" width="10" height="10" fill="#FFB261"/>
<rect x="132" y="16" width="10" height="10" fill="#FFB261"/>
<rect x="132" y="7" width="10" height="10" fill="#FFB261"/>
<rect x="142" y="12" width="10" height="10" fill="#FFB261"/>
<rect x="142" y="16" width="10" height="10" fill="#FFB261"/>
<rect x="142" y="7" width="10" height="10" fill="#FFB261"/>
<rect x="152" y="12" width="10" height="10" fill="#FFB261"/>
<rect x="152" y="16" width="10" height="10" fill="#FFB261"/>
<rect x="152" y="7" width="10" height="10" fill="#FFB261"/>
<rect x="162" y="12" width="10" height="10" fill="#FFB261"/>
<rect x="162" y="16" width="10" height="10" fill="#FFB261"/>
<rect x="162" y="7" width="10" height="10" fill="#FFB261"/>
<rect x="112" y="12" width="10" height="10" fill="#FFB261"/>
<rect width="10" height="10" transform="matrix(-1 0 0 1 192 12)" fill="#FFB261"/>
<rect x="122" width="10" height="10" fill="#FFB261"/>
<rect width="10" height="10" transform="matrix(-1 0 0 1 182 0)" fill="#FFB261"/>
<rect x="132" width="10" height="10" fill="#FFB261"/>
<rect x="142" width="10" height="10" fill="#FFB261"/>
<rect x="152" width="10" height="10" fill="#FFB261"/>
<rect x="162" width="10" height="10" fill="#FFB261"/>
<path d="M132.28 23V11.48H133.952V21.424H139.168V23H132.28ZM144.278 23.24C143.414 23.24 142.665 23.0453 142.03 22.656C141.396 22.2667 140.905 21.7307 140.558 21.048C140.217 20.36 140.046 19.568 140.046 18.672C140.046 17.7707 140.222 16.9787 140.574 16.296C140.926 15.608 141.42 15.0747 142.054 14.696C142.689 14.312 143.43 14.12 144.278 14.12C145.142 14.12 145.892 14.3147 146.526 14.704C147.161 15.0933 147.652 15.6293 147.998 16.312C148.345 16.9947 148.518 17.7813 148.518 18.672C148.518 19.5733 148.342 20.368 147.99 21.056C147.644 21.7387 147.153 22.2747 146.518 22.664C145.884 23.048 145.137 23.24 144.278 23.24ZM144.278 21.664C145.105 21.664 145.721 21.3867 146.126 20.832C146.537 20.272 146.742 19.552 146.742 18.672C146.742 17.7707 146.534 17.0507 146.118 16.512C145.708 15.968 145.094 15.696 144.278 15.696C143.718 15.696 143.257 15.824 142.894 16.08C142.532 16.3307 142.262 16.68 142.086 17.128C141.91 17.5707 141.822 18.0853 141.822 18.672C141.822 19.5787 142.03 20.304 142.446 20.848C142.862 21.392 143.473 21.664 144.278 21.664ZM153.836 27.08C153.372 27.08 152.922 27.008 152.484 26.864C152.052 26.72 151.658 26.5067 151.3 26.224C150.943 25.9467 150.647 25.6027 150.412 25.192L151.956 24.408C152.143 24.776 152.41 25.0453 152.756 25.216C153.103 25.3867 153.468 25.472 153.852 25.472C154.327 25.472 154.732 25.3867 155.068 25.216C155.404 25.0507 155.658 24.8 155.828 24.464C156.004 24.128 156.09 23.712 156.084 23.216V20.8H156.284V14.36H157.764V23.232C157.764 23.4613 157.756 23.68 157.74 23.888C157.724 24.096 157.695 24.304 157.652 24.512C157.53 25.0933 157.295 25.5733 156.948 25.952C156.607 26.3307 156.17 26.6133 155.636 26.8C155.108 26.9867 154.508 27.08 153.836 27.08ZM153.708 23.24C152.903 23.24 152.207 23.04 151.62 22.64C151.039 22.24 150.588 21.696 150.268 21.008C149.954 20.3147 149.796 19.536 149.796 18.672C149.796 17.8027 149.956 17.0267 150.276 16.344C150.596 15.656 151.05 15.1147 151.636 14.72C152.228 14.32 152.93 14.12 153.74 14.12C154.556 14.12 155.242 14.32 155.796 14.72C156.356 15.1147 156.778 15.656 157.06 16.344C157.348 17.032 157.492 17.808 157.492 18.672C157.492 19.536 157.348 20.312 157.06 21C156.772 21.688 156.348 22.2347 155.788 22.64C155.228 23.04 154.535 23.24 153.708 23.24ZM153.94 21.728C154.49 21.728 154.938 21.5973 155.284 21.336C155.631 21.0747 155.884 20.7147 156.044 20.256C156.204 19.7973 156.284 19.2693 156.284 18.672C156.284 18.0747 156.202 17.5467 156.036 17.088C155.876 16.6293 155.626 16.272 155.284 16.016C154.948 15.76 154.519 15.632 153.996 15.632C153.442 15.632 152.986 15.768 152.628 16.04C152.271 16.312 152.004 16.6773 151.828 17.136C151.658 17.5947 151.572 18.1067 151.572 18.672C151.572 19.2427 151.658 19.76 151.828 20.224C152.004 20.6827 152.266 21.048 152.612 21.32C152.964 21.592 153.407 21.728 153.94 21.728ZM160.171 12.944V11.32H161.843V12.944H160.171ZM160.171 23V14.36H161.843V23H160.171ZM170.309 23V18.752C170.309 18.416 170.28 18.072 170.221 17.72C170.168 17.3627 170.061 17.032 169.901 16.728C169.746 16.424 169.525 16.1787 169.237 15.992C168.954 15.8053 168.584 15.712 168.125 15.712C167.826 15.712 167.544 15.7627 167.277 15.864C167.01 15.96 166.776 16.1173 166.573 16.336C166.376 16.5547 166.218 16.8427 166.101 17.2C165.989 17.5573 165.933 17.992 165.933 18.504L164.893 18.112C164.893 17.328 165.04 16.6373 165.333 16.04C165.626 15.4373 166.048 14.968 166.597 14.632C167.146 14.296 167.81 14.128 168.589 14.128C169.186 14.128 169.688 14.224 170.093 14.416C170.498 14.608 170.826 14.8613 171.077 15.176C171.333 15.4853 171.528 15.824 171.661 16.192C171.794 16.56 171.885 16.92 171.933 17.272C171.981 17.624 172.005 17.9333 172.005 18.2V23H170.309ZM164.237 23V14.36H165.733V16.856H165.933V23H164.237Z" fill="#090909"/>
</svg>
