<svg width="17" height="20" viewBox="0 0 17 20" fill="none" xmlns="http://www.w3.org/2000/svg">
<rect x="13.667" y="3.33356" width="2.66662" height="2.66662" transform="rotate(-180 13.667 3.33356)" fill="#EF5243"/>
<rect x="16.335" y="3.33371" width="2.66662" height="2.66662" transform="rotate(-180 16.335 3.33371)" fill="#EF5243"/>
<rect x="13.667" y="6.00093" width="2.66662" height="2.66662" transform="rotate(-180 13.667 6.00093)" fill="#EF5243"/>
<rect x="16.335" y="6.00071" width="2.66662" height="2.66662" transform="rotate(-180 16.335 6.00071)" fill="#EF5243"/>
<rect x="13.667" y="8.66769" width="2.66662" height="2.66662" transform="rotate(-180 13.667 8.66769)" fill="#EF5243"/>
<rect x="16.335" y="8.6677" width="2.66662" height="2.66662" transform="rotate(-180 16.335 8.6677)" fill="#EF5243"/>
<rect x="13.667" y="11.3345" width="2.66662" height="2.66662" transform="rotate(-180 13.667 11.3345)" fill="#EF5243"/>
<rect x="16.335" y="11.3347" width="2.66662" height="2.66662" transform="rotate(-180 16.335 11.3347)" fill="#EF5243"/>
<rect x="13.667" y="14.0018" width="2.66662" height="2.66662" transform="rotate(-180 13.667 14.0018)" fill="#EF5243"/>
<rect x="11.001" y="3.33356" width="2.66662" height="2.66662" transform="rotate(-180 11.001 3.33356)" fill="#EF5243"/>
<rect x="11.001" y="6.00093" width="2.66662" height="2.66662" transform="rotate(-180 11.001 6.00093)" fill="#EF5243"/>
<rect x="11.001" y="8.66769" width="2.66662" height="2.66662" transform="rotate(-180 11.001 8.66769)" fill="#EF5243"/>
<rect x="11.001" y="11.3345" width="2.66662" height="2.66662" transform="rotate(-180 11.001 11.3345)" fill="#EF5243"/>
<rect x="11.001" y="14.0018" width="2.66662" height="2.66662" transform="rotate(-180 11.001 14.0018)" fill="#EF5243"/>
<rect x="11.001" y="16.6686" width="2.66662" height="2.66662" transform="rotate(-180 11.001 16.6686)" fill="#EF5243"/>
<rect x="8.33301" y="3.33371" width="2.66662" height="2.66662" transform="rotate(-180 8.33301 3.33371)" fill="#EF5243"/>
<rect x="8.33301" y="6.00071" width="2.66662" height="2.66662" transform="rotate(-180 8.33301 6.00071)" fill="#EF5243"/>
<rect x="8.33301" y="8.6677" width="2.66662" height="2.66662" transform="rotate(-180 8.33301 8.6677)" fill="#EF5243"/>
<rect x="8.33301" y="11.3347" width="2.66662" height="2.66662" transform="rotate(-180 8.33301 11.3347)" fill="#EF5243"/>
<rect x="8.33301" y="14.0017" width="2.66662" height="2.66662" transform="rotate(-180 8.33301 14.0017)" fill="#EF5243"/>
<rect x="8.33301" y="16.6687" width="2.66662" height="2.66662" transform="rotate(-180 8.33301 16.6687)" fill="#EF5243"/>
<rect x="9.66699" y="19.3357" width="2.66662" height="2.66662" transform="rotate(-180 9.66699 19.3357)" fill="#EF5243"/>
<rect x="5.66699" y="3.33371" width="2.66662" height="2.66662" transform="rotate(-180 5.66699 3.33371)" fill="#EF5243"/>
<rect x="5.66699" y="6.00071" width="2.66662" height="2.66662" transform="rotate(-180 5.66699 6.00071)" fill="#EF5243"/>
<rect x="5.66699" y="8.6677" width="2.66662" height="2.66662" transform="rotate(-180 5.66699 8.6677)" fill="#EF5243"/>
<rect x="2.99902" y="3.33371" width="2.66662" height="2.66662" transform="rotate(-180 2.99902 3.33371)" fill="#EF5243"/>
<rect x="2.99902" y="6.00071" width="2.66662" height="2.66662" transform="rotate(-180 2.99902 6.00071)" fill="#EF5243"/>
<rect x="2.99902" y="8.6677" width="2.66662" height="2.66662" transform="rotate(-180 2.99902 8.6677)" fill="#EF5243"/>
<rect x="5.66699" y="11.3347" width="2.66662" height="2.66662" transform="rotate(-180 5.66699 11.3347)" fill="#EF5243"/>
<rect x="2.99902" y="11.3347" width="2.66662" height="2.66662" transform="rotate(-180 2.99902 11.3347)" fill="#EF5243"/>
<rect x="5.66699" y="14.0017" width="2.66662" height="2.66662" transform="rotate(-180 5.66699 14.0017)" fill="#EF5243"/>
</svg>
