<svg width="970" height="60" viewBox="0 0 970 60" fill="none" xmlns="http://www.w3.org/2000/svg">
<rect x="10" width="10" height="10" fill="#171717"/>
<rect x="20" width="10" height="10" fill="#171717"/>
<rect x="30" width="10" height="10" fill="#171717"/>
<rect x="40" width="10" height="10" fill="#171717"/>
<rect x="50" width="10" height="10" fill="#171717"/>
<rect x="60" width="10" height="10" fill="#171717"/>
<rect x="70" width="10" height="10" fill="#171717"/>
<rect x="80" width="10" height="10" fill="#171717"/>
<rect x="90" width="10" height="10" fill="#171717"/>
<rect x="100" width="10" height="10" fill="#171717"/>
<rect x="110" width="10" height="10" fill="#171717"/>
<rect x="120" width="10" height="10" fill="#171717"/>
<rect x="130" width="10" height="10" fill="#171717"/>
<rect x="140" width="10" height="10" fill="#171717"/>
<rect x="150" width="10" height="10" fill="#171717"/>
<rect x="160" width="10" height="10" fill="#171717"/>
<rect x="170" width="10" height="10" fill="#171717"/>
<rect x="180" width="10" height="10" fill="#171717"/>
<rect x="190" width="10" height="10" fill="#171717"/>
<rect x="200" width="10" height="10" fill="#171717"/>
<rect x="210" width="10" height="10" fill="#171717"/>
<rect x="220" width="10" height="10" fill="#171717"/>
<rect x="230" width="10" height="10" fill="#171717"/>
<rect x="240" width="10" height="10" fill="#171717"/>
<rect x="250" width="10" height="10" fill="#171717"/>
<rect x="260" width="10" height="10" fill="#171717"/>
<rect x="270" width="10" height="10" fill="#171717"/>
<rect x="280" width="10" height="10" fill="#171717"/>
<rect x="290" width="10" height="10" fill="#171717"/>
<rect x="300" width="10" height="10" fill="#171717"/>
<rect x="310" width="10" height="10" fill="#171717"/>
<rect x="320" width="10" height="10" fill="#171717"/>
<rect x="330" width="10" height="10" fill="#171717"/>
<rect x="340" width="10" height="10" fill="#171717"/>
<rect x="350" width="10" height="10" fill="#171717"/>
<rect x="360" width="10" height="10" fill="#171717"/>
<rect x="370" width="10" height="10" fill="#171717"/>
<rect x="380" width="10" height="10" fill="#171717"/>
<rect x="390" width="10" height="10" fill="#171717"/>
<rect x="400" width="10" height="10" fill="#171717"/>
<rect x="410" width="10" height="10" fill="#171717"/>
<rect x="420" width="10" height="10" fill="#171717"/>
<rect x="430" width="10" height="10" fill="#171717"/>
<rect x="440" width="10" height="10" fill="#171717"/>
<rect x="450" width="10" height="10" fill="#171717"/>
<rect x="460" width="10" height="10" fill="#171717"/>
<rect x="470" width="10" height="10" fill="#171717"/>
<rect x="480" width="10" height="10" fill="#171717"/>
<rect x="490" width="10" height="10" fill="#171717"/>
<rect x="500" width="10" height="10" fill="#171717"/>
<rect x="510" width="10" height="10" fill="#171717"/>
<rect x="520" width="10" height="10" fill="#171717"/>
<rect x="530" width="10" height="10" fill="#171717"/>
<rect x="540" width="10" height="10" fill="#171717"/>
<rect x="550" width="10" height="10" fill="#171717"/>
<rect x="560" width="10" height="10" fill="#171717"/>
<rect x="570" width="10" height="10" fill="#171717"/>
<rect x="580" width="10" height="10" fill="#171717"/>
<rect x="590" width="10" height="10" fill="#171717"/>
<rect x="600" width="10" height="10" fill="#171717"/>
<rect x="610" width="10" height="10" fill="#171717"/>
<rect x="620" width="10" height="10" fill="#171717"/>
<rect x="630" width="10" height="10" fill="#171717"/>
<rect x="640" width="10" height="10" fill="#171717"/>
<rect x="650" width="10" height="10" fill="#171717"/>
<rect x="660" width="10" height="10" fill="#171717"/>
<rect x="670" width="10" height="10" fill="#171717"/>
<rect x="680" width="10" height="10" fill="#171717"/>
<rect x="690" width="10" height="10" fill="#171717"/>
<rect x="700" width="10" height="10" fill="#171717"/>
<rect x="710" width="10" height="10" fill="#171717"/>
<rect x="720" width="10" height="10" fill="#171717"/>
<rect x="730" width="10" height="10" fill="#171717"/>
<rect x="740" width="10" height="10" fill="#171717"/>
<rect x="750" width="10" height="10" fill="#171717"/>
<rect x="760" width="10" height="10" fill="#171717"/>
<rect x="770" width="10" height="10" fill="#171717"/>
<rect x="780" width="10" height="10" fill="#171717"/>
<rect x="790" width="10" height="10" fill="#171717"/>
<rect x="800" width="10" height="10" fill="#171717"/>
<rect x="810" width="10" height="10" fill="#171717"/>
<rect x="820" width="10" height="10" fill="#171717"/>
<rect x="830" width="10" height="10" fill="#171717"/>
<rect x="840" width="10" height="10" fill="#171717"/>
<rect x="850" width="10" height="10" fill="#171717"/>
<rect x="860" width="10" height="10" fill="#171717"/>
<rect x="870" width="10" height="10" fill="#171717"/>
<rect x="880" width="10" height="10" fill="#171717"/>
<rect x="890" width="10" height="10" fill="#171717"/>
<rect x="900" width="10" height="10" fill="#171717"/>
<rect x="910" width="10" height="10" fill="#171717"/>
<rect x="920" width="10" height="10" fill="#171717"/>
<rect x="930" width="10" height="10" fill="#171717"/>
<rect x="940" width="10" height="10" fill="#171717"/>
<rect x="950" width="10" height="10" fill="#171717"/>
<rect y="10" width="10" height="10" fill="#171717"/>
<rect y="20" width="10" height="10" fill="#171717"/>
<rect y="30" width="10" height="10" fill="#171717"/>
<rect y="40" width="10" height="10" fill="#171717"/>
<rect x="10" y="10" width="10" height="10" fill="#171717"/>
<rect x="10" y="20" width="10" height="10" fill="#171717"/>
<rect x="10" y="30" width="10" height="10" fill="#171717"/>
<rect x="10" y="40" width="10" height="10" fill="#171717"/>
<rect x="10" y="50" width="10" height="10" fill="#171717"/>
<rect x="20" y="10" width="10" height="10" fill="#171717"/>
<rect x="20" y="20" width="10" height="10" fill="#171717"/>
<rect x="20" y="30" width="10" height="10" fill="#171717"/>
<rect x="20" y="40" width="10" height="10" fill="#171717"/>
<rect x="20" y="50" width="10" height="10" fill="#171717"/>
<rect x="30" y="10" width="10" height="10" fill="#171717"/>
<rect x="30" y="20" width="10" height="10" fill="#171717"/>
<rect x="30" y="30" width="10" height="10" fill="#171717"/>
<rect x="30" y="40" width="10" height="10" fill="#171717"/>
<rect x="30" y="50" width="10" height="10" fill="#171717"/>
<rect x="40" y="10" width="10" height="10" fill="#171717"/>
<rect x="40" y="20" width="10" height="10" fill="#171717"/>
<rect x="40" y="30" width="10" height="10" fill="#171717"/>
<rect x="40" y="40" width="10" height="10" fill="#171717"/>
<rect x="40" y="50" width="10" height="10" fill="#171717"/>
<rect x="50" y="10" width="10" height="10" fill="#171717"/>
<rect x="50" y="20" width="10" height="10" fill="#171717"/>
<rect x="50" y="30" width="10" height="10" fill="#171717"/>
<rect x="50" y="40" width="10" height="10" fill="#171717"/>
<rect x="50" y="50" width="10" height="10" fill="#171717"/>
<rect x="60" y="10" width="10" height="10" fill="#171717"/>
<rect x="60" y="20" width="10" height="10" fill="#171717"/>
<rect x="60" y="30" width="10" height="10" fill="#171717"/>
<rect x="60" y="40" width="10" height="10" fill="#171717"/>
<rect x="60" y="50" width="10" height="10" fill="#171717"/>
<rect x="70" y="10" width="10" height="10" fill="#171717"/>
<rect x="70" y="20" width="10" height="10" fill="#171717"/>
<rect x="70" y="30" width="10" height="10" fill="#171717"/>
<rect x="70" y="40" width="10" height="10" fill="#171717"/>
<rect x="70" y="50" width="10" height="10" fill="#171717"/>
<rect x="80" y="10" width="10" height="10" fill="#171717"/>
<rect x="80" y="20" width="10" height="10" fill="#171717"/>
<rect x="80" y="30" width="10" height="10" fill="#171717"/>
<rect x="80" y="40" width="10" height="10" fill="#171717"/>
<rect x="80" y="50" width="10" height="10" fill="#171717"/>
<rect x="90" y="10" width="10" height="10" fill="#171717"/>
<rect x="90" y="20" width="10" height="10" fill="#171717"/>
<rect x="90" y="30" width="10" height="10" fill="#171717"/>
<rect x="90" y="40" width="10" height="10" fill="#171717"/>
<rect x="90" y="50" width="10" height="10" fill="#171717"/>
<rect x="100" y="10" width="10" height="10" fill="#171717"/>
<rect x="100" y="20" width="10" height="10" fill="#171717"/>
<rect x="100" y="30" width="10" height="10" fill="#171717"/>
<rect x="100" y="40" width="10" height="10" fill="#171717"/>
<rect x="100" y="50" width="10" height="10" fill="#171717"/>
<rect x="110" y="10" width="10" height="10" fill="#171717"/>
<rect x="110" y="20" width="10" height="10" fill="#171717"/>
<rect x="110" y="30" width="10" height="10" fill="#171717"/>
<rect x="110" y="40" width="10" height="10" fill="#171717"/>
<rect x="110" y="50" width="10" height="10" fill="#171717"/>
<rect x="120" y="10" width="10" height="10" fill="#171717"/>
<rect x="120" y="20" width="10" height="10" fill="#171717"/>
<rect x="120" y="30" width="10" height="10" fill="#171717"/>
<rect x="120" y="40" width="10" height="10" fill="#171717"/>
<rect x="120" y="50" width="10" height="10" fill="#171717"/>
<rect x="130" y="10" width="10" height="10" fill="#171717"/>
<rect x="130" y="20" width="10" height="10" fill="#171717"/>
<rect x="130" y="30" width="10" height="10" fill="#171717"/>
<rect x="130" y="40" width="10" height="10" fill="#171717"/>
<rect x="130" y="50" width="10" height="10" fill="#171717"/>
<rect x="140" y="10" width="10" height="10" fill="#171717"/>
<rect x="140" y="20" width="10" height="10" fill="#171717"/>
<rect x="140" y="30" width="10" height="10" fill="#171717"/>
<rect x="140" y="40" width="10" height="10" fill="#171717"/>
<rect x="140" y="50" width="10" height="10" fill="#171717"/>
<rect x="150" y="10" width="10" height="10" fill="#171717"/>
<rect x="150" y="20" width="10" height="10" fill="#171717"/>
<rect x="150" y="30" width="10" height="10" fill="#171717"/>
<rect x="150" y="40" width="10" height="10" fill="#171717"/>
<rect x="150" y="50" width="10" height="10" fill="#171717"/>
<rect x="160" y="10" width="10" height="10" fill="#171717"/>
<rect x="160" y="20" width="10" height="10" fill="#171717"/>
<rect x="160" y="30" width="10" height="10" fill="#171717"/>
<rect x="160" y="40" width="10" height="10" fill="#171717"/>
<rect x="160" y="50" width="10" height="10" fill="#171717"/>
<rect x="170" y="10" width="10" height="10" fill="#171717"/>
<rect x="170" y="20" width="10" height="10" fill="#171717"/>
<rect x="170" y="30" width="10" height="10" fill="#171717"/>
<rect x="170" y="40" width="10" height="10" fill="#171717"/>
<rect x="170" y="50" width="10" height="10" fill="#171717"/>
<rect x="180" y="10" width="10" height="10" fill="#171717"/>
<rect x="180" y="20" width="10" height="10" fill="#171717"/>
<rect x="180" y="30" width="10" height="10" fill="#171717"/>
<rect x="180" y="40" width="10" height="10" fill="#171717"/>
<rect x="180" y="50" width="10" height="10" fill="#171717"/>
<rect x="190" y="10" width="10" height="10" fill="#171717"/>
<rect x="190" y="20" width="10" height="10" fill="#171717"/>
<rect x="190" y="30" width="10" height="10" fill="#171717"/>
<rect x="190" y="40" width="10" height="10" fill="#171717"/>
<rect x="190" y="50" width="10" height="10" fill="#171717"/>
<rect x="200" y="10" width="10" height="10" fill="#171717"/>
<rect x="200" y="20" width="10" height="10" fill="#171717"/>
<rect x="200" y="30" width="10" height="10" fill="#171717"/>
<rect x="200" y="40" width="10" height="10" fill="#171717"/>
<rect x="200" y="50" width="10" height="10" fill="#171717"/>
<rect x="210" y="10" width="10" height="10" fill="#171717"/>
<rect x="210" y="20" width="10" height="10" fill="#171717"/>
<rect x="210" y="30" width="10" height="10" fill="#171717"/>
<rect x="210" y="40" width="10" height="10" fill="#171717"/>
<rect x="210" y="50" width="10" height="10" fill="#171717"/>
<rect x="220" y="10" width="10" height="10" fill="#171717"/>
<rect x="220" y="20" width="10" height="10" fill="#171717"/>
<rect x="220" y="30" width="10" height="10" fill="#171717"/>
<rect x="220" y="40" width="10" height="10" fill="#171717"/>
<rect x="220" y="50" width="10" height="10" fill="#171717"/>
<rect x="230" y="10" width="10" height="10" fill="#171717"/>
<rect x="230" y="20" width="10" height="10" fill="#171717"/>
<rect x="230" y="30" width="10" height="10" fill="#171717"/>
<rect x="230" y="40" width="10" height="10" fill="#171717"/>
<rect x="230" y="50" width="10" height="10" fill="#171717"/>
<rect x="240" y="10" width="10" height="10" fill="#171717"/>
<rect x="240" y="20" width="10" height="10" fill="#171717"/>
<rect x="240" y="30" width="10" height="10" fill="#171717"/>
<rect x="240" y="40" width="10" height="10" fill="#171717"/>
<rect x="240" y="50" width="10" height="10" fill="#171717"/>
<rect x="250" y="10" width="10" height="10" fill="#171717"/>
<rect x="250" y="20" width="10" height="10" fill="#171717"/>
<rect x="250" y="30" width="10" height="10" fill="#171717"/>
<rect x="250" y="40" width="10" height="10" fill="#171717"/>
<rect x="250" y="50" width="10" height="10" fill="#171717"/>
<rect x="260" y="10" width="10" height="10" fill="#171717"/>
<rect x="260" y="20" width="10" height="10" fill="#171717"/>
<rect x="260" y="30" width="10" height="10" fill="#171717"/>
<rect x="260" y="40" width="10" height="10" fill="#171717"/>
<rect x="260" y="50" width="10" height="10" fill="#171717"/>
<rect x="270" y="10" width="10" height="10" fill="#171717"/>
<rect x="270" y="20" width="10" height="10" fill="#171717"/>
<rect x="270" y="30" width="10" height="10" fill="#171717"/>
<rect x="270" y="40" width="10" height="10" fill="#171717"/>
<rect x="270" y="50" width="10" height="10" fill="#171717"/>
<rect x="280" y="10" width="10" height="10" fill="#171717"/>
<rect x="280" y="20" width="10" height="10" fill="#171717"/>
<rect x="280" y="30" width="10" height="10" fill="#171717"/>
<rect x="280" y="40" width="10" height="10" fill="#171717"/>
<rect x="280" y="50" width="10" height="10" fill="#171717"/>
<rect x="290" y="10" width="10" height="10" fill="#171717"/>
<rect x="290" y="20" width="10" height="10" fill="#171717"/>
<rect x="290" y="30" width="10" height="10" fill="#171717"/>
<rect x="290" y="40" width="10" height="10" fill="#171717"/>
<rect x="290" y="50" width="10" height="10" fill="#171717"/>
<rect x="300" y="10" width="10" height="10" fill="#171717"/>
<rect x="300" y="20" width="10" height="10" fill="#171717"/>
<rect x="300" y="30" width="10" height="10" fill="#171717"/>
<rect x="300" y="40" width="10" height="10" fill="#171717"/>
<rect x="300" y="50" width="10" height="10" fill="#171717"/>
<rect x="310" y="10" width="10" height="10" fill="#171717"/>
<rect x="310" y="20" width="10" height="10" fill="#171717"/>
<rect x="310" y="30" width="10" height="10" fill="#171717"/>
<rect x="310" y="40" width="10" height="10" fill="#171717"/>
<rect x="310" y="50" width="10" height="10" fill="#171717"/>
<rect x="320" y="10" width="10" height="10" fill="#171717"/>
<rect x="320" y="20" width="10" height="10" fill="#171717"/>
<rect x="320" y="30" width="10" height="10" fill="#171717"/>
<rect x="320" y="40" width="10" height="10" fill="#171717"/>
<rect x="320" y="50" width="10" height="10" fill="#171717"/>
<rect x="330" y="10" width="10" height="10" fill="#171717"/>
<rect x="330" y="20" width="10" height="10" fill="#171717"/>
<rect x="330" y="30" width="10" height="10" fill="#171717"/>
<rect x="330" y="40" width="10" height="10" fill="#171717"/>
<rect x="330" y="50" width="10" height="10" fill="#171717"/>
<rect x="340" y="10" width="10" height="10" fill="#171717"/>
<rect x="340" y="20" width="10" height="10" fill="#171717"/>
<rect x="340" y="30" width="10" height="10" fill="#171717"/>
<rect x="340" y="40" width="10" height="10" fill="#171717"/>
<rect x="340" y="50" width="10" height="10" fill="#171717"/>
<rect x="350" y="10" width="10" height="10" fill="#171717"/>
<rect x="350" y="20" width="10" height="10" fill="#171717"/>
<rect x="350" y="30" width="10" height="10" fill="#171717"/>
<rect x="350" y="40" width="10" height="10" fill="#171717"/>
<rect x="350" y="50" width="10" height="10" fill="#171717"/>
<rect x="360" y="10" width="10" height="10" fill="#171717"/>
<rect x="360" y="20" width="10" height="10" fill="#171717"/>
<rect x="360" y="30" width="10" height="10" fill="#171717"/>
<rect x="360" y="40" width="10" height="10" fill="#171717"/>
<rect x="360" y="50" width="10" height="10" fill="#171717"/>
<rect x="370" y="10" width="10" height="10" fill="#171717"/>
<rect x="370" y="20" width="10" height="10" fill="#171717"/>
<rect x="370" y="30" width="10" height="10" fill="#171717"/>
<rect x="370" y="40" width="10" height="10" fill="#171717"/>
<rect x="370" y="50" width="10" height="10" fill="#171717"/>
<rect x="380" y="10" width="10" height="10" fill="#171717"/>
<rect x="380" y="20" width="10" height="10" fill="#171717"/>
<rect x="380" y="30" width="10" height="10" fill="#171717"/>
<rect x="380" y="40" width="10" height="10" fill="#171717"/>
<rect x="380" y="50" width="10" height="10" fill="#171717"/>
<rect x="390" y="10" width="10" height="10" fill="#171717"/>
<rect x="390" y="20" width="10" height="10" fill="#171717"/>
<rect x="390" y="30" width="10" height="10" fill="#171717"/>
<rect x="390" y="40" width="10" height="10" fill="#171717"/>
<rect x="390" y="50" width="10" height="10" fill="#171717"/>
<rect x="400" y="10" width="10" height="10" fill="#171717"/>
<rect x="400" y="20" width="10" height="10" fill="#171717"/>
<rect x="400" y="30" width="10" height="10" fill="#171717"/>
<rect x="400" y="40" width="10" height="10" fill="#171717"/>
<rect x="400" y="50" width="10" height="10" fill="#171717"/>
<rect x="410" y="10" width="10" height="10" fill="#171717"/>
<rect x="410" y="20" width="10" height="10" fill="#171717"/>
<rect x="410" y="30" width="10" height="10" fill="#171717"/>
<rect x="410" y="40" width="10" height="10" fill="#171717"/>
<rect x="410" y="50" width="10" height="10" fill="#171717"/>
<rect x="420" y="10" width="10" height="10" fill="#171717"/>
<rect x="420" y="20" width="10" height="10" fill="#171717"/>
<rect x="420" y="30" width="10" height="10" fill="#171717"/>
<rect x="420" y="40" width="10" height="10" fill="#171717"/>
<rect x="420" y="50" width="10" height="10" fill="#171717"/>
<rect x="430" y="10" width="10" height="10" fill="#171717"/>
<rect x="430" y="20" width="10" height="10" fill="#171717"/>
<rect x="430" y="30" width="10" height="10" fill="#171717"/>
<rect x="430" y="40" width="10" height="10" fill="#171717"/>
<rect x="430" y="50" width="10" height="10" fill="#171717"/>
<rect x="440" y="10" width="10" height="10" fill="#171717"/>
<rect x="440" y="20" width="10" height="10" fill="#171717"/>
<rect x="440" y="30" width="10" height="10" fill="#171717"/>
<rect x="440" y="40" width="10" height="10" fill="#171717"/>
<rect x="440" y="50" width="10" height="10" fill="#171717"/>
<rect x="450" y="10" width="10" height="10" fill="#171717"/>
<rect x="450" y="20" width="10" height="10" fill="#171717"/>
<rect x="450" y="30" width="10" height="10" fill="#171717"/>
<rect x="450" y="40" width="10" height="10" fill="#171717"/>
<rect x="450" y="50" width="10" height="10" fill="#171717"/>
<rect x="460" y="10" width="10" height="10" fill="#171717"/>
<rect x="460" y="20" width="10" height="10" fill="#171717"/>
<rect x="460" y="30" width="10" height="10" fill="#171717"/>
<rect x="460" y="40" width="10" height="10" fill="#171717"/>
<rect x="460" y="50" width="10" height="10" fill="#171717"/>
<rect x="470" y="10" width="10" height="10" fill="#171717"/>
<rect x="470" y="20" width="10" height="10" fill="#171717"/>
<rect x="470" y="30" width="10" height="10" fill="#171717"/>
<rect x="470" y="40" width="10" height="10" fill="#171717"/>
<rect x="470" y="50" width="10" height="10" fill="#171717"/>
<rect x="480" y="10" width="10" height="10" fill="#171717"/>
<rect x="480" y="20" width="10" height="10" fill="#171717"/>
<rect x="480" y="30" width="10" height="10" fill="#171717"/>
<rect x="480" y="40" width="10" height="10" fill="#171717"/>
<rect x="480" y="50" width="10" height="10" fill="#171717"/>
<rect x="490" y="10" width="10" height="10" fill="#171717"/>
<rect x="490" y="20" width="10" height="10" fill="#171717"/>
<rect x="490" y="30" width="10" height="10" fill="#171717"/>
<rect x="490" y="40" width="10" height="10" fill="#171717"/>
<rect x="490" y="50" width="10" height="10" fill="#171717"/>
<rect x="500" y="10" width="10" height="10" fill="#171717"/>
<rect x="500" y="20" width="10" height="10" fill="#171717"/>
<rect x="500" y="30" width="10" height="10" fill="#171717"/>
<rect x="500" y="40" width="10" height="10" fill="#171717"/>
<rect x="500" y="50" width="10" height="10" fill="#171717"/>
<rect x="510" y="10" width="10" height="10" fill="#171717"/>
<rect x="510" y="20" width="10" height="10" fill="#171717"/>
<rect x="510" y="30" width="10" height="10" fill="#171717"/>
<rect x="510" y="40" width="10" height="10" fill="#171717"/>
<rect x="510" y="50" width="10" height="10" fill="#171717"/>
<rect x="520" y="10" width="10" height="10" fill="#171717"/>
<rect x="520" y="20" width="10" height="10" fill="#171717"/>
<rect x="520" y="30" width="10" height="10" fill="#171717"/>
<rect x="520" y="40" width="10" height="10" fill="#171717"/>
<rect x="520" y="50" width="10" height="10" fill="#171717"/>
<rect x="530" y="10" width="10" height="10" fill="#171717"/>
<rect x="530" y="20" width="10" height="10" fill="#171717"/>
<rect x="530" y="30" width="10" height="10" fill="#171717"/>
<rect x="530" y="40" width="10" height="10" fill="#171717"/>
<rect x="530" y="50" width="10" height="10" fill="#171717"/>
<rect x="540" y="10" width="10" height="10" fill="#171717"/>
<rect x="540" y="20" width="10" height="10" fill="#171717"/>
<rect x="540" y="30" width="10" height="10" fill="#171717"/>
<rect x="540" y="40" width="10" height="10" fill="#171717"/>
<rect x="540" y="50" width="10" height="10" fill="#171717"/>
<rect x="550" y="10" width="10" height="10" fill="#171717"/>
<rect x="550" y="20" width="10" height="10" fill="#171717"/>
<rect x="550" y="30" width="10" height="10" fill="#171717"/>
<rect x="550" y="40" width="10" height="10" fill="#171717"/>
<rect x="550" y="50" width="10" height="10" fill="#171717"/>
<rect x="560" y="10" width="10" height="10" fill="#171717"/>
<rect x="560" y="20" width="10" height="10" fill="#171717"/>
<rect x="560" y="30" width="10" height="10" fill="#171717"/>
<rect x="560" y="40" width="10" height="10" fill="#171717"/>
<rect x="560" y="50" width="10" height="10" fill="#171717"/>
<rect x="570" y="10" width="10" height="10" fill="#171717"/>
<rect x="570" y="20" width="10" height="10" fill="#171717"/>
<rect x="570" y="30" width="10" height="10" fill="#171717"/>
<rect x="570" y="40" width="10" height="10" fill="#171717"/>
<rect x="570" y="50" width="10" height="10" fill="#171717"/>
<rect x="580" y="10" width="10" height="10" fill="#171717"/>
<rect x="580" y="20" width="10" height="10" fill="#171717"/>
<rect x="580" y="30" width="10" height="10" fill="#171717"/>
<rect x="580" y="40" width="10" height="10" fill="#171717"/>
<rect x="580" y="50" width="10" height="10" fill="#171717"/>
<rect x="590" y="10" width="10" height="10" fill="#171717"/>
<rect x="590" y="20" width="10" height="10" fill="#171717"/>
<rect x="590" y="30" width="10" height="10" fill="#171717"/>
<rect x="590" y="40" width="10" height="10" fill="#171717"/>
<rect x="590" y="50" width="10" height="10" fill="#171717"/>
<rect x="600" y="10" width="10" height="10" fill="#171717"/>
<rect x="600" y="20" width="10" height="10" fill="#171717"/>
<rect x="600" y="30" width="10" height="10" fill="#171717"/>
<rect x="600" y="40" width="10" height="10" fill="#171717"/>
<rect x="600" y="50" width="10" height="10" fill="#171717"/>
<rect x="610" y="10" width="10" height="10" fill="#171717"/>
<rect x="610" y="20" width="10" height="10" fill="#171717"/>
<rect x="610" y="30" width="10" height="10" fill="#171717"/>
<rect x="610" y="40" width="10" height="10" fill="#171717"/>
<rect x="610" y="50" width="10" height="10" fill="#171717"/>
<rect x="620" y="10" width="10" height="10" fill="#171717"/>
<rect x="620" y="20" width="10" height="10" fill="#171717"/>
<rect x="620" y="30" width="10" height="10" fill="#171717"/>
<rect x="620" y="40" width="10" height="10" fill="#171717"/>
<rect x="620" y="50" width="10" height="10" fill="#171717"/>
<rect x="630" y="10" width="10" height="10" fill="#171717"/>
<rect x="630" y="20" width="10" height="10" fill="#171717"/>
<rect x="630" y="30" width="10" height="10" fill="#171717"/>
<rect x="630" y="40" width="10" height="10" fill="#171717"/>
<rect x="630" y="50" width="10" height="10" fill="#171717"/>
<rect x="640" y="10" width="10" height="10" fill="#171717"/>
<rect x="640" y="20" width="10" height="10" fill="#171717"/>
<rect x="640" y="30" width="10" height="10" fill="#171717"/>
<rect x="640" y="40" width="10" height="10" fill="#171717"/>
<rect x="640" y="50" width="10" height="10" fill="#171717"/>
<rect x="650" y="10" width="10" height="10" fill="#171717"/>
<rect x="650" y="20" width="10" height="10" fill="#171717"/>
<rect x="650" y="30" width="10" height="10" fill="#171717"/>
<rect x="650" y="40" width="10" height="10" fill="#171717"/>
<rect x="650" y="50" width="10" height="10" fill="#171717"/>
<rect x="660" y="10" width="10" height="10" fill="#171717"/>
<rect x="660" y="20" width="10" height="10" fill="#171717"/>
<rect x="660" y="30" width="10" height="10" fill="#171717"/>
<rect x="660" y="40" width="10" height="10" fill="#171717"/>
<rect x="660" y="50" width="10" height="10" fill="#171717"/>
<rect x="670" y="10" width="10" height="10" fill="#171717"/>
<rect x="670" y="20" width="10" height="10" fill="#171717"/>
<rect x="670" y="30" width="10" height="10" fill="#171717"/>
<rect x="670" y="40" width="10" height="10" fill="#171717"/>
<rect x="670" y="50" width="10" height="10" fill="#171717"/>
<rect x="680" y="10" width="10" height="10" fill="#171717"/>
<rect x="680" y="20" width="10" height="10" fill="#171717"/>
<rect x="680" y="30" width="10" height="10" fill="#171717"/>
<rect x="680" y="40" width="10" height="10" fill="#171717"/>
<rect x="680" y="50" width="10" height="10" fill="#171717"/>
<rect x="690" y="10" width="10" height="10" fill="#171717"/>
<rect x="690" y="20" width="10" height="10" fill="#171717"/>
<rect x="690" y="30" width="10" height="10" fill="#171717"/>
<rect x="690" y="40" width="10" height="10" fill="#171717"/>
<rect x="690" y="50" width="10" height="10" fill="#171717"/>
<rect x="700" y="10" width="10" height="10" fill="#171717"/>
<rect x="700" y="20" width="10" height="10" fill="#171717"/>
<rect x="700" y="30" width="10" height="10" fill="#171717"/>
<rect x="700" y="40" width="10" height="10" fill="#171717"/>
<rect x="700" y="50" width="10" height="10" fill="#171717"/>
<rect x="710" y="10" width="10" height="10" fill="#171717"/>
<rect x="710" y="20" width="10" height="10" fill="#171717"/>
<rect x="710" y="30" width="10" height="10" fill="#171717"/>
<rect x="710" y="40" width="10" height="10" fill="#171717"/>
<rect x="710" y="50" width="10" height="10" fill="#171717"/>
<rect x="720" y="10" width="10" height="10" fill="#171717"/>
<rect x="720" y="20" width="10" height="10" fill="#171717"/>
<rect x="720" y="30" width="10" height="10" fill="#171717"/>
<rect x="720" y="40" width="10" height="10" fill="#171717"/>
<rect x="720" y="50" width="10" height="10" fill="#171717"/>
<rect x="730" y="10" width="10" height="10" fill="#171717"/>
<rect x="730" y="20" width="10" height="10" fill="#171717"/>
<rect x="730" y="30" width="10" height="10" fill="#171717"/>
<rect x="730" y="40" width="10" height="10" fill="#171717"/>
<rect x="730" y="50" width="10" height="10" fill="#171717"/>
<rect x="740" y="10" width="10" height="10" fill="#171717"/>
<rect x="740" y="20" width="10" height="10" fill="#171717"/>
<rect x="740" y="30" width="10" height="10" fill="#171717"/>
<rect x="740" y="40" width="10" height="10" fill="#171717"/>
<rect x="740" y="50" width="10" height="10" fill="#171717"/>
<rect x="750" y="10" width="10" height="10" fill="#171717"/>
<rect x="750" y="20" width="10" height="10" fill="#171717"/>
<rect x="750" y="30" width="10" height="10" fill="#171717"/>
<rect x="750" y="40" width="10" height="10" fill="#171717"/>
<rect x="750" y="50" width="10" height="10" fill="#171717"/>
<rect x="760" y="10" width="10" height="10" fill="#171717"/>
<rect x="760" y="20" width="10" height="10" fill="#171717"/>
<rect x="760" y="30" width="10" height="10" fill="#171717"/>
<rect x="760" y="40" width="10" height="10" fill="#171717"/>
<rect x="760" y="50" width="10" height="10" fill="#171717"/>
<rect x="770" y="10" width="10" height="10" fill="#171717"/>
<rect x="770" y="20" width="10" height="10" fill="#171717"/>
<rect x="770" y="30" width="10" height="10" fill="#171717"/>
<rect x="770" y="40" width="10" height="10" fill="#171717"/>
<rect x="770" y="50" width="10" height="10" fill="#171717"/>
<rect x="780" y="10" width="10" height="10" fill="#171717"/>
<rect x="780" y="20" width="10" height="10" fill="#171717"/>
<rect x="780" y="30" width="10" height="10" fill="#171717"/>
<rect x="780" y="40" width="10" height="10" fill="#171717"/>
<rect x="780" y="50" width="10" height="10" fill="#171717"/>
<rect x="790" y="10" width="10" height="10" fill="#171717"/>
<rect x="790" y="20" width="10" height="10" fill="#171717"/>
<rect x="790" y="30" width="10" height="10" fill="#171717"/>
<rect x="790" y="40" width="10" height="10" fill="#171717"/>
<rect x="790" y="50" width="10" height="10" fill="#171717"/>
<rect x="800" y="10" width="10" height="10" fill="#171717"/>
<rect x="800" y="20" width="10" height="10" fill="#171717"/>
<rect x="800" y="30" width="10" height="10" fill="#171717"/>
<rect x="800" y="40" width="10" height="10" fill="#171717"/>
<rect x="800" y="50" width="10" height="10" fill="#171717"/>
<rect x="810" y="10" width="10" height="10" fill="#171717"/>
<rect x="810" y="20" width="10" height="10" fill="#171717"/>
<rect x="810" y="30" width="10" height="10" fill="#171717"/>
<rect x="810" y="40" width="10" height="10" fill="#171717"/>
<rect x="810" y="50" width="10" height="10" fill="#171717"/>
<rect x="820" y="10" width="10" height="10" fill="#171717"/>
<rect x="820" y="20" width="10" height="10" fill="#171717"/>
<rect x="820" y="30" width="10" height="10" fill="#171717"/>
<rect x="820" y="40" width="10" height="10" fill="#171717"/>
<rect x="820" y="50" width="10" height="10" fill="#171717"/>
<rect x="830" y="10" width="10" height="10" fill="#171717"/>
<rect x="830" y="20" width="10" height="10" fill="#171717"/>
<rect x="830" y="30" width="10" height="10" fill="#171717"/>
<rect x="830" y="40" width="10" height="10" fill="#171717"/>
<rect x="830" y="50" width="10" height="10" fill="#171717"/>
<rect x="840" y="10" width="10" height="10" fill="#171717"/>
<rect x="840" y="20" width="10" height="10" fill="#171717"/>
<rect x="840" y="30" width="10" height="10" fill="#171717"/>
<rect x="840" y="40" width="10" height="10" fill="#171717"/>
<rect x="840" y="50" width="10" height="10" fill="#171717"/>
<rect x="850" y="10" width="10" height="10" fill="#171717"/>
<rect x="850" y="20" width="10" height="10" fill="#171717"/>
<rect x="850" y="30" width="10" height="10" fill="#171717"/>
<rect x="850" y="40" width="10" height="10" fill="#171717"/>
<rect x="850" y="50" width="10" height="10" fill="#171717"/>
<rect x="860" y="10" width="10" height="10" fill="#171717"/>
<rect x="860" y="20" width="10" height="10" fill="#171717"/>
<rect x="860" y="30" width="10" height="10" fill="#171717"/>
<rect x="860" y="40" width="10" height="10" fill="#171717"/>
<rect x="860" y="50" width="10" height="10" fill="#171717"/>
<rect x="870" y="10" width="10" height="10" fill="#171717"/>
<rect x="870" y="20" width="10" height="10" fill="#171717"/>
<rect x="870" y="30" width="10" height="10" fill="#171717"/>
<rect x="870" y="40" width="10" height="10" fill="#171717"/>
<rect x="870" y="50" width="10" height="10" fill="#171717"/>
<rect x="880" y="10" width="10" height="10" fill="#171717"/>
<rect x="880" y="20" width="10" height="10" fill="#171717"/>
<rect x="880" y="30" width="10" height="10" fill="#171717"/>
<rect x="880" y="40" width="10" height="10" fill="#171717"/>
<rect x="880" y="50" width="10" height="10" fill="#171717"/>
<rect x="890" y="10" width="10" height="10" fill="#171717"/>
<rect x="890" y="20" width="10" height="10" fill="#171717"/>
<rect x="890" y="30" width="10" height="10" fill="#171717"/>
<rect x="890" y="40" width="10" height="10" fill="#171717"/>
<rect x="890" y="50" width="10" height="10" fill="#171717"/>
<rect x="900" y="10" width="10" height="10" fill="#171717"/>
<rect x="900" y="20" width="10" height="10" fill="#171717"/>
<rect x="900" y="30" width="10" height="10" fill="#171717"/>
<rect x="900" y="40" width="10" height="10" fill="#171717"/>
<rect x="900" y="50" width="10" height="10" fill="#171717"/>
<rect x="910" y="10" width="10" height="10" fill="#171717"/>
<rect x="910" y="20" width="10" height="10" fill="#171717"/>
<rect x="910" y="30" width="10" height="10" fill="#171717"/>
<rect x="910" y="40" width="10" height="10" fill="#171717"/>
<rect x="910" y="50" width="10" height="10" fill="#171717"/>
<rect x="920" y="10" width="10" height="10" fill="#171717"/>
<rect x="920" y="20" width="10" height="10" fill="#171717"/>
<rect x="920" y="30" width="10" height="10" fill="#171717"/>
<rect x="920" y="40" width="10" height="10" fill="#171717"/>
<rect x="920" y="50" width="10" height="10" fill="#171717"/>
<rect x="930" y="10" width="10" height="10" fill="#171717"/>
<rect x="930" y="20" width="10" height="10" fill="#171717"/>
<rect x="930" y="30" width="10" height="10" fill="#171717"/>
<rect x="930" y="40" width="10" height="10" fill="#171717"/>
<rect x="930" y="50" width="10" height="10" fill="#171717"/>
<rect x="940" y="10" width="10" height="10" fill="#171717"/>
<rect x="940" y="20" width="10" height="10" fill="#171717"/>
<rect x="940" y="30" width="10" height="10" fill="#171717"/>
<rect x="940" y="40" width="10" height="10" fill="#171717"/>
<rect x="940" y="50" width="10" height="10" fill="#171717"/>
<rect x="950" y="10" width="10" height="10" fill="#171717"/>
<rect x="950" y="20" width="10" height="10" fill="#171717"/>
<rect x="950" y="30" width="10" height="10" fill="#171717"/>
<rect x="950" y="40" width="10" height="10" fill="#171717"/>
<rect x="950" y="50" width="10" height="10" fill="#171717"/>
<rect x="960" y="10" width="10" height="10" fill="#171717"/>
<rect x="960" y="20" width="10" height="10" fill="#171717"/>
<rect x="960" y="30" width="10" height="10" fill="#171717"/>
<rect x="960" y="40" width="10" height="10" fill="#171717"/>
</svg>
