<svg width="329" height="27" viewBox="0 0 329 27" fill="none" xmlns="http://www.w3.org/2000/svg">
<path d="M17 21.5H22V19.5C22 17.8431 20.6569 16.5 19 16.5C18.0444 16.5 17.1931 16.9468 16.6438 17.6429M17 21.5H7M17 21.5V19.5C17 18.8438 16.8736 18.217 16.6438 17.6429M7 21.5H2V19.5C2 17.8431 3.34315 16.5 5 16.5C5.95561 16.5 6.80686 16.9468 7.35625 17.6429M7 21.5V19.5C7 18.8438 7.12642 18.217 7.35625 17.6429M7.35625 17.6429C8.0935 15.801 9.89482 14.5 12 14.5C14.1052 14.5 15.9065 15.801 16.6438 17.6429M15 8.5C15 10.1569 13.6569 11.5 12 11.5C10.3431 11.5 9 10.1569 9 8.5C9 6.84315 10.3431 5.5 12 5.5C13.6569 5.5 15 6.84315 15 8.5ZM21 11.5C21 12.6046 20.1046 13.5 19 13.5C17.8954 13.5 17 12.6046 17 11.5C17 10.3954 17.8954 9.5 19 9.5C20.1046 9.5 21 10.3954 21 11.5ZM7 11.5C7 12.6046 6.10457 13.5 5 13.5C3.89543 13.5 3 12.6046 3 11.5C3 10.3954 3.89543 9.5 5 9.5C6.10457 9.5 7 10.3954 7 11.5Z" stroke="#171717" stroke-width="2" stroke-linecap="round" stroke-linejoin="round"/>
<path d="M39.5835 21.3C38.5968 21.3 37.6968 21.1267 36.8835 20.78C36.0702 20.4333 35.3702 19.9367 34.7835 19.29C34.1968 18.6367 33.7435 17.85 33.4235 16.93C33.1102 16.0033 32.9535 14.96 32.9535 13.8C32.9535 12.2667 33.2268 10.94 33.7735 9.82C34.3202 8.7 35.0902 7.83667 36.0835 7.23C37.0768 6.61667 38.2435 6.31 39.5835 6.31C41.1968 6.31 42.4968 6.68667 43.4835 7.44C44.4702 8.18667 45.1502 9.21 45.5235 10.51L43.7235 10.88C43.4235 10.0067 42.9302 9.31 42.2435 8.79C41.5568 8.27 40.7002 8.01 39.6735 8.01C38.6002 8.00333 37.7068 8.24333 36.9935 8.73C36.2868 9.21 35.7535 9.88667 35.3935 10.76C35.0335 11.6333 34.8502 12.6467 34.8435 13.8C34.8368 14.9467 35.0135 15.9533 35.3735 16.82C35.7335 17.6867 36.2702 18.3667 36.9835 18.86C37.7035 19.3467 38.6002 19.5933 39.6735 19.6C40.6002 19.6067 41.3802 19.43 42.0135 19.07C42.6468 18.71 43.1368 18.19 43.4835 17.51C43.8302 16.83 44.0402 16.0133 44.1135 15.06H41.0535V13.59H45.9935C46.0135 13.7233 46.0235 13.8833 46.0235 14.07C46.0302 14.25 46.0335 14.3733 46.0335 14.44C46.0335 15.7533 45.7868 16.93 45.2935 17.97C44.8068 19.0033 44.0835 19.8167 43.1235 20.41C42.1702 21.0033 40.9902 21.3 39.5835 21.3ZM48.0309 21V10.2H49.6209V12.81L49.3609 12.47C49.4875 12.1367 49.6509 11.83 49.8509 11.55C50.0575 11.27 50.2875 11.04 50.5409 10.86C50.8209 10.6333 51.1375 10.46 51.4909 10.34C51.8442 10.22 52.2042 10.15 52.5709 10.13C52.9375 10.1033 53.2809 10.1267 53.6009 10.2V11.87C53.2275 11.77 52.8175 11.7433 52.3709 11.79C51.9242 11.8367 51.5109 12 51.1309 12.28C50.7842 12.5267 50.5142 12.8267 50.3209 13.18C50.1342 13.5333 50.0042 13.9167 49.9309 14.33C49.8575 14.7367 49.8209 15.1533 49.8209 15.58V21H48.0309ZM59.8965 21.3C58.8232 21.3 57.8965 21.0567 57.1165 20.57C56.3432 20.0833 55.7465 19.41 55.3265 18.55C54.9065 17.69 54.6965 16.7033 54.6965 15.59C54.6965 14.4567 54.9098 13.4633 55.3365 12.61C55.7632 11.7567 56.3665 11.0933 57.1465 10.62C57.9265 10.14 58.8432 9.9 59.8965 9.9C60.9765 9.9 61.9065 10.1433 62.6865 10.63C63.4665 11.11 64.0632 11.78 64.4765 12.64C64.8965 13.4933 65.1065 14.4767 65.1065 15.59C65.1065 16.7167 64.8965 17.71 64.4765 18.57C64.0565 19.4233 63.4565 20.0933 62.6765 20.58C61.8965 21.06 60.9698 21.3 59.8965 21.3ZM59.8965 19.61C61.0165 19.61 61.8498 19.2367 62.3965 18.49C62.9432 17.7433 63.2165 16.7767 63.2165 15.59C63.2165 14.37 62.9398 13.4 62.3865 12.68C61.8332 11.9533 61.0032 11.59 59.8965 11.59C59.1432 11.59 58.5232 11.76 58.0365 12.1C57.5498 12.44 57.1865 12.91 56.9465 13.51C56.7065 14.11 56.5865 14.8033 56.5865 15.59C56.5865 16.8033 56.8665 17.7767 57.4265 18.51C57.9865 19.2433 58.8098 19.61 59.8965 19.61ZM71.4082 21.28C70.7149 21.28 70.1182 21.17 69.6182 20.95C69.1249 20.73 68.7149 20.4367 68.3882 20.07C68.0615 19.7033 67.8049 19.2967 67.6182 18.85C67.4315 18.4033 67.2982 17.9467 67.2182 17.48C67.1449 17.0133 67.1082 16.5767 67.1082 16.17V10.2H68.9082V15.61C68.9082 16.1167 68.9549 16.6067 69.0482 17.08C69.1415 17.5533 69.2982 17.98 69.5182 18.36C69.7449 18.74 70.0449 19.04 70.4182 19.26C70.7982 19.48 71.2715 19.59 71.8382 19.59C72.2849 19.59 72.6915 19.5133 73.0582 19.36C73.4249 19.2067 73.7382 18.98 73.9982 18.68C74.2582 18.3733 74.4582 17.9867 74.5982 17.52C74.7382 17.0533 74.8082 16.51 74.8082 15.89L75.9782 16.25C75.9782 17.29 75.7882 18.1867 75.4082 18.94C75.0349 19.6933 74.5049 20.2733 73.8182 20.68C73.1382 21.08 72.3349 21.28 71.4082 21.28ZM75.0082 21V18.11H74.8082V10.2H76.5982V21H75.0082ZM84.358 21.3C83.3447 21.3 82.4914 21.05 81.798 20.55C81.1047 20.0433 80.578 19.36 80.218 18.5C79.8647 17.6333 79.688 16.6633 79.688 15.59C79.688 14.5033 79.8647 13.53 80.218 12.67C80.578 11.81 81.1047 11.1333 81.798 10.64C82.498 10.1467 83.3547 9.9 84.368 9.9C85.368 9.9 86.228 10.15 86.948 10.65C87.6747 11.1433 88.2314 11.82 88.618 12.68C89.0047 13.54 89.198 14.51 89.198 15.59C89.198 16.67 89.0047 17.64 88.618 18.5C88.2314 19.36 87.6747 20.0433 86.948 20.55C86.228 21.05 85.3647 21.3 84.358 21.3ZM79.388 25.8V10.2H80.978V18.15H81.178V25.8H79.388ZM84.138 19.67C84.8514 19.67 85.4414 19.49 85.908 19.13C86.3747 18.77 86.7247 18.2833 86.958 17.67C87.1914 17.05 87.308 16.3567 87.308 15.59C87.308 14.83 87.1914 14.1433 86.958 13.53C86.7314 12.9167 86.378 12.43 85.898 12.07C85.4247 11.71 84.8214 11.53 84.088 11.53C83.388 11.53 82.808 11.7033 82.348 12.05C81.888 12.39 81.5447 12.8667 81.318 13.48C81.0914 14.0867 80.978 14.79 80.978 15.59C80.978 16.3767 81.088 17.08 81.308 17.7C81.5347 18.3133 81.8814 18.7967 82.348 19.15C82.8147 19.4967 83.4114 19.67 84.138 19.67ZM99.0341 6.6H100.844L97.0041 21H95.1941L99.0341 6.6ZM112.555 21.3C111.535 21.3 110.615 21.1267 109.795 20.78C108.982 20.4333 108.308 19.94 107.775 19.3C107.248 18.6533 106.905 17.89 106.745 17.01L108.585 16.72C108.818 17.6267 109.302 18.3367 110.035 18.85C110.775 19.3567 111.645 19.61 112.645 19.61C113.292 19.61 113.875 19.51 114.395 19.31C114.922 19.1033 115.338 18.81 115.645 18.43C115.952 18.05 116.105 17.6 116.105 17.08C116.105 16.76 116.048 16.4867 115.935 16.26C115.828 16.0267 115.678 15.83 115.485 15.67C115.298 15.5033 115.085 15.3633 114.845 15.25C114.605 15.1367 114.355 15.0433 114.095 14.97L110.425 13.88C110.025 13.76 109.638 13.61 109.265 13.43C108.892 13.2433 108.558 13.0133 108.265 12.74C107.972 12.46 107.738 12.1267 107.565 11.74C107.392 11.3467 107.305 10.8833 107.305 10.35C107.305 9.49667 107.525 8.77 107.965 8.17C108.412 7.56333 109.015 7.1 109.775 6.78C110.535 6.46 111.392 6.30333 112.345 6.31C113.312 6.31667 114.175 6.49 114.935 6.83C115.702 7.16333 116.335 7.64333 116.835 8.27C117.342 8.89667 117.682 9.64667 117.855 10.52L115.965 10.85C115.865 10.2633 115.642 9.76 115.295 9.34C114.955 8.91333 114.528 8.58667 114.015 8.36C113.502 8.12667 112.938 8.00667 112.325 8C111.738 7.99333 111.208 8.08667 110.735 8.28C110.262 8.47333 109.885 8.74333 109.605 9.09C109.325 9.43 109.185 9.82333 109.185 10.27C109.185 10.71 109.312 11.0667 109.565 11.34C109.818 11.6067 110.128 11.82 110.495 11.98C110.868 12.1333 111.232 12.26 111.585 12.36L114.325 13.15C114.638 13.2367 114.998 13.3567 115.405 13.51C115.818 13.6633 116.218 13.88 116.605 14.16C116.992 14.4333 117.312 14.8 117.565 15.26C117.818 15.7133 117.945 16.2867 117.945 16.98C117.945 17.6733 117.805 18.29 117.525 18.83C117.252 19.37 116.868 19.8233 116.375 20.19C115.882 20.55 115.308 20.8233 114.655 21.01C114.002 21.2033 113.302 21.3 112.555 21.3ZM124.643 21.3C123.569 21.3 122.643 21.0567 121.863 20.57C121.089 20.0833 120.493 19.41 120.073 18.55C119.653 17.69 119.443 16.7033 119.443 15.59C119.443 14.4567 119.656 13.4633 120.083 12.61C120.509 11.7567 121.113 11.0933 121.893 10.62C122.673 10.14 123.589 9.9 124.643 9.9C125.723 9.9 126.653 10.1433 127.433 10.63C128.213 11.11 128.809 11.78 129.223 12.64C129.643 13.4933 129.853 14.4767 129.853 15.59C129.853 16.7167 129.643 17.71 129.223 18.57C128.803 19.4233 128.203 20.0933 127.423 20.58C126.643 21.06 125.716 21.3 124.643 21.3ZM124.643 19.61C125.763 19.61 126.596 19.2367 127.143 18.49C127.689 17.7433 127.963 16.7767 127.963 15.59C127.963 14.37 127.686 13.4 127.133 12.68C126.579 11.9533 125.749 11.59 124.643 11.59C123.889 11.59 123.269 11.76 122.783 12.1C122.296 12.44 121.933 12.91 121.693 13.51C121.453 14.11 121.333 14.8033 121.333 15.59C121.333 16.8033 121.613 17.7767 122.173 18.51C122.733 19.2433 123.556 19.61 124.643 19.61ZM132.254 21V6.3H134.034V21H132.254ZM141.635 21.3C140.561 21.3 139.635 21.0567 138.855 20.57C138.081 20.0833 137.485 19.41 137.065 18.55C136.645 17.69 136.435 16.7033 136.435 15.59C136.435 14.4567 136.648 13.4633 137.075 12.61C137.501 11.7567 138.105 11.0933 138.885 10.62C139.665 10.14 140.581 9.9 141.635 9.9C142.715 9.9 143.645 10.1433 144.425 10.63C145.205 11.11 145.801 11.78 146.215 12.64C146.635 13.4933 146.845 14.4767 146.845 15.59C146.845 16.7167 146.635 17.71 146.215 18.57C145.795 19.4233 145.195 20.0933 144.415 20.58C143.635 21.06 142.708 21.3 141.635 21.3ZM141.635 19.61C142.755 19.61 143.588 19.2367 144.135 18.49C144.681 17.7433 144.955 16.7767 144.955 15.59C144.955 14.37 144.678 13.4 144.125 12.68C143.571 11.9533 142.741 11.59 141.635 11.59C140.881 11.59 140.261 11.76 139.775 12.1C139.288 12.44 138.925 12.91 138.685 13.51C138.445 14.11 138.325 14.8033 138.325 15.59C138.325 16.8033 138.605 17.7767 139.165 18.51C139.725 19.2433 140.548 19.61 141.635 19.61Z" fill="#171717"/>
<path fill-rule="evenodd" clip-rule="evenodd" d="M208 4.5C204.652 4.5 202 7.07656 202 10.1719C202 12.0004 203.033 14.4859 204.363 16.8872C205.669 19.246 207.182 21.386 208 22.4917C208.818 21.3865 210.331 19.2473 211.637 16.8888C212.967 14.4878 214 12.0021 214 10.1719C214 7.07656 211.348 4.5 208 4.5Z" stroke="#171717" stroke-width="2" stroke-linecap="round" stroke-linejoin="round"/>
<path d="M205 10.5C205 8.84315 206.343 7.5 208 7.5C209.657 7.5 211 8.84315 211 10.5C211 12.1569 209.657 13.5 208 13.5C206.343 13.5 205 12.1569 205 10.5Z" stroke="#171717" stroke-width="2" stroke-linecap="round" stroke-linejoin="round"/>
<path d="M235.625 21.3C234.191 21.3 232.975 20.9833 231.975 20.35C230.975 19.7167 230.211 18.8367 229.685 17.71C229.165 16.5833 228.905 15.28 228.905 13.8C228.905 12.32 229.165 11.0167 229.685 9.89C230.211 8.76333 230.975 7.88333 231.975 7.25C232.975 6.61667 234.191 6.3 235.625 6.3C237.065 6.3 238.285 6.61667 239.285 7.25C240.285 7.88333 241.045 8.76333 241.565 9.89C242.085 11.0167 242.345 12.32 242.345 13.8C242.345 15.28 242.085 16.5833 241.565 17.71C241.045 18.8367 240.285 19.7167 239.285 20.35C238.285 20.9833 237.065 21.3 235.625 21.3ZM235.625 19.6C236.698 19.6067 237.591 19.3667 238.305 18.88C239.025 18.3867 239.561 17.7033 239.915 16.83C240.275 15.9567 240.455 14.9467 240.455 13.8C240.455 12.6467 240.275 11.6367 239.915 10.77C239.561 9.90333 239.025 9.22667 238.305 8.74C237.591 8.25333 236.698 8.00667 235.625 8C234.551 7.99333 233.658 8.23333 232.945 8.72C232.238 9.20667 231.705 9.88667 231.345 10.76C230.985 11.6333 230.801 12.6467 230.795 13.8C230.788 14.9467 230.965 15.9533 231.325 16.82C231.685 17.6867 232.221 18.3667 232.935 18.86C233.655 19.3467 234.551 19.5933 235.625 19.6ZM252.043 21V15.59C252.043 15.0767 251.996 14.5833 251.903 14.11C251.816 13.6367 251.66 13.2133 251.433 12.84C251.213 12.46 250.913 12.16 250.533 11.94C250.16 11.72 249.686 11.61 249.113 11.61C248.666 11.61 248.26 11.6867 247.893 11.84C247.533 11.9867 247.223 12.2133 246.963 12.52C246.703 12.8267 246.5 13.2133 246.353 13.68C246.213 14.14 246.143 14.6833 246.143 15.31L244.973 14.95C244.973 13.9033 245.16 13.0067 245.533 12.26C245.913 11.5067 246.443 10.93 247.123 10.53C247.81 10.1233 248.616 9.92 249.543 9.92C250.243 9.92 250.84 10.03 251.333 10.25C251.826 10.47 252.236 10.7633 252.563 11.13C252.89 11.49 253.146 11.8967 253.333 12.35C253.52 12.7967 253.65 13.2533 253.723 13.72C253.803 14.18 253.843 14.6167 253.843 15.03V21H252.043ZM244.343 21V10.2H245.943V13.09H246.143V21H244.343ZM266.277 21.3C265.29 21.3 264.39 21.1267 263.577 20.78C262.764 20.4333 262.064 19.9367 261.477 19.29C260.89 18.6367 260.437 17.85 260.117 16.93C259.804 16.0033 259.647 14.96 259.647 13.8C259.647 12.2667 259.92 10.94 260.467 9.82C261.014 8.7 261.784 7.83667 262.777 7.23C263.77 6.61667 264.937 6.31 266.277 6.31C267.89 6.31 269.19 6.68667 270.177 7.44C271.164 8.18667 271.844 9.21 272.217 10.51L270.417 10.88C270.117 10.0067 269.624 9.31 268.937 8.79C268.25 8.27 267.394 8.01 266.367 8.01C265.294 8.00333 264.4 8.24333 263.687 8.73C262.98 9.21 262.447 9.88667 262.087 10.76C261.727 11.6333 261.544 12.6467 261.537 13.8C261.53 14.9467 261.707 15.9533 262.067 16.82C262.427 17.6867 262.964 18.3667 263.677 18.86C264.397 19.3467 265.294 19.5933 266.367 19.6C267.294 19.6067 268.074 19.43 268.707 19.07C269.34 18.71 269.83 18.19 270.177 17.51C270.524 16.83 270.734 16.0133 270.807 15.06H267.747V13.59H272.687C272.707 13.7233 272.717 13.8833 272.717 14.07C272.724 14.25 272.727 14.3733 272.727 14.44C272.727 15.7533 272.48 16.93 271.987 17.97C271.5 19.0033 270.777 19.8167 269.817 20.41C268.864 21.0033 267.684 21.3 266.277 21.3ZM274.724 21V10.2H276.314V12.81L276.054 12.47C276.181 12.1367 276.344 11.83 276.544 11.55C276.751 11.27 276.981 11.04 277.234 10.86C277.514 10.6333 277.831 10.46 278.184 10.34C278.538 10.22 278.898 10.15 279.264 10.13C279.631 10.1033 279.974 10.1267 280.294 10.2V11.87C279.921 11.77 279.511 11.7433 279.064 11.79C278.618 11.8367 278.204 12 277.824 12.28C277.478 12.5267 277.208 12.8267 277.014 13.18C276.828 13.5333 276.698 13.9167 276.624 14.33C276.551 14.7367 276.514 15.1533 276.514 15.58V21H274.724ZM286.59 21.3C285.517 21.3 284.59 21.0567 283.81 20.57C283.037 20.0833 282.44 19.41 282.02 18.55C281.6 17.69 281.39 16.7033 281.39 15.59C281.39 14.4567 281.603 13.4633 282.03 12.61C282.457 11.7567 283.06 11.0933 283.84 10.62C284.62 10.14 285.537 9.9 286.59 9.9C287.67 9.9 288.6 10.1433 289.38 10.63C290.16 11.11 290.757 11.78 291.17 12.64C291.59 13.4933 291.8 14.4767 291.8 15.59C291.8 16.7167 291.59 17.71 291.17 18.57C290.75 19.4233 290.15 20.0933 289.37 20.58C288.59 21.06 287.663 21.3 286.59 21.3ZM286.59 19.61C287.71 19.61 288.543 19.2367 289.09 18.49C289.637 17.7433 289.91 16.7767 289.91 15.59C289.91 14.37 289.633 13.4 289.08 12.68C288.527 11.9533 287.697 11.59 286.59 11.59C285.837 11.59 285.217 11.76 284.73 12.1C284.243 12.44 283.88 12.91 283.64 13.51C283.4 14.11 283.28 14.8033 283.28 15.59C283.28 16.8033 283.56 17.7767 284.12 18.51C284.68 19.2433 285.503 19.61 286.59 19.61ZM298.102 21.28C297.408 21.28 296.812 21.17 296.312 20.95C295.818 20.73 295.408 20.4367 295.082 20.07C294.755 19.7033 294.498 19.2967 294.312 18.85C294.125 18.4033 293.992 17.9467 293.912 17.48C293.838 17.0133 293.802 16.5767 293.802 16.17V10.2H295.602V15.61C295.602 16.1167 295.648 16.6067 295.742 17.08C295.835 17.5533 295.992 17.98 296.212 18.36C296.438 18.74 296.738 19.04 297.112 19.26C297.492 19.48 297.965 19.59 298.532 19.59C298.978 19.59 299.385 19.5133 299.752 19.36C300.118 19.2067 300.432 18.98 300.692 18.68C300.952 18.3733 301.152 17.9867 301.292 17.52C301.432 17.0533 301.502 16.51 301.502 15.89L302.672 16.25C302.672 17.29 302.482 18.1867 302.102 18.94C301.728 19.6933 301.198 20.2733 300.512 20.68C299.832 21.08 299.028 21.28 298.102 21.28ZM301.702 21V18.11H301.502V10.2H303.292V21H301.702ZM313.781 21V15.59C313.781 15.0767 313.735 14.5833 313.641 14.11C313.555 13.6367 313.398 13.2133 313.171 12.84C312.951 12.46 312.651 12.16 312.271 11.94C311.898 11.72 311.425 11.61 310.851 11.61C310.405 11.61 309.998 11.6867 309.631 11.84C309.271 11.9867 308.961 12.2133 308.701 12.52C308.441 12.8267 308.238 13.2133 308.091 13.68C307.951 14.14 307.881 14.6833 307.881 15.31L306.711 14.95C306.711 13.9033 306.898 13.0067 307.271 12.26C307.651 11.5067 308.181 10.93 308.861 10.53C309.548 10.1233 310.355 9.92 311.281 9.92C311.981 9.92 312.578 10.03 313.071 10.25C313.565 10.47 313.975 10.7633 314.301 11.13C314.628 11.49 314.885 11.8967 315.071 12.35C315.258 12.7967 315.388 13.2533 315.461 13.72C315.541 14.18 315.581 14.6167 315.581 15.03V21H313.781ZM306.081 21V10.2H307.681V13.09H307.881V21H306.081ZM322.324 21.3C321.317 21.3 320.454 21.05 319.734 20.55C319.014 20.0433 318.457 19.36 318.064 18.5C317.677 17.64 317.484 16.67 317.484 15.59C317.484 14.51 317.677 13.54 318.064 12.68C318.457 11.82 319.014 11.1433 319.734 10.65C320.454 10.15 321.314 9.9 322.314 9.9C323.334 9.9 324.19 10.1467 324.884 10.64C325.577 11.1333 326.1 11.81 326.454 12.67C326.814 13.53 326.994 14.5033 326.994 15.59C326.994 16.6633 326.814 17.6333 326.454 18.5C326.1 19.36 325.577 20.0433 324.884 20.55C324.19 21.05 323.337 21.3 322.324 21.3ZM322.544 19.67C323.27 19.67 323.867 19.4967 324.334 19.15C324.8 18.7967 325.144 18.3133 325.364 17.7C325.59 17.08 325.704 16.3767 325.704 15.59C325.704 14.79 325.59 14.0867 325.364 13.48C325.144 12.8667 324.804 12.39 324.344 12.05C323.884 11.7033 323.3 11.53 322.594 11.53C321.86 11.53 321.254 11.71 320.774 12.07C320.3 12.43 319.947 12.9167 319.714 13.53C319.487 14.1433 319.374 14.83 319.374 15.59C319.374 16.3567 319.49 17.05 319.724 17.67C319.957 18.2833 320.307 18.77 320.774 19.13C321.247 19.49 321.837 19.67 322.544 19.67ZM325.704 21V13.05H325.504V6.6H327.294V21H325.704Z" fill="#171717"/>
</svg>
