<svg width="80" height="34" viewBox="0 0 80 34" fill="none" xmlns="http://www.w3.org/2000/svg">
<rect x="10" y="24" width="10" height="10" fill="#FFB261"/>
<rect x="5" y="18" width="10" height="10" fill="#FFB261"/>
<rect x="65" y="18" width="10" height="10" fill="#FFB261"/>
<rect x="5" y="6" width="10" height="10" fill="#FFB261"/>
<rect x="65" y="6" width="10" height="10" fill="#FFB261"/>
<rect width="10" height="10" transform="matrix(-1 0 0 1 70 24)" fill="#FFB261"/>
<rect x="20" y="24" width="10" height="10" fill="#FFB261"/>
<rect x="30" y="24" width="10" height="10" fill="#FFB261"/>
<rect x="40" y="24" width="10" height="10" fill="#FFB261"/>
<rect x="50" y="24" width="10" height="10" fill="#FFB261"/>
<rect x="10" y="12" width="10" height="10" fill="#FFB261"/>
<rect x="10" y="16" width="10" height="10" fill="#FFB261"/>
<rect x="10" y="7" width="10" height="10" fill="#FFB261"/>
<rect width="10" height="10" transform="matrix(-1 0 0 1 70 12)" fill="#FFB261"/>
<rect width="10" height="10" transform="matrix(-1 0 0 1 70 16)" fill="#FFB261"/>
<rect width="10" height="10" transform="matrix(-1 0 0 1 70 7)" fill="#FFB261"/>
<rect x="20" y="12" width="10" height="10" fill="#FFB261"/>
<rect x="20" y="16" width="10" height="10" fill="#FFB261"/>
<rect x="20" y="7" width="10" height="10" fill="#FFB261"/>
<rect x="30" y="12" width="10" height="10" fill="#FFB261"/>
<rect x="30" y="16" width="10" height="10" fill="#FFB261"/>
<rect x="30" y="7" width="10" height="10" fill="#FFB261"/>
<rect x="40" y="12" width="10" height="10" fill="#FFB261"/>
<rect x="40" y="16" width="10" height="10" fill="#FFB261"/>
<rect x="40" y="7" width="10" height="10" fill="#FFB261"/>
<rect x="50" y="12" width="10" height="10" fill="#FFB261"/>
<rect x="50" y="16" width="10" height="10" fill="#FFB261"/>
<rect x="50" y="7" width="10" height="10" fill="#FFB261"/>
<rect y="12" width="10" height="10" fill="#FFB261"/>
<rect width="10" height="10" transform="matrix(-1 0 0 1 80 12)" fill="#FFB261"/>
<rect x="10" width="10" height="10" fill="#FFB261"/>
<rect width="10" height="10" transform="matrix(-1 0 0 1 70 0)" fill="#FFB261"/>
<rect x="20" width="10" height="10" fill="#FFB261"/>
<rect x="30" width="10" height="10" fill="#FFB261"/>
<rect x="40" width="10" height="10" fill="#FFB261"/>
<rect x="50" width="10" height="10" fill="#FFB261"/>
<path d="M20.28 23V11.48H21.952V21.424H27.168V23H20.28ZM32.2783 23.24C31.4143 23.24 30.6649 23.0453 30.0303 22.656C29.3956 22.2667 28.9049 21.7307 28.5583 21.048C28.2169 20.36 28.0463 19.568 28.0463 18.672C28.0463 17.7707 28.2223 16.9787 28.5743 16.296C28.9263 15.608 29.4196 15.0747 30.0543 14.696C30.6889 14.312 31.4303 14.12 32.2783 14.12C33.1423 14.12 33.8916 14.3147 34.5263 14.704C35.1609 15.0933 35.6516 15.6293 35.9983 16.312C36.3449 16.9947 36.5183 17.7813 36.5183 18.672C36.5183 19.5733 36.3423 20.368 35.9903 21.056C35.6436 21.7387 35.1529 22.2747 34.5183 22.664C33.8836 23.048 33.1369 23.24 32.2783 23.24ZM32.2783 21.664C33.1049 21.664 33.7209 21.3867 34.1263 20.832C34.5369 20.272 34.7423 19.552 34.7423 18.672C34.7423 17.7707 34.5343 17.0507 34.1183 16.512C33.7076 15.968 33.0943 15.696 32.2783 15.696C31.7183 15.696 31.2569 15.824 30.8943 16.08C30.5316 16.3307 30.2623 16.68 30.0863 17.128C29.9103 17.5707 29.8223 18.0853 29.8223 18.672C29.8223 19.5787 30.0303 20.304 30.4463 20.848C30.8623 21.392 31.4729 21.664 32.2783 21.664ZM41.8363 27.08C41.3723 27.08 40.9216 27.008 40.4843 26.864C40.0523 26.72 39.6576 26.5067 39.3003 26.224C38.9429 25.9467 38.6469 25.6027 38.4123 25.192L39.9563 24.408C40.1429 24.776 40.4096 25.0453 40.7563 25.216C41.1029 25.3867 41.4683 25.472 41.8523 25.472C42.3269 25.472 42.7323 25.3867 43.0683 25.216C43.4043 25.0507 43.6576 24.8 43.8283 24.464C44.0043 24.128 44.0896 23.712 44.0843 23.216V20.8H44.2843V14.36H45.7643V23.232C45.7643 23.4613 45.7563 23.68 45.7403 23.888C45.7243 24.096 45.6949 24.304 45.6523 24.512C45.5296 25.0933 45.2949 25.5733 44.9483 25.952C44.6069 26.3307 44.1696 26.6133 43.6363 26.8C43.1083 26.9867 42.5083 27.08 41.8363 27.08ZM41.7083 23.24C40.9029 23.24 40.2069 23.04 39.6203 22.64C39.0389 22.24 38.5883 21.696 38.2683 21.008C37.9536 20.3147 37.7963 19.536 37.7963 18.672C37.7963 17.8027 37.9563 17.0267 38.2763 16.344C38.5963 15.656 39.0496 15.1147 39.6363 14.72C40.2283 14.32 40.9296 14.12 41.7403 14.12C42.5563 14.12 43.2416 14.32 43.7963 14.72C44.3563 15.1147 44.7776 15.656 45.0603 16.344C45.3483 17.032 45.4923 17.808 45.4923 18.672C45.4923 19.536 45.3483 20.312 45.0603 21C44.7723 21.688 44.3483 22.2347 43.7883 22.64C43.2283 23.04 42.5349 23.24 41.7083 23.24ZM41.9403 21.728C42.4896 21.728 42.9376 21.5973 43.2843 21.336C43.6309 21.0747 43.8843 20.7147 44.0443 20.256C44.2043 19.7973 44.2843 19.2693 44.2843 18.672C44.2843 18.0747 44.2016 17.5467 44.0363 17.088C43.8763 16.6293 43.6256 16.272 43.2843 16.016C42.9483 15.76 42.5189 15.632 41.9963 15.632C41.4416 15.632 40.9856 15.768 40.6283 16.04C40.2709 16.312 40.0043 16.6773 39.8283 17.136C39.6576 17.5947 39.5723 18.1067 39.5723 18.672C39.5723 19.2427 39.6576 19.76 39.8283 20.224C40.0043 20.6827 40.2656 21.048 40.6123 21.32C40.9643 21.592 41.4069 21.728 41.9403 21.728ZM48.1706 12.944V11.32H49.8426V12.944H48.1706ZM48.1706 23V14.36H49.8426V23H48.1706ZM58.309 23V18.752C58.309 18.416 58.2797 18.072 58.221 17.72C58.1677 17.3627 58.061 17.032 57.901 16.728C57.7463 16.424 57.525 16.1787 57.237 15.992C56.9543 15.8053 56.5837 15.712 56.125 15.712C55.8263 15.712 55.5437 15.7627 55.277 15.864C55.0103 15.96 54.7757 16.1173 54.573 16.336C54.3757 16.5547 54.2183 16.8427 54.101 17.2C53.989 17.5573 53.933 17.992 53.933 18.504L52.893 18.112C52.893 17.328 53.0397 16.6373 53.333 16.04C53.6263 15.4373 54.0477 14.968 54.597 14.632C55.1463 14.296 55.8103 14.128 56.589 14.128C57.1863 14.128 57.6877 14.224 58.093 14.416C58.4983 14.608 58.8263 14.8613 59.077 15.176C59.333 15.4853 59.5277 15.824 59.661 16.192C59.7943 16.56 59.885 16.92 59.933 17.272C59.981 17.624 60.005 17.9333 60.005 18.2V23H58.309ZM52.237 23V14.36H53.733V16.856H53.933V23H52.237Z" fill="#090909"/>
</svg>
