<svg width="30" height="34" viewBox="0 0 30 34" fill="none" xmlns="http://www.w3.org/2000/svg">
<path d="M5.17152 33.3489C5.91079 31.8596 6.73536 30.4507 7.92957 29.3065C9.09534 28.186 10.2611 27.0608 11.7302 26.2665C11.7586 26.38 11.806 26.484 11.806 26.5833C11.7918 27.0088 11.7965 27.4343 11.7349 27.8503C11.6733 28.2333 11.5217 28.6021 11.4364 28.9803C11.3132 29.5004 11.171 30.011 11.1663 30.5547C11.1663 30.706 11.0525 30.862 10.9672 31.0038C10.754 31.3584 10.7398 31.4624 11.0336 31.7225C11.4838 32.1244 11.9956 32.4317 12.5216 32.7153C12.8675 32.9045 13.2229 33.0747 13.6163 33.1267C13.8769 33.1645 14.1518 33.1976 14.4551 33.0652C14.3224 32.9565 14.2229 32.8619 14.1091 32.7815C13.7916 32.5546 13.4694 32.3466 13.1566 32.1149C12.8438 31.8832 12.55 31.609 12.4742 31.2166C12.4079 30.8667 12.4079 30.4932 12.4268 30.1339C12.441 29.8691 12.5168 29.6091 12.5785 29.3538C12.7301 28.7628 12.8912 28.1718 13.1566 27.6139C13.3367 27.2357 13.5025 26.848 13.6779 26.4651C13.8201 26.1578 13.9764 25.8504 14.1281 25.5479C14.3319 25.1413 14.5404 24.7394 14.7489 24.3375C14.7773 24.2808 14.82 24.2335 14.8579 24.1815C14.8721 24.1862 14.891 24.1862 14.9053 24.191C14.9053 24.3801 14.9053 24.5692 14.9053 24.7583C14.9053 24.8245 14.8816 24.886 14.8816 24.9521C14.8816 25.7512 14.8863 26.5502 14.8816 27.3539C14.8721 28.8857 14.8674 30.4176 14.8437 31.9494C14.8389 32.3087 14.7868 32.6681 14.7584 33.051C14.7204 32.9328 14.6873 32.8335 14.6541 32.7295C14.6304 32.7295 14.6067 32.7342 14.583 32.7342C14.583 32.9092 14.5783 33.0794 14.583 33.2543C14.5878 33.3867 14.5309 33.434 14.3982 33.4482C14.0996 33.4765 13.8058 33.5238 13.5073 33.5664C13.4599 33.5711 13.4078 33.5758 13.3604 33.5805C12.8675 33.59 12.3747 33.6042 11.8818 33.6136C11.4553 33.6231 11.0288 33.6325 10.6023 33.6467C10.0573 33.6656 9.50763 33.6846 8.96266 33.7177C8.87261 33.7224 8.78258 33.7791 8.69254 33.8122C8.64515 33.8264 8.6025 33.8453 8.55511 33.8453C7.96274 33.85 7.37512 33.85 6.78275 33.8453C6.45576 33.8406 6.12878 33.8311 5.80179 33.8075C5.67858 33.798 5.55537 33.7555 5.44163 33.7129C5.31368 33.6656 5.20943 33.7082 5.10043 33.7555C5.01513 33.7933 4.92035 33.8406 4.83031 33.8406C4.56493 33.8406 4.29955 33.8264 4.03417 33.8075C3.99626 33.8075 3.95835 33.7697 3.92044 33.7555C3.83988 33.7271 3.75932 33.6893 3.67876 33.6751C3.5745 33.6562 3.4892 33.6798 3.5745 33.8311C3.49868 33.8358 3.44655 33.8406 3.39442 33.8406C2.93948 33.8406 2.47981 33.8358 2.02487 33.8453C1.8211 33.85 1.62206 33.8973 1.41829 33.902C1.20978 33.9068 1.00126 33.8784 0.792751 33.8642C0.773795 33.8642 0.7501 33.8406 0.731145 33.8453C0.337814 33.9115 0.252513 33.5664 0.0771732 33.3489C0.0487396 33.3111 0.0487396 33.2449 0.0487396 33.1929C0.0487396 32.7248 0.0487396 32.2615 0.0487396 31.7934C0.0345229 28.985 0.0203061 26.1672 0.0155672 23.3541C0.0155672 23.0941 0.0440007 22.8341 0.0440007 22.5787C0.0440007 22.3754 0.0155672 22.1721 0.0155672 21.9688C0.0155672 21.7088 0.0392618 21.4488 0.0440007 21.1935C0.0440007 21.0753 0.0203061 20.9524 0.0155672 20.8342C0.0155672 20.716 0.0345229 20.6072 0.09139 20.489C0.162474 20.3377 0.124562 20.1297 0.105607 19.95C0.086651 19.7089 0.0392618 19.4631 0.0155672 19.2219C0.00608933 19.1416 0.0297839 19.0517 0.0108283 18.9714C-0.0697334 18.579 0.233558 18.3993 0.461026 18.1865C0.494199 18.1534 0.565282 18.1534 0.61741 18.1534C2.48929 18.1534 4.36116 18.1534 6.23303 18.1534C6.3752 18.1534 6.51263 18.1534 6.6548 18.1534C7.20925 18.1629 7.76371 18.1818 8.31816 18.1818C8.89157 18.1818 9.46024 18.1534 10.0337 18.1534C10.934 18.1534 11.8344 18.1724 12.7348 18.1865C12.9007 18.1865 12.9244 18.2338 12.896 18.404C12.8628 18.6073 12.8486 18.8153 12.8154 19.0234C12.768 19.3591 12.7254 19.6947 12.6638 20.0257C12.5879 20.4417 12.5168 20.8625 12.4126 21.2691C12.2799 21.7845 12.133 22.2998 11.9529 22.801C11.7871 23.2548 11.6022 23.7087 11.37 24.1295C11.1473 24.5314 10.8772 24.9096 10.5834 25.2642C10.1663 25.7606 9.7114 26.2287 9.26121 26.692C8.87261 27.0939 8.46033 27.4721 8.06226 27.8598C7.55993 28.3515 7.05287 28.8385 6.55528 29.3302C6.44629 29.4389 6.36099 29.4626 6.26147 29.3349C6.18091 29.2309 6.09087 29.2309 6.01504 29.3349C5.78758 29.6469 5.54589 29.9448 5.35159 30.2757C5.13834 30.6398 4.94879 31.018 4.78292 31.4057C4.57915 31.8785 4.52228 32.3749 4.71184 32.8714C4.77819 33.0605 4.93457 33.2118 5.17152 33.3489Z" fill="#EF5243"/>
<path d="M22.3075 15.8651C22.663 15.8651 23.0136 15.8651 23.3691 15.8651C23.3691 15.884 23.3738 15.8982 23.3738 15.9171C23.3548 15.9266 23.3359 15.9455 23.3122 15.9455C23.0231 15.9597 22.7388 15.9691 22.4497 15.9833C21.99 16.0022 21.5351 16.0353 21.0754 16.0448C20.9664 16.0448 20.8622 15.9644 20.7532 15.9218C20.7058 15.9029 20.6584 15.8557 20.611 15.8557C20.2935 15.8509 19.9807 15.8509 19.6585 15.8793C19.758 15.8982 19.8575 15.9171 19.9523 15.9408C19.7627 16.1062 19.1277 16.1062 18.8102 15.9408C18.8813 15.9124 18.9476 15.884 19.0235 15.8509C18.8149 15.728 18.6254 15.7233 18.4169 15.8462C18.45 15.8935 18.488 15.9408 18.5353 16.0117C18.4785 16.0306 18.4311 16.0542 18.3837 16.0542C18.2368 16.059 18.0946 16.0495 17.9477 16.0589C17.8056 16.0684 17.7676 15.988 17.7866 15.8793C17.8482 15.4207 17.9288 14.9621 17.9809 14.5035C18.0378 14.0023 18.0994 13.5012 18.1136 12.9953C18.142 12.0828 18.142 11.1656 18.1515 10.2531C18.1515 10.0924 18.1278 9.93633 18.1183 9.77559C18.0852 8.90565 18.3647 8.13028 18.8244 7.40219C19.1514 6.88685 19.4642 6.35732 19.6916 5.78525C19.8954 5.27464 20.1087 4.76403 20.3267 4.25814C20.611 3.58205 20.9143 2.91069 21.1844 2.22988C21.3361 1.83746 21.4403 1.42614 21.5588 1.01954C21.5777 0.948619 21.5635 0.868245 21.5635 0.792599C21.5493 0.787871 21.5303 0.783143 21.5161 0.778415C21.4877 0.839878 21.4498 0.90134 21.4356 0.962803C21.3692 1.32212 21.2081 1.63889 21.0422 1.95566C20.8669 2.29134 20.5778 2.37644 20.2271 2.3008C20.2177 2.3008 20.2082 2.30552 20.175 2.31025C20.1703 2.36226 20.1608 2.41899 20.1655 2.47573C20.1892 2.83977 20.1324 3.20382 20.0234 3.54423C19.9002 3.92719 19.739 4.30069 19.5637 4.66474C19.3931 5.02406 19.2083 5.38338 18.9903 5.71906C18.7391 6.10202 18.4548 6.46606 18.1657 6.82066C17.9951 7.03341 17.7913 7.22253 17.5876 7.40691C17.4596 7.52511 17.3127 7.62913 17.1611 7.7095C16.9336 7.82297 16.6872 7.90334 16.4265 8.00736C16.4123 7.8797 16.3886 7.78987 16.3886 7.70004C16.3886 5.64341 16.3886 3.58678 16.3839 1.53015C16.3839 1.28903 16.3507 1.04318 16.3554 0.802055C16.3554 0.693313 16.3934 0.575116 16.455 0.485286C16.6208 0.239436 16.8104 0.0928715 17.1421 0.0975994C18.7012 0.116511 20.2603 0.102327 21.8194 0.107055C24.0752 0.116511 26.3261 0.125967 28.5819 0.14015C28.9894 0.144878 29.1648 0.461647 29.378 0.750048C29.0889 0.849334 29.2074 1.0479 29.2169 1.22756C29.2406 1.63416 29.2974 2.05494 29.2406 2.45209C29.1221 3.31256 29.16 4.17304 29.1553 5.03351C29.1411 6.84902 29.1316 8.66453 29.1174 10.48C29.1126 10.8204 29.0795 11.1656 29.0889 11.506C29.0984 11.7944 29.1553 12.0828 29.179 12.3712C29.1885 12.4847 29.16 12.5981 29.1505 12.7163C29.1268 13.0851 29.1079 13.4539 29.0842 13.8179C29.0605 14.1631 29.0415 14.5082 29.0131 14.8533C29.0084 14.9101 28.9562 14.9621 28.8946 14.9999C28.8804 15.1512 28.852 15.3072 28.8567 15.4585C28.8662 15.6713 28.7098 15.6665 28.5819 15.6713C28.1317 15.6902 27.6862 15.6996 27.236 15.7091C26.0465 15.7233 24.8571 15.728 23.6676 15.7469C23.2127 15.7564 22.753 15.7989 22.2981 15.8273C22.3075 15.8415 22.3075 15.8509 22.3075 15.8651Z" fill="#EF5243"/>
<path d="M27.6671 31.3442C27.6387 31.3962 27.5913 31.4435 27.5866 31.4955C27.5724 31.6043 27.5771 31.7177 27.5866 31.8265C27.596 31.9588 27.5202 32.0061 27.4112 32.0108C27.1695 32.025 26.9279 32.0345 26.6814 32.0439C26.018 32.0676 25.3545 32.0818 24.6911 32.1149C24.5821 32.1196 24.4778 32.1952 24.3736 32.2425C24.3167 32.2662 24.2646 32.2945 24.1888 32.3323C24.1888 32.252 24.1888 32.2047 24.1888 32.1385C24.1366 32.129 24.0703 32.1101 24.0039 32.1101C23.0941 32.1101 22.1889 32.1054 21.2791 32.1101C21.1369 32.1101 20.99 32.1432 20.8478 32.1952C21.3312 32.2851 21.8146 32.1574 22.3169 32.2283C22.2174 32.356 22.0752 32.3654 21.952 32.3749C21.4828 32.3985 21.0089 32.408 20.5398 32.4127C20.3313 32.4127 20.1228 32.3938 19.9095 32.3796C19.8763 32.3749 19.8289 32.3654 19.8053 32.3418C19.682 32.1952 19.5257 32.1716 19.3456 32.1811C19.1323 32.1905 18.9143 32.1858 18.7011 32.1858C18.6963 32.2 18.6963 32.2141 18.6916 32.2283C18.7959 32.252 18.9001 32.2709 19.0044 32.2945C18.8433 32.4647 18.085 32.4695 17.8481 32.2898C17.886 32.2662 17.9192 32.2425 17.9618 32.2094C17.9334 32.1952 17.9192 32.1858 17.9097 32.1858C17.7912 32.1905 17.6396 32.1338 17.6111 32.3323C17.6064 32.3513 17.5637 32.3796 17.5353 32.3796C17.123 32.4033 16.7107 32.4269 16.2937 32.4505C16.27 32.4505 16.2321 32.4505 16.2179 32.4316C15.9999 32.1905 15.7393 31.9967 15.7393 31.5995C15.7535 28.6446 15.7535 25.6849 15.7393 22.73C15.7393 22.3329 15.8293 21.9641 15.9525 21.5953C16.1184 21.1131 16.2842 20.6355 16.4454 20.1486C16.616 19.6332 16.7866 19.1179 16.9477 18.5978C17.0899 18.144 17.2131 17.6853 17.3505 17.2267C17.3742 17.1416 17.4074 17.0613 17.4311 16.9809C17.4595 16.8769 17.54 16.8769 17.6253 16.8769C18.2651 16.8769 18.9049 16.8816 19.5494 16.8769C22.1558 16.8674 24.7574 16.8532 27.3638 16.8438C27.5013 16.8438 27.6055 16.8627 27.6813 16.9951C27.7619 17.1322 27.8756 17.2504 27.9609 17.3828C27.9941 17.4348 27.9941 17.5293 27.9704 17.5908C27.8851 17.8319 27.9325 18.073 27.9372 18.3236C27.9515 18.7775 27.923 19.2314 27.9136 19.6852C27.9136 19.7278 27.9136 19.7751 27.9136 19.8176C27.9136 20.1769 27.9183 20.541 27.9136 20.9003C27.9041 21.6189 27.8899 22.3423 27.8804 23.061C27.8662 23.9923 27.8567 24.9237 27.8472 25.8551C27.8377 26.5549 27.814 27.2499 27.8188 27.9496C27.8188 28.3184 27.9278 28.6966 27.8662 29.0512C27.7714 29.6185 27.7998 30.1812 27.7761 30.7485C27.7666 30.9518 27.7287 31.1504 27.7003 31.3489C27.6956 31.3489 27.6813 31.3489 27.6671 31.3442Z" fill="#EF5243"/>
<path d="M13.2373 7.47785C13.0999 7.49204 12.9956 7.51095 12.8914 7.50622C12.4175 7.48731 11.9388 7.49677 11.4697 7.43058C11.119 7.3833 10.7683 7.2651 10.4413 7.13272C10.0338 6.97197 9.63572 6.78285 9.2566 6.56064C8.65002 6.20605 8.06239 5.80891 7.46055 5.44013C7.04826 5.18956 6.70232 4.86806 6.40851 4.49456C6.24738 4.29598 6.12417 4.06432 5.99622 3.84211C5.93462 3.73809 5.88723 3.74755 5.82088 3.8232C5.71189 3.94612 5.62185 3.91775 5.51759 3.81374C5.31856 3.61044 5.11952 3.41187 4.91575 3.2133C4.88731 3.18493 4.84466 3.16602 4.77832 3.16602C4.83519 3.24639 4.88731 3.3315 4.94892 3.40714C5.55076 4.17779 6.15735 4.94843 6.75919 5.72381C7.01983 6.05949 7.27099 6.40462 7.52216 6.74976C7.73067 7.03343 8.01026 7.24619 8.33251 7.36438C8.76375 7.5204 9.21869 7.61969 9.65941 7.74262C10.1049 7.86554 10.5219 8.04047 10.8963 8.31469C11.2612 8.58418 11.6308 8.83949 11.9767 9.13262C12.3559 9.45411 12.7302 9.79452 13.0714 10.1586C13.4174 10.5273 13.7396 10.9198 14.0382 11.3216C14.2751 11.6431 14.3841 12.0166 14.3889 12.4232C14.3936 12.8015 14.4078 13.175 14.2467 13.5248C14.1093 13.8227 13.9576 14.1205 13.7965 14.4089C13.5074 14.9196 13.242 15.4349 13.1804 16.0306C13.1473 16.3568 13.0904 16.6783 13.0525 17.0045C13.0383 17.1322 12.9577 17.1464 12.8534 17.1464C12.2848 17.1464 11.7161 17.1417 11.1474 17.1464C10.7304 17.1511 10.3181 17.1653 9.90109 17.1795C9.56937 17.1937 9.23765 17.2126 8.87749 17.2315C9.09548 17.2457 9.28503 17.2599 9.46985 17.274C9.46985 17.293 9.47459 17.3119 9.47459 17.3308C9.40825 17.3497 9.33716 17.3781 9.27082 17.3781C8.59789 17.3922 7.92496 17.4111 7.25678 17.4064C7.06722 17.4064 6.87766 17.345 6.67863 17.3071C6.65967 17.3686 6.6881 17.5152 6.52224 17.4773C6.47959 17.4679 6.41799 17.4301 6.40851 17.397C6.37534 17.274 6.2853 17.2551 6.18578 17.2504C5.86353 17.2362 5.54602 17.222 5.22378 17.2173C4.94892 17.2126 4.6788 17.2173 4.36603 17.2173C4.47029 17.2646 4.53663 17.2929 4.60298 17.326C4.60298 17.345 4.60298 17.3591 4.60298 17.3781C4.46081 17.4017 4.31864 17.4395 4.17647 17.449C3.74997 17.4679 3.32347 17.4773 2.89697 17.4821C2.83062 17.4821 2.7548 17.4584 2.70267 17.4159C2.4752 17.2504 2.31882 17.066 2.31882 16.7398C2.33303 14.3853 2.33303 12.0261 2.32356 9.67159C2.30934 7.17054 2.29512 4.66949 2.28564 2.17316C2.28564 1.83275 2.61263 1.51126 2.96331 1.50653C3.31399 1.50653 3.66467 1.50653 4.01535 1.50653C6.07678 1.51599 8.14295 1.53017 10.2091 1.53963C11.1095 1.54435 12.0147 1.5349 12.9151 1.53963C13.5501 1.54435 14.1803 1.55854 14.8154 1.57272C14.8533 1.57272 14.9007 1.60109 14.9338 1.62946C15.0286 1.70037 15.1234 1.77602 15.2182 1.85167C15.3461 1.95095 15.3982 2.06442 15.3935 2.23463C15.3793 2.8067 15.3935 3.37877 15.3888 3.95085C15.3793 4.99098 15.3698 6.03585 15.3556 7.07598C15.3509 7.28401 15.3129 7.49204 15.2893 7.70952C15.1186 7.68588 15.0807 7.56296 15.0618 7.45894C14.9765 6.98143 14.9717 6.49918 15.0144 6.01221C15.0476 5.62925 15.0476 5.24156 15.0144 4.8586C14.9907 4.59857 14.8011 4.41418 14.5642 4.29126C14.2846 4.15415 14.0097 4.0265 13.6828 4.0265C13.2041 4.0265 12.9151 4.29126 12.6876 4.66476C12.5265 4.93425 12.4222 5.22738 12.3796 5.54415C12.3085 6.03585 12.3322 6.50864 12.6781 6.90105C12.8155 7.0618 12.9956 7.18945 13.152 7.33602C13.1757 7.36911 13.1946 7.41166 13.2373 7.47785Z" fill="#EF5243"/>
</svg>
