<svg width="133" height="27" viewBox="0 0 133 27" fill="none" xmlns="http://www.w3.org/2000/svg">
<path fill-rule="evenodd" clip-rule="evenodd" d="M12 4.5C8.65209 4.5 6 7.07656 6 10.1719C6 12.0004 7.03281 14.4859 8.36265 16.8872C9.66887 19.246 11.1818 21.386 12 22.4917C12.8181 21.3865 14.3311 19.2473 15.6374 16.8888C16.9671 14.4878 18 12.0021 18 10.1719C18 7.07656 15.3479 4.5 12 4.5Z" stroke="#171717" stroke-width="2" stroke-linecap="round" stroke-linejoin="round"/>
<path d="M9 10.5C9 8.84315 10.3431 7.5 12 7.5C13.6569 7.5 15 8.84315 15 10.5C15 12.1569 13.6569 13.5 12 13.5C10.3431 13.5 9 12.1569 9 10.5Z" stroke="#171717" stroke-width="2" stroke-linecap="round" stroke-linejoin="round"/>
<path d="M39.6247 21.3C38.1914 21.3 36.9747 20.9833 35.9747 20.35C34.9747 19.7167 34.2114 18.8367 33.6847 17.71C33.1647 16.5833 32.9047 15.28 32.9047 13.8C32.9047 12.32 33.1647 11.0167 33.6847 9.89C34.2114 8.76333 34.9747 7.88333 35.9747 7.25C36.9747 6.61667 38.1914 6.3 39.6247 6.3C41.0647 6.3 42.2847 6.61667 43.2847 7.25C44.2847 7.88333 45.0447 8.76333 45.5647 9.89C46.0847 11.0167 46.3447 12.32 46.3447 13.8C46.3447 15.28 46.0847 16.5833 45.5647 17.71C45.0447 18.8367 44.2847 19.7167 43.2847 20.35C42.2847 20.9833 41.0647 21.3 39.6247 21.3ZM39.6247 19.6C40.698 19.6067 41.5914 19.3667 42.3047 18.88C43.0247 18.3867 43.5614 17.7033 43.9147 16.83C44.2747 15.9567 44.4547 14.9467 44.4547 13.8C44.4547 12.6467 44.2747 11.6367 43.9147 10.77C43.5614 9.90333 43.0247 9.22667 42.3047 8.74C41.5914 8.25333 40.698 8.00667 39.6247 8C38.5514 7.99333 37.658 8.23333 36.9447 8.72C36.238 9.20667 35.7047 9.88667 35.3447 10.76C34.9847 11.6333 34.8014 12.6467 34.7947 13.8C34.788 14.9467 34.9647 15.9533 35.3247 16.82C35.6847 17.6867 36.2214 18.3667 36.9347 18.86C37.6547 19.3467 38.5514 19.5933 39.6247 19.6ZM56.0431 21V15.59C56.0431 15.0767 55.9965 14.5833 55.9031 14.11C55.8165 13.6367 55.6598 13.2133 55.4331 12.84C55.2131 12.46 54.9131 12.16 54.5331 11.94C54.1598 11.72 53.6865 11.61 53.1131 11.61C52.6665 11.61 52.2598 11.6867 51.8931 11.84C51.5331 11.9867 51.2231 12.2133 50.9631 12.52C50.7031 12.8267 50.4998 13.2133 50.3531 13.68C50.2131 14.14 50.1431 14.6833 50.1431 15.31L48.9731 14.95C48.9731 13.9033 49.1598 13.0067 49.5331 12.26C49.9131 11.5067 50.4431 10.93 51.1231 10.53C51.8098 10.1233 52.6165 9.92 53.5431 9.92C54.2431 9.92 54.8398 10.03 55.3331 10.25C55.8265 10.47 56.2365 10.7633 56.5631 11.13C56.8898 11.49 57.1465 11.8967 57.3331 12.35C57.5198 12.7967 57.6498 13.2533 57.7231 13.72C57.8031 14.18 57.8431 14.6167 57.8431 15.03V21H56.0431ZM48.3431 21V10.2H49.9431V13.09H50.1431V21H48.3431ZM70.2769 21.3C69.2902 21.3 68.3902 21.1267 67.5769 20.78C66.7635 20.4333 66.0635 19.9367 65.4769 19.29C64.8902 18.6367 64.4369 17.85 64.1169 16.93C63.8035 16.0033 63.6469 14.96 63.6469 13.8C63.6469 12.2667 63.9202 10.94 64.4669 9.82C65.0135 8.7 65.7835 7.83667 66.7769 7.23C67.7702 6.61667 68.9369 6.31 70.2769 6.31C71.8902 6.31 73.1902 6.68667 74.1769 7.44C75.1635 8.18667 75.8435 9.21 76.2169 10.51L74.4169 10.88C74.1169 10.0067 73.6235 9.31 72.9369 8.79C72.2502 8.27 71.3935 8.01 70.3669 8.01C69.2935 8.00333 68.4002 8.24333 67.6869 8.73C66.9802 9.21 66.4469 9.88667 66.0869 10.76C65.7269 11.6333 65.5435 12.6467 65.5369 13.8C65.5302 14.9467 65.7069 15.9533 66.0669 16.82C66.4269 17.6867 66.9635 18.3667 67.6769 18.86C68.3969 19.3467 69.2935 19.5933 70.3669 19.6C71.2935 19.6067 72.0735 19.43 72.7069 19.07C73.3402 18.71 73.8302 18.19 74.1769 17.51C74.5235 16.83 74.7335 16.0133 74.8069 15.06H71.7469V13.59H76.6869C76.7069 13.7233 76.7169 13.8833 76.7169 14.07C76.7235 14.25 76.7269 14.3733 76.7269 14.44C76.7269 15.7533 76.4802 16.93 75.9869 17.97C75.5002 19.0033 74.7769 19.8167 73.8169 20.41C72.8635 21.0033 71.6835 21.3 70.2769 21.3ZM78.7242 21V10.2H80.3142V12.81L80.0542 12.47C80.1809 12.1367 80.3442 11.83 80.5442 11.55C80.7509 11.27 80.9809 11.04 81.2342 10.86C81.5142 10.6333 81.8309 10.46 82.1842 10.34C82.5376 10.22 82.8976 10.15 83.2642 10.13C83.6309 10.1033 83.9742 10.1267 84.2942 10.2V11.87C83.9209 11.77 83.5109 11.7433 83.0642 11.79C82.6176 11.8367 82.2042 12 81.8242 12.28C81.4776 12.5267 81.2076 12.8267 81.0142 13.18C80.8276 13.5333 80.6976 13.9167 80.6242 14.33C80.5509 14.7367 80.5142 15.1533 80.5142 15.58V21H78.7242ZM90.5898 21.3C89.5165 21.3 88.5898 21.0567 87.8098 20.57C87.0365 20.0833 86.4398 19.41 86.0198 18.55C85.5998 17.69 85.3898 16.7033 85.3898 15.59C85.3898 14.4567 85.6032 13.4633 86.0298 12.61C86.4565 11.7567 87.0598 11.0933 87.8398 10.62C88.6198 10.14 89.5365 9.9 90.5898 9.9C91.6698 9.9 92.5998 10.1433 93.3798 10.63C94.1598 11.11 94.7565 11.78 95.1698 12.64C95.5898 13.4933 95.7998 14.4767 95.7998 15.59C95.7998 16.7167 95.5898 17.71 95.1698 18.57C94.7498 19.4233 94.1498 20.0933 93.3698 20.58C92.5898 21.06 91.6632 21.3 90.5898 21.3ZM90.5898 19.61C91.7098 19.61 92.5432 19.2367 93.0898 18.49C93.6365 17.7433 93.9098 16.7767 93.9098 15.59C93.9098 14.37 93.6332 13.4 93.0798 12.68C92.5265 11.9533 91.6965 11.59 90.5898 11.59C89.8365 11.59 89.2165 11.76 88.7298 12.1C88.2432 12.44 87.8798 12.91 87.6398 13.51C87.3998 14.11 87.2798 14.8033 87.2798 15.59C87.2798 16.8033 87.5598 17.7767 88.1198 18.51C88.6798 19.2433 89.5032 19.61 90.5898 19.61ZM102.102 21.28C101.408 21.28 100.812 21.17 100.312 20.95C99.8182 20.73 99.4082 20.4367 99.0816 20.07C98.7549 19.7033 98.4982 19.2967 98.3116 18.85C98.1249 18.4033 97.9916 17.9467 97.9116 17.48C97.8382 17.0133 97.8016 16.5767 97.8016 16.17V10.2H99.6016V15.61C99.6016 16.1167 99.6482 16.6067 99.7416 17.08C99.8349 17.5533 99.9916 17.98 100.212 18.36C100.438 18.74 100.738 19.04 101.112 19.26C101.492 19.48 101.965 19.59 102.532 19.59C102.978 19.59 103.385 19.5133 103.752 19.36C104.118 19.2067 104.432 18.98 104.692 18.68C104.952 18.3733 105.152 17.9867 105.292 17.52C105.432 17.0533 105.502 16.51 105.502 15.89L106.672 16.25C106.672 17.29 106.482 18.1867 106.102 18.94C105.728 19.6933 105.198 20.2733 104.512 20.68C103.832 21.08 103.028 21.28 102.102 21.28ZM105.702 21V18.11H105.502V10.2H107.292V21H105.702ZM117.781 21V15.59C117.781 15.0767 117.735 14.5833 117.641 14.11C117.555 13.6367 117.398 13.2133 117.171 12.84C116.951 12.46 116.651 12.16 116.271 11.94C115.898 11.72 115.425 11.61 114.851 11.61C114.405 11.61 113.998 11.6867 113.631 11.84C113.271 11.9867 112.961 12.2133 112.701 12.52C112.441 12.8267 112.238 13.2133 112.091 13.68C111.951 14.14 111.881 14.6833 111.881 15.31L110.711 14.95C110.711 13.9033 110.898 13.0067 111.271 12.26C111.651 11.5067 112.181 10.93 112.861 10.53C113.548 10.1233 114.355 9.92 115.281 9.92C115.981 9.92 116.578 10.03 117.071 10.25C117.565 10.47 117.975 10.7633 118.301 11.13C118.628 11.49 118.885 11.8967 119.071 12.35C119.258 12.7967 119.388 13.2533 119.461 13.72C119.541 14.18 119.581 14.6167 119.581 15.03V21H117.781ZM110.081 21V10.2H111.681V13.09H111.881V21H110.081ZM126.324 21.3C125.317 21.3 124.454 21.05 123.734 20.55C123.014 20.0433 122.457 19.36 122.064 18.5C121.677 17.64 121.484 16.67 121.484 15.59C121.484 14.51 121.677 13.54 122.064 12.68C122.457 11.82 123.014 11.1433 123.734 10.65C124.454 10.15 125.314 9.9 126.314 9.9C127.334 9.9 128.19 10.1467 128.884 10.64C129.577 11.1333 130.1 11.81 130.454 12.67C130.814 13.53 130.994 14.5033 130.994 15.59C130.994 16.6633 130.814 17.6333 130.454 18.5C130.1 19.36 129.577 20.0433 128.884 20.55C128.19 21.05 127.337 21.3 126.324 21.3ZM126.544 19.67C127.27 19.67 127.867 19.4967 128.334 19.15C128.8 18.7967 129.144 18.3133 129.364 17.7C129.59 17.08 129.704 16.3767 129.704 15.59C129.704 14.79 129.59 14.0867 129.364 13.48C129.144 12.8667 128.804 12.39 128.344 12.05C127.884 11.7033 127.3 11.53 126.594 11.53C125.86 11.53 125.254 11.71 124.774 12.07C124.3 12.43 123.947 12.9167 123.714 13.53C123.487 14.1433 123.374 14.83 123.374 15.59C123.374 16.3567 123.49 17.05 123.724 17.67C123.957 18.2833 124.307 18.77 124.774 19.13C125.247 19.49 125.837 19.67 126.544 19.67ZM129.704 21V13.05H129.504V6.6H131.294V21H129.704Z" fill="#171717"/>
</svg>
