<svg width="97" height="96" viewBox="0 0 97 96" fill="none" xmlns="http://www.w3.org/2000/svg">
<rect width="56" height="56" transform="translate(20.5 20)" fill="#FBCAC5"/>
<path d="M55.1667 60.3337H41.8333C41.2867 60.3337 40.8333 59.8803 40.8333 59.3337C40.8333 58.787 41.2867 58.3337 41.8333 58.3337H55.1667C58.98 58.3337 60.8333 56.4803 60.8333 52.667V43.3337C60.8333 39.5203 58.98 37.667 55.1667 37.667H41.8333C38.02 37.667 36.1667 39.5203 36.1667 43.3337C36.1667 43.8803 35.7133 44.3337 35.1667 44.3337C34.62 44.3337 34.1667 43.8803 34.1667 43.3337C34.1667 38.467 36.9667 35.667 41.8333 35.667H55.1667C60.0333 35.667 62.8333 38.467 62.8333 43.3337V52.667C62.8333 57.5337 60.0333 60.3337 55.1667 60.3337Z" fill="#EF5243"/>
<path d="M48.4997 49.16C47.3797 49.16 46.2464 48.8133 45.3797 48.1066L41.2064 44.7733C40.7797 44.4266 40.6997 43.8 41.0464 43.3733C41.3931 42.9466 42.0197 42.8666 42.4464 43.2133L46.6197 46.5466C47.633 47.36 49.353 47.36 50.3664 46.5466L54.5397 43.2133C54.9664 42.8666 55.6064 42.9333 55.9397 43.3733C56.2864 43.8 56.2197 44.44 55.7797 44.7733L51.6064 48.1066C50.753 48.8133 49.6197 49.16 48.4997 49.16Z" fill="#EF5243"/>
<path d="M43.1667 55H35.1667C34.62 55 34.1667 54.5467 34.1667 54C34.1667 53.4533 34.62 53 35.1667 53H43.1667C43.7133 53 44.1667 53.4533 44.1667 54C44.1667 54.5467 43.7133 55 43.1667 55Z" fill="#EF5243"/>
<path d="M39.1667 49.667H35.1667C34.62 49.667 34.1667 49.2137 34.1667 48.667C34.1667 48.1203 34.62 47.667 35.1667 47.667H39.1667C39.7133 47.667 40.1667 48.1203 40.1667 48.667C40.1667 49.2137 39.7133 49.667 39.1667 49.667Z" fill="#EF5243"/>
</svg>
