<svg width="20" height="23" viewBox="0 0 20 23" fill="none" xmlns="http://www.w3.org/2000/svg">
<path d="M2.5 5.16268C2.5 13.1967 8.28299 19.7096 15.4167 19.7096C15.7385 19.7096 16.0576 19.6964 16.3736 19.6703C16.7362 19.6403 16.9174 19.6254 17.0825 19.5184C17.2192 19.4298 17.3487 19.2727 17.4172 19.1127C17.5 18.9196 17.5 18.6942 17.5 18.2437V15.5996C17.5 15.2206 17.5 15.0311 17.4446 14.8688C17.3957 14.7253 17.3162 14.5975 17.2132 14.4967C17.0967 14.3826 16.9385 14.3179 16.6223 14.1883L13.95 13.0939C13.5821 12.9433 13.3981 12.868 13.2236 12.8807C13.0697 12.892 12.9216 12.9512 12.7958 13.0516C12.6531 13.1655 12.5524 13.3545 12.351 13.7326L11.6667 15.0171C9.45842 13.8907 7.66825 11.872 6.66667 9.38599L7.80719 8.6153C8.14288 8.38847 8.31072 8.27505 8.41183 8.11436C8.501 7.97266 8.55358 7.80588 8.56358 7.63256C8.57492 7.43601 8.508 7.22885 8.37425 6.81451L7.40249 3.80486C7.2875 3.44874 7.23001 3.27067 7.12868 3.13935C7.03918 3.02334 6.92574 2.93386 6.79835 2.87877C6.65413 2.81641 6.4859 2.81641 6.14943 2.81641H3.80167C3.40157 2.81641 3.20151 2.81641 3.02998 2.90955C2.88792 2.98671 2.74845 3.13269 2.66975 3.28663C2.57473 3.47249 2.56146 3.67666 2.53491 4.08502C2.51177 4.44084 2.5 4.80021 2.5 5.16268Z" stroke="#EEECD9" stroke-linecap="round" stroke-linejoin="round"/>
</svg>
