<svg width="15" height="33" viewBox="0 0 18 33" fill="none" xmlns="http://www.w3.org/2000/svg">
<rect width="0.825487" height="0.825487" transform="matrix(4.37114e-08 1 1 -4.37114e-08 14.8574 16.2737)" fill="#EF5243"/>
<rect width="0.825487" height="0.825487" transform="matrix(4.37114e-08 1 1 -4.37114e-08 14.0312 16.2737)" fill="#EF5243"/>
<rect width="0.825487" height="0.825487" transform="matrix(4.37114e-08 1 1 -4.37114e-08 14.0312 15.4495)" fill="#EF5243"/>
<rect width="0.825487" height="0.825487" transform="matrix(4.37114e-08 1 1 -4.37114e-08 12.3828 15.4495)" fill="#EF5243"/>
<rect width="0.825487" height="0.825487" transform="matrix(4.37114e-08 1 1 -4.37114e-08 12.9609 15.4495)" fill="#EF5243"/>
<rect width="0.825487" height="0.825487" transform="matrix(4.37114e-08 1 1 -4.37114e-08 12.9609 14.6252)" fill="#EF5243"/>
<rect width="0.825487" height="0.825487" transform="matrix(4.37114e-08 1 1 -4.37114e-08 12.9609 16.2737)" fill="#EF5243"/>
<rect width="0.825487" height="0.825487" transform="matrix(4.37114e-08 1 1 -4.37114e-08 12.3828 16.2737)" fill="#EF5243"/>
<rect width="0.825487" height="0.825487" transform="matrix(4.37114e-08 1 1 -4.37114e-08 12.3828 14.6252)" fill="#EF5243"/>
<rect width="0.825487" height="0.825487" transform="matrix(4.37114e-08 1 1 -4.37114e-08 12.3828 13.7971)" fill="#EF5243"/>
<rect width="0.825487" height="0.825487" transform="matrix(4.37114e-08 1 1 -4.37114e-08 10.7305 13.7971)" fill="#EF5243"/>
<rect width="0.825487" height="0.825487" transform="matrix(4.37114e-08 1 1 -4.37114e-08 10.7305 14.6252)" fill="#EF5243"/>
<rect width="0.825487" height="0.825487" transform="matrix(4.37114e-08 1 1 -4.37114e-08 10.7305 12.9729)" fill="#EF5243"/>
<rect width="0.825487" height="0.825487" transform="matrix(4.37114e-08 1 1 -4.37114e-08 11.5566 12.9729)" fill="#EF5243"/>
<rect width="0.825487" height="0.825487" transform="matrix(4.37114e-08 1 1 -4.37114e-08 9.08203 12.9729)" fill="#EF5243"/>
<rect width="0.825487" height="0.825487" transform="matrix(4.37114e-08 1 1 -4.37114e-08 9.08203 12.1487)" fill="#EF5243"/>
<rect width="0.825487" height="0.825487" transform="matrix(4.37114e-08 1 1 -4.37114e-08 9.08203 11.3206)" fill="#EF5243"/>
<rect width="0.825487" height="0.825487" transform="matrix(4.37114e-08 1 1 -4.37114e-08 11.5566 13.7971)" fill="#EF5243"/>
<rect width="0.825487" height="0.825487" transform="matrix(4.37114e-08 1 1 -4.37114e-08 9.90625 13.7971)" fill="#EF5243"/>
<rect width="0.825487" height="0.825487" transform="matrix(4.37114e-08 1 1 -4.37114e-08 9.90625 14.6252)" fill="#EF5243"/>
<rect width="0.825487" height="0.825487" transform="matrix(4.37114e-08 1 1 -4.37114e-08 9.08203 13.7971)" fill="#EF5243"/>
<rect width="0.825487" height="0.825487" transform="matrix(4.37114e-08 1 1 -4.37114e-08 9.08203 14.6252)" fill="#EF5243"/>
<rect width="0.825487" height="0.825487" transform="matrix(4.37114e-08 1 1 -4.37114e-08 8.25586 13.7971)" fill="#EF5243"/>
<rect width="0.825487" height="0.825487" transform="matrix(4.37114e-08 1 1 -4.37114e-08 8.25586 14.6252)" fill="#EF5243"/>
<rect width="0.825487" height="0.825487" transform="matrix(4.37114e-08 1 1 -4.37114e-08 7.42969 13.7971)" fill="#EF5243"/>
<rect width="0.825487" height="0.825487" transform="matrix(4.37114e-08 1 1 -4.37114e-08 7.42969 14.6252)" fill="#EF5243"/>
<rect width="0.825487" height="0.825487" transform="matrix(4.37114e-08 1 1 -4.37114e-08 6.60352 13.7971)" fill="#EF5243"/>
<rect width="0.825487" height="0.825487" transform="matrix(4.37114e-08 1 1 -4.37114e-08 5.7793 14.6252)" fill="#EF5243"/>
<rect width="0.825487" height="0.825487" transform="matrix(4.37114e-08 1 1 -4.37114e-08 4.95508 14.6252)" fill="#EF5243"/>
<rect width="0.825487" height="0.825487" transform="matrix(4.37114e-08 1 1 -4.37114e-08 4.95508 17.1018)" fill="#EF5243"/>
<rect width="0.825487" height="0.825487" transform="matrix(4.37114e-08 1 1 -4.37114e-08 4.12695 15.4495)" fill="#EF5243"/>
<rect width="0.825487" height="0.825487" transform="matrix(4.37114e-08 1 1 -4.37114e-08 3.30078 15.4495)" fill="#EF5243"/>
<rect width="0.825487" height="0.825487" transform="matrix(4.37114e-08 1 1 -4.37114e-08 2.47461 14.9534)" fill="#EF5243"/>
<rect width="0.825487" height="0.825487" transform="matrix(4.37114e-08 1 1 -4.37114e-08 1.65234 14.9534)" fill="#EF5243"/>
<rect width="0.825487" height="0.825487" transform="matrix(4.37114e-08 1 1 -4.37114e-08 0 14.6252)" fill="#EF5243"/>
<rect width="0.825487" height="0.825487" transform="matrix(4.37114e-08 1 1 -4.37114e-08 5.7793 15.4495)" fill="#EF5243"/>
<rect width="0.825487" height="0.825487" transform="matrix(4.37114e-08 1 1 -4.37114e-08 6.60352 14.6252)" fill="#EF5243"/>
<rect width="0.825487" height="0.825487" transform="matrix(4.37114e-08 1 1 -4.37114e-08 4.95508 15.4495)" fill="#EF5243"/>
<rect width="0.825487" height="0.825487" transform="matrix(4.37114e-08 1 1 -4.37114e-08 6.60352 15.4495)" fill="#EF5243"/>
<rect width="0.825487" height="0.825487" transform="matrix(4.37114e-08 1 1 -4.37114e-08 7.42969 15.4495)" fill="#EF5243"/>
<rect width="0.825487" height="0.825487" transform="matrix(4.37114e-08 1 1 -4.37114e-08 5.7793 17.1018)" fill="#EF5243"/>
<rect width="0.825487" height="0.825487" transform="matrix(4.37114e-08 1 1 -4.37114e-08 6.60352 17.926)" fill="#EF5243"/>
<rect width="0.825487" height="0.825487" transform="matrix(4.37114e-08 1 1 -4.37114e-08 5.7793 17.926)" fill="#EF5243"/>
<rect width="0.825487" height="0.825487" transform="matrix(4.37114e-08 1 1 -4.37114e-08 7.42969 17.926)" fill="#EF5243"/>
<rect width="0.825487" height="0.825487" transform="matrix(4.37114e-08 1 1 -4.37114e-08 8.25586 17.926)" fill="#EF5243"/>
<rect width="0.825487" height="0.825487" transform="matrix(4.37114e-08 1 1 -4.37114e-08 9.08203 17.926)" fill="#EF5243"/>
<rect width="0.825487" height="0.825487" transform="matrix(4.37114e-08 1 1 -4.37114e-08 9.90625 17.926)" fill="#EF5243"/>
<rect width="0.825487" height="0.825487" transform="matrix(4.37114e-08 1 1 -4.37114e-08 10.7305 17.926)" fill="#EF5243"/>
<rect width="0.825487" height="0.825487" transform="matrix(4.37114e-08 1 1 -4.37114e-08 8.25586 18.7502)" fill="#EF5243"/>
<rect width="0.825487" height="0.825487" transform="matrix(4.37114e-08 1 1 -4.37114e-08 9.08203 18.7502)" fill="#EF5243"/>
<rect width="0.825487" height="0.825487" transform="matrix(4.37114e-08 1 1 -4.37114e-08 9.90625 18.7502)" fill="#EF5243"/>
<rect width="0.825487" height="0.825487" transform="matrix(4.37114e-08 1 1 -4.37114e-08 4.12695 16.2737)" fill="#EF5243"/>
<rect width="0.825487" height="0.825487" transform="matrix(4.37114e-08 1 1 -4.37114e-08 3.30078 16.2737)" fill="#EF5243"/>
<rect width="0.825487" height="0.825487" transform="matrix(4.37114e-08 1 1 -4.37114e-08 2.47461 15.7815)" fill="#EF5243"/>
<rect width="0.825487" height="0.825487" transform="matrix(4.37114e-08 1 1 -4.37114e-08 9.90625 12.9729)" fill="#EF5243"/>
<rect width="0.825487" height="0.825487" transform="matrix(4.37114e-08 1 1 -4.37114e-08 8.25586 12.9729)" fill="#EF5243"/>
<rect width="0.825487" height="0.825487" transform="matrix(4.37114e-08 1 1 -4.37114e-08 5.7793 13.7971)" fill="#EF5243"/>
<rect width="0.825487" height="0.825487" transform="matrix(4.37114e-08 1 1 -4.37114e-08 7.42969 12.9729)" fill="#EF5243"/>
<rect width="0.825487" height="0.825487" transform="matrix(4.37114e-08 1 1 -4.37114e-08 6.60352 12.9729)" fill="#EF5243"/>
<rect width="0.825487" height="0.825487" transform="matrix(4.37114e-08 1 1 -4.37114e-08 4.95508 13.7971)" fill="#EF5243"/>
<rect width="0.825487" height="0.825487" transform="matrix(4.37114e-08 1 1 -4.37114e-08 4.95508 16.2737)" fill="#EF5243"/>
<rect width="0.825487" height="0.825487" transform="matrix(4.37114e-08 1 1 -4.37114e-08 5.7793 20.4026)" fill="#EF5243"/>
<rect x="6.6875" y="10.9065" width="0.825487" height="0.825487" transform="rotate(-90 6.6875 10.9065)" fill="#EF5243"/>
<rect width="0.825487" height="0.825487" transform="matrix(4.37114e-08 1 1 -4.37114e-08 6.60352 20.4026)" fill="#EF5243"/>
<rect x="7.50977" y="10.9065" width="0.825487" height="0.825487" transform="rotate(-90 7.50977 10.9065)" fill="#EF5243"/>
<rect width="0.825487" height="0.825487" transform="matrix(4.37114e-08 1 1 -4.37114e-08 8.25586 21.2268)" fill="#EF5243"/>
<rect x="9.16211" y="10.0823" width="0.825487" height="0.825487" transform="rotate(-90 9.16211 10.0823)" fill="#EF5243"/>
<rect width="0.825487" height="0.825487" transform="matrix(4.37114e-08 1 1 -4.37114e-08 9.08203 21.2268)" fill="#EF5243"/>
<rect x="9.98828" y="10.0823" width="0.825487" height="0.825487" transform="rotate(-90 9.98828 10.0823)" fill="#EF5243"/>
<rect width="0.825487" height="0.825487" transform="matrix(4.37114e-08 1 1 -4.37114e-08 10.7305 20.4026)" fill="#EF5243"/>
<rect x="11.6387" y="10.9065" width="0.825487" height="0.825487" transform="rotate(-90 11.6387 10.9065)" fill="#EF5243"/>
<rect width="0.825487" height="0.825487" transform="matrix(4.37114e-08 1 1 -4.37114e-08 11.5566 19.5784)" fill="#EF5243"/>
<rect x="12.4648" y="11.7346" width="0.825487" height="0.825487" transform="rotate(-90 12.4648 11.7346)" fill="#EF5243"/>
<rect width="0.825487" height="0.825487" transform="matrix(4.37114e-08 1 1 -4.37114e-08 12.3828 18.7502)" fill="#EF5243"/>
<rect x="13.291" y="12.5588" width="0.825487" height="0.825487" transform="rotate(-90 13.291 12.5588)" fill="#EF5243"/>
<rect width="0.825487" height="0.825487" transform="matrix(4.37114e-08 1 1 -4.37114e-08 13.207 18.3401)" fill="#EF5243"/>
<rect x="14.1172" y="12.9729" width="0.825487" height="0.825487" transform="rotate(-90 14.1172 12.9729)" fill="#EF5243"/>
<rect x="15.6855" y="11.3206" width="0.825487" height="0.825487" transform="rotate(-90 15.6855 11.3206)" fill="#EF5243"/>
<rect x="16.8398" y="11.3206" width="0.825487" height="0.825487" transform="rotate(-90 16.8398 11.3206)" fill="#EF5243"/>
<rect width="0.825487" height="0.825487" transform="matrix(4.37114e-08 1 1 -4.37114e-08 15.6016 19.5784)" fill="#EF5243"/>
<rect x="16.8398" y="9.67212" width="0.825487" height="0.825487" transform="rotate(-90 16.8398 9.67212)" fill="#EF5243"/>
<rect width="0.825487" height="0.825487" transform="matrix(4.37114e-08 1 1 -4.37114e-08 15.6016 21.2268)" fill="#EF5243"/>
<rect x="16.8398" y="8.01978" width="0.825487" height="0.825487" transform="rotate(-90 16.8398 8.01978)" fill="#EF5243"/>
<rect width="0.825487" height="0.825487" transform="matrix(4.37114e-08 1 1 -4.37114e-08 15.6016 22.8792)" fill="#EF5243"/>
<rect x="17.666" y="8.01978" width="0.825487" height="0.825487" transform="rotate(-90 17.666 8.01978)" fill="#EF5243"/>
<rect width="0.825487" height="0.825487" transform="matrix(4.37114e-08 1 1 -4.37114e-08 16.4277 22.8792)" fill="#EF5243"/>
<rect x="16.8398" y="6.36743" width="0.825487" height="0.825487" transform="rotate(-90 16.8398 6.36743)" fill="#EF5243"/>
<rect width="0.825487" height="0.825487" transform="matrix(4.37114e-08 1 1 -4.37114e-08 15.6016 24.5315)" fill="#EF5243"/>
<rect x="16.0156" y="6.36743" width="0.825487" height="0.825487" transform="rotate(-90 16.0156 6.36743)" fill="#EF5243"/>
<rect x="17.666" y="6.36743" width="0.825487" height="0.825487" transform="rotate(-90 17.666 6.36743)" fill="#EF5243"/>
<rect width="0.825487" height="0.825487" transform="matrix(4.37114e-08 1 1 -4.37114e-08 16.4277 24.5315)" fill="#EF5243"/>
<rect x="18.4902" y="6.36743" width="0.825487" height="0.825487" transform="rotate(-90 18.4902 6.36743)" fill="#EF5243"/>
<rect width="0.825487" height="0.825487" transform="matrix(4.37114e-08 1 1 -4.37114e-08 17.252 24.5315)" fill="#EF5243"/>
<rect x="16.8398" y="4.71899" width="0.825487" height="0.825487" transform="rotate(-90 16.8398 4.71899)" fill="#EF5243"/>
<rect width="0.825487" height="0.825487" transform="matrix(4.37114e-08 1 1 -4.37114e-08 15.6016 26.1799)" fill="#EF5243"/>
<rect x="16.0156" y="4.71899" width="0.825487" height="0.825487" transform="rotate(-90 16.0156 4.71899)" fill="#EF5243"/>
<rect width="0.825487" height="0.825487" transform="matrix(4.37114e-08 1 1 -4.37114e-08 14.7754 26.1799)" fill="#EF5243"/>
<rect x="15.1875" y="4.71899" width="0.825487" height="0.825487" transform="rotate(-90 15.1875 4.71899)" fill="#EF5243"/>
<rect x="15.1875" y="5.54321" width="0.825487" height="0.825487" transform="rotate(-90 15.1875 5.54321)" fill="#EF5243"/>
<rect x="14.3633" y="4.71899" width="0.825487" height="0.825487" transform="rotate(-90 14.3633 4.71899)" fill="#EF5243"/>
<rect x="17.666" y="4.71899" width="0.825487" height="0.825487" transform="rotate(-90 17.666 4.71899)" fill="#EF5243"/>
<rect width="0.825487" height="0.825487" transform="matrix(4.37114e-08 1 1 -4.37114e-08 16.4277 26.1799)" fill="#EF5243"/>
<rect x="14.8574" y="10.4963" width="0.825487" height="0.825487" transform="rotate(-90 14.8574 10.4963)" fill="#EF5243"/>
<rect x="14.8574" y="8.84399" width="0.825487" height="0.825487" transform="rotate(-90 14.8574 8.84399)" fill="#EF5243"/>
<rect x="14.0312" y="8.01978" width="0.825487" height="0.825487" transform="rotate(-90 14.0312 8.01978)" fill="#EF5243"/>
<rect x="13.207" y="6.36743" width="0.825487" height="0.825487" transform="rotate(-90 13.207 6.36743)" fill="#EF5243"/>
<rect x="12.3828" y="5.54321" width="0.825487" height="0.825487" transform="rotate(-90 12.3828 5.54321)" fill="#EF5243"/>
<rect x="11.5566" y="5.54321" width="0.825487" height="0.825487" transform="rotate(-90 11.5566 5.54321)" fill="#EF5243"/>
<rect x="10.7305" y="5.54321" width="0.825487" height="0.825487" transform="rotate(-90 10.7305 5.54321)" fill="#EF5243"/>
<rect x="9.90625" y="4.71899" width="0.825487" height="0.825487" transform="rotate(-90 9.90625 4.71899)" fill="#EF5243"/>
<rect x="8.25586" y="4.71899" width="0.825487" height="0.825487" transform="rotate(-90 8.25586 4.71899)" fill="#EF5243"/>
<rect x="7.42969" y="4.71899" width="0.825487" height="0.825487" transform="rotate(-90 7.42969 4.71899)" fill="#EF5243"/>
<rect x="6.60352" y="4.71899" width="0.825487" height="0.825487" transform="rotate(-90 6.60352 4.71899)" fill="#EF5243"/>
<rect x="5.7793" y="4.71899" width="0.825487" height="0.825487" transform="rotate(-90 5.7793 4.71899)" fill="#EF5243"/>
<rect x="4.95508" y="4.71899" width="0.825487" height="0.825487" transform="rotate(-90 4.95508 4.71899)" fill="#EF5243"/>
<rect x="4.12695" y="4.71899" width="0.825487" height="0.825487" transform="rotate(-90 4.12695 4.71899)" fill="#EF5243"/>
<rect x="9.08203" y="5.54321" width="0.825487" height="0.825487" transform="rotate(-90 9.08203 5.54321)" fill="#EF5243"/>
<rect width="0.825487" height="0.825487" transform="matrix(4.37114e-08 1 1 -4.37114e-08 4.95508 19.5784)" fill="#EF5243"/>
<rect x="5.86133" y="11.7346" width="0.825487" height="0.825487" transform="rotate(-90 5.86133 11.7346)" fill="#EF5243"/>
<rect width="0.825487" height="0.825487" transform="matrix(4.37114e-08 1 1 -4.37114e-08 4.12695 18.7502)" fill="#EF5243"/>
<rect x="5.03516" y="12.5588" width="0.825487" height="0.825487" transform="rotate(-90 5.03516 12.5588)" fill="#EF5243"/>
<rect width="0.825487" height="0.825487" transform="matrix(4.37114e-08 1 1 -4.37114e-08 3.30078 18.7502)" fill="#EF5243"/>
<rect x="4.20898" y="12.5588" width="0.825487" height="0.825487" transform="rotate(-90 4.20898 12.5588)" fill="#EF5243"/>
<rect width="0.825487" height="0.825487" transform="matrix(4.37114e-08 1 1 -4.37114e-08 2.47461 17.926)" fill="#EF5243"/>
<rect x="3.38477" y="13.3831" width="0.825487" height="0.825487" transform="rotate(-90 3.38477 13.3831)" fill="#EF5243"/>
<rect width="0.825487" height="0.825487" transform="matrix(4.37114e-08 1 1 -4.37114e-08 1.65234 17.926)" fill="#EF5243"/>
<rect x="2.56055" y="13.3831" width="0.825487" height="0.825487" transform="rotate(-90 2.56055 13.3831)" fill="#EF5243"/>
<rect width="0.825487" height="0.825487" transform="matrix(4.37114e-08 1 1 -4.37114e-08 2.47461 18.7502)" fill="#EF5243"/>
<rect x="3.38477" y="12.5588" width="0.825487" height="0.825487" transform="rotate(-90 3.38477 12.5588)" fill="#EF5243"/>
<rect width="0.825487" height="0.825487" transform="matrix(4.37114e-08 1 1 -4.37114e-08 1.65234 18.7502)" fill="#EF5243"/>
<rect x="2.56055" y="12.5588" width="0.825487" height="0.825487" transform="rotate(-90 2.56055 12.5588)" fill="#EF5243"/>
<rect width="0.825487" height="0.825487" transform="matrix(4.37114e-08 1 1 -4.37114e-08 2.47461 19.5784)" fill="#EF5243"/>
<rect x="3.38477" y="11.7346" width="0.825487" height="0.825487" transform="rotate(-90 3.38477 11.7346)" fill="#EF5243"/>
<rect width="0.825487" height="0.825487" transform="matrix(4.37114e-08 1 1 -4.37114e-08 3.30078 19.5784)" fill="#EF5243"/>
<rect x="4.20898" y="11.7346" width="0.825487" height="0.825487" transform="rotate(-90 4.20898 11.7346)" fill="#EF5243"/>
<rect width="0.825487" height="0.825487" transform="matrix(4.37114e-08 1 1 -4.37114e-08 4.12695 19.5784)" fill="#EF5243"/>
<rect x="5.03516" y="11.7346" width="0.825487" height="0.825487" transform="rotate(-90 5.03516 11.7346)" fill="#EF5243"/>
<rect width="0.825487" height="0.825487" transform="matrix(4.37114e-08 1 1 -4.37114e-08 4.95508 20.4026)" fill="#EF5243"/>
<rect x="5.86133" y="10.9104" width="0.825487" height="0.825487" transform="rotate(-90 5.86133 10.9104)" fill="#EF5243"/>
<rect width="0.825487" height="0.825487" transform="matrix(4.37114e-08 1 1 -4.37114e-08 5.7793 20.4026)" fill="#EF5243"/>
<rect x="6.6875" y="10.9065" width="0.825487" height="0.825487" transform="rotate(-90 6.6875 10.9065)" fill="#EF5243"/>
<rect width="0.825487" height="0.825487" transform="matrix(4.37114e-08 1 1 -4.37114e-08 0.826172 18.7502)" fill="#EF5243"/>
<rect x="1.73438" y="12.5588" width="0.825487" height="0.825487" transform="rotate(-90 1.73438 12.5588)" fill="#EF5243"/>
<rect width="0.825487" height="0.825487" transform="matrix(4.37114e-08 1 1 -4.37114e-08 1.65234 19.5784)" fill="#EF5243"/>
<rect x="2.56055" y="11.7346" width="0.825487" height="0.825487" transform="rotate(-90 2.56055 11.7346)" fill="#EF5243"/>
<rect width="0.825487" height="0.825487" transform="matrix(4.37114e-08 1 1 -4.37114e-08 2.47461 20.4026)" fill="#EF5243"/>
<rect x="3.38477" y="10.9065" width="0.825487" height="0.825487" transform="rotate(-90 3.38477 10.9065)" fill="#EF5243"/>
<rect width="0.825487" height="0.825487" transform="matrix(4.37114e-08 1 1 -4.37114e-08 3.30078 20.4026)" fill="#EF5243"/>
<rect x="4.20898" y="10.9065" width="0.825487" height="0.825487" transform="rotate(-90 4.20898 10.9065)" fill="#EF5243"/>
<rect width="0.825487" height="0.825487" transform="matrix(4.37114e-08 1 1 -4.37114e-08 4.12695 20.4026)" fill="#EF5243"/>
<rect x="5.03516" y="10.9104" width="0.825487" height="0.825487" transform="rotate(-90 5.03516 10.9104)" fill="#EF5243"/>
<rect width="0.825487" height="0.825487" transform="matrix(4.37114e-08 1 1 -4.37114e-08 4.95508 21.2268)" fill="#EF5243"/>
<rect x="5.86133" y="10.0823" width="0.825487" height="0.825487" transform="rotate(-90 5.86133 10.0823)" fill="#EF5243"/>
<rect width="0.825487" height="0.825487" transform="matrix(4.37114e-08 1 1 -4.37114e-08 5.7793 21.2268)" fill="#EF5243"/>
<rect x="6.6875" y="10.0823" width="0.825487" height="0.825487" transform="rotate(-90 6.6875 10.0823)" fill="#EF5243"/>
<rect width="0.825487" height="0.825487" transform="matrix(4.37114e-08 1 1 -4.37114e-08 6.60352 21.2268)" fill="#EF5243"/>
<rect x="7.50977" y="10.0823" width="0.825487" height="0.825487" transform="rotate(-90 7.50977 10.0823)" fill="#EF5243"/>
<rect width="0.825487" height="0.825487" transform="matrix(4.37114e-08 1 1 -4.37114e-08 7.42969 21.2268)" fill="#EF5243"/>
<rect x="8.33594" y="10.0823" width="0.825487" height="0.825487" transform="rotate(-90 8.33594 10.0823)" fill="#EF5243"/>
<rect width="0.825487" height="0.825487" transform="matrix(4.37114e-08 1 1 -4.37114e-08 0.826172 19.5784)" fill="#EF5243"/>
<rect x="1.73438" y="11.7346" width="0.825487" height="0.825487" transform="rotate(-90 1.73438 11.7346)" fill="#EF5243"/>
<rect width="0.825487" height="0.825487" transform="matrix(4.37114e-08 1 1 -4.37114e-08 1.65234 20.4026)" fill="#EF5243"/>
<rect x="2.56055" y="10.9065" width="0.825487" height="0.825487" transform="rotate(-90 2.56055 10.9065)" fill="#EF5243"/>
<rect width="0.825487" height="0.825487" transform="matrix(4.37114e-08 1 1 -4.37114e-08 2.47461 21.2268)" fill="#EF5243"/>
<rect x="3.38477" y="10.0823" width="0.825487" height="0.825487" transform="rotate(-90 3.38477 10.0823)" fill="#EF5243"/>
<rect width="0.825487" height="0.825487" transform="matrix(4.37114e-08 1 1 -4.37114e-08 3.30078 21.2268)" fill="#EF5243"/>
<rect x="4.20898" y="10.0823" width="0.825487" height="0.825487" transform="rotate(-90 4.20898 10.0823)" fill="#EF5243"/>
<rect width="0.825487" height="0.825487" transform="matrix(4.37114e-08 1 1 -4.37114e-08 4.12695 21.2268)" fill="#EF5243"/>
<rect x="5.03516" y="10.0823" width="0.825487" height="0.825487" transform="rotate(-90 5.03516 10.0823)" fill="#EF5243"/>
<rect width="0.825487" height="0.825487" transform="matrix(4.37114e-08 1 1 -4.37114e-08 4.95508 22.0549)" fill="#EF5243"/>
<rect x="5.86133" y="9.25806" width="0.825487" height="0.825487" transform="rotate(-90 5.86133 9.25806)" fill="#EF5243"/>
<rect width="0.825487" height="0.825487" transform="matrix(4.37114e-08 1 1 -4.37114e-08 5.7793 22.0549)" fill="#EF5243"/>
<rect x="6.6875" y="9.25806" width="0.825487" height="0.825487" transform="rotate(-90 6.6875 9.25806)" fill="#EF5243"/>
<rect width="0.825487" height="0.825487" transform="matrix(4.37114e-08 1 1 -4.37114e-08 6.60352 22.0549)" fill="#EF5243"/>
<rect x="7.50977" y="9.25806" width="0.825487" height="0.825487" transform="rotate(-90 7.50977 9.25806)" fill="#EF5243"/>
<rect width="0.825487" height="0.825487" transform="matrix(4.37114e-08 1 1 -4.37114e-08 7.42969 22.0549)" fill="#EF5243"/>
<rect x="8.33594" y="9.25806" width="0.825487" height="0.825487" transform="rotate(-90 8.33594 9.25806)" fill="#EF5243"/>
<rect width="0.825487" height="0.825487" transform="matrix(4.37114e-08 1 1 -4.37114e-08 8.25586 22.0549)" fill="#EF5243"/>
<rect x="9.16211" y="9.25806" width="0.825487" height="0.825487" transform="rotate(-90 9.16211 9.25806)" fill="#EF5243"/>
<rect width="0.825487" height="0.825487" transform="matrix(4.37114e-08 1 1 -4.37114e-08 9.08203 22.0549)" fill="#EF5243"/>
<rect x="9.98828" y="9.25806" width="0.825487" height="0.825487" transform="rotate(-90 9.98828 9.25806)" fill="#EF5243"/>
<rect width="0.825487" height="0.825487" transform="matrix(4.37114e-08 1 1 -4.37114e-08 9.90625 21.2268)" fill="#EF5243"/>
<rect x="10.8145" y="10.0823" width="0.825487" height="0.825487" transform="rotate(-90 10.8145 10.0823)" fill="#EF5243"/>
<rect width="0.825487" height="0.825487" transform="matrix(4.37114e-08 1 1 -4.37114e-08 10.7305 21.2268)" fill="#EF5243"/>
<rect x="11.6387" y="10.0823" width="0.825487" height="0.825487" transform="rotate(-90 11.6387 10.0823)" fill="#EF5243"/>
<rect width="0.825487" height="0.825487" transform="matrix(4.37114e-08 1 1 -4.37114e-08 11.5566 20.4026)" fill="#EF5243"/>
<rect x="12.4648" y="10.9065" width="0.825487" height="0.825487" transform="rotate(-90 12.4648 10.9065)" fill="#EF5243"/>
<rect width="0.825487" height="0.825487" transform="matrix(4.37114e-08 1 1 -4.37114e-08 12.3828 19.5784)" fill="#EF5243"/>
<rect x="13.291" y="11.7346" width="0.825487" height="0.825487" transform="rotate(-90 13.291 11.7346)" fill="#EF5243"/>
<rect width="0.825487" height="0.825487" transform="matrix(4.37114e-08 1 1 -4.37114e-08 13.207 19.1643)" fill="#EF5243"/>
<rect x="14.1172" y="12.1487" width="0.825487" height="0.825487" transform="rotate(-90 14.1172 12.1487)" fill="#EF5243"/>
<rect x="15.6855" y="10.4963" width="0.825487" height="0.825487" transform="rotate(-90 15.6855 10.4963)" fill="#EF5243"/>
<rect x="16.8398" y="10.4963" width="0.825487" height="0.825487" transform="rotate(-90 16.8398 10.4963)" fill="#EF5243"/>
<rect width="0.825487" height="0.825487" transform="matrix(4.37114e-08 1 1 -4.37114e-08 15.6016 20.4026)" fill="#EF5243"/>
<rect x="16.8398" y="8.84399" width="0.825487" height="0.825487" transform="rotate(-90 16.8398 8.84399)" fill="#EF5243"/>
<rect width="0.825487" height="0.825487" transform="matrix(4.37114e-08 1 1 -4.37114e-08 15.6016 22.0549)" fill="#EF5243"/>
<rect x="17.666" y="8.84399" width="0.825487" height="0.825487" transform="rotate(-90 17.666 8.84399)" fill="#EF5243"/>
<rect width="0.825487" height="0.825487" transform="matrix(4.37114e-08 1 1 -4.37114e-08 16.4277 22.0549)" fill="#EF5243"/>
<rect x="16.8398" y="7.19556" width="0.825487" height="0.825487" transform="rotate(-90 16.8398 7.19556)" fill="#EF5243"/>
<rect width="0.825487" height="0.825487" transform="matrix(4.37114e-08 1 1 -4.37114e-08 15.6016 23.7034)" fill="#EF5243"/>
<rect x="16.0156" y="7.19556" width="0.825487" height="0.825487" transform="rotate(-90 16.0156 7.19556)" fill="#EF5243"/>
<rect x="17.666" y="7.19556" width="0.825487" height="0.825487" transform="rotate(-90 17.666 7.19556)" fill="#EF5243"/>
<rect width="0.825487" height="0.825487" transform="matrix(4.37114e-08 1 1 -4.37114e-08 16.4277 23.7034)" fill="#EF5243"/>
<rect x="18.4902" y="7.19556" width="0.825487" height="0.825487" transform="rotate(-90 18.4902 7.19556)" fill="#EF5243"/>
<rect width="0.825487" height="0.825487" transform="matrix(4.37114e-08 1 1 -4.37114e-08 17.252 23.7034)" fill="#EF5243"/>
<rect x="16.8398" y="5.54321" width="0.825487" height="0.825487" transform="rotate(-90 16.8398 5.54321)" fill="#EF5243"/>
<rect width="0.825487" height="0.825487" transform="matrix(4.37114e-08 1 1 -4.37114e-08 15.6016 25.3557)" fill="#EF5243"/>
<rect x="16.0156" y="5.54321" width="0.825487" height="0.825487" transform="rotate(-90 16.0156 5.54321)" fill="#EF5243"/>
<rect width="0.825487" height="0.825487" transform="matrix(4.37114e-08 1 1 -4.37114e-08 14.7754 25.3557)" fill="#EF5243"/>
<rect x="17.666" y="5.54321" width="0.825487" height="0.825487" transform="rotate(-90 17.666 5.54321)" fill="#EF5243"/>
<rect width="0.825487" height="0.825487" transform="matrix(4.37114e-08 1 1 -4.37114e-08 16.4277 25.3557)" fill="#EF5243"/>
<rect x="18.4902" y="5.54321" width="0.825487" height="0.825487" transform="rotate(-90 18.4902 5.54321)" fill="#EF5243"/>
<rect width="0.825487" height="0.825487" transform="matrix(4.37114e-08 1 1 -4.37114e-08 17.252 25.3557)" fill="#EF5243"/>
<rect x="16.8398" y="3.89478" width="0.825487" height="0.825487" transform="rotate(-90 16.8398 3.89478)" fill="#EF5243"/>
<rect width="0.825487" height="0.825487" transform="matrix(4.37114e-08 1 1 -4.37114e-08 15.6016 27.0042)" fill="#EF5243"/>
<rect x="16.8398" y="3.06665" width="0.825487" height="0.825487" transform="rotate(-90 16.8398 3.06665)" fill="#EF5243"/>
<rect width="0.825487" height="0.825487" transform="matrix(4.37114e-08 1 1 -4.37114e-08 15.6016 27.8323)" fill="#EF5243"/>
<rect width="0.825487" height="0.825487" transform="matrix(4.37114e-08 1 1 -4.37114e-08 16.4277 27.8323)" fill="#EF5243"/>
<rect x="16.0156" y="3.06665" width="0.825487" height="0.825487" transform="rotate(-90 16.0156 3.06665)" fill="#EF5243"/>
<rect width="0.825487" height="0.825487" transform="matrix(4.37114e-08 1 1 -4.37114e-08 14.7754 27.8323)" fill="#EF5243"/>
<rect x="15.1875" y="3.06665" width="0.825487" height="0.825487" transform="rotate(-90 15.1875 3.06665)" fill="#EF5243"/>
<rect width="0.825487" height="0.825487" transform="matrix(4.37114e-08 1 1 -4.37114e-08 13.9512 27.8323)" fill="#EF5243"/>
<rect x="14.3633" y="3.06665" width="0.825487" height="0.825487" transform="rotate(-90 14.3633 3.06665)" fill="#EF5243"/>
<rect width="0.825487" height="0.825487" transform="matrix(4.37114e-08 1 1 -4.37114e-08 13.125 27.8323)" fill="#EF5243"/>
<rect x="13.5371" y="3.06665" width="0.825487" height="0.825487" transform="rotate(-90 13.5371 3.06665)" fill="#EF5243"/>
<rect x="16.0156" y="2.24243" width="0.825487" height="0.825487" transform="rotate(-90 16.0156 2.24243)" fill="#EF5243"/>
<rect width="0.825487" height="0.825487" transform="matrix(4.37114e-08 1 1 -4.37114e-08 14.7754 28.6565)" fill="#EF5243"/>
<rect width="0.825487" height="0.825487" transform="matrix(4.37114e-08 1 1 -4.37114e-08 15.6016 28.6565)" fill="#EF5243"/>
<rect x="16.0156" y="1.41431" width="0.825487" height="0.825487" transform="rotate(-90 16.0156 1.41431)" fill="#EF5243"/>
<rect width="0.825487" height="0.825487" transform="matrix(4.37114e-08 1 1 -4.37114e-08 14.7754 29.4846)" fill="#EF5243"/>
<rect width="0.825487" height="0.825487" transform="matrix(4.37114e-08 1 1 -4.37114e-08 14.7754 30.3088)" fill="#EF5243"/>
<rect x="15.1875" y="1.41431" width="0.825487" height="0.825487" transform="rotate(-90 15.1875 1.41431)" fill="#EF5243"/>
<rect width="0.825487" height="0.825487" transform="matrix(4.37114e-08 1 1 -4.37114e-08 13.9512 29.4846)" fill="#EF5243"/>
<rect width="0.825487" height="0.825487" transform="matrix(4.37114e-08 1 1 -4.37114e-08 13.9512 30.3088)" fill="#EF5243"/>
<rect x="14.3633" y="1.41431" width="0.825487" height="0.825487" transform="rotate(-90 14.3633 1.41431)" fill="#EF5243"/>
<rect width="0.825487" height="0.825487" transform="matrix(4.37114e-08 1 1 -4.37114e-08 13.125 29.4846)" fill="#EF5243"/>
<rect width="0.825487" height="0.825487" transform="matrix(4.37114e-08 1 1 -4.37114e-08 12.3008 29.4846)" fill="#EF5243"/>
<rect width="0.825487" height="0.825487" transform="matrix(4.37114e-08 1 1 -4.37114e-08 13.125 30.3088)" fill="#EF5243"/>
<rect x="15.1875" y="2.24243" width="0.825487" height="0.825487" transform="rotate(-90 15.1875 2.24243)" fill="#EF5243"/>
<rect width="0.825487" height="0.825487" transform="matrix(4.37114e-08 1 1 -4.37114e-08 13.9512 28.6565)" fill="#EF5243"/>
<rect x="14.3633" y="2.24243" width="0.825487" height="0.825487" transform="rotate(-90 14.3633 2.24243)" fill="#EF5243"/>
<rect width="0.825487" height="0.825487" transform="matrix(4.37114e-08 1 1 -4.37114e-08 13.125 28.6565)" fill="#EF5243"/>
<rect x="13.5371" y="2.24243" width="0.825487" height="0.825487" transform="rotate(-90 13.5371 2.24243)" fill="#EF5243"/>
<rect width="0.825487" height="0.825487" transform="matrix(4.37114e-08 1 1 -4.37114e-08 12.3008 28.6565)" fill="#EF5243"/>
<rect x="16.0156" y="3.89478" width="0.825487" height="0.825487" transform="rotate(-90 16.0156 3.89478)" fill="#EF5243"/>
<rect width="0.825487" height="0.825487" transform="matrix(4.37114e-08 1 1 -4.37114e-08 14.7754 27.0042)" fill="#EF5243"/>
<rect x="15.1875" y="3.89478" width="0.825487" height="0.825487" transform="rotate(-90 15.1875 3.89478)" fill="#EF5243"/>
<rect width="0.825487" height="0.825487" transform="matrix(4.37114e-08 1 1 -4.37114e-08 13.9512 27.0042)" fill="#EF5243"/>
<rect x="14.3633" y="3.89478" width="0.825487" height="0.825487" transform="rotate(-90 14.3633 3.89478)" fill="#EF5243"/>
<rect x="13.5371" y="3.89478" width="0.825487" height="0.825487" transform="rotate(-90 13.5371 3.89478)" fill="#EF5243"/>
<rect x="17.666" y="3.89478" width="0.825487" height="0.825487" transform="rotate(-90 17.666 3.89478)" fill="#EF5243"/>
<rect width="0.825487" height="0.825487" transform="matrix(4.37114e-08 1 1 -4.37114e-08 16.4277 27.0042)" fill="#EF5243"/>
<rect x="14.8574" y="9.67212" width="0.825487" height="0.825487" transform="rotate(-90 14.8574 9.67212)" fill="#EF5243"/>
<rect x="14.0312" y="8.84399" width="0.825487" height="0.825487" transform="rotate(-90 14.0312 8.84399)" fill="#EF5243"/>
<rect x="13.207" y="7.19556" width="0.825487" height="0.825487" transform="rotate(-90 13.207 7.19556)" fill="#EF5243"/>
<rect x="12.3828" y="6.36743" width="0.825487" height="0.825487" transform="rotate(-90 12.3828 6.36743)" fill="#EF5243"/>
<rect x="11.5566" y="6.36743" width="0.825487" height="0.825487" transform="rotate(-90 11.5566 6.36743)" fill="#EF5243"/>
<rect x="10.7305" y="6.36743" width="0.825487" height="0.825487" transform="rotate(-90 10.7305 6.36743)" fill="#EF5243"/>
<rect x="9.90625" y="5.54321" width="0.825487" height="0.825487" transform="rotate(-90 9.90625 5.54321)" fill="#EF5243"/>
<rect x="8.25586" y="5.54321" width="0.825487" height="0.825487" transform="rotate(-90 8.25586 5.54321)" fill="#EF5243"/>
<rect x="7.42969" y="5.54321" width="0.825487" height="0.825487" transform="rotate(-90 7.42969 5.54321)" fill="#EF5243"/>
<rect x="6.60352" y="5.54321" width="0.825487" height="0.825487" transform="rotate(-90 6.60352 5.54321)" fill="#EF5243"/>
<rect x="5.7793" y="5.54321" width="0.825487" height="0.825487" transform="rotate(-90 5.7793 5.54321)" fill="#EF5243"/>
<rect x="4.95508" y="5.54321" width="0.825487" height="0.825487" transform="rotate(-90 4.95508 5.54321)" fill="#EF5243"/>
<rect x="4.12695" y="5.54321" width="0.825487" height="0.825487" transform="rotate(-90 4.12695 5.54321)" fill="#EF5243"/>
<rect x="14.8574" y="8.01978" width="0.825487" height="0.825487" transform="rotate(-90 14.8574 8.01978)" fill="#EF5243"/>
<rect x="14.0312" y="7.19556" width="0.825487" height="0.825487" transform="rotate(-90 14.0312 7.19556)" fill="#EF5243"/>
<rect x="14.0312" y="6.36743" width="0.825487" height="0.825487" transform="rotate(-90 14.0312 6.36743)" fill="#EF5243"/>
<rect x="13.207" y="5.54321" width="0.825487" height="0.825487" transform="rotate(-90 13.207 5.54321)" fill="#EF5243"/>
<rect x="12.3828" y="4.71899" width="0.825487" height="0.825487" transform="rotate(-90 12.3828 4.71899)" fill="#EF5243"/>
<rect x="11.5566" y="4.71899" width="0.825487" height="0.825487" transform="rotate(-90 11.5566 4.71899)" fill="#EF5243"/>
<rect x="10.7305" y="4.71899" width="0.825487" height="0.825487" transform="rotate(-90 10.7305 4.71899)" fill="#EF5243"/>
<rect x="9.90625" y="3.89478" width="0.825487" height="0.825487" transform="rotate(-90 9.90625 3.89478)" fill="#EF5243"/>
<rect x="8.25586" y="3.89478" width="0.825487" height="0.825487" transform="rotate(-90 8.25586 3.89478)" fill="#EF5243"/>
<rect x="7.42969" y="3.89478" width="0.825487" height="0.825487" transform="rotate(-90 7.42969 3.89478)" fill="#EF5243"/>
<rect x="6.60352" y="3.89478" width="0.825487" height="0.825487" transform="rotate(-90 6.60352 3.89478)" fill="#EF5243"/>
<rect x="5.7793" y="3.89478" width="0.825487" height="0.825487" transform="rotate(-90 5.7793 3.89478)" fill="#EF5243"/>
<rect x="4.95508" y="3.89478" width="0.825487" height="0.825487" transform="rotate(-90 4.95508 3.89478)" fill="#EF5243"/>
<rect x="4.12695" y="3.89478" width="0.825487" height="0.825487" transform="rotate(-90 4.12695 3.89478)" fill="#EF5243"/>
<rect x="9.08203" y="4.71899" width="0.825487" height="0.825487" transform="rotate(-90 9.08203 4.71899)" fill="#EF5243"/>
<rect x="12.3828" y="3.89478" width="0.825487" height="0.825487" transform="rotate(-90 12.3828 3.89478)" fill="#EF5243"/>
<rect x="11.5566" y="3.89478" width="0.825487" height="0.825487" transform="rotate(-90 11.5566 3.89478)" fill="#EF5243"/>
<rect x="10.7305" y="3.89478" width="0.825487" height="0.825487" transform="rotate(-90 10.7305 3.89478)" fill="#EF5243"/>
<rect x="9.90625" y="3.06665" width="0.825487" height="0.825487" transform="rotate(-90 9.90625 3.06665)" fill="#EF5243"/>
<rect x="8.25586" y="3.06665" width="0.825487" height="0.825487" transform="rotate(-90 8.25586 3.06665)" fill="#EF5243"/>
<rect x="7.42969" y="3.06665" width="0.825487" height="0.825487" transform="rotate(-90 7.42969 3.06665)" fill="#EF5243"/>
<rect x="6.60352" y="3.06665" width="0.825487" height="0.825487" transform="rotate(-90 6.60352 3.06665)" fill="#EF5243"/>
<rect x="5.7793" y="3.06665" width="0.825487" height="0.825487" transform="rotate(-90 5.7793 3.06665)" fill="#EF5243"/>
<rect x="4.95508" y="3.06665" width="0.825487" height="0.825487" transform="rotate(-90 4.95508 3.06665)" fill="#EF5243"/>
<rect x="9.08203" y="3.89478" width="0.825487" height="0.825487" transform="rotate(-90 9.08203 3.89478)" fill="#EF5243"/>
<rect x="10.7305" y="3.06665" width="0.825487" height="0.825487" transform="rotate(-90 10.7305 3.06665)" fill="#EF5243"/>
<rect x="9.90625" y="2.24243" width="0.825487" height="0.825487" transform="rotate(-90 9.90625 2.24243)" fill="#EF5243"/>
<rect x="8.25586" y="2.24243" width="0.825487" height="0.825487" transform="rotate(-90 8.25586 2.24243)" fill="#EF5243"/>
<rect x="7.42969" y="2.24243" width="0.825487" height="0.825487" transform="rotate(-90 7.42969 2.24243)" fill="#EF5243"/>
<rect x="6.60352" y="2.24243" width="0.825487" height="0.825487" transform="rotate(-90 6.60352 2.24243)" fill="#EF5243"/>
<rect x="5.7793" y="2.24243" width="0.825487" height="0.825487" transform="rotate(-90 5.7793 2.24243)" fill="#EF5243"/>
<rect x="9.08203" y="3.06665" width="0.825487" height="0.825487" transform="rotate(-90 9.08203 3.06665)" fill="#EF5243"/>
<rect x="9.08203" y="2.24243" width="0.825487" height="0.825487" transform="rotate(-90 9.08203 2.24243)" fill="#EF5243"/>
<rect width="0.825487" height="0.825487" transform="matrix(4.37114e-08 1 1 -4.37114e-08 0.826172 20.4026)" fill="#EF5243"/>
<rect x="1.73438" y="10.9065" width="0.825487" height="0.825487" transform="rotate(-90 1.73438 10.9065)" fill="#EF5243"/>
<rect width="0.825487" height="0.825487" transform="matrix(4.37114e-08 1 1 -4.37114e-08 1.65234 21.2268)" fill="#EF5243"/>
<rect x="2.56055" y="10.0823" width="0.825487" height="0.825487" transform="rotate(-90 2.56055 10.0823)" fill="#EF5243"/>
<rect width="0.825487" height="0.825487" transform="matrix(4.37114e-08 1 1 -4.37114e-08 2.47461 22.0549)" fill="#EF5243"/>
<rect x="3.38477" y="9.25806" width="0.825487" height="0.825487" transform="rotate(-90 3.38477 9.25806)" fill="#EF5243"/>
<rect width="0.825487" height="0.825487" transform="matrix(4.37114e-08 1 1 -4.37114e-08 3.30078 22.0549)" fill="#EF5243"/>
<rect x="4.20898" y="9.25806" width="0.825487" height="0.825487" transform="rotate(-90 4.20898 9.25806)" fill="#EF5243"/>
<rect width="0.825487" height="0.825487" transform="matrix(4.37114e-08 1 1 -4.37114e-08 4.12695 22.0549)" fill="#EF5243"/>
<rect x="5.03516" y="9.25806" width="0.825487" height="0.825487" transform="rotate(-90 5.03516 9.25806)" fill="#EF5243"/>
<rect width="0.825487" height="0.825487" transform="matrix(4.37114e-08 1 1 -4.37114e-08 4.95508 22.8792)" fill="#EF5243"/>
<rect x="5.86133" y="8.43384" width="0.825487" height="0.825487" transform="rotate(-90 5.86133 8.43384)" fill="#EF5243"/>
<rect width="0.825487" height="0.825487" transform="matrix(4.37114e-08 1 1 -4.37114e-08 5.7793 22.8792)" fill="#EF5243"/>
<rect x="6.6875" y="8.43384" width="0.825487" height="0.825487" transform="rotate(-90 6.6875 8.43384)" fill="#EF5243"/>
<rect width="0.825487" height="0.825487" transform="matrix(4.37114e-08 1 1 -4.37114e-08 6.60352 22.8792)" fill="#EF5243"/>
<rect x="7.50977" y="8.43384" width="0.825487" height="0.825487" transform="rotate(-90 7.50977 8.43384)" fill="#EF5243"/>
<rect width="0.825487" height="0.825487" transform="matrix(4.37114e-08 1 1 -4.37114e-08 7.42969 22.8792)" fill="#EF5243"/>
<rect x="8.33594" y="8.43384" width="0.825487" height="0.825487" transform="rotate(-90 8.33594 8.43384)" fill="#EF5243"/>
<rect width="0.825487" height="0.825487" transform="matrix(4.37114e-08 1 1 -4.37114e-08 8.25586 22.8792)" fill="#EF5243"/>
<rect x="9.16211" y="8.43384" width="0.825487" height="0.825487" transform="rotate(-90 9.16211 8.43384)" fill="#EF5243"/>
<rect width="0.825487" height="0.825487" transform="matrix(4.37114e-08 1 1 -4.37114e-08 9.08203 22.8792)" fill="#EF5243"/>
<rect x="9.98828" y="8.43384" width="0.825487" height="0.825487" transform="rotate(-90 9.98828 8.43384)" fill="#EF5243"/>
<rect width="0.825487" height="0.825487" transform="matrix(4.37114e-08 1 1 -4.37114e-08 9.90625 22.0549)" fill="#EF5243"/>
<rect x="10.8145" y="9.25806" width="0.825487" height="0.825487" transform="rotate(-90 10.8145 9.25806)" fill="#EF5243"/>
<rect width="0.825487" height="0.825487" transform="matrix(4.37114e-08 1 1 -4.37114e-08 10.7305 22.0549)" fill="#EF5243"/>
<rect x="11.6387" y="9.25806" width="0.825487" height="0.825487" transform="rotate(-90 11.6387 9.25806)" fill="#EF5243"/>
<rect width="0.825487" height="0.825487" transform="matrix(4.37114e-08 1 1 -4.37114e-08 11.5566 21.2268)" fill="#EF5243"/>
<rect x="12.4648" y="10.0823" width="0.825487" height="0.825487" transform="rotate(-90 12.4648 10.0823)" fill="#EF5243"/>
<rect width="0.825487" height="0.825487" transform="matrix(4.37114e-08 1 1 -4.37114e-08 12.3828 20.4026)" fill="#EF5243"/>
<rect x="13.291" y="10.9065" width="0.825487" height="0.825487" transform="rotate(-90 13.291 10.9065)" fill="#EF5243"/>
<rect width="0.825487" height="0.825487" transform="matrix(4.37114e-08 1 1 -4.37114e-08 0.826172 21.2268)" fill="#EF5243"/>
<rect x="1.73438" y="10.0823" width="0.825487" height="0.825487" transform="rotate(-90 1.73438 10.0823)" fill="#EF5243"/>
<rect width="0.825487" height="0.825487" transform="matrix(4.37114e-08 1 1 -4.37114e-08 0.826172 21.2268)" fill="#EF5243"/>
<rect x="1.73438" y="10.0823" width="0.825487" height="0.825487" transform="rotate(-90 1.73438 10.0823)" fill="#EF5243"/>
<rect width="0.825487" height="0.825487" transform="matrix(4.37114e-08 1 1 -4.37114e-08 1.65234 22.0549)" fill="#EF5243"/>
<rect x="2.56055" y="9.25806" width="0.825487" height="0.825487" transform="rotate(-90 2.56055 9.25806)" fill="#EF5243"/>
<rect width="0.825487" height="0.825487" transform="matrix(4.37114e-08 1 1 -4.37114e-08 2.47461 22.8792)" fill="#EF5243"/>
<rect x="3.38477" y="8.43384" width="0.825487" height="0.825487" transform="rotate(-90 3.38477 8.43384)" fill="#EF5243"/>
<rect width="0.825487" height="0.825487" transform="matrix(4.37114e-08 1 1 -4.37114e-08 3.30078 22.8792)" fill="#EF5243"/>
<rect x="4.20898" y="8.43384" width="0.825487" height="0.825487" transform="rotate(-90 4.20898 8.43384)" fill="#EF5243"/>
<rect width="0.825487" height="0.825487" transform="matrix(4.37114e-08 1 1 -4.37114e-08 4.12695 22.8792)" fill="#EF5243"/>
<rect x="5.03516" y="8.43384" width="0.825487" height="0.825487" transform="rotate(-90 5.03516 8.43384)" fill="#EF5243"/>
<rect width="0.825487" height="0.825487" transform="matrix(4.37114e-08 1 1 -4.37114e-08 4.95508 23.7034)" fill="#EF5243"/>
<rect x="5.86133" y="7.60571" width="0.825487" height="0.825487" transform="rotate(-90 5.86133 7.60571)" fill="#EF5243"/>
<rect width="0.825487" height="0.825487" transform="matrix(4.37114e-08 1 1 -4.37114e-08 5.7793 23.7034)" fill="#EF5243"/>
<rect x="6.6875" y="7.60571" width="0.825487" height="0.825487" transform="rotate(-90 6.6875 7.60571)" fill="#EF5243"/>
<rect width="0.825487" height="0.825487" transform="matrix(4.37114e-08 1 1 -4.37114e-08 6.60352 23.7034)" fill="#EF5243"/>
<rect x="7.50977" y="7.60571" width="0.825487" height="0.825487" transform="rotate(-90 7.50977 7.60571)" fill="#EF5243"/>
<rect width="0.825487" height="0.825487" transform="matrix(4.37114e-08 1 1 -4.37114e-08 7.42969 23.7034)" fill="#EF5243"/>
<rect x="8.33594" y="7.60571" width="0.825487" height="0.825487" transform="rotate(-90 8.33594 7.60571)" fill="#EF5243"/>
<rect width="0.825487" height="0.825487" transform="matrix(4.37114e-08 1 1 -4.37114e-08 8.25586 23.7034)" fill="#EF5243"/>
<rect x="9.16211" y="7.60571" width="0.825487" height="0.825487" transform="rotate(-90 9.16211 7.60571)" fill="#EF5243"/>
<rect width="0.825487" height="0.825487" transform="matrix(4.37114e-08 1 1 -4.37114e-08 9.08203 23.7034)" fill="#EF5243"/>
<rect x="9.98828" y="7.60571" width="0.825487" height="0.825487" transform="rotate(-90 9.98828 7.60571)" fill="#EF5243"/>
<rect width="0.825487" height="0.825487" transform="matrix(4.37114e-08 1 1 -4.37114e-08 9.90625 22.8792)" fill="#EF5243"/>
<rect x="10.8145" y="8.43384" width="0.825487" height="0.825487" transform="rotate(-90 10.8145 8.43384)" fill="#EF5243"/>
<rect width="0.825487" height="0.825487" transform="matrix(4.37114e-08 1 1 -4.37114e-08 9.90625 23.7034)" fill="#EF5243"/>
<rect x="10.8145" y="7.60571" width="0.825487" height="0.825487" transform="rotate(-90 10.8145 7.60571)" fill="#EF5243"/>
<rect width="0.825487" height="0.825487" transform="matrix(4.37114e-08 1 1 -4.37114e-08 10.7305 22.8792)" fill="#EF5243"/>
<rect x="11.6387" y="8.43384" width="0.825487" height="0.825487" transform="rotate(-90 11.6387 8.43384)" fill="#EF5243"/>
<rect width="0.825487" height="0.825487" transform="matrix(4.37114e-08 1 1 -4.37114e-08 11.5566 22.0549)" fill="#EF5243"/>
<rect x="12.4648" y="9.25806" width="0.825487" height="0.825487" transform="rotate(-90 12.4648 9.25806)" fill="#EF5243"/>
<rect width="0.825487" height="0.825487" transform="matrix(4.37114e-08 1 1 -4.37114e-08 4.12695 23.7034)" fill="#EF5243"/>
<rect x="5.03516" y="7.60571" width="0.825487" height="0.825487" transform="rotate(-90 5.03516 7.60571)" fill="#EF5243"/>
<rect width="0.825487" height="0.825487" transform="matrix(4.37114e-08 1 1 -4.37114e-08 0 20.4026)" fill="#EF5243"/>
<rect width="0.825487" height="0.825487" transform="matrix(4.37114e-08 1 1 -4.37114e-08 2.47461 27.8323)" fill="#EF5243"/>
<rect width="0.825487" height="0.825487" transform="matrix(4.37114e-08 1 1 -4.37114e-08 3.30078 28.6565)" fill="#EF5243"/>
<rect width="0.825487" height="0.825487" transform="matrix(4.37114e-08 1 1 -4.37114e-08 4.12695 28.6565)" fill="#EF5243"/>
<rect width="0.825487" height="0.825487" transform="matrix(4.37114e-08 1 1 -4.37114e-08 4.95508 28.6565)" fill="#EF5243"/>
<rect width="0.825487" height="0.825487" transform="matrix(4.37114e-08 1 1 -4.37114e-08 5.7793 28.6565)" fill="#EF5243"/>
<rect width="0.825487" height="0.825487" transform="matrix(4.37114e-08 1 1 -4.37114e-08 6.60352 28.6565)" fill="#EF5243"/>
<rect width="0.825487" height="0.825487" transform="matrix(4.37114e-08 1 1 -4.37114e-08 7.42969 28.6565)" fill="#EF5243"/>
<rect width="0.825487" height="0.825487" transform="matrix(4.37114e-08 1 1 -4.37114e-08 8.25586 28.6565)" fill="#EF5243"/>
<rect width="0.825487" height="0.825487" transform="matrix(4.37114e-08 1 1 -4.37114e-08 9.08203 27.8323)" fill="#EF5243"/>
<rect width="0.825487" height="0.825487" transform="matrix(4.37114e-08 1 1 -4.37114e-08 9.08203 28.6565)" fill="#EF5243"/>
<rect width="0.825487" height="0.825487" transform="matrix(4.37114e-08 1 1 -4.37114e-08 9.90625 27.8323)" fill="#EF5243"/>
<rect width="0.825487" height="0.825487" transform="matrix(4.37114e-08 1 1 -4.37114e-08 10.7305 27.8323)" fill="#EF5243"/>
<rect width="0.825487" height="0.825487" transform="matrix(4.37114e-08 1 1 -4.37114e-08 11.5566 27.0042)" fill="#EF5243"/>
<rect width="0.825487" height="0.825487" transform="matrix(4.37114e-08 1 1 -4.37114e-08 12.3828 26.1799)" fill="#EF5243"/>
<rect width="0.825487" height="0.825487" transform="matrix(4.37114e-08 1 1 -4.37114e-08 13.207 25.3557)" fill="#EF5243"/>
<rect width="0.825487" height="0.825487" transform="matrix(4.37114e-08 1 1 -4.37114e-08 13.9512 23.7034)" fill="#EF5243"/>
<rect width="0.825487" height="0.825487" transform="matrix(4.37114e-08 1 1 -4.37114e-08 3.30078 27.0042)" fill="#EF5243"/>
<rect width="0.825487" height="0.825487" transform="matrix(4.37114e-08 1 1 -4.37114e-08 4.12695 27.0042)" fill="#EF5243"/>
<rect width="0.825487" height="0.825487" transform="matrix(4.37114e-08 1 1 -4.37114e-08 4.95508 27.0042)" fill="#EF5243"/>
<rect width="0.825487" height="0.825487" transform="matrix(4.37114e-08 1 1 -4.37114e-08 6.60352 27.0042)" fill="#EF5243"/>
<rect width="0.825487" height="0.825487" transform="matrix(4.37114e-08 1 1 -4.37114e-08 5.7793 27.0042)" fill="#EF5243"/>
<rect width="0.825487" height="0.825487" transform="matrix(4.37114e-08 1 1 -4.37114e-08 7.42969 27.0042)" fill="#EF5243"/>
<rect width="0.825487" height="0.825487" transform="matrix(4.37114e-08 1 1 -4.37114e-08 8.25586 27.0042)" fill="#EF5243"/>
<rect width="0.825487" height="0.825487" transform="matrix(4.37114e-08 1 1 -4.37114e-08 9.08203 26.1799)" fill="#EF5243"/>
<rect width="0.825487" height="0.825487" transform="matrix(4.37114e-08 1 1 -4.37114e-08 9.90625 26.1799)" fill="#EF5243"/>
<rect width="0.825487" height="0.825487" transform="matrix(4.37114e-08 1 1 -4.37114e-08 10.7305 26.1799)" fill="#EF5243"/>
<rect width="0.825487" height="0.825487" transform="matrix(4.37114e-08 1 1 -4.37114e-08 11.5566 25.3557)" fill="#EF5243"/>
<rect width="0.825487" height="0.825487" transform="matrix(4.37114e-08 1 1 -4.37114e-08 12.3828 24.5315)" fill="#EF5243"/>
<rect width="0.825487" height="0.825487" transform="matrix(4.37114e-08 1 1 -4.37114e-08 13.207 23.7034)" fill="#EF5243"/>
<rect width="0.825487" height="0.825487" transform="matrix(4.37114e-08 1 1 -4.37114e-08 13.9512 22.0549)" fill="#EF5243"/>
<rect x="0.908203" y="10.9065" width="0.825487" height="0.825487" transform="rotate(-90 0.908203 10.9065)" fill="#EF5243"/>
<rect width="0.825487" height="0.825487" transform="matrix(4.37114e-08 1 1 -4.37114e-08 0 19.5784)" fill="#EF5243"/>
<rect width="0.825487" height="0.825487" transform="matrix(4.37114e-08 1 1 -4.37114e-08 2.47461 27.0042)" fill="#EF5243"/>
<rect width="0.825487" height="0.825487" transform="matrix(4.37114e-08 1 1 -4.37114e-08 3.30078 27.8323)" fill="#EF5243"/>
<rect width="0.825487" height="0.825487" transform="matrix(4.37114e-08 1 1 -4.37114e-08 4.12695 27.8323)" fill="#EF5243"/>
<rect width="0.825487" height="0.825487" transform="matrix(4.37114e-08 1 1 -4.37114e-08 6.60352 27.8323)" fill="#EF5243"/>
<rect width="0.825487" height="0.825487" transform="matrix(4.37114e-08 1 1 -4.37114e-08 4.95508 27.8323)" fill="#EF5243"/>
<rect width="0.825487" height="0.825487" transform="matrix(4.37114e-08 1 1 -4.37114e-08 5.7793 27.8323)" fill="#EF5243"/>
<rect width="0.825487" height="0.825487" transform="matrix(4.37114e-08 1 1 -4.37114e-08 7.42969 27.8323)" fill="#EF5243"/>
<rect width="0.825487" height="0.825487" transform="matrix(4.37114e-08 1 1 -4.37114e-08 8.25586 27.8323)" fill="#EF5243"/>
<rect width="0.825487" height="0.825487" transform="matrix(4.37114e-08 1 1 -4.37114e-08 9.08203 27.0042)" fill="#EF5243"/>
<rect width="0.825487" height="0.825487" transform="matrix(4.37114e-08 1 1 -4.37114e-08 9.90625 27.0042)" fill="#EF5243"/>
<rect width="0.825487" height="0.825487" transform="matrix(4.37114e-08 1 1 -4.37114e-08 10.7305 27.0042)" fill="#EF5243"/>
<rect width="0.825487" height="0.825487" transform="matrix(4.37114e-08 1 1 -4.37114e-08 11.5566 26.1799)" fill="#EF5243"/>
<rect width="0.825487" height="0.825487" transform="matrix(4.37114e-08 1 1 -4.37114e-08 12.3828 25.3557)" fill="#EF5243"/>
<rect width="0.825487" height="0.825487" transform="matrix(4.37114e-08 1 1 -4.37114e-08 13.207 24.5315)" fill="#EF5243"/>
<rect width="0.825487" height="0.825487" transform="matrix(4.37114e-08 1 1 -4.37114e-08 13.9512 22.8792)" fill="#EF5243"/>
<rect width="0.825487" height="0.825487" transform="matrix(4.37114e-08 1 1 -4.37114e-08 3.30078 26.1799)" fill="#EF5243"/>
<rect width="0.825487" height="0.825487" transform="matrix(4.37114e-08 1 1 -4.37114e-08 6.60352 26.1799)" fill="#EF5243"/>
<rect width="0.825487" height="0.825487" transform="matrix(4.37114e-08 1 1 -4.37114e-08 6.60352 25.3557)" fill="#EF5243"/>
<rect width="0.825487" height="0.825487" transform="matrix(4.37114e-08 1 1 -4.37114e-08 4.12695 26.1799)" fill="#EF5243"/>
<rect width="0.825487" height="0.825487" transform="matrix(4.37114e-08 1 1 -4.37114e-08 4.12695 25.3557)" fill="#EF5243"/>
<rect width="0.825487" height="0.825487" transform="matrix(4.37114e-08 1 1 -4.37114e-08 4.95508 26.1799)" fill="#EF5243"/>
<rect width="0.825487" height="0.825487" transform="matrix(4.37114e-08 1 1 -4.37114e-08 4.95508 25.3557)" fill="#EF5243"/>
<rect width="0.825487" height="0.825487" transform="matrix(4.37114e-08 1 1 -4.37114e-08 5.7793 26.1799)" fill="#EF5243"/>
<rect width="0.825487" height="0.825487" transform="matrix(4.37114e-08 1 1 -4.37114e-08 5.7793 25.3557)" fill="#EF5243"/>
<rect width="0.825487" height="0.825487" transform="matrix(4.37114e-08 1 1 -4.37114e-08 7.42969 26.1799)" fill="#EF5243"/>
<rect width="0.825487" height="0.825487" transform="matrix(4.37114e-08 1 1 -4.37114e-08 7.42969 25.3557)" fill="#EF5243"/>
<rect width="0.825487" height="0.825487" transform="matrix(4.37114e-08 1 1 -4.37114e-08 8.25586 26.1799)" fill="#EF5243"/>
<rect width="0.825487" height="0.825487" transform="matrix(4.37114e-08 1 1 -4.37114e-08 8.25586 25.3557)" fill="#EF5243"/>
<rect width="0.825487" height="0.825487" transform="matrix(4.37114e-08 1 1 -4.37114e-08 9.08203 25.3557)" fill="#EF5243"/>
<rect width="0.825487" height="0.825487" transform="matrix(4.37114e-08 1 1 -4.37114e-08 9.90625 25.3557)" fill="#EF5243"/>
<rect width="0.825487" height="0.825487" transform="matrix(4.37114e-08 1 1 -4.37114e-08 10.7305 25.3557)" fill="#EF5243"/>
<rect width="0.825487" height="0.825487" transform="matrix(4.37114e-08 1 1 -4.37114e-08 11.5566 24.5315)" fill="#EF5243"/>
<rect width="0.825487" height="0.825487" transform="matrix(4.37114e-08 1 1 -4.37114e-08 12.3828 23.7034)" fill="#EF5243"/>
<rect width="0.825487" height="0.825487" transform="matrix(4.37114e-08 1 1 -4.37114e-08 13.207 22.8792)" fill="#EF5243"/>
<rect width="0.825487" height="0.825487" transform="matrix(4.37114e-08 1 1 -4.37114e-08 13.9512 21.2268)" fill="#EF5243"/>
<rect x="0.908203" y="11.7346" width="0.825487" height="0.825487" transform="rotate(-90 0.908203 11.7346)" fill="#EF5243"/>
<rect width="0.825487" height="0.825487" transform="matrix(4.37114e-08 1 1 -4.37114e-08 4.12695 14.6252)" fill="#EF5243"/>
<rect width="0.825487" height="0.825487" transform="matrix(4.37114e-08 1 1 -4.37114e-08 3.30078 14.6252)" fill="#EF5243"/>
<rect width="0.825487" height="0.825487" transform="matrix(4.37114e-08 1 1 -4.37114e-08 9.90625 12.1487)" fill="#EF5243"/>
<rect width="0.825487" height="0.825487" transform="matrix(4.37114e-08 1 1 -4.37114e-08 9.90625 11.3206)" fill="#EF5243"/>
<rect width="0.825487" height="0.825487" transform="matrix(4.37114e-08 1 1 -4.37114e-08 10.7305 12.1487)" fill="#EF5243"/>
<rect width="0.825487" height="0.825487" transform="matrix(4.37114e-08 1 1 -4.37114e-08 8.25586 12.1487)" fill="#EF5243"/>
<rect width="0.825487" height="0.825487" transform="matrix(4.37114e-08 1 1 -4.37114e-08 7.42969 12.1487)" fill="#EF5243"/>
<rect width="0.825487" height="0.825487" transform="matrix(4.37114e-08 1 1 -4.37114e-08 11.5566 14.6252)" fill="#EF5243"/>
<rect width="0.825487" height="0.825487" transform="matrix(4.37114e-08 1 1 -4.37114e-08 11.5566 15.4495)" fill="#EF5243"/>
<rect width="0.825487" height="0.825487" transform="matrix(4.37114e-08 1 1 -4.37114e-08 11.5566 16.2737)" fill="#EF5243"/>
<rect width="0.825487" height="0.825487" transform="matrix(4.37114e-08 1 1 -4.37114e-08 11.5566 17.1018)" fill="#EF5243"/>
<rect width="0.825487" height="0.825487" transform="matrix(4.37114e-08 1 1 -4.37114e-08 12.3828 17.1018)" fill="#EF5243"/>
<rect width="0.825487" height="0.825487" transform="matrix(4.37114e-08 1 1 -4.37114e-08 11.5566 17.926)" fill="#EF5243"/>
<rect width="0.825487" height="0.825487" transform="matrix(4.37114e-08 1 1 -4.37114e-08 14.8574 15.4495)" fill="#EF5243"/>
</svg>
