<svg width="41" height="19" viewBox="0 0 31 19" fill="none" xmlns="http://www.w3.org/2000/svg">
<rect width="0.825487" height="0.825487" transform="matrix(1 0 0 -1 15.6836 4.46094)" fill="#EF5243"/>
<rect width="0.825487" height="0.825487" transform="matrix(1 0 0 -1 15.6836 5.28906)" fill="#EF5243"/>
<rect width="0.825487" height="0.825487" transform="matrix(1 0 0 -1 14.8594 5.28906)" fill="#EF5243"/>
<rect width="0.825487" height="0.825487" transform="matrix(1 0 0 -1 14.8594 6.9375)" fill="#EF5243"/>
<rect width="0.825487" height="0.825487" transform="matrix(1 0 0 -1 14.8594 6.35938)" fill="#EF5243"/>
<rect width="0.825487" height="0.825487" transform="matrix(1 0 0 -1 14.0312 6.35938)" fill="#EF5243"/>
<rect width="0.825487" height="0.825487" transform="matrix(1 0 0 -1 15.6836 6.35938)" fill="#EF5243"/>
<rect width="0.825487" height="0.825487" transform="matrix(1 0 0 -1 15.6836 6.9375)" fill="#EF5243"/>
<rect width="0.825487" height="0.825487" transform="matrix(1 0 0 -1 14.0312 6.9375)" fill="#EF5243"/>
<rect width="0.825487" height="0.825487" transform="matrix(1 0 0 -1 13.207 6.9375)" fill="#EF5243"/>
<rect width="0.825487" height="0.825487" transform="matrix(1 0 0 -1 13.207 8.58984)" fill="#EF5243"/>
<rect width="0.825487" height="0.825487" transform="matrix(1 0 0 -1 14.0312 8.58984)" fill="#EF5243"/>
<rect width="0.825487" height="0.825487" transform="matrix(1 0 0 -1 12.3809 8.58984)" fill="#EF5243"/>
<rect width="0.825487" height="0.825487" transform="matrix(1 0 0 -1 12.3809 7.76562)" fill="#EF5243"/>
<rect width="0.825487" height="0.825487" transform="matrix(1 0 0 -1 12.3809 10.2383)" fill="#EF5243"/>
<rect width="0.825487" height="0.825487" transform="matrix(1 0 0 -1 11.5547 10.2383)" fill="#EF5243"/>
<rect width="0.825487" height="0.825487" transform="matrix(1 0 0 -1 10.7305 10.2383)" fill="#EF5243"/>
<rect width="0.825487" height="0.825487" transform="matrix(1 0 0 -1 13.207 7.76562)" fill="#EF5243"/>
<rect width="0.825487" height="0.825487" transform="matrix(1 0 0 -1 13.207 9.41406)" fill="#EF5243"/>
<rect width="0.825487" height="0.825487" transform="matrix(1 0 0 -1 14.0312 9.41406)" fill="#EF5243"/>
<rect width="0.825487" height="0.825487" transform="matrix(1 0 0 -1 13.207 10.2383)" fill="#EF5243"/>
<rect width="0.825487" height="0.825487" transform="matrix(1 0 0 -1 14.0312 10.2383)" fill="#EF5243"/>
<rect width="0.825487" height="0.825487" transform="matrix(1 0 0 -1 13.207 11.0625)" fill="#EF5243"/>
<rect width="0.825487" height="0.825487" transform="matrix(1 0 0 -1 14.0312 11.0625)" fill="#EF5243"/>
<rect width="0.825487" height="0.825487" transform="matrix(1 0 0 -1 13.207 11.8906)" fill="#EF5243"/>
<rect width="0.825487" height="0.825487" transform="matrix(1 0 0 -1 14.0312 11.8906)" fill="#EF5243"/>
<rect width="0.825487" height="0.825487" transform="matrix(1 0 0 -1 13.207 12.7188)" fill="#EF5243"/>
<rect width="0.825487" height="0.825487" transform="matrix(1 0 0 -1 14.0312 13.5391)" fill="#EF5243"/>
<rect width="0.825487" height="0.825487" transform="matrix(1 0 0 -1 14.0312 14.3672)" fill="#EF5243"/>
<rect width="0.825487" height="0.825487" transform="matrix(1 0 0 -1 16.5098 14.3672)" fill="#EF5243"/>
<rect width="0.825487" height="0.825487" transform="matrix(1 0 0 -1 14.8594 15.1953)" fill="#EF5243"/>
<rect width="0.825487" height="0.825487" transform="matrix(1 0 0 -1 14.8594 16.0195)" fill="#EF5243"/>
<rect width="0.825487" height="0.825487" transform="matrix(1 0 0 -1 14.3613 16.8438)" fill="#EF5243"/>
<rect width="0.825487" height="0.825487" transform="matrix(1 0 0 -1 14.3613 17.668)" fill="#EF5243"/>
<rect width="0.825487" height="0.825487" transform="matrix(1 0 0 -1 14.0312 19.3203)" fill="#EF5243"/>
<rect width="0.825487" height="0.825487" transform="matrix(1 0 0 -1 14.8594 13.5391)" fill="#EF5243"/>
<rect width="0.825487" height="0.825487" transform="matrix(1 0 0 -1 14.0312 12.7188)" fill="#EF5243"/>
<rect width="0.825487" height="0.825487" transform="matrix(1 0 0 -1 14.8594 14.3672)" fill="#EF5243"/>
<rect width="0.825487" height="0.825487" transform="matrix(1 0 0 -1 14.8594 12.7188)" fill="#EF5243"/>
<rect width="0.825487" height="0.825487" transform="matrix(1 0 0 -1 14.8594 11.8906)" fill="#EF5243"/>
<rect width="0.825487" height="0.825487" transform="matrix(1 0 0 -1 16.5098 13.5391)" fill="#EF5243"/>
<rect width="0.825487" height="0.825487" transform="matrix(1 0 0 -1 17.334 12.7188)" fill="#EF5243"/>
<rect width="0.825487" height="0.825487" transform="matrix(1 0 0 -1 17.334 13.5391)" fill="#EF5243"/>
<rect width="0.825487" height="0.825487" transform="matrix(1 0 0 -1 17.334 11.8906)" fill="#EF5243"/>
<rect width="0.825487" height="0.825487" transform="matrix(1 0 0 -1 17.334 11.0625)" fill="#EF5243"/>
<rect width="0.825487" height="0.825487" transform="matrix(1 0 0 -1 17.334 10.2383)" fill="#EF5243"/>
<rect width="0.825487" height="0.825487" transform="matrix(1 0 0 -1 17.334 9.41406)" fill="#EF5243"/>
<rect width="0.825487" height="0.825487" transform="matrix(1 0 0 -1 17.334 8.58984)" fill="#EF5243"/>
<rect width="0.825487" height="0.825487" transform="matrix(1 0 0 -1 18.1602 11.0625)" fill="#EF5243"/>
<rect width="0.825487" height="0.825487" transform="matrix(1 0 0 -1 18.1602 10.2383)" fill="#EF5243"/>
<rect width="0.825487" height="0.825487" transform="matrix(1 0 0 -1 18.1602 9.41406)" fill="#EF5243"/>
<rect width="0.825487" height="0.825487" transform="matrix(1 0 0 -1 15.6836 15.1953)" fill="#EF5243"/>
<rect width="0.825487" height="0.825487" transform="matrix(1 0 0 -1 15.6836 16.0195)" fill="#EF5243"/>
<rect width="0.825487" height="0.825487" transform="matrix(1 0 0 -1 15.1895 16.8438)" fill="#EF5243"/>
<rect width="0.825487" height="0.825487" transform="matrix(1 0 0 -1 12.3809 9.41406)" fill="#EF5243"/>
<rect width="0.825487" height="0.825487" transform="matrix(1 0 0 -1 12.3809 11.0625)" fill="#EF5243"/>
<rect width="0.825487" height="0.825487" transform="matrix(1 0 0 -1 13.207 13.5391)" fill="#EF5243"/>
<rect width="0.825487" height="0.825487" transform="matrix(1 0 0 -1 12.3809 11.8906)" fill="#EF5243"/>
<rect width="0.825487" height="0.825487" transform="matrix(1 0 0 -1 12.3809 12.7188)" fill="#EF5243"/>
<rect width="0.825487" height="0.825487" transform="matrix(1 0 0 -1 13.207 14.3672)" fill="#EF5243"/>
<rect width="0.825487" height="0.825487" transform="matrix(1 0 0 -1 15.6836 14.3672)" fill="#EF5243"/>
<rect width="0.825487" height="0.825487" transform="matrix(1 0 0 -1 19.8105 13.5391)" fill="#EF5243"/>
<rect x="10.3164" y="12.6328" width="0.825487" height="0.825487" transform="rotate(-180 10.3164 12.6328)" fill="#EF5243"/>
<rect width="0.825487" height="0.825487" transform="matrix(1 0 0 -1 19.8105 12.7188)" fill="#EF5243"/>
<rect x="10.3164" y="11.8125" width="0.825487" height="0.825487" transform="rotate(-180 10.3164 11.8125)" fill="#EF5243"/>
<rect width="0.825487" height="0.825487" transform="matrix(1 0 0 -1 20.6367 11.0625)" fill="#EF5243"/>
<rect x="9.49023" y="10.1562" width="0.825487" height="0.825487" transform="rotate(-180 9.49023 10.1562)" fill="#EF5243"/>
<rect width="0.825487" height="0.825487" transform="matrix(1 0 0 -1 20.6367 10.2383)" fill="#EF5243"/>
<rect x="9.49023" y="9.33203" width="0.825487" height="0.825487" transform="rotate(-180 9.49023 9.33203)" fill="#EF5243"/>
<rect width="0.825487" height="0.825487" transform="matrix(1 0 0 -1 19.8105 8.58984)" fill="#EF5243"/>
<rect x="10.3164" y="7.67969" width="0.825487" height="0.825487" transform="rotate(-180 10.3164 7.67969)" fill="#EF5243"/>
<rect width="0.825487" height="0.825487" transform="matrix(1 0 0 -1 18.9844 7.76562)" fill="#EF5243"/>
<rect x="11.1426" y="6.85547" width="0.825487" height="0.825487" transform="rotate(-180 11.1426 6.85547)" fill="#EF5243"/>
<rect width="0.825487" height="0.825487" transform="matrix(1 0 0 -1 18.1602 6.9375)" fill="#EF5243"/>
<rect x="11.9688" y="6.03125" width="0.825487" height="0.825487" transform="rotate(-180 11.9688 6.03125)" fill="#EF5243"/>
<rect width="0.825487" height="0.825487" transform="matrix(1 0 0 -1 17.7461 6.11328)" fill="#EF5243"/>
<rect x="12.3809" y="5.20312" width="0.825487" height="0.825487" transform="rotate(-180 12.3809 5.20312)" fill="#EF5243"/>
<rect x="10.7305" y="3.63281" width="0.825487" height="0.825487" transform="rotate(-180 10.7305 3.63281)" fill="#EF5243"/>
<rect x="10.7305" y="2.48047" width="0.825487" height="0.825487" transform="rotate(-180 10.7305 2.48047)" fill="#EF5243"/>
<rect width="0.825487" height="0.825487" transform="matrix(1 0 0 -1 18.9844 3.71875)" fill="#EF5243"/>
<rect x="9.07812" y="2.48047" width="0.825487" height="0.825487" transform="rotate(-180 9.07812 2.48047)" fill="#EF5243"/>
<rect width="0.825487" height="0.825487" transform="matrix(1 0 0 -1 20.6367 3.71875)" fill="#EF5243"/>
<rect x="7.42773" y="2.48047" width="0.825487" height="0.825487" transform="rotate(-180 7.42773 2.48047)" fill="#EF5243"/>
<rect width="0.825487" height="0.825487" transform="matrix(1 0 0 -1 22.2871 3.71875)" fill="#EF5243"/>
<rect x="7.42773" y="1.65625" width="0.825487" height="0.825487" transform="rotate(-180 7.42773 1.65625)" fill="#EF5243"/>
<rect width="0.825487" height="0.825487" transform="matrix(1 0 0 -1 22.2871 2.89062)" fill="#EF5243"/>
<rect x="5.77734" y="2.48047" width="0.825487" height="0.825487" transform="rotate(-180 5.77734 2.48047)" fill="#EF5243"/>
<rect width="0.825487" height="0.825487" transform="matrix(1 0 0 -1 23.9375 3.71875)" fill="#EF5243"/>
<rect x="5.77734" y="3.30469" width="0.825487" height="0.825487" transform="rotate(-180 5.77734 3.30469)" fill="#EF5243"/>
<rect x="5.77734" y="1.65625" width="0.825487" height="0.825487" transform="rotate(-180 5.77734 1.65625)" fill="#EF5243"/>
<rect width="0.825487" height="0.825487" transform="matrix(1 0 0 -1 23.9375 2.89062)" fill="#EF5243"/>
<rect x="5.77734" y="0.828125" width="0.825487" height="0.825487" transform="rotate(-180 5.77734 0.828125)" fill="#EF5243"/>
<rect width="0.825487" height="0.825487" transform="matrix(1 0 0 -1 23.9375 2.07031)" fill="#EF5243"/>
<rect x="4.125" y="2.48047" width="0.825487" height="0.825487" transform="rotate(-180 4.125 2.48047)" fill="#EF5243"/>
<rect width="0.825487" height="0.825487" transform="matrix(1 0 0 -1 25.5898 3.71875)" fill="#EF5243"/>
<rect x="4.125" y="3.30469" width="0.825487" height="0.825487" transform="rotate(-180 4.125 3.30469)" fill="#EF5243"/>
<rect width="0.825487" height="0.825487" transform="matrix(1 0 0 -1 25.5898 4.54688)" fill="#EF5243"/>
<rect x="4.125" y="4.13281" width="0.825487" height="0.825487" transform="rotate(-180 4.125 4.13281)" fill="#EF5243"/>
<rect x="4.95312" y="4.13281" width="0.825487" height="0.825487" transform="rotate(-180 4.95312 4.13281)" fill="#EF5243"/>
<rect x="4.125" y="4.95703" width="0.825487" height="0.825487" transform="rotate(-180 4.125 4.95703)" fill="#EF5243"/>
<rect x="4.125" y="1.65625" width="0.825487" height="0.825487" transform="rotate(-180 4.125 1.65625)" fill="#EF5243"/>
<rect width="0.825487" height="0.825487" transform="matrix(1 0 0 -1 25.5898 2.89062)" fill="#EF5243"/>
<rect x="9.9043" y="4.46094" width="0.825487" height="0.825487" transform="rotate(-180 9.9043 4.46094)" fill="#EF5243"/>
<rect x="8.25391" y="4.46094" width="0.825487" height="0.825487" transform="rotate(-180 8.25391 4.46094)" fill="#EF5243"/>
<rect x="7.42773" y="5.28906" width="0.825487" height="0.825487" transform="rotate(-180 7.42773 5.28906)" fill="#EF5243"/>
<rect x="5.77734" y="6.11328" width="0.825487" height="0.825487" transform="rotate(-180 5.77734 6.11328)" fill="#EF5243"/>
<rect x="4.95312" y="6.9375" width="0.825487" height="0.825487" transform="rotate(-180 4.95312 6.9375)" fill="#EF5243"/>
<rect x="4.95312" y="7.76562" width="0.825487" height="0.825487" transform="rotate(-180 4.95312 7.76562)" fill="#EF5243"/>
<rect x="4.95312" y="8.58984" width="0.825487" height="0.825487" transform="rotate(-180 4.95312 8.58984)" fill="#EF5243"/>
<rect x="4.125" y="9.41406" width="0.825487" height="0.825487" transform="rotate(-180 4.125 9.41406)" fill="#EF5243"/>
<rect x="4.125" y="11.0625" width="0.825487" height="0.825487" transform="rotate(-180 4.125 11.0625)" fill="#EF5243"/>
<rect x="4.125" y="11.8906" width="0.825487" height="0.825487" transform="rotate(-180 4.125 11.8906)" fill="#EF5243"/>
<rect x="4.125" y="12.7188" width="0.825487" height="0.825487" transform="rotate(-180 4.125 12.7188)" fill="#EF5243"/>
<rect x="4.125" y="13.5391" width="0.825487" height="0.825487" transform="rotate(-180 4.125 13.5391)" fill="#EF5243"/>
<rect x="4.125" y="14.3672" width="0.825487" height="0.825487" transform="rotate(-180 4.125 14.3672)" fill="#EF5243"/>
<rect x="4.125" y="15.1953" width="0.825487" height="0.825487" transform="rotate(-180 4.125 15.1953)" fill="#EF5243"/>
<rect x="4.95312" y="10.2383" width="0.825487" height="0.825487" transform="rotate(-180 4.95312 10.2383)" fill="#EF5243"/>
<rect width="0.825487" height="0.825487" transform="matrix(1 0 0 -1 18.9844 14.3672)" fill="#EF5243"/>
<rect x="11.1426" y="13.4609" width="0.825487" height="0.825487" transform="rotate(-180 11.1426 13.4609)" fill="#EF5243"/>
<rect width="0.825487" height="0.825487" transform="matrix(1 0 0 -1 18.1602 15.1953)" fill="#EF5243"/>
<rect x="11.9688" y="14.2852" width="0.825487" height="0.825487" transform="rotate(-180 11.9688 14.2852)" fill="#EF5243"/>
<rect width="0.825487" height="0.825487" transform="matrix(1 0 0 -1 18.1602 16.0195)" fill="#EF5243"/>
<rect x="11.9688" y="15.1094" width="0.825487" height="0.825487" transform="rotate(-180 11.9688 15.1094)" fill="#EF5243"/>
<rect width="0.825487" height="0.825487" transform="matrix(1 0 0 -1 17.334 16.8438)" fill="#EF5243"/>
<rect x="12.7949" y="15.9375" width="0.825487" height="0.825487" transform="rotate(-180 12.7949 15.9375)" fill="#EF5243"/>
<rect width="0.825487" height="0.825487" transform="matrix(1 0 0 -1 17.334 17.668)" fill="#EF5243"/>
<rect x="12.7949" y="16.7578" width="0.825487" height="0.825487" transform="rotate(-180 12.7949 16.7578)" fill="#EF5243"/>
<rect width="0.825487" height="0.825487" transform="matrix(1 0 0 -1 18.1602 16.8438)" fill="#EF5243"/>
<rect x="11.9688" y="15.9375" width="0.825487" height="0.825487" transform="rotate(-180 11.9688 15.9375)" fill="#EF5243"/>
<rect width="0.825487" height="0.825487" transform="matrix(1 0 0 -1 18.1602 17.668)" fill="#EF5243"/>
<rect x="11.9688" y="16.7578" width="0.825487" height="0.825487" transform="rotate(-180 11.9688 16.7578)" fill="#EF5243"/>
<rect width="0.825487" height="0.825487" transform="matrix(1 0 0 -1 18.9844 16.8438)" fill="#EF5243"/>
<rect x="11.1426" y="15.9375" width="0.825487" height="0.825487" transform="rotate(-180 11.1426 15.9375)" fill="#EF5243"/>
<rect width="0.825487" height="0.825487" transform="matrix(1 0 0 -1 18.9844 16.0195)" fill="#EF5243"/>
<rect x="11.1426" y="15.1094" width="0.825487" height="0.825487" transform="rotate(-180 11.1426 15.1094)" fill="#EF5243"/>
<rect width="0.825487" height="0.825487" transform="matrix(1 0 0 -1 18.9844 15.1953)" fill="#EF5243"/>
<rect x="11.1426" y="14.2852" width="0.825487" height="0.825487" transform="rotate(-180 11.1426 14.2852)" fill="#EF5243"/>
<rect width="0.825487" height="0.825487" transform="matrix(1 0 0 -1 19.8105 14.3672)" fill="#EF5243"/>
<rect x="10.3164" y="13.4609" width="0.825487" height="0.825487" transform="rotate(-180 10.3164 13.4609)" fill="#EF5243"/>
<rect width="0.825487" height="0.825487" transform="matrix(1 0 0 -1 19.8105 13.5391)" fill="#EF5243"/>
<rect x="10.3164" y="12.6328" width="0.825487" height="0.825487" transform="rotate(-180 10.3164 12.6328)" fill="#EF5243"/>
<rect width="0.825487" height="0.825487" transform="matrix(1 0 0 -1 18.1602 18.4922)" fill="#EF5243"/>
<rect x="11.9688" y="17.5859" width="0.825487" height="0.825487" transform="rotate(-180 11.9688 17.5859)" fill="#EF5243"/>
<rect width="0.825487" height="0.825487" transform="matrix(1 0 0 -1 18.9844 17.668)" fill="#EF5243"/>
<rect x="11.1426" y="16.7578" width="0.825487" height="0.825487" transform="rotate(-180 11.1426 16.7578)" fill="#EF5243"/>
<rect width="0.825487" height="0.825487" transform="matrix(1 0 0 -1 19.8105 16.8438)" fill="#EF5243"/>
<rect x="10.3164" y="15.9375" width="0.825487" height="0.825487" transform="rotate(-180 10.3164 15.9375)" fill="#EF5243"/>
<rect width="0.825487" height="0.825487" transform="matrix(1 0 0 -1 19.8105 16.0195)" fill="#EF5243"/>
<rect x="10.3164" y="15.1094" width="0.825487" height="0.825487" transform="rotate(-180 10.3164 15.1094)" fill="#EF5243"/>
<rect width="0.825487" height="0.825487" transform="matrix(1 0 0 -1 19.8105 15.1953)" fill="#EF5243"/>
<rect x="10.3164" y="14.2852" width="0.825487" height="0.825487" transform="rotate(-180 10.3164 14.2852)" fill="#EF5243"/>
<rect width="0.825487" height="0.825487" transform="matrix(1 0 0 -1 20.6367 14.3672)" fill="#EF5243"/>
<rect x="9.49023" y="13.4609" width="0.825487" height="0.825487" transform="rotate(-180 9.49023 13.4609)" fill="#EF5243"/>
<rect width="0.825487" height="0.825487" transform="matrix(1 0 0 -1 20.6367 13.5391)" fill="#EF5243"/>
<rect x="9.49023" y="12.6328" width="0.825487" height="0.825487" transform="rotate(-180 9.49023 12.6328)" fill="#EF5243"/>
<rect width="0.825487" height="0.825487" transform="matrix(1 0 0 -1 20.6367 12.7188)" fill="#EF5243"/>
<rect x="9.49023" y="11.8125" width="0.825487" height="0.825487" transform="rotate(-180 9.49023 11.8125)" fill="#EF5243"/>
<rect width="0.825487" height="0.825487" transform="matrix(1 0 0 -1 20.6367 11.8906)" fill="#EF5243"/>
<rect x="9.49023" y="10.9844" width="0.825487" height="0.825487" transform="rotate(-180 9.49023 10.9844)" fill="#EF5243"/>
<rect width="0.825487" height="0.825487" transform="matrix(1 0 0 -1 18.9844 18.4922)" fill="#EF5243"/>
<rect x="11.1426" y="17.5859" width="0.825487" height="0.825487" transform="rotate(-180 11.1426 17.5859)" fill="#EF5243"/>
<rect width="0.825487" height="0.825487" transform="matrix(1 0 0 -1 19.8105 17.668)" fill="#EF5243"/>
<rect x="10.3164" y="16.7578" width="0.825487" height="0.825487" transform="rotate(-180 10.3164 16.7578)" fill="#EF5243"/>
<rect width="0.825487" height="0.825487" transform="matrix(1 0 0 -1 20.6367 16.8438)" fill="#EF5243"/>
<rect x="9.49023" y="15.9375" width="0.825487" height="0.825487" transform="rotate(-180 9.49023 15.9375)" fill="#EF5243"/>
<rect width="0.825487" height="0.825487" transform="matrix(1 0 0 -1 20.6367 16.0195)" fill="#EF5243"/>
<rect x="9.49023" y="15.1094" width="0.825487" height="0.825487" transform="rotate(-180 9.49023 15.1094)" fill="#EF5243"/>
<rect width="0.825487" height="0.825487" transform="matrix(1 0 0 -1 20.6367 15.1953)" fill="#EF5243"/>
<rect x="9.49023" y="14.2852" width="0.825487" height="0.825487" transform="rotate(-180 9.49023 14.2852)" fill="#EF5243"/>
<rect width="0.825487" height="0.825487" transform="matrix(1 0 0 -1 21.4609 14.3672)" fill="#EF5243"/>
<rect x="8.66602" y="13.4609" width="0.825487" height="0.825487" transform="rotate(-180 8.66602 13.4609)" fill="#EF5243"/>
<rect width="0.825487" height="0.825487" transform="matrix(1 0 0 -1 21.4609 13.5391)" fill="#EF5243"/>
<rect x="8.66602" y="12.6328" width="0.825487" height="0.825487" transform="rotate(-180 8.66602 12.6328)" fill="#EF5243"/>
<rect width="0.825487" height="0.825487" transform="matrix(1 0 0 -1 21.4609 12.7188)" fill="#EF5243"/>
<rect x="8.66602" y="11.8125" width="0.825487" height="0.825487" transform="rotate(-180 8.66602 11.8125)" fill="#EF5243"/>
<rect width="0.825487" height="0.825487" transform="matrix(1 0 0 -1 21.4609 11.8906)" fill="#EF5243"/>
<rect x="8.66602" y="10.9844" width="0.825487" height="0.825487" transform="rotate(-180 8.66602 10.9844)" fill="#EF5243"/>
<rect width="0.825487" height="0.825487" transform="matrix(1 0 0 -1 21.4609 11.0625)" fill="#EF5243"/>
<rect x="8.66602" y="10.1562" width="0.825487" height="0.825487" transform="rotate(-180 8.66602 10.1562)" fill="#EF5243"/>
<rect width="0.825487" height="0.825487" transform="matrix(1 0 0 -1 21.4609 10.2383)" fill="#EF5243"/>
<rect x="8.66602" y="9.33203" width="0.825487" height="0.825487" transform="rotate(-180 8.66602 9.33203)" fill="#EF5243"/>
<rect width="0.825487" height="0.825487" transform="matrix(1 0 0 -1 20.6367 9.41406)" fill="#EF5243"/>
<rect x="9.49023" y="8.50781" width="0.825487" height="0.825487" transform="rotate(-180 9.49023 8.50781)" fill="#EF5243"/>
<rect width="0.825487" height="0.825487" transform="matrix(1 0 0 -1 20.6367 8.58984)" fill="#EF5243"/>
<rect x="9.49023" y="7.67969" width="0.825487" height="0.825487" transform="rotate(-180 9.49023 7.67969)" fill="#EF5243"/>
<rect width="0.825487" height="0.825487" transform="matrix(1 0 0 -1 19.8105 7.76562)" fill="#EF5243"/>
<rect x="10.3164" y="6.85547" width="0.825487" height="0.825487" transform="rotate(-180 10.3164 6.85547)" fill="#EF5243"/>
<rect width="0.825487" height="0.825487" transform="matrix(1 0 0 -1 18.9844 6.9375)" fill="#EF5243"/>
<rect x="11.1426" y="6.03125" width="0.825487" height="0.825487" transform="rotate(-180 11.1426 6.03125)" fill="#EF5243"/>
<rect width="0.825487" height="0.825487" transform="matrix(1 0 0 -1 18.5723 6.11328)" fill="#EF5243"/>
<rect x="11.5547" y="5.20312" width="0.825487" height="0.825487" transform="rotate(-180 11.5547 5.20312)" fill="#EF5243"/>
<rect x="9.9043" y="3.63281" width="0.825487" height="0.825487" transform="rotate(-180 9.9043 3.63281)" fill="#EF5243"/>
<rect x="9.9043" y="2.48047" width="0.825487" height="0.825487" transform="rotate(-180 9.9043 2.48047)" fill="#EF5243"/>
<rect width="0.825487" height="0.825487" transform="matrix(1 0 0 -1 19.8105 3.71875)" fill="#EF5243"/>
<rect x="8.25391" y="2.48047" width="0.825487" height="0.825487" transform="rotate(-180 8.25391 2.48047)" fill="#EF5243"/>
<rect width="0.825487" height="0.825487" transform="matrix(1 0 0 -1 21.4609 3.71875)" fill="#EF5243"/>
<rect x="8.25391" y="1.65625" width="0.825487" height="0.825487" transform="rotate(-180 8.25391 1.65625)" fill="#EF5243"/>
<rect width="0.825487" height="0.825487" transform="matrix(1 0 0 -1 21.4609 2.89062)" fill="#EF5243"/>
<rect x="6.60352" y="2.48047" width="0.825487" height="0.825487" transform="rotate(-180 6.60352 2.48047)" fill="#EF5243"/>
<rect width="0.825487" height="0.825487" transform="matrix(1 0 0 -1 23.1113 3.71875)" fill="#EF5243"/>
<rect x="6.60352" y="3.30469" width="0.825487" height="0.825487" transform="rotate(-180 6.60352 3.30469)" fill="#EF5243"/>
<rect x="6.60352" y="1.65625" width="0.825487" height="0.825487" transform="rotate(-180 6.60352 1.65625)" fill="#EF5243"/>
<rect width="0.825487" height="0.825487" transform="matrix(1 0 0 -1 23.1113 2.89062)" fill="#EF5243"/>
<rect x="6.60352" y="0.828125" width="0.825487" height="0.825487" transform="rotate(-180 6.60352 0.828125)" fill="#EF5243"/>
<rect width="0.825487" height="0.825487" transform="matrix(1 0 0 -1 23.1113 2.07031)" fill="#EF5243"/>
<rect x="4.95312" y="2.48047" width="0.825487" height="0.825487" transform="rotate(-180 4.95312 2.48047)" fill="#EF5243"/>
<rect width="0.825487" height="0.825487" transform="matrix(1 0 0 -1 24.7637 3.71875)" fill="#EF5243"/>
<rect x="4.95312" y="3.30469" width="0.825487" height="0.825487" transform="rotate(-180 4.95312 3.30469)" fill="#EF5243"/>
<rect width="0.825487" height="0.825487" transform="matrix(1 0 0 -1 24.7637 4.54688)" fill="#EF5243"/>
<rect x="4.95312" y="1.65625" width="0.825487" height="0.825487" transform="rotate(-180 4.95312 1.65625)" fill="#EF5243"/>
<rect width="0.825487" height="0.825487" transform="matrix(1 0 0 -1 24.7637 2.89062)" fill="#EF5243"/>
<rect x="4.95312" y="0.828125" width="0.825487" height="0.825487" transform="rotate(-180 4.95312 0.828125)" fill="#EF5243"/>
<rect width="0.825487" height="0.825487" transform="matrix(1 0 0 -1 24.7637 2.07031)" fill="#EF5243"/>
<rect x="3.30078" y="2.48047" width="0.825487" height="0.825487" transform="rotate(-180 3.30078 2.48047)" fill="#EF5243"/>
<rect width="0.825487" height="0.825487" transform="matrix(1 0 0 -1 26.416 3.71875)" fill="#EF5243"/>
<rect x="2.47461" y="2.48047" width="0.825487" height="0.825487" transform="rotate(-180 2.47461 2.48047)" fill="#EF5243"/>
<rect width="0.825487" height="0.825487" transform="matrix(1 0 0 -1 27.2402 3.71875)" fill="#EF5243"/>
<rect width="0.825487" height="0.825487" transform="matrix(1 0 0 -1 27.2402 2.89062)" fill="#EF5243"/>
<rect x="2.47461" y="3.30469" width="0.825487" height="0.825487" transform="rotate(-180 2.47461 3.30469)" fill="#EF5243"/>
<rect width="0.825487" height="0.825487" transform="matrix(1 0 0 -1 27.2402 4.54688)" fill="#EF5243"/>
<rect x="2.47461" y="4.13281" width="0.825487" height="0.825487" transform="rotate(-180 2.47461 4.13281)" fill="#EF5243"/>
<rect width="0.825487" height="0.825487" transform="matrix(1 0 0 -1 27.2402 5.36719)" fill="#EF5243"/>
<rect x="2.47461" y="4.95703" width="0.825487" height="0.825487" transform="rotate(-180 2.47461 4.95703)" fill="#EF5243"/>
<rect width="0.825487" height="0.825487" transform="matrix(1 0 0 -1 27.2402 6.19531)" fill="#EF5243"/>
<rect x="2.47461" y="5.78125" width="0.825487" height="0.825487" transform="rotate(-180 2.47461 5.78125)" fill="#EF5243"/>
<rect x="1.65039" y="3.30469" width="0.825487" height="0.825487" transform="rotate(-180 1.65039 3.30469)" fill="#EF5243"/>
<rect width="0.825487" height="0.825487" transform="matrix(1 0 0 -1 28.0664 4.54688)" fill="#EF5243"/>
<rect width="0.825487" height="0.825487" transform="matrix(1 0 0 -1 28.0664 3.71875)" fill="#EF5243"/>
<rect x="0.824219" y="3.30469" width="0.825487" height="0.825487" transform="rotate(-180 0.824219 3.30469)" fill="#EF5243"/>
<rect width="0.825487" height="0.825487" transform="matrix(1 0 0 -1 28.8906 4.54688)" fill="#EF5243"/>
<rect width="0.825487" height="0.825487" transform="matrix(1 0 0 -1 29.7168 4.54688)" fill="#EF5243"/>
<rect x="0.824219" y="4.13281" width="0.825487" height="0.825487" transform="rotate(-180 0.824219 4.13281)" fill="#EF5243"/>
<rect width="0.825487" height="0.825487" transform="matrix(1 0 0 -1 28.8906 5.36719)" fill="#EF5243"/>
<rect width="0.825487" height="0.825487" transform="matrix(1 0 0 -1 29.7168 5.36719)" fill="#EF5243"/>
<rect x="0.824219" y="4.95703" width="0.825487" height="0.825487" transform="rotate(-180 0.824219 4.95703)" fill="#EF5243"/>
<rect width="0.825487" height="0.825487" transform="matrix(1 0 0 -1 28.8906 6.19531)" fill="#EF5243"/>
<rect width="0.825487" height="0.825487" transform="matrix(1 0 0 -1 28.8906 7.01953)" fill="#EF5243"/>
<rect width="0.825487" height="0.825487" transform="matrix(1 0 0 -1 29.7168 6.19531)" fill="#EF5243"/>
<rect x="1.65039" y="4.13281" width="0.825487" height="0.825487" transform="rotate(-180 1.65039 4.13281)" fill="#EF5243"/>
<rect width="0.825487" height="0.825487" transform="matrix(1 0 0 -1 28.0664 5.36719)" fill="#EF5243"/>
<rect x="1.65039" y="4.95703" width="0.825487" height="0.825487" transform="rotate(-180 1.65039 4.95703)" fill="#EF5243"/>
<rect width="0.825487" height="0.825487" transform="matrix(1 0 0 -1 28.0664 6.19531)" fill="#EF5243"/>
<rect x="1.65039" y="5.78125" width="0.825487" height="0.825487" transform="rotate(-180 1.65039 5.78125)" fill="#EF5243"/>
<rect width="0.825487" height="0.825487" transform="matrix(1 0 0 -1 28.0664 7.01953)" fill="#EF5243"/>
<rect x="3.30078" y="3.30469" width="0.825487" height="0.825487" transform="rotate(-180 3.30078 3.30469)" fill="#EF5243"/>
<rect width="0.825487" height="0.825487" transform="matrix(1 0 0 -1 26.416 4.54688)" fill="#EF5243"/>
<rect x="3.30078" y="4.13281" width="0.825487" height="0.825487" transform="rotate(-180 3.30078 4.13281)" fill="#EF5243"/>
<rect width="0.825487" height="0.825487" transform="matrix(1 0 0 -1 26.416 5.36719)" fill="#EF5243"/>
<rect x="3.30078" y="4.95703" width="0.825487" height="0.825487" transform="rotate(-180 3.30078 4.95703)" fill="#EF5243"/>
<rect x="3.30078" y="5.78125" width="0.825487" height="0.825487" transform="rotate(-180 3.30078 5.78125)" fill="#EF5243"/>
<rect x="3.30078" y="1.65625" width="0.825487" height="0.825487" transform="rotate(-180 3.30078 1.65625)" fill="#EF5243"/>
<rect width="0.825487" height="0.825487" transform="matrix(1 0 0 -1 26.416 2.89062)" fill="#EF5243"/>
<rect x="9.07812" y="4.46094" width="0.825487" height="0.825487" transform="rotate(-180 9.07812 4.46094)" fill="#EF5243"/>
<rect x="8.25391" y="5.28906" width="0.825487" height="0.825487" transform="rotate(-180 8.25391 5.28906)" fill="#EF5243"/>
<rect x="6.60352" y="6.11328" width="0.825487" height="0.825487" transform="rotate(-180 6.60352 6.11328)" fill="#EF5243"/>
<rect x="5.77734" y="6.9375" width="0.825487" height="0.825487" transform="rotate(-180 5.77734 6.9375)" fill="#EF5243"/>
<rect x="5.77734" y="7.76562" width="0.825487" height="0.825487" transform="rotate(-180 5.77734 7.76562)" fill="#EF5243"/>
<rect x="5.77734" y="8.58984" width="0.825487" height="0.825487" transform="rotate(-180 5.77734 8.58984)" fill="#EF5243"/>
<rect x="4.95312" y="9.41406" width="0.825487" height="0.825487" transform="rotate(-180 4.95312 9.41406)" fill="#EF5243"/>
<rect x="4.95312" y="11.0625" width="0.825487" height="0.825487" transform="rotate(-180 4.95312 11.0625)" fill="#EF5243"/>
<rect x="4.95312" y="11.8906" width="0.825487" height="0.825487" transform="rotate(-180 4.95312 11.8906)" fill="#EF5243"/>
<rect x="4.95312" y="12.7188" width="0.825487" height="0.825487" transform="rotate(-180 4.95312 12.7188)" fill="#EF5243"/>
<rect x="4.95312" y="13.5391" width="0.825487" height="0.825487" transform="rotate(-180 4.95312 13.5391)" fill="#EF5243"/>
<rect x="4.95312" y="14.3672" width="0.825487" height="0.825487" transform="rotate(-180 4.95312 14.3672)" fill="#EF5243"/>
<rect x="4.95312" y="15.1953" width="0.825487" height="0.825487" transform="rotate(-180 4.95312 15.1953)" fill="#EF5243"/>
<rect x="7.42773" y="4.46094" width="0.825487" height="0.825487" transform="rotate(-180 7.42773 4.46094)" fill="#EF5243"/>
<rect x="6.60352" y="5.28906" width="0.825487" height="0.825487" transform="rotate(-180 6.60352 5.28906)" fill="#EF5243"/>
<rect x="5.77734" y="5.28906" width="0.825487" height="0.825487" transform="rotate(-180 5.77734 5.28906)" fill="#EF5243"/>
<rect x="4.95312" y="6.11328" width="0.825487" height="0.825487" transform="rotate(-180 4.95312 6.11328)" fill="#EF5243"/>
<rect x="4.125" y="6.9375" width="0.825487" height="0.825487" transform="rotate(-180 4.125 6.9375)" fill="#EF5243"/>
<rect x="4.125" y="7.76562" width="0.825487" height="0.825487" transform="rotate(-180 4.125 7.76562)" fill="#EF5243"/>
<rect x="4.125" y="8.58984" width="0.825487" height="0.825487" transform="rotate(-180 4.125 8.58984)" fill="#EF5243"/>
<rect x="3.30078" y="9.41406" width="0.825487" height="0.825487" transform="rotate(-180 3.30078 9.41406)" fill="#EF5243"/>
<rect x="3.30078" y="11.0625" width="0.825487" height="0.825487" transform="rotate(-180 3.30078 11.0625)" fill="#EF5243"/>
<rect x="3.30078" y="11.8906" width="0.825487" height="0.825487" transform="rotate(-180 3.30078 11.8906)" fill="#EF5243"/>
<rect x="3.30078" y="12.7188" width="0.825487" height="0.825487" transform="rotate(-180 3.30078 12.7188)" fill="#EF5243"/>
<rect x="3.30078" y="13.5391" width="0.825487" height="0.825487" transform="rotate(-180 3.30078 13.5391)" fill="#EF5243"/>
<rect x="3.30078" y="14.3672" width="0.825487" height="0.825487" transform="rotate(-180 3.30078 14.3672)" fill="#EF5243"/>
<rect x="3.30078" y="15.1953" width="0.825487" height="0.825487" transform="rotate(-180 3.30078 15.1953)" fill="#EF5243"/>
<rect x="4.125" y="10.2383" width="0.825487" height="0.825487" transform="rotate(-180 4.125 10.2383)" fill="#EF5243"/>
<rect x="3.30078" y="6.9375" width="0.825487" height="0.825487" transform="rotate(-180 3.30078 6.9375)" fill="#EF5243"/>
<rect x="3.30078" y="7.76562" width="0.825487" height="0.825487" transform="rotate(-180 3.30078 7.76562)" fill="#EF5243"/>
<rect x="3.30078" y="8.58984" width="0.825487" height="0.825487" transform="rotate(-180 3.30078 8.58984)" fill="#EF5243"/>
<rect x="2.47461" y="9.41406" width="0.825487" height="0.825487" transform="rotate(-180 2.47461 9.41406)" fill="#EF5243"/>
<rect x="2.47461" y="11.0625" width="0.825487" height="0.825487" transform="rotate(-180 2.47461 11.0625)" fill="#EF5243"/>
<rect x="2.47461" y="11.8906" width="0.825487" height="0.825487" transform="rotate(-180 2.47461 11.8906)" fill="#EF5243"/>
<rect x="2.47461" y="12.7188" width="0.825487" height="0.825487" transform="rotate(-180 2.47461 12.7188)" fill="#EF5243"/>
<rect x="2.47461" y="13.5391" width="0.825487" height="0.825487" transform="rotate(-180 2.47461 13.5391)" fill="#EF5243"/>
<rect x="2.47461" y="14.3672" width="0.825487" height="0.825487" transform="rotate(-180 2.47461 14.3672)" fill="#EF5243"/>
<rect x="3.30078" y="10.2383" width="0.825487" height="0.825487" transform="rotate(-180 3.30078 10.2383)" fill="#EF5243"/>
<rect x="2.47461" y="8.58984" width="0.825487" height="0.825487" transform="rotate(-180 2.47461 8.58984)" fill="#EF5243"/>
<rect x="1.65039" y="9.41406" width="0.825487" height="0.825487" transform="rotate(-180 1.65039 9.41406)" fill="#EF5243"/>
<rect x="1.65039" y="11.0625" width="0.825487" height="0.825487" transform="rotate(-180 1.65039 11.0625)" fill="#EF5243"/>
<rect x="1.65039" y="11.8906" width="0.825487" height="0.825487" transform="rotate(-180 1.65039 11.8906)" fill="#EF5243"/>
<rect x="1.65039" y="12.7188" width="0.825487" height="0.825487" transform="rotate(-180 1.65039 12.7188)" fill="#EF5243"/>
<rect x="1.65039" y="13.5391" width="0.825487" height="0.825487" transform="rotate(-180 1.65039 13.5391)" fill="#EF5243"/>
<rect x="2.47461" y="10.2383" width="0.825487" height="0.825487" transform="rotate(-180 2.47461 10.2383)" fill="#EF5243"/>
<rect x="1.65039" y="10.2383" width="0.825487" height="0.825487" transform="rotate(-180 1.65039 10.2383)" fill="#EF5243"/>
<rect width="0.825487" height="0.825487" transform="matrix(1 0 0 -1 19.8105 18.4922)" fill="#EF5243"/>
<rect x="10.3164" y="17.5859" width="0.825487" height="0.825487" transform="rotate(-180 10.3164 17.5859)" fill="#EF5243"/>
<rect width="0.825487" height="0.825487" transform="matrix(1 0 0 -1 20.6367 17.668)" fill="#EF5243"/>
<rect x="9.49023" y="16.7578" width="0.825487" height="0.825487" transform="rotate(-180 9.49023 16.7578)" fill="#EF5243"/>
<rect width="0.825487" height="0.825487" transform="matrix(1 0 0 -1 21.4609 16.8438)" fill="#EF5243"/>
<rect x="8.66602" y="15.9375" width="0.825487" height="0.825487" transform="rotate(-180 8.66602 15.9375)" fill="#EF5243"/>
<rect width="0.825487" height="0.825487" transform="matrix(1 0 0 -1 21.4609 16.0195)" fill="#EF5243"/>
<rect x="8.66602" y="15.1094" width="0.825487" height="0.825487" transform="rotate(-180 8.66602 15.1094)" fill="#EF5243"/>
<rect width="0.825487" height="0.825487" transform="matrix(1 0 0 -1 21.4609 15.1953)" fill="#EF5243"/>
<rect x="8.66602" y="14.2852" width="0.825487" height="0.825487" transform="rotate(-180 8.66602 14.2852)" fill="#EF5243"/>
<rect width="0.825487" height="0.825487" transform="matrix(1 0 0 -1 22.2871 14.3672)" fill="#EF5243"/>
<rect x="7.83984" y="13.4609" width="0.825487" height="0.825487" transform="rotate(-180 7.83984 13.4609)" fill="#EF5243"/>
<rect width="0.825487" height="0.825487" transform="matrix(1 0 0 -1 22.2871 13.5391)" fill="#EF5243"/>
<rect x="7.83984" y="12.6328" width="0.825487" height="0.825487" transform="rotate(-180 7.83984 12.6328)" fill="#EF5243"/>
<rect width="0.825487" height="0.825487" transform="matrix(1 0 0 -1 22.2871 12.7188)" fill="#EF5243"/>
<rect x="7.83984" y="11.8125" width="0.825487" height="0.825487" transform="rotate(-180 7.83984 11.8125)" fill="#EF5243"/>
<rect width="0.825487" height="0.825487" transform="matrix(1 0 0 -1 22.2871 11.8906)" fill="#EF5243"/>
<rect x="7.83984" y="10.9844" width="0.825487" height="0.825487" transform="rotate(-180 7.83984 10.9844)" fill="#EF5243"/>
<rect width="0.825487" height="0.825487" transform="matrix(1 0 0 -1 22.2871 11.0625)" fill="#EF5243"/>
<rect x="7.83984" y="10.1562" width="0.825487" height="0.825487" transform="rotate(-180 7.83984 10.1562)" fill="#EF5243"/>
<rect width="0.825487" height="0.825487" transform="matrix(1 0 0 -1 22.2871 10.2383)" fill="#EF5243"/>
<rect x="7.83984" y="9.33203" width="0.825487" height="0.825487" transform="rotate(-180 7.83984 9.33203)" fill="#EF5243"/>
<rect width="0.825487" height="0.825487" transform="matrix(1 0 0 -1 21.4609 9.41406)" fill="#EF5243"/>
<rect x="8.66602" y="8.50781" width="0.825487" height="0.825487" transform="rotate(-180 8.66602 8.50781)" fill="#EF5243"/>
<rect width="0.825487" height="0.825487" transform="matrix(1 0 0 -1 21.4609 8.58984)" fill="#EF5243"/>
<rect x="8.66602" y="7.67969" width="0.825487" height="0.825487" transform="rotate(-180 8.66602 7.67969)" fill="#EF5243"/>
<rect width="0.825487" height="0.825487" transform="matrix(1 0 0 -1 20.6367 7.76562)" fill="#EF5243"/>
<rect x="9.49023" y="6.85547" width="0.825487" height="0.825487" transform="rotate(-180 9.49023 6.85547)" fill="#EF5243"/>
<rect width="0.825487" height="0.825487" transform="matrix(1 0 0 -1 19.8105 6.9375)" fill="#EF5243"/>
<rect x="10.3164" y="6.03125" width="0.825487" height="0.825487" transform="rotate(-180 10.3164 6.03125)" fill="#EF5243"/>
<rect width="0.825487" height="0.825487" transform="matrix(1 0 0 -1 20.6367 18.4922)" fill="#EF5243"/>
<rect x="9.49023" y="17.5859" width="0.825487" height="0.825487" transform="rotate(-180 9.49023 17.5859)" fill="#EF5243"/>
<rect width="0.825487" height="0.825487" transform="matrix(1 0 0 -1 20.6367 18.4922)" fill="#EF5243"/>
<rect x="9.49023" y="17.5859" width="0.825487" height="0.825487" transform="rotate(-180 9.49023 17.5859)" fill="#EF5243"/>
<rect width="0.825487" height="0.825487" transform="matrix(1 0 0 -1 21.4609 17.668)" fill="#EF5243"/>
<rect x="8.66602" y="16.7578" width="0.825487" height="0.825487" transform="rotate(-180 8.66602 16.7578)" fill="#EF5243"/>
<rect width="0.825487" height="0.825487" transform="matrix(1 0 0 -1 22.2871 16.8438)" fill="#EF5243"/>
<rect x="7.83984" y="15.9375" width="0.825487" height="0.825487" transform="rotate(-180 7.83984 15.9375)" fill="#EF5243"/>
<rect width="0.825487" height="0.825487" transform="matrix(1 0 0 -1 22.2871 16.0195)" fill="#EF5243"/>
<rect x="7.83984" y="15.1094" width="0.825487" height="0.825487" transform="rotate(-180 7.83984 15.1094)" fill="#EF5243"/>
<rect width="0.825487" height="0.825487" transform="matrix(1 0 0 -1 22.2871 15.1953)" fill="#EF5243"/>
<rect x="7.83984" y="14.2852" width="0.825487" height="0.825487" transform="rotate(-180 7.83984 14.2852)" fill="#EF5243"/>
<rect width="0.825487" height="0.825487" transform="matrix(1 0 0 -1 23.1113 14.3672)" fill="#EF5243"/>
<rect x="7.01562" y="13.4609" width="0.825487" height="0.825487" transform="rotate(-180 7.01562 13.4609)" fill="#EF5243"/>
<rect width="0.825487" height="0.825487" transform="matrix(1 0 0 -1 23.1113 13.5391)" fill="#EF5243"/>
<rect x="7.01562" y="12.6328" width="0.825487" height="0.825487" transform="rotate(-180 7.01562 12.6328)" fill="#EF5243"/>
<rect width="0.825487" height="0.825487" transform="matrix(1 0 0 -1 23.1113 12.7188)" fill="#EF5243"/>
<rect x="7.01562" y="11.8125" width="0.825487" height="0.825487" transform="rotate(-180 7.01562 11.8125)" fill="#EF5243"/>
<rect width="0.825487" height="0.825487" transform="matrix(1 0 0 -1 23.1113 11.8906)" fill="#EF5243"/>
<rect x="7.01562" y="10.9844" width="0.825487" height="0.825487" transform="rotate(-180 7.01562 10.9844)" fill="#EF5243"/>
<rect width="0.825487" height="0.825487" transform="matrix(1 0 0 -1 23.1113 11.0625)" fill="#EF5243"/>
<rect x="7.01562" y="10.1562" width="0.825487" height="0.825487" transform="rotate(-180 7.01562 10.1562)" fill="#EF5243"/>
<rect width="0.825487" height="0.825487" transform="matrix(1 0 0 -1 23.1113 10.2383)" fill="#EF5243"/>
<rect x="7.01562" y="9.33203" width="0.825487" height="0.825487" transform="rotate(-180 7.01562 9.33203)" fill="#EF5243"/>
<rect width="0.825487" height="0.825487" transform="matrix(1 0 0 -1 22.2871 9.41406)" fill="#EF5243"/>
<rect x="7.83984" y="8.50781" width="0.825487" height="0.825487" transform="rotate(-180 7.83984 8.50781)" fill="#EF5243"/>
<rect width="0.825487" height="0.825487" transform="matrix(1 0 0 -1 23.1113 9.41406)" fill="#EF5243"/>
<rect x="7.01562" y="8.50781" width="0.825487" height="0.825487" transform="rotate(-180 7.01562 8.50781)" fill="#EF5243"/>
<rect width="0.825487" height="0.825487" transform="matrix(1 0 0 -1 22.2871 8.58984)" fill="#EF5243"/>
<rect x="7.83984" y="7.67969" width="0.825487" height="0.825487" transform="rotate(-180 7.83984 7.67969)" fill="#EF5243"/>
<rect width="0.825487" height="0.825487" transform="matrix(1 0 0 -1 21.4609 7.76562)" fill="#EF5243"/>
<rect x="8.66602" y="6.85547" width="0.825487" height="0.825487" transform="rotate(-180 8.66602 6.85547)" fill="#EF5243"/>
<rect width="0.825487" height="0.825487" transform="matrix(1 0 0 -1 23.1113 15.1953)" fill="#EF5243"/>
<rect x="7.01562" y="14.2852" width="0.825487" height="0.825487" transform="rotate(-180 7.01562 14.2852)" fill="#EF5243"/>
<rect width="0.825487" height="0.825487" transform="matrix(1 0 0 -1 19.8105 19.3203)" fill="#EF5243"/>
<rect width="0.825487" height="0.825487" transform="matrix(1 0 0 -1 27.2402 16.8438)" fill="#EF5243"/>
<rect width="0.825487" height="0.825487" transform="matrix(1 0 0 -1 28.0664 16.0195)" fill="#EF5243"/>
<rect width="0.825487" height="0.825487" transform="matrix(1 0 0 -1 28.0664 15.1953)" fill="#EF5243"/>
<rect width="0.825487" height="0.825487" transform="matrix(1 0 0 -1 28.0664 14.3672)" fill="#EF5243"/>
<rect width="0.825487" height="0.825487" transform="matrix(1 0 0 -1 28.0664 13.5391)" fill="#EF5243"/>
<rect width="0.825487" height="0.825487" transform="matrix(1 0 0 -1 28.0664 12.7188)" fill="#EF5243"/>
<rect width="0.825487" height="0.825487" transform="matrix(1 0 0 -1 28.0664 11.8906)" fill="#EF5243"/>
<rect width="0.825487" height="0.825487" transform="matrix(1 0 0 -1 28.0664 11.0625)" fill="#EF5243"/>
<rect width="0.825487" height="0.825487" transform="matrix(1 0 0 -1 27.2402 10.2383)" fill="#EF5243"/>
<rect width="0.825487" height="0.825487" transform="matrix(1 0 0 -1 28.0664 10.2383)" fill="#EF5243"/>
<rect width="0.825487" height="0.825487" transform="matrix(1 0 0 -1 27.2402 9.41406)" fill="#EF5243"/>
<rect width="0.825487" height="0.825487" transform="matrix(1 0 0 -1 27.2402 8.58984)" fill="#EF5243"/>
<rect width="0.825487" height="0.825487" transform="matrix(1 0 0 -1 26.416 7.76562)" fill="#EF5243"/>
<rect width="0.825487" height="0.825487" transform="matrix(1 0 0 -1 25.5898 6.9375)" fill="#EF5243"/>
<rect width="0.825487" height="0.825487" transform="matrix(1 0 0 -1 24.7637 6.11328)" fill="#EF5243"/>
<rect width="0.825487" height="0.825487" transform="matrix(1 0 0 -1 23.1113 5.36719)" fill="#EF5243"/>
<rect width="0.825487" height="0.825487" transform="matrix(1 0 0 -1 26.416 16.0195)" fill="#EF5243"/>
<rect width="0.825487" height="0.825487" transform="matrix(1 0 0 -1 26.416 15.1953)" fill="#EF5243"/>
<rect width="0.825487" height="0.825487" transform="matrix(1 0 0 -1 26.416 14.3672)" fill="#EF5243"/>
<rect width="0.825487" height="0.825487" transform="matrix(1 0 0 -1 26.416 12.7188)" fill="#EF5243"/>
<rect width="0.825487" height="0.825487" transform="matrix(1 0 0 -1 26.416 13.5391)" fill="#EF5243"/>
<rect width="0.825487" height="0.825487" transform="matrix(1 0 0 -1 26.416 11.8906)" fill="#EF5243"/>
<rect width="0.825487" height="0.825487" transform="matrix(1 0 0 -1 26.416 11.0625)" fill="#EF5243"/>
<rect width="0.825487" height="0.825487" transform="matrix(1 0 0 -1 25.5898 10.2383)" fill="#EF5243"/>
<rect width="0.825487" height="0.825487" transform="matrix(1 0 0 -1 25.5898 9.41406)" fill="#EF5243"/>
<rect width="0.825487" height="0.825487" transform="matrix(1 0 0 -1 25.5898 8.58984)" fill="#EF5243"/>
<rect width="0.825487" height="0.825487" transform="matrix(1 0 0 -1 24.7637 7.76562)" fill="#EF5243"/>
<rect width="0.825487" height="0.825487" transform="matrix(1 0 0 -1 23.9375 6.9375)" fill="#EF5243"/>
<rect width="0.825487" height="0.825487" transform="matrix(1 0 0 -1 23.1113 6.11328)" fill="#EF5243"/>
<rect width="0.825487" height="0.825487" transform="matrix(1 0 0 -1 21.4609 5.36719)" fill="#EF5243"/>
<rect x="10.3164" y="18.4141" width="0.825487" height="0.825487" transform="rotate(-180 10.3164 18.4141)" fill="#EF5243"/>
<rect width="0.825487" height="0.825487" transform="matrix(1 0 0 -1 18.9844 19.3203)" fill="#EF5243"/>
<rect width="0.825487" height="0.825487" transform="matrix(1 0 0 -1 26.416 16.8438)" fill="#EF5243"/>
<rect width="0.825487" height="0.825487" transform="matrix(1 0 0 -1 27.2402 16.0195)" fill="#EF5243"/>
<rect width="0.825487" height="0.825487" transform="matrix(1 0 0 -1 27.2402 15.1953)" fill="#EF5243"/>
<rect width="0.825487" height="0.825487" transform="matrix(1 0 0 -1 27.2402 12.7188)" fill="#EF5243"/>
<rect width="0.825487" height="0.825487" transform="matrix(1 0 0 -1 27.2402 14.3672)" fill="#EF5243"/>
<rect width="0.825487" height="0.825487" transform="matrix(1 0 0 -1 27.2402 13.5391)" fill="#EF5243"/>
<rect width="0.825487" height="0.825487" transform="matrix(1 0 0 -1 27.2402 11.8906)" fill="#EF5243"/>
<rect width="0.825487" height="0.825487" transform="matrix(1 0 0 -1 27.2402 11.0625)" fill="#EF5243"/>
<rect width="0.825487" height="0.825487" transform="matrix(1 0 0 -1 26.416 10.2383)" fill="#EF5243"/>
<rect width="0.825487" height="0.825487" transform="matrix(1 0 0 -1 26.416 9.41406)" fill="#EF5243"/>
<rect width="0.825487" height="0.825487" transform="matrix(1 0 0 -1 26.416 8.58984)" fill="#EF5243"/>
<rect width="0.825487" height="0.825487" transform="matrix(1 0 0 -1 25.5898 7.76562)" fill="#EF5243"/>
<rect width="0.825487" height="0.825487" transform="matrix(1 0 0 -1 24.7637 6.9375)" fill="#EF5243"/>
<rect width="0.825487" height="0.825487" transform="matrix(1 0 0 -1 23.9375 6.11328)" fill="#EF5243"/>
<rect width="0.825487" height="0.825487" transform="matrix(1 0 0 -1 22.2871 5.36719)" fill="#EF5243"/>
<rect width="0.825487" height="0.825487" transform="matrix(1 0 0 -1 25.5898 16.0195)" fill="#EF5243"/>
<rect width="0.825487" height="0.825487" transform="matrix(1 0 0 -1 25.5898 12.7188)" fill="#EF5243"/>
<rect width="0.825487" height="0.825487" transform="matrix(1 0 0 -1 24.7637 12.7188)" fill="#EF5243"/>
<rect width="0.825487" height="0.825487" transform="matrix(1 0 0 -1 25.5898 15.1953)" fill="#EF5243"/>
<rect width="0.825487" height="0.825487" transform="matrix(1 0 0 -1 24.7637 15.1953)" fill="#EF5243"/>
<rect width="0.825487" height="0.825487" transform="matrix(1 0 0 -1 25.5898 14.3672)" fill="#EF5243"/>
<rect width="0.825487" height="0.825487" transform="matrix(1 0 0 -1 24.7637 14.3672)" fill="#EF5243"/>
<rect width="0.825487" height="0.825487" transform="matrix(1 0 0 -1 25.5898 13.5391)" fill="#EF5243"/>
<rect width="0.825487" height="0.825487" transform="matrix(1 0 0 -1 24.7637 13.5391)" fill="#EF5243"/>
<rect width="0.825487" height="0.825487" transform="matrix(1 0 0 -1 25.5898 11.8906)" fill="#EF5243"/>
<rect width="0.825487" height="0.825487" transform="matrix(1 0 0 -1 24.7637 11.8906)" fill="#EF5243"/>
<rect width="0.825487" height="0.825487" transform="matrix(1 0 0 -1 25.5898 11.0625)" fill="#EF5243"/>
<rect width="0.825487" height="0.825487" transform="matrix(1 0 0 -1 24.7637 11.0625)" fill="#EF5243"/>
<rect width="0.825487" height="0.825487" transform="matrix(1 0 0 -1 24.7637 10.2383)" fill="#EF5243"/>
<rect width="0.825487" height="0.825487" transform="matrix(1 0 0 -1 24.7637 9.41406)" fill="#EF5243"/>
<rect width="0.825487" height="0.825487" transform="matrix(1 0 0 -1 24.7637 8.58984)" fill="#EF5243"/>
<rect width="0.825487" height="0.825487" transform="matrix(1 0 0 -1 23.9375 7.76562)" fill="#EF5243"/>
<rect width="0.825487" height="0.825487" transform="matrix(1 0 0 -1 23.1113 6.9375)" fill="#EF5243"/>
<rect width="0.825487" height="0.825487" transform="matrix(1 0 0 -1 22.2871 6.11328)" fill="#EF5243"/>
<rect width="0.825487" height="0.825487" transform="matrix(1 0 0 -1 20.6367 5.36719)" fill="#EF5243"/>
<rect x="11.1426" y="18.4141" width="0.825487" height="0.825487" transform="rotate(-180 11.1426 18.4141)" fill="#EF5243"/>
<rect width="0.825487" height="0.825487" transform="matrix(1 0 0 -1 14.0312 15.1953)" fill="#EF5243"/>
<rect width="0.825487" height="0.825487" transform="matrix(1 0 0 -1 14.0312 16.0195)" fill="#EF5243"/>
<rect width="0.825487" height="0.825487" transform="matrix(1 0 0 -1 11.5547 9.41406)" fill="#EF5243"/>
<rect width="0.825487" height="0.825487" transform="matrix(1 0 0 -1 10.7305 9.41406)" fill="#EF5243"/>
<rect width="0.825487" height="0.825487" transform="matrix(1 0 0 -1 11.5547 8.58984)" fill="#EF5243"/>
<rect width="0.825487" height="0.825487" transform="matrix(1 0 0 -1 11.5547 11.0625)" fill="#EF5243"/>
<rect width="0.825487" height="0.825487" transform="matrix(1 0 0 -1 11.5547 11.8906)" fill="#EF5243"/>
<rect width="0.825487" height="0.825487" transform="matrix(1 0 0 -1 14.0312 7.76562)" fill="#EF5243"/>
<rect width="0.825487" height="0.825487" transform="matrix(1 0 0 -1 14.8594 7.76562)" fill="#EF5243"/>
<rect width="0.825487" height="0.825487" transform="matrix(1 0 0 -1 15.6836 7.76562)" fill="#EF5243"/>
<rect width="0.825487" height="0.825487" transform="matrix(1 0 0 -1 16.5098 7.76562)" fill="#EF5243"/>
<rect width="0.825487" height="0.825487" transform="matrix(1 0 0 -1 16.5098 6.9375)" fill="#EF5243"/>
<rect width="0.825487" height="0.825487" transform="matrix(1 0 0 -1 17.334 7.76562)" fill="#EF5243"/>
<rect width="0.825487" height="0.825487" transform="matrix(1 0 0 -1 14.8594 4.46094)" fill="#EF5243"/>
</svg>
