<svg width="15" height="33" viewBox="0 0 18 33" fill="none" xmlns="http://www.w3.org/2000/svg">
<rect x="4.45898" y="16.2112" width="0.825487" height="0.825487" transform="rotate(90 4.45898 16.2112)" fill="#EF5243"/>
<rect x="5.28516" y="16.2112" width="0.825487" height="0.825487" transform="rotate(90 5.28516 16.2112)" fill="#EF5243"/>
<rect x="5.28516" y="15.387" width="0.825487" height="0.825487" transform="rotate(90 5.28516 15.387)" fill="#EF5243"/>
<rect x="6.93359" y="15.387" width="0.825487" height="0.825487" transform="rotate(90 6.93359 15.387)" fill="#EF5243"/>
<rect x="6.35547" y="15.387" width="0.825487" height="0.825487" transform="rotate(90 6.35547 15.387)" fill="#EF5243"/>
<rect x="6.35547" y="14.5627" width="0.825487" height="0.825487" transform="rotate(90 6.35547 14.5627)" fill="#EF5243"/>
<rect x="6.35547" y="16.2112" width="0.825487" height="0.825487" transform="rotate(90 6.35547 16.2112)" fill="#EF5243"/>
<rect x="6.93359" y="16.2112" width="0.825487" height="0.825487" transform="rotate(90 6.93359 16.2112)" fill="#EF5243"/>
<rect x="6.93359" y="14.5627" width="0.825487" height="0.825487" transform="rotate(90 6.93359 14.5627)" fill="#EF5243"/>
<rect x="6.93359" y="13.7346" width="0.825487" height="0.825487" transform="rotate(90 6.93359 13.7346)" fill="#EF5243"/>
<rect x="8.58594" y="13.7346" width="0.825487" height="0.825487" transform="rotate(90 8.58594 13.7346)" fill="#EF5243"/>
<rect x="8.58594" y="14.5627" width="0.825487" height="0.825487" transform="rotate(90 8.58594 14.5627)" fill="#EF5243"/>
<rect x="8.58594" y="12.9104" width="0.825487" height="0.825487" transform="rotate(90 8.58594 12.9104)" fill="#EF5243"/>
<rect x="7.75977" y="12.9104" width="0.825487" height="0.825487" transform="rotate(90 7.75977 12.9104)" fill="#EF5243"/>
<rect x="10.2344" y="12.9104" width="0.825487" height="0.825487" transform="rotate(90 10.2344 12.9104)" fill="#EF5243"/>
<rect x="10.2344" y="12.0862" width="0.825487" height="0.825487" transform="rotate(90 10.2344 12.0862)" fill="#EF5243"/>
<rect x="10.2344" y="11.2581" width="0.825487" height="0.825487" transform="rotate(90 10.2344 11.2581)" fill="#EF5243"/>
<rect x="7.75977" y="13.7346" width="0.825487" height="0.825487" transform="rotate(90 7.75977 13.7346)" fill="#EF5243"/>
<rect x="9.41016" y="13.7346" width="0.825487" height="0.825487" transform="rotate(90 9.41016 13.7346)" fill="#EF5243"/>
<rect x="9.41016" y="14.5627" width="0.825487" height="0.825487" transform="rotate(90 9.41016 14.5627)" fill="#EF5243"/>
<rect x="10.2344" y="13.7346" width="0.825487" height="0.825487" transform="rotate(90 10.2344 13.7346)" fill="#EF5243"/>
<rect x="10.2344" y="14.5627" width="0.825487" height="0.825487" transform="rotate(90 10.2344 14.5627)" fill="#EF5243"/>
<rect x="11.0605" y="13.7346" width="0.825487" height="0.825487" transform="rotate(90 11.0605 13.7346)" fill="#EF5243"/>
<rect x="11.0605" y="14.5627" width="0.825487" height="0.825487" transform="rotate(90 11.0605 14.5627)" fill="#EF5243"/>
<rect x="11.8867" y="13.7346" width="0.825487" height="0.825487" transform="rotate(90 11.8867 13.7346)" fill="#EF5243"/>
<rect x="11.8867" y="14.5627" width="0.825487" height="0.825487" transform="rotate(90 11.8867 14.5627)" fill="#EF5243"/>
<rect x="12.7129" y="13.7346" width="0.825487" height="0.825487" transform="rotate(90 12.7129 13.7346)" fill="#EF5243"/>
<rect x="13.5371" y="14.5627" width="0.825487" height="0.825487" transform="rotate(90 13.5371 14.5627)" fill="#EF5243"/>
<rect x="14.3613" y="14.5627" width="0.825487" height="0.825487" transform="rotate(90 14.3613 14.5627)" fill="#EF5243"/>
<rect x="14.3613" y="17.0393" width="0.825487" height="0.825487" transform="rotate(90 14.3613 17.0393)" fill="#EF5243"/>
<rect x="15.1895" y="15.387" width="0.825487" height="0.825487" transform="rotate(90 15.1895 15.387)" fill="#EF5243"/>
<rect x="16.0156" y="15.387" width="0.825487" height="0.825487" transform="rotate(90 16.0156 15.387)" fill="#EF5243"/>
<rect x="16.8418" y="14.8909" width="0.825487" height="0.825487" transform="rotate(90 16.8418 14.8909)" fill="#EF5243"/>
<rect x="17.6641" y="14.8909" width="0.825487" height="0.825487" transform="rotate(90 17.6641 14.8909)" fill="#EF5243"/>
<rect x="19.3164" y="14.5627" width="0.825487" height="0.825487" transform="rotate(90 19.3164 14.5627)" fill="#EF5243"/>
<rect x="13.5371" y="15.387" width="0.825487" height="0.825487" transform="rotate(90 13.5371 15.387)" fill="#EF5243"/>
<rect x="12.7129" y="14.5627" width="0.825487" height="0.825487" transform="rotate(90 12.7129 14.5627)" fill="#EF5243"/>
<rect x="14.3613" y="15.387" width="0.825487" height="0.825487" transform="rotate(90 14.3613 15.387)" fill="#EF5243"/>
<rect x="12.7129" y="15.387" width="0.825487" height="0.825487" transform="rotate(90 12.7129 15.387)" fill="#EF5243"/>
<rect x="11.8867" y="15.387" width="0.825487" height="0.825487" transform="rotate(90 11.8867 15.387)" fill="#EF5243"/>
<rect x="13.5371" y="17.0393" width="0.825487" height="0.825487" transform="rotate(90 13.5371 17.0393)" fill="#EF5243"/>
<rect x="12.7129" y="17.8635" width="0.825487" height="0.825487" transform="rotate(90 12.7129 17.8635)" fill="#EF5243"/>
<rect x="13.5371" y="17.8635" width="0.825487" height="0.825487" transform="rotate(90 13.5371 17.8635)" fill="#EF5243"/>
<rect x="11.8867" y="17.8635" width="0.825487" height="0.825487" transform="rotate(90 11.8867 17.8635)" fill="#EF5243"/>
<rect x="11.0605" y="17.8635" width="0.825487" height="0.825487" transform="rotate(90 11.0605 17.8635)" fill="#EF5243"/>
<rect x="10.2344" y="17.8635" width="0.825487" height="0.825487" transform="rotate(90 10.2344 17.8635)" fill="#EF5243"/>
<rect x="9.41016" y="17.8635" width="0.825487" height="0.825487" transform="rotate(90 9.41016 17.8635)" fill="#EF5243"/>
<rect x="8.58594" y="17.8635" width="0.825487" height="0.825487" transform="rotate(90 8.58594 17.8635)" fill="#EF5243"/>
<rect x="11.0605" y="18.6877" width="0.825487" height="0.825487" transform="rotate(90 11.0605 18.6877)" fill="#EF5243"/>
<rect x="10.2344" y="18.6877" width="0.825487" height="0.825487" transform="rotate(90 10.2344 18.6877)" fill="#EF5243"/>
<rect x="9.41016" y="18.6877" width="0.825487" height="0.825487" transform="rotate(90 9.41016 18.6877)" fill="#EF5243"/>
<rect x="15.1895" y="16.2112" width="0.825487" height="0.825487" transform="rotate(90 15.1895 16.2112)" fill="#EF5243"/>
<rect x="16.0156" y="16.2112" width="0.825487" height="0.825487" transform="rotate(90 16.0156 16.2112)" fill="#EF5243"/>
<rect x="16.8418" y="15.719" width="0.825487" height="0.825487" transform="rotate(90 16.8418 15.719)" fill="#EF5243"/>
<rect x="9.41016" y="12.9104" width="0.825487" height="0.825487" transform="rotate(90 9.41016 12.9104)" fill="#EF5243"/>
<rect x="11.0605" y="12.9104" width="0.825487" height="0.825487" transform="rotate(90 11.0605 12.9104)" fill="#EF5243"/>
<rect x="13.5371" y="13.7346" width="0.825487" height="0.825487" transform="rotate(90 13.5371 13.7346)" fill="#EF5243"/>
<rect x="11.8867" y="12.9104" width="0.825487" height="0.825487" transform="rotate(90 11.8867 12.9104)" fill="#EF5243"/>
<rect x="12.7129" y="12.9104" width="0.825487" height="0.825487" transform="rotate(90 12.7129 12.9104)" fill="#EF5243"/>
<rect x="14.3613" y="13.7346" width="0.825487" height="0.825487" transform="rotate(90 14.3613 13.7346)" fill="#EF5243"/>
<rect x="14.3613" y="16.2112" width="0.825487" height="0.825487" transform="rotate(90 14.3613 16.2112)" fill="#EF5243"/>
<rect x="13.5371" y="20.3401" width="0.825487" height="0.825487" transform="rotate(90 13.5371 20.3401)" fill="#EF5243"/>
<rect width="0.825487" height="0.825487" transform="matrix(4.37114e-08 -1 -1 -4.37114e-08 12.6289 10.844)" fill="#EF5243"/>
<rect x="12.7129" y="20.3401" width="0.825487" height="0.825487" transform="rotate(90 12.7129 20.3401)" fill="#EF5243"/>
<rect width="0.825487" height="0.825487" transform="matrix(4.37114e-08 -1 -1 -4.37114e-08 11.8066 10.844)" fill="#EF5243"/>
<rect x="11.0605" y="21.1643" width="0.825487" height="0.825487" transform="rotate(90 11.0605 21.1643)" fill="#EF5243"/>
<rect width="0.825487" height="0.825487" transform="matrix(4.37114e-08 -1 -1 -4.37114e-08 10.1543 10.0198)" fill="#EF5243"/>
<rect x="10.2344" y="21.1643" width="0.825487" height="0.825487" transform="rotate(90 10.2344 21.1643)" fill="#EF5243"/>
<rect width="0.825487" height="0.825487" transform="matrix(4.37114e-08 -1 -1 -4.37114e-08 9.32812 10.0198)" fill="#EF5243"/>
<rect x="8.58594" y="20.3401" width="0.825487" height="0.825487" transform="rotate(90 8.58594 20.3401)" fill="#EF5243"/>
<rect width="0.825487" height="0.825487" transform="matrix(4.37114e-08 -1 -1 -4.37114e-08 7.67773 10.844)" fill="#EF5243"/>
<rect x="7.75977" y="19.5159" width="0.825487" height="0.825487" transform="rotate(90 7.75977 19.5159)" fill="#EF5243"/>
<rect width="0.825487" height="0.825487" transform="matrix(4.37114e-08 -1 -1 -4.37114e-08 6.85156 11.6721)" fill="#EF5243"/>
<rect x="6.93359" y="18.6877" width="0.825487" height="0.825487" transform="rotate(90 6.93359 18.6877)" fill="#EF5243"/>
<rect width="0.825487" height="0.825487" transform="matrix(4.37114e-08 -1 -1 -4.37114e-08 6.02539 12.4963)" fill="#EF5243"/>
<rect x="6.10938" y="18.2737" width="0.825487" height="0.825487" transform="rotate(90 6.10938 18.2737)" fill="#EF5243"/>
<rect width="0.825487" height="0.825487" transform="matrix(4.37114e-08 -1 -1 -4.37114e-08 5.19922 12.9104)" fill="#EF5243"/>
<rect width="0.825487" height="0.825487" transform="matrix(4.37114e-08 -1 -1 -4.37114e-08 3.63086 11.2581)" fill="#EF5243"/>
<rect width="0.825487" height="0.825487" transform="matrix(4.37114e-08 -1 -1 -4.37114e-08 2.47656 11.2581)" fill="#EF5243"/>
<rect x="3.71484" y="19.5159" width="0.825487" height="0.825487" transform="rotate(90 3.71484 19.5159)" fill="#EF5243"/>
<rect width="0.825487" height="0.825487" transform="matrix(4.37114e-08 -1 -1 -4.37114e-08 2.47656 9.60962)" fill="#EF5243"/>
<rect x="3.71484" y="21.1643" width="0.825487" height="0.825487" transform="rotate(90 3.71484 21.1643)" fill="#EF5243"/>
<rect width="0.825487" height="0.825487" transform="matrix(4.37114e-08 -1 -1 -4.37114e-08 2.47656 7.95728)" fill="#EF5243"/>
<rect x="3.71484" y="22.8167" width="0.825487" height="0.825487" transform="rotate(90 3.71484 22.8167)" fill="#EF5243"/>
<rect width="0.825487" height="0.825487" transform="matrix(4.37114e-08 -1 -1 -4.37114e-08 1.65039 7.95728)" fill="#EF5243"/>
<rect x="2.88867" y="22.8167" width="0.825487" height="0.825487" transform="rotate(90 2.88867 22.8167)" fill="#EF5243"/>
<rect width="0.825487" height="0.825487" transform="matrix(4.37114e-08 -1 -1 -4.37114e-08 2.47656 6.30493)" fill="#EF5243"/>
<rect x="3.71484" y="24.469" width="0.825487" height="0.825487" transform="rotate(90 3.71484 24.469)" fill="#EF5243"/>
<rect width="0.825487" height="0.825487" transform="matrix(4.37114e-08 -1 -1 -4.37114e-08 3.30078 6.30493)" fill="#EF5243"/>
<rect width="0.825487" height="0.825487" transform="matrix(4.37114e-08 -1 -1 -4.37114e-08 1.65039 6.30493)" fill="#EF5243"/>
<rect x="2.88867" y="24.469" width="0.825487" height="0.825487" transform="rotate(90 2.88867 24.469)" fill="#EF5243"/>
<rect width="0.825487" height="0.825487" transform="matrix(4.37114e-08 -1 -1 -4.37114e-08 0.826172 6.30493)" fill="#EF5243"/>
<rect x="2.06445" y="24.469" width="0.825487" height="0.825487" transform="rotate(90 2.06445 24.469)" fill="#EF5243"/>
<rect width="0.825487" height="0.825487" transform="matrix(4.37114e-08 -1 -1 -4.37114e-08 2.47656 4.65649)" fill="#EF5243"/>
<rect x="3.71484" y="26.1174" width="0.825487" height="0.825487" transform="rotate(90 3.71484 26.1174)" fill="#EF5243"/>
<rect width="0.825487" height="0.825487" transform="matrix(4.37114e-08 -1 -1 -4.37114e-08 3.30078 4.65649)" fill="#EF5243"/>
<rect x="4.54102" y="26.1174" width="0.825487" height="0.825487" transform="rotate(90 4.54102 26.1174)" fill="#EF5243"/>
<rect width="0.825487" height="0.825487" transform="matrix(4.37114e-08 -1 -1 -4.37114e-08 4.12891 4.65649)" fill="#EF5243"/>
<rect width="0.825487" height="0.825487" transform="matrix(4.37114e-08 -1 -1 -4.37114e-08 4.12891 5.48071)" fill="#EF5243"/>
<rect width="0.825487" height="0.825487" transform="matrix(4.37114e-08 -1 -1 -4.37114e-08 4.95312 4.65649)" fill="#EF5243"/>
<rect width="0.825487" height="0.825487" transform="matrix(4.37114e-08 -1 -1 -4.37114e-08 1.65039 4.65649)" fill="#EF5243"/>
<rect x="2.88867" y="26.1174" width="0.825487" height="0.825487" transform="rotate(90 2.88867 26.1174)" fill="#EF5243"/>
<rect width="0.825487" height="0.825487" transform="matrix(4.37114e-08 -1 -1 -4.37114e-08 4.45898 10.4338)" fill="#EF5243"/>
<rect width="0.825487" height="0.825487" transform="matrix(4.37114e-08 -1 -1 -4.37114e-08 4.45898 8.78149)" fill="#EF5243"/>
<rect width="0.825487" height="0.825487" transform="matrix(4.37114e-08 -1 -1 -4.37114e-08 5.28516 7.95728)" fill="#EF5243"/>
<rect width="0.825487" height="0.825487" transform="matrix(4.37114e-08 -1 -1 -4.37114e-08 6.10938 6.30493)" fill="#EF5243"/>
<rect width="0.825487" height="0.825487" transform="matrix(4.37114e-08 -1 -1 -4.37114e-08 6.93359 5.48071)" fill="#EF5243"/>
<rect width="0.825487" height="0.825487" transform="matrix(4.37114e-08 -1 -1 -4.37114e-08 7.75977 5.48071)" fill="#EF5243"/>
<rect width="0.825487" height="0.825487" transform="matrix(4.37114e-08 -1 -1 -4.37114e-08 8.58594 5.48071)" fill="#EF5243"/>
<rect width="0.825487" height="0.825487" transform="matrix(4.37114e-08 -1 -1 -4.37114e-08 9.41016 4.65649)" fill="#EF5243"/>
<rect width="0.825487" height="0.825487" transform="matrix(4.37114e-08 -1 -1 -4.37114e-08 11.0605 4.65649)" fill="#EF5243"/>
<rect width="0.825487" height="0.825487" transform="matrix(4.37114e-08 -1 -1 -4.37114e-08 11.8867 4.65649)" fill="#EF5243"/>
<rect width="0.825487" height="0.825487" transform="matrix(4.37114e-08 -1 -1 -4.37114e-08 12.7129 4.65649)" fill="#EF5243"/>
<rect width="0.825487" height="0.825487" transform="matrix(4.37114e-08 -1 -1 -4.37114e-08 13.5371 4.65649)" fill="#EF5243"/>
<rect width="0.825487" height="0.825487" transform="matrix(4.37114e-08 -1 -1 -4.37114e-08 14.3613 4.65649)" fill="#EF5243"/>
<rect width="0.825487" height="0.825487" transform="matrix(4.37114e-08 -1 -1 -4.37114e-08 15.1895 4.65649)" fill="#EF5243"/>
<rect width="0.825487" height="0.825487" transform="matrix(4.37114e-08 -1 -1 -4.37114e-08 10.2344 5.48071)" fill="#EF5243"/>
<rect x="14.3613" y="19.5159" width="0.825487" height="0.825487" transform="rotate(90 14.3613 19.5159)" fill="#EF5243"/>
<rect width="0.825487" height="0.825487" transform="matrix(4.37114e-08 -1 -1 -4.37114e-08 13.4551 11.6721)" fill="#EF5243"/>
<rect x="15.1895" y="18.6877" width="0.825487" height="0.825487" transform="rotate(90 15.1895 18.6877)" fill="#EF5243"/>
<rect width="0.825487" height="0.825487" transform="matrix(4.37114e-08 -1 -1 -4.37114e-08 14.2812 12.4963)" fill="#EF5243"/>
<rect x="16.0156" y="18.6877" width="0.825487" height="0.825487" transform="rotate(90 16.0156 18.6877)" fill="#EF5243"/>
<rect width="0.825487" height="0.825487" transform="matrix(4.37114e-08 -1 -1 -4.37114e-08 15.1074 12.4963)" fill="#EF5243"/>
<rect x="16.8418" y="17.8635" width="0.825487" height="0.825487" transform="rotate(90 16.8418 17.8635)" fill="#EF5243"/>
<rect width="0.825487" height="0.825487" transform="matrix(4.37114e-08 -1 -1 -4.37114e-08 15.9316 13.3206)" fill="#EF5243"/>
<rect x="17.6641" y="17.8635" width="0.825487" height="0.825487" transform="rotate(90 17.6641 17.8635)" fill="#EF5243"/>
<rect width="0.825487" height="0.825487" transform="matrix(4.37114e-08 -1 -1 -4.37114e-08 16.7559 13.3206)" fill="#EF5243"/>
<rect x="16.8418" y="18.6877" width="0.825487" height="0.825487" transform="rotate(90 16.8418 18.6877)" fill="#EF5243"/>
<rect width="0.825487" height="0.825487" transform="matrix(4.37114e-08 -1 -1 -4.37114e-08 15.9316 12.4963)" fill="#EF5243"/>
<rect x="17.6641" y="18.6877" width="0.825487" height="0.825487" transform="rotate(90 17.6641 18.6877)" fill="#EF5243"/>
<rect width="0.825487" height="0.825487" transform="matrix(4.37114e-08 -1 -1 -4.37114e-08 16.7559 12.4963)" fill="#EF5243"/>
<rect x="16.8418" y="19.5159" width="0.825487" height="0.825487" transform="rotate(90 16.8418 19.5159)" fill="#EF5243"/>
<rect width="0.825487" height="0.825487" transform="matrix(4.37114e-08 -1 -1 -4.37114e-08 15.9316 11.6721)" fill="#EF5243"/>
<rect x="16.0156" y="19.5159" width="0.825487" height="0.825487" transform="rotate(90 16.0156 19.5159)" fill="#EF5243"/>
<rect width="0.825487" height="0.825487" transform="matrix(4.37114e-08 -1 -1 -4.37114e-08 15.1074 11.6721)" fill="#EF5243"/>
<rect x="15.1895" y="19.5159" width="0.825487" height="0.825487" transform="rotate(90 15.1895 19.5159)" fill="#EF5243"/>
<rect width="0.825487" height="0.825487" transform="matrix(4.37114e-08 -1 -1 -4.37114e-08 14.2812 11.6721)" fill="#EF5243"/>
<rect x="14.3613" y="20.3401" width="0.825487" height="0.825487" transform="rotate(90 14.3613 20.3401)" fill="#EF5243"/>
<rect width="0.825487" height="0.825487" transform="matrix(4.37114e-08 -1 -1 -4.37114e-08 13.4551 10.844)" fill="#EF5243"/>
<rect x="13.5371" y="20.3401" width="0.825487" height="0.825487" transform="rotate(90 13.5371 20.3401)" fill="#EF5243"/>
<rect width="0.825487" height="0.825487" transform="matrix(4.37114e-08 -1 -1 -4.37114e-08 12.6289 10.844)" fill="#EF5243"/>
<rect x="18.4902" y="18.6877" width="0.825487" height="0.825487" transform="rotate(90 18.4902 18.6877)" fill="#EF5243"/>
<rect width="0.825487" height="0.825487" transform="matrix(4.37114e-08 -1 -1 -4.37114e-08 17.582 12.4963)" fill="#EF5243"/>
<rect x="17.6641" y="19.5159" width="0.825487" height="0.825487" transform="rotate(90 17.6641 19.5159)" fill="#EF5243"/>
<rect width="0.825487" height="0.825487" transform="matrix(4.37114e-08 -1 -1 -4.37114e-08 16.7559 11.6721)" fill="#EF5243"/>
<rect x="16.8418" y="20.3401" width="0.825487" height="0.825487" transform="rotate(90 16.8418 20.3401)" fill="#EF5243"/>
<rect width="0.825487" height="0.825487" transform="matrix(4.37114e-08 -1 -1 -4.37114e-08 15.9316 10.844)" fill="#EF5243"/>
<rect x="16.0156" y="20.3401" width="0.825487" height="0.825487" transform="rotate(90 16.0156 20.3401)" fill="#EF5243"/>
<rect width="0.825487" height="0.825487" transform="matrix(4.37114e-08 -1 -1 -4.37114e-08 15.1074 10.844)" fill="#EF5243"/>
<rect x="15.1895" y="20.3401" width="0.825487" height="0.825487" transform="rotate(90 15.1895 20.3401)" fill="#EF5243"/>
<rect width="0.825487" height="0.825487" transform="matrix(4.37114e-08 -1 -1 -4.37114e-08 14.2812 10.844)" fill="#EF5243"/>
<rect x="14.3613" y="21.1643" width="0.825487" height="0.825487" transform="rotate(90 14.3613 21.1643)" fill="#EF5243"/>
<rect width="0.825487" height="0.825487" transform="matrix(4.37114e-08 -1 -1 -4.37114e-08 13.4551 10.0198)" fill="#EF5243"/>
<rect x="13.5371" y="21.1643" width="0.825487" height="0.825487" transform="rotate(90 13.5371 21.1643)" fill="#EF5243"/>
<rect width="0.825487" height="0.825487" transform="matrix(4.37114e-08 -1 -1 -4.37114e-08 12.6289 10.0198)" fill="#EF5243"/>
<rect x="12.7129" y="21.1643" width="0.825487" height="0.825487" transform="rotate(90 12.7129 21.1643)" fill="#EF5243"/>
<rect width="0.825487" height="0.825487" transform="matrix(4.37114e-08 -1 -1 -4.37114e-08 11.8066 10.0198)" fill="#EF5243"/>
<rect x="11.8867" y="21.1643" width="0.825487" height="0.825487" transform="rotate(90 11.8867 21.1643)" fill="#EF5243"/>
<rect width="0.825487" height="0.825487" transform="matrix(4.37114e-08 -1 -1 -4.37114e-08 10.9805 10.0198)" fill="#EF5243"/>
<rect x="18.4902" y="19.5159" width="0.825487" height="0.825487" transform="rotate(90 18.4902 19.5159)" fill="#EF5243"/>
<rect width="0.825487" height="0.825487" transform="matrix(4.37114e-08 -1 -1 -4.37114e-08 17.582 11.6721)" fill="#EF5243"/>
<rect x="17.6641" y="20.3401" width="0.825487" height="0.825487" transform="rotate(90 17.6641 20.3401)" fill="#EF5243"/>
<rect width="0.825487" height="0.825487" transform="matrix(4.37114e-08 -1 -1 -4.37114e-08 16.7559 10.844)" fill="#EF5243"/>
<rect x="16.8418" y="21.1643" width="0.825487" height="0.825487" transform="rotate(90 16.8418 21.1643)" fill="#EF5243"/>
<rect width="0.825487" height="0.825487" transform="matrix(4.37114e-08 -1 -1 -4.37114e-08 15.9316 10.0198)" fill="#EF5243"/>
<rect x="16.0156" y="21.1643" width="0.825487" height="0.825487" transform="rotate(90 16.0156 21.1643)" fill="#EF5243"/>
<rect width="0.825487" height="0.825487" transform="matrix(4.37114e-08 -1 -1 -4.37114e-08 15.1074 10.0198)" fill="#EF5243"/>
<rect x="15.1895" y="21.1643" width="0.825487" height="0.825487" transform="rotate(90 15.1895 21.1643)" fill="#EF5243"/>
<rect width="0.825487" height="0.825487" transform="matrix(4.37114e-08 -1 -1 -4.37114e-08 14.2812 10.0198)" fill="#EF5243"/>
<rect x="14.3613" y="21.9885" width="0.825487" height="0.825487" transform="rotate(90 14.3613 21.9885)" fill="#EF5243"/>
<rect width="0.825487" height="0.825487" transform="matrix(4.37114e-08 -1 -1 -4.37114e-08 13.4551 9.19556)" fill="#EF5243"/>
<rect x="13.5371" y="21.9885" width="0.825487" height="0.825487" transform="rotate(90 13.5371 21.9885)" fill="#EF5243"/>
<rect width="0.825487" height="0.825487" transform="matrix(4.37114e-08 -1 -1 -4.37114e-08 12.6289 9.19556)" fill="#EF5243"/>
<rect x="12.7129" y="21.9885" width="0.825487" height="0.825487" transform="rotate(90 12.7129 21.9885)" fill="#EF5243"/>
<rect width="0.825487" height="0.825487" transform="matrix(4.37114e-08 -1 -1 -4.37114e-08 11.8066 9.19556)" fill="#EF5243"/>
<rect x="11.8867" y="21.9885" width="0.825487" height="0.825487" transform="rotate(90 11.8867 21.9885)" fill="#EF5243"/>
<rect width="0.825487" height="0.825487" transform="matrix(4.37114e-08 -1 -1 -4.37114e-08 10.9805 9.19556)" fill="#EF5243"/>
<rect x="11.0605" y="21.9885" width="0.825487" height="0.825487" transform="rotate(90 11.0605 21.9885)" fill="#EF5243"/>
<rect width="0.825487" height="0.825487" transform="matrix(4.37114e-08 -1 -1 -4.37114e-08 10.1543 9.19556)" fill="#EF5243"/>
<rect x="10.2344" y="21.9885" width="0.825487" height="0.825487" transform="rotate(90 10.2344 21.9885)" fill="#EF5243"/>
<rect width="0.825487" height="0.825487" transform="matrix(4.37114e-08 -1 -1 -4.37114e-08 9.32812 9.19556)" fill="#EF5243"/>
<rect x="9.41016" y="21.1643" width="0.825487" height="0.825487" transform="rotate(90 9.41016 21.1643)" fill="#EF5243"/>
<rect width="0.825487" height="0.825487" transform="matrix(4.37114e-08 -1 -1 -4.37114e-08 8.50195 10.0198)" fill="#EF5243"/>
<rect x="8.58594" y="21.1643" width="0.825487" height="0.825487" transform="rotate(90 8.58594 21.1643)" fill="#EF5243"/>
<rect width="0.825487" height="0.825487" transform="matrix(4.37114e-08 -1 -1 -4.37114e-08 7.67773 10.0198)" fill="#EF5243"/>
<rect x="7.75977" y="20.3401" width="0.825487" height="0.825487" transform="rotate(90 7.75977 20.3401)" fill="#EF5243"/>
<rect width="0.825487" height="0.825487" transform="matrix(4.37114e-08 -1 -1 -4.37114e-08 6.85156 10.844)" fill="#EF5243"/>
<rect x="6.93359" y="19.5159" width="0.825487" height="0.825487" transform="rotate(90 6.93359 19.5159)" fill="#EF5243"/>
<rect width="0.825487" height="0.825487" transform="matrix(4.37114e-08 -1 -1 -4.37114e-08 6.02539 11.6721)" fill="#EF5243"/>
<rect x="6.10938" y="19.1018" width="0.825487" height="0.825487" transform="rotate(90 6.10938 19.1018)" fill="#EF5243"/>
<rect width="0.825487" height="0.825487" transform="matrix(4.37114e-08 -1 -1 -4.37114e-08 5.19922 12.0862)" fill="#EF5243"/>
<rect width="0.825487" height="0.825487" transform="matrix(4.37114e-08 -1 -1 -4.37114e-08 3.63086 10.4338)" fill="#EF5243"/>
<rect width="0.825487" height="0.825487" transform="matrix(4.37114e-08 -1 -1 -4.37114e-08 2.47656 10.4338)" fill="#EF5243"/>
<rect x="3.71484" y="20.3401" width="0.825487" height="0.825487" transform="rotate(90 3.71484 20.3401)" fill="#EF5243"/>
<rect width="0.825487" height="0.825487" transform="matrix(4.37114e-08 -1 -1 -4.37114e-08 2.47656 8.78149)" fill="#EF5243"/>
<rect x="3.71484" y="21.9885" width="0.825487" height="0.825487" transform="rotate(90 3.71484 21.9885)" fill="#EF5243"/>
<rect width="0.825487" height="0.825487" transform="matrix(4.37114e-08 -1 -1 -4.37114e-08 1.65039 8.78149)" fill="#EF5243"/>
<rect x="2.88867" y="21.9885" width="0.825487" height="0.825487" transform="rotate(90 2.88867 21.9885)" fill="#EF5243"/>
<rect width="0.825487" height="0.825487" transform="matrix(4.37114e-08 -1 -1 -4.37114e-08 2.47656 7.13306)" fill="#EF5243"/>
<rect x="3.71484" y="23.6409" width="0.825487" height="0.825487" transform="rotate(90 3.71484 23.6409)" fill="#EF5243"/>
<rect width="0.825487" height="0.825487" transform="matrix(4.37114e-08 -1 -1 -4.37114e-08 3.30078 7.13306)" fill="#EF5243"/>
<rect width="0.825487" height="0.825487" transform="matrix(4.37114e-08 -1 -1 -4.37114e-08 1.65039 7.13306)" fill="#EF5243"/>
<rect x="2.88867" y="23.6409" width="0.825487" height="0.825487" transform="rotate(90 2.88867 23.6409)" fill="#EF5243"/>
<rect width="0.825487" height="0.825487" transform="matrix(4.37114e-08 -1 -1 -4.37114e-08 0.826172 7.13306)" fill="#EF5243"/>
<rect x="2.06445" y="23.6409" width="0.825487" height="0.825487" transform="rotate(90 2.06445 23.6409)" fill="#EF5243"/>
<rect width="0.825487" height="0.825487" transform="matrix(4.37114e-08 -1 -1 -4.37114e-08 2.47656 5.48071)" fill="#EF5243"/>
<rect x="3.71484" y="25.2932" width="0.825487" height="0.825487" transform="rotate(90 3.71484 25.2932)" fill="#EF5243"/>
<rect width="0.825487" height="0.825487" transform="matrix(4.37114e-08 -1 -1 -4.37114e-08 3.30078 5.48071)" fill="#EF5243"/>
<rect x="4.54102" y="25.2932" width="0.825487" height="0.825487" transform="rotate(90 4.54102 25.2932)" fill="#EF5243"/>
<rect width="0.825487" height="0.825487" transform="matrix(4.37114e-08 -1 -1 -4.37114e-08 1.65039 5.48071)" fill="#EF5243"/>
<rect x="2.88867" y="25.2932" width="0.825487" height="0.825487" transform="rotate(90 2.88867 25.2932)" fill="#EF5243"/>
<rect width="0.825487" height="0.825487" transform="matrix(4.37114e-08 -1 -1 -4.37114e-08 0.826172 5.48071)" fill="#EF5243"/>
<rect x="2.06445" y="25.2932" width="0.825487" height="0.825487" transform="rotate(90 2.06445 25.2932)" fill="#EF5243"/>
<rect width="0.825487" height="0.825487" transform="matrix(4.37114e-08 -1 -1 -4.37114e-08 2.47656 3.82837)" fill="#EF5243"/>
<rect x="3.71484" y="26.9417" width="0.825487" height="0.825487" transform="rotate(90 3.71484 26.9417)" fill="#EF5243"/>
<rect width="0.825487" height="0.825487" transform="matrix(4.37114e-08 -1 -1 -4.37114e-08 2.47656 3.00415)" fill="#EF5243"/>
<rect x="3.71484" y="27.7698" width="0.825487" height="0.825487" transform="rotate(90 3.71484 27.7698)" fill="#EF5243"/>
<rect x="2.88867" y="27.7698" width="0.825487" height="0.825487" transform="rotate(90 2.88867 27.7698)" fill="#EF5243"/>
<rect width="0.825487" height="0.825487" transform="matrix(4.37114e-08 -1 -1 -4.37114e-08 3.30078 3.00415)" fill="#EF5243"/>
<rect x="4.54102" y="27.7698" width="0.825487" height="0.825487" transform="rotate(90 4.54102 27.7698)" fill="#EF5243"/>
<rect width="0.825487" height="0.825487" transform="matrix(4.37114e-08 -1 -1 -4.37114e-08 4.12891 3.00415)" fill="#EF5243"/>
<rect x="5.36523" y="27.7698" width="0.825487" height="0.825487" transform="rotate(90 5.36523 27.7698)" fill="#EF5243"/>
<rect width="0.825487" height="0.825487" transform="matrix(4.37114e-08 -1 -1 -4.37114e-08 4.95312 3.00415)" fill="#EF5243"/>
<rect x="6.19141" y="27.7698" width="0.825487" height="0.825487" transform="rotate(90 6.19141 27.7698)" fill="#EF5243"/>
<rect width="0.825487" height="0.825487" transform="matrix(4.37114e-08 -1 -1 -4.37114e-08 5.7793 3.00415)" fill="#EF5243"/>
<rect width="0.825487" height="0.825487" transform="matrix(4.37114e-08 -1 -1 -4.37114e-08 3.30078 2.17993)" fill="#EF5243"/>
<rect x="4.54102" y="28.594" width="0.825487" height="0.825487" transform="rotate(90 4.54102 28.594)" fill="#EF5243"/>
<rect x="3.71484" y="28.594" width="0.825487" height="0.825487" transform="rotate(90 3.71484 28.594)" fill="#EF5243"/>
<rect width="0.825487" height="0.825487" transform="matrix(4.37114e-08 -1 -1 -4.37114e-08 3.30078 1.35181)" fill="#EF5243"/>
<rect x="4.54102" y="29.4182" width="0.825487" height="0.825487" transform="rotate(90 4.54102 29.4182)" fill="#EF5243"/>
<rect x="4.54102" y="30.2463" width="0.825487" height="0.825487" transform="rotate(90 4.54102 30.2463)" fill="#EF5243"/>
<rect width="0.825487" height="0.825487" transform="matrix(4.37114e-08 -1 -1 -4.37114e-08 4.12891 1.35181)" fill="#EF5243"/>
<rect x="5.36523" y="29.4182" width="0.825487" height="0.825487" transform="rotate(90 5.36523 29.4182)" fill="#EF5243"/>
<rect x="5.36523" y="30.2463" width="0.825487" height="0.825487" transform="rotate(90 5.36523 30.2463)" fill="#EF5243"/>
<rect width="0.825487" height="0.825487" transform="matrix(4.37114e-08 -1 -1 -4.37114e-08 4.95312 1.35181)" fill="#EF5243"/>
<rect x="6.19141" y="29.4182" width="0.825487" height="0.825487" transform="rotate(90 6.19141 29.4182)" fill="#EF5243"/>
<rect x="7.01562" y="29.4182" width="0.825487" height="0.825487" transform="rotate(90 7.01562 29.4182)" fill="#EF5243"/>
<rect x="6.19141" y="30.2463" width="0.825487" height="0.825487" transform="rotate(90 6.19141 30.2463)" fill="#EF5243"/>
<rect width="0.825487" height="0.825487" transform="matrix(4.37114e-08 -1 -1 -4.37114e-08 4.12891 2.17993)" fill="#EF5243"/>
<rect x="5.36523" y="28.594" width="0.825487" height="0.825487" transform="rotate(90 5.36523 28.594)" fill="#EF5243"/>
<rect width="0.825487" height="0.825487" transform="matrix(4.37114e-08 -1 -1 -4.37114e-08 4.95312 2.17993)" fill="#EF5243"/>
<rect x="6.19141" y="28.594" width="0.825487" height="0.825487" transform="rotate(90 6.19141 28.594)" fill="#EF5243"/>
<rect width="0.825487" height="0.825487" transform="matrix(4.37114e-08 -1 -1 -4.37114e-08 5.7793 2.17993)" fill="#EF5243"/>
<rect x="7.01562" y="28.594" width="0.825487" height="0.825487" transform="rotate(90 7.01562 28.594)" fill="#EF5243"/>
<rect width="0.825487" height="0.825487" transform="matrix(4.37114e-08 -1 -1 -4.37114e-08 3.30078 3.82837)" fill="#EF5243"/>
<rect x="4.54102" y="26.9417" width="0.825487" height="0.825487" transform="rotate(90 4.54102 26.9417)" fill="#EF5243"/>
<rect width="0.825487" height="0.825487" transform="matrix(4.37114e-08 -1 -1 -4.37114e-08 4.12891 3.82837)" fill="#EF5243"/>
<rect x="5.36523" y="26.9417" width="0.825487" height="0.825487" transform="rotate(90 5.36523 26.9417)" fill="#EF5243"/>
<rect width="0.825487" height="0.825487" transform="matrix(4.37114e-08 -1 -1 -4.37114e-08 4.95312 3.82837)" fill="#EF5243"/>
<rect width="0.825487" height="0.825487" transform="matrix(4.37114e-08 -1 -1 -4.37114e-08 5.7793 3.82837)" fill="#EF5243"/>
<rect width="0.825487" height="0.825487" transform="matrix(4.37114e-08 -1 -1 -4.37114e-08 1.65039 3.82837)" fill="#EF5243"/>
<rect x="2.88867" y="26.9417" width="0.825487" height="0.825487" transform="rotate(90 2.88867 26.9417)" fill="#EF5243"/>
<rect width="0.825487" height="0.825487" transform="matrix(4.37114e-08 -1 -1 -4.37114e-08 4.45898 9.60962)" fill="#EF5243"/>
<rect width="0.825487" height="0.825487" transform="matrix(4.37114e-08 -1 -1 -4.37114e-08 5.28516 8.78149)" fill="#EF5243"/>
<rect width="0.825487" height="0.825487" transform="matrix(4.37114e-08 -1 -1 -4.37114e-08 6.10938 7.13306)" fill="#EF5243"/>
<rect width="0.825487" height="0.825487" transform="matrix(4.37114e-08 -1 -1 -4.37114e-08 6.93359 6.30493)" fill="#EF5243"/>
<rect width="0.825487" height="0.825487" transform="matrix(4.37114e-08 -1 -1 -4.37114e-08 7.75977 6.30493)" fill="#EF5243"/>
<rect width="0.825487" height="0.825487" transform="matrix(4.37114e-08 -1 -1 -4.37114e-08 8.58594 6.30493)" fill="#EF5243"/>
<rect width="0.825487" height="0.825487" transform="matrix(4.37114e-08 -1 -1 -4.37114e-08 9.41016 5.48071)" fill="#EF5243"/>
<rect width="0.825487" height="0.825487" transform="matrix(4.37114e-08 -1 -1 -4.37114e-08 11.0605 5.48071)" fill="#EF5243"/>
<rect width="0.825487" height="0.825487" transform="matrix(4.37114e-08 -1 -1 -4.37114e-08 11.8867 5.48071)" fill="#EF5243"/>
<rect width="0.825487" height="0.825487" transform="matrix(4.37114e-08 -1 -1 -4.37114e-08 12.7129 5.48071)" fill="#EF5243"/>
<rect width="0.825487" height="0.825487" transform="matrix(4.37114e-08 -1 -1 -4.37114e-08 13.5371 5.48071)" fill="#EF5243"/>
<rect width="0.825487" height="0.825487" transform="matrix(4.37114e-08 -1 -1 -4.37114e-08 14.3613 5.48071)" fill="#EF5243"/>
<rect width="0.825487" height="0.825487" transform="matrix(4.37114e-08 -1 -1 -4.37114e-08 15.1895 5.48071)" fill="#EF5243"/>
<rect width="0.825487" height="0.825487" transform="matrix(4.37114e-08 -1 -1 -4.37114e-08 4.45898 7.95728)" fill="#EF5243"/>
<rect width="0.825487" height="0.825487" transform="matrix(4.37114e-08 -1 -1 -4.37114e-08 5.28516 7.13306)" fill="#EF5243"/>
<rect width="0.825487" height="0.825487" transform="matrix(4.37114e-08 -1 -1 -4.37114e-08 5.28516 6.30493)" fill="#EF5243"/>
<rect width="0.825487" height="0.825487" transform="matrix(4.37114e-08 -1 -1 -4.37114e-08 6.10938 5.48071)" fill="#EF5243"/>
<rect width="0.825487" height="0.825487" transform="matrix(4.37114e-08 -1 -1 -4.37114e-08 6.93359 4.65649)" fill="#EF5243"/>
<rect width="0.825487" height="0.825487" transform="matrix(4.37114e-08 -1 -1 -4.37114e-08 7.75977 4.65649)" fill="#EF5243"/>
<rect width="0.825487" height="0.825487" transform="matrix(4.37114e-08 -1 -1 -4.37114e-08 8.58594 4.65649)" fill="#EF5243"/>
<rect width="0.825487" height="0.825487" transform="matrix(4.37114e-08 -1 -1 -4.37114e-08 9.41016 3.82837)" fill="#EF5243"/>
<rect width="0.825487" height="0.825487" transform="matrix(4.37114e-08 -1 -1 -4.37114e-08 11.0605 3.82837)" fill="#EF5243"/>
<rect width="0.825487" height="0.825487" transform="matrix(4.37114e-08 -1 -1 -4.37114e-08 11.8867 3.82837)" fill="#EF5243"/>
<rect width="0.825487" height="0.825487" transform="matrix(4.37114e-08 -1 -1 -4.37114e-08 12.7129 3.82837)" fill="#EF5243"/>
<rect width="0.825487" height="0.825487" transform="matrix(4.37114e-08 -1 -1 -4.37114e-08 13.5371 3.82837)" fill="#EF5243"/>
<rect width="0.825487" height="0.825487" transform="matrix(4.37114e-08 -1 -1 -4.37114e-08 14.3613 3.82837)" fill="#EF5243"/>
<rect width="0.825487" height="0.825487" transform="matrix(4.37114e-08 -1 -1 -4.37114e-08 15.1895 3.82837)" fill="#EF5243"/>
<rect width="0.825487" height="0.825487" transform="matrix(4.37114e-08 -1 -1 -4.37114e-08 10.2344 4.65649)" fill="#EF5243"/>
<rect width="0.825487" height="0.825487" transform="matrix(4.37114e-08 -1 -1 -4.37114e-08 6.93359 3.82837)" fill="#EF5243"/>
<rect width="0.825487" height="0.825487" transform="matrix(4.37114e-08 -1 -1 -4.37114e-08 7.75977 3.82837)" fill="#EF5243"/>
<rect width="0.825487" height="0.825487" transform="matrix(4.37114e-08 -1 -1 -4.37114e-08 8.58594 3.82837)" fill="#EF5243"/>
<rect width="0.825487" height="0.825487" transform="matrix(4.37114e-08 -1 -1 -4.37114e-08 9.41016 3.00415)" fill="#EF5243"/>
<rect width="0.825487" height="0.825487" transform="matrix(4.37114e-08 -1 -1 -4.37114e-08 11.0605 3.00415)" fill="#EF5243"/>
<rect width="0.825487" height="0.825487" transform="matrix(4.37114e-08 -1 -1 -4.37114e-08 11.8867 3.00415)" fill="#EF5243"/>
<rect width="0.825487" height="0.825487" transform="matrix(4.37114e-08 -1 -1 -4.37114e-08 12.7129 3.00415)" fill="#EF5243"/>
<rect width="0.825487" height="0.825487" transform="matrix(4.37114e-08 -1 -1 -4.37114e-08 13.5371 3.00415)" fill="#EF5243"/>
<rect width="0.825487" height="0.825487" transform="matrix(4.37114e-08 -1 -1 -4.37114e-08 14.3613 3.00415)" fill="#EF5243"/>
<rect width="0.825487" height="0.825487" transform="matrix(4.37114e-08 -1 -1 -4.37114e-08 10.2344 3.82837)" fill="#EF5243"/>
<rect width="0.825487" height="0.825487" transform="matrix(4.37114e-08 -1 -1 -4.37114e-08 8.58594 3.00415)" fill="#EF5243"/>
<rect width="0.825487" height="0.825487" transform="matrix(4.37114e-08 -1 -1 -4.37114e-08 9.41016 2.17993)" fill="#EF5243"/>
<rect width="0.825487" height="0.825487" transform="matrix(4.37114e-08 -1 -1 -4.37114e-08 11.0605 2.17993)" fill="#EF5243"/>
<rect width="0.825487" height="0.825487" transform="matrix(4.37114e-08 -1 -1 -4.37114e-08 11.8867 2.17993)" fill="#EF5243"/>
<rect width="0.825487" height="0.825487" transform="matrix(4.37114e-08 -1 -1 -4.37114e-08 12.7129 2.17993)" fill="#EF5243"/>
<rect width="0.825487" height="0.825487" transform="matrix(4.37114e-08 -1 -1 -4.37114e-08 13.5371 2.17993)" fill="#EF5243"/>
<rect width="0.825487" height="0.825487" transform="matrix(4.37114e-08 -1 -1 -4.37114e-08 10.2344 3.00415)" fill="#EF5243"/>
<rect width="0.825487" height="0.825487" transform="matrix(4.37114e-08 -1 -1 -4.37114e-08 10.2344 2.17993)" fill="#EF5243"/>
<rect x="18.4902" y="20.3401" width="0.825487" height="0.825487" transform="rotate(90 18.4902 20.3401)" fill="#EF5243"/>
<rect width="0.825487" height="0.825487" transform="matrix(4.37114e-08 -1 -1 -4.37114e-08 17.582 10.844)" fill="#EF5243"/>
<rect x="17.6641" y="21.1643" width="0.825487" height="0.825487" transform="rotate(90 17.6641 21.1643)" fill="#EF5243"/>
<rect width="0.825487" height="0.825487" transform="matrix(4.37114e-08 -1 -1 -4.37114e-08 16.7559 10.0198)" fill="#EF5243"/>
<rect x="16.8418" y="21.9885" width="0.825487" height="0.825487" transform="rotate(90 16.8418 21.9885)" fill="#EF5243"/>
<rect width="0.825487" height="0.825487" transform="matrix(4.37114e-08 -1 -1 -4.37114e-08 15.9316 9.19556)" fill="#EF5243"/>
<rect x="16.0156" y="21.9885" width="0.825487" height="0.825487" transform="rotate(90 16.0156 21.9885)" fill="#EF5243"/>
<rect width="0.825487" height="0.825487" transform="matrix(4.37114e-08 -1 -1 -4.37114e-08 15.1074 9.19556)" fill="#EF5243"/>
<rect x="15.1895" y="21.9885" width="0.825487" height="0.825487" transform="rotate(90 15.1895 21.9885)" fill="#EF5243"/>
<rect width="0.825487" height="0.825487" transform="matrix(4.37114e-08 -1 -1 -4.37114e-08 14.2812 9.19556)" fill="#EF5243"/>
<rect x="14.3613" y="22.8167" width="0.825487" height="0.825487" transform="rotate(90 14.3613 22.8167)" fill="#EF5243"/>
<rect width="0.825487" height="0.825487" transform="matrix(4.37114e-08 -1 -1 -4.37114e-08 13.4551 8.37134)" fill="#EF5243"/>
<rect x="13.5371" y="22.8167" width="0.825487" height="0.825487" transform="rotate(90 13.5371 22.8167)" fill="#EF5243"/>
<rect width="0.825487" height="0.825487" transform="matrix(4.37114e-08 -1 -1 -4.37114e-08 12.6289 8.37134)" fill="#EF5243"/>
<rect x="12.7129" y="22.8167" width="0.825487" height="0.825487" transform="rotate(90 12.7129 22.8167)" fill="#EF5243"/>
<rect width="0.825487" height="0.825487" transform="matrix(4.37114e-08 -1 -1 -4.37114e-08 11.8066 8.37134)" fill="#EF5243"/>
<rect x="11.8867" y="22.8167" width="0.825487" height="0.825487" transform="rotate(90 11.8867 22.8167)" fill="#EF5243"/>
<rect width="0.825487" height="0.825487" transform="matrix(4.37114e-08 -1 -1 -4.37114e-08 10.9805 8.37134)" fill="#EF5243"/>
<rect x="11.0605" y="22.8167" width="0.825487" height="0.825487" transform="rotate(90 11.0605 22.8167)" fill="#EF5243"/>
<rect width="0.825487" height="0.825487" transform="matrix(4.37114e-08 -1 -1 -4.37114e-08 10.1543 8.37134)" fill="#EF5243"/>
<rect x="10.2344" y="22.8167" width="0.825487" height="0.825487" transform="rotate(90 10.2344 22.8167)" fill="#EF5243"/>
<rect width="0.825487" height="0.825487" transform="matrix(4.37114e-08 -1 -1 -4.37114e-08 9.32812 8.37134)" fill="#EF5243"/>
<rect x="9.41016" y="21.9885" width="0.825487" height="0.825487" transform="rotate(90 9.41016 21.9885)" fill="#EF5243"/>
<rect width="0.825487" height="0.825487" transform="matrix(4.37114e-08 -1 -1 -4.37114e-08 8.50195 9.19556)" fill="#EF5243"/>
<rect x="8.58594" y="21.9885" width="0.825487" height="0.825487" transform="rotate(90 8.58594 21.9885)" fill="#EF5243"/>
<rect width="0.825487" height="0.825487" transform="matrix(4.37114e-08 -1 -1 -4.37114e-08 7.67773 9.19556)" fill="#EF5243"/>
<rect x="7.75977" y="21.1643" width="0.825487" height="0.825487" transform="rotate(90 7.75977 21.1643)" fill="#EF5243"/>
<rect width="0.825487" height="0.825487" transform="matrix(4.37114e-08 -1 -1 -4.37114e-08 6.85156 10.0198)" fill="#EF5243"/>
<rect x="6.93359" y="20.3401" width="0.825487" height="0.825487" transform="rotate(90 6.93359 20.3401)" fill="#EF5243"/>
<rect width="0.825487" height="0.825487" transform="matrix(4.37114e-08 -1 -1 -4.37114e-08 6.02539 10.844)" fill="#EF5243"/>
<rect x="18.4902" y="21.1643" width="0.825487" height="0.825487" transform="rotate(90 18.4902 21.1643)" fill="#EF5243"/>
<rect width="0.825487" height="0.825487" transform="matrix(4.37114e-08 -1 -1 -4.37114e-08 17.582 10.0198)" fill="#EF5243"/>
<rect x="18.4902" y="21.1643" width="0.825487" height="0.825487" transform="rotate(90 18.4902 21.1643)" fill="#EF5243"/>
<rect width="0.825487" height="0.825487" transform="matrix(4.37114e-08 -1 -1 -4.37114e-08 17.582 10.0198)" fill="#EF5243"/>
<rect x="17.6641" y="21.9885" width="0.825487" height="0.825487" transform="rotate(90 17.6641 21.9885)" fill="#EF5243"/>
<rect width="0.825487" height="0.825487" transform="matrix(4.37114e-08 -1 -1 -4.37114e-08 16.7559 9.19556)" fill="#EF5243"/>
<rect x="16.8418" y="22.8167" width="0.825487" height="0.825487" transform="rotate(90 16.8418 22.8167)" fill="#EF5243"/>
<rect width="0.825487" height="0.825487" transform="matrix(4.37114e-08 -1 -1 -4.37114e-08 15.9316 8.37134)" fill="#EF5243"/>
<rect x="16.0156" y="22.8167" width="0.825487" height="0.825487" transform="rotate(90 16.0156 22.8167)" fill="#EF5243"/>
<rect width="0.825487" height="0.825487" transform="matrix(4.37114e-08 -1 -1 -4.37114e-08 15.1074 8.37134)" fill="#EF5243"/>
<rect x="15.1895" y="22.8167" width="0.825487" height="0.825487" transform="rotate(90 15.1895 22.8167)" fill="#EF5243"/>
<rect width="0.825487" height="0.825487" transform="matrix(4.37114e-08 -1 -1 -4.37114e-08 14.2812 8.37134)" fill="#EF5243"/>
<rect x="14.3613" y="23.6409" width="0.825487" height="0.825487" transform="rotate(90 14.3613 23.6409)" fill="#EF5243"/>
<rect width="0.825487" height="0.825487" transform="matrix(4.37114e-08 -1 -1 -4.37114e-08 13.4551 7.54321)" fill="#EF5243"/>
<rect x="13.5371" y="23.6409" width="0.825487" height="0.825487" transform="rotate(90 13.5371 23.6409)" fill="#EF5243"/>
<rect width="0.825487" height="0.825487" transform="matrix(4.37114e-08 -1 -1 -4.37114e-08 12.6289 7.54321)" fill="#EF5243"/>
<rect x="12.7129" y="23.6409" width="0.825487" height="0.825487" transform="rotate(90 12.7129 23.6409)" fill="#EF5243"/>
<rect width="0.825487" height="0.825487" transform="matrix(4.37114e-08 -1 -1 -4.37114e-08 11.8066 7.54321)" fill="#EF5243"/>
<rect x="11.8867" y="23.6409" width="0.825487" height="0.825487" transform="rotate(90 11.8867 23.6409)" fill="#EF5243"/>
<rect width="0.825487" height="0.825487" transform="matrix(4.37114e-08 -1 -1 -4.37114e-08 10.9805 7.54321)" fill="#EF5243"/>
<rect x="11.0605" y="23.6409" width="0.825487" height="0.825487" transform="rotate(90 11.0605 23.6409)" fill="#EF5243"/>
<rect width="0.825487" height="0.825487" transform="matrix(4.37114e-08 -1 -1 -4.37114e-08 10.1543 7.54321)" fill="#EF5243"/>
<rect x="10.2344" y="23.6409" width="0.825487" height="0.825487" transform="rotate(90 10.2344 23.6409)" fill="#EF5243"/>
<rect width="0.825487" height="0.825487" transform="matrix(4.37114e-08 -1 -1 -4.37114e-08 9.32812 7.54321)" fill="#EF5243"/>
<rect x="9.41016" y="22.8167" width="0.825487" height="0.825487" transform="rotate(90 9.41016 22.8167)" fill="#EF5243"/>
<rect width="0.825487" height="0.825487" transform="matrix(4.37114e-08 -1 -1 -4.37114e-08 8.50195 8.37134)" fill="#EF5243"/>
<rect x="9.41016" y="23.6409" width="0.825487" height="0.825487" transform="rotate(90 9.41016 23.6409)" fill="#EF5243"/>
<rect width="0.825487" height="0.825487" transform="matrix(4.37114e-08 -1 -1 -4.37114e-08 8.50195 7.54321)" fill="#EF5243"/>
<rect x="8.58594" y="22.8167" width="0.825487" height="0.825487" transform="rotate(90 8.58594 22.8167)" fill="#EF5243"/>
<rect width="0.825487" height="0.825487" transform="matrix(4.37114e-08 -1 -1 -4.37114e-08 7.67773 8.37134)" fill="#EF5243"/>
<rect x="7.75977" y="21.9885" width="0.825487" height="0.825487" transform="rotate(90 7.75977 21.9885)" fill="#EF5243"/>
<rect width="0.825487" height="0.825487" transform="matrix(4.37114e-08 -1 -1 -4.37114e-08 6.85156 9.19556)" fill="#EF5243"/>
<rect x="15.1895" y="23.6409" width="0.825487" height="0.825487" transform="rotate(90 15.1895 23.6409)" fill="#EF5243"/>
<rect width="0.825487" height="0.825487" transform="matrix(4.37114e-08 -1 -1 -4.37114e-08 14.2812 7.54321)" fill="#EF5243"/>
<rect x="19.3164" y="20.3401" width="0.825487" height="0.825487" transform="rotate(90 19.3164 20.3401)" fill="#EF5243"/>
<rect x="16.8418" y="27.7698" width="0.825487" height="0.825487" transform="rotate(90 16.8418 27.7698)" fill="#EF5243"/>
<rect x="16.0156" y="28.594" width="0.825487" height="0.825487" transform="rotate(90 16.0156 28.594)" fill="#EF5243"/>
<rect x="15.1895" y="28.594" width="0.825487" height="0.825487" transform="rotate(90 15.1895 28.594)" fill="#EF5243"/>
<rect x="14.3613" y="28.594" width="0.825487" height="0.825487" transform="rotate(90 14.3613 28.594)" fill="#EF5243"/>
<rect x="13.5371" y="28.594" width="0.825487" height="0.825487" transform="rotate(90 13.5371 28.594)" fill="#EF5243"/>
<rect x="12.7129" y="28.594" width="0.825487" height="0.825487" transform="rotate(90 12.7129 28.594)" fill="#EF5243"/>
<rect x="11.8867" y="28.594" width="0.825487" height="0.825487" transform="rotate(90 11.8867 28.594)" fill="#EF5243"/>
<rect x="11.0605" y="28.594" width="0.825487" height="0.825487" transform="rotate(90 11.0605 28.594)" fill="#EF5243"/>
<rect x="10.2344" y="27.7698" width="0.825487" height="0.825487" transform="rotate(90 10.2344 27.7698)" fill="#EF5243"/>
<rect x="10.2344" y="28.594" width="0.825487" height="0.825487" transform="rotate(90 10.2344 28.594)" fill="#EF5243"/>
<rect x="9.41016" y="27.7698" width="0.825487" height="0.825487" transform="rotate(90 9.41016 27.7698)" fill="#EF5243"/>
<rect x="8.58594" y="27.7698" width="0.825487" height="0.825487" transform="rotate(90 8.58594 27.7698)" fill="#EF5243"/>
<rect x="7.75977" y="26.9417" width="0.825487" height="0.825487" transform="rotate(90 7.75977 26.9417)" fill="#EF5243"/>
<rect x="6.93359" y="26.1174" width="0.825487" height="0.825487" transform="rotate(90 6.93359 26.1174)" fill="#EF5243"/>
<rect x="6.10938" y="25.2932" width="0.825487" height="0.825487" transform="rotate(90 6.10938 25.2932)" fill="#EF5243"/>
<rect x="5.36523" y="23.6409" width="0.825487" height="0.825487" transform="rotate(90 5.36523 23.6409)" fill="#EF5243"/>
<rect x="16.0156" y="26.9417" width="0.825487" height="0.825487" transform="rotate(90 16.0156 26.9417)" fill="#EF5243"/>
<rect x="15.1895" y="26.9417" width="0.825487" height="0.825487" transform="rotate(90 15.1895 26.9417)" fill="#EF5243"/>
<rect x="14.3613" y="26.9417" width="0.825487" height="0.825487" transform="rotate(90 14.3613 26.9417)" fill="#EF5243"/>
<rect x="12.7129" y="26.9417" width="0.825487" height="0.825487" transform="rotate(90 12.7129 26.9417)" fill="#EF5243"/>
<rect x="13.5371" y="26.9417" width="0.825487" height="0.825487" transform="rotate(90 13.5371 26.9417)" fill="#EF5243"/>
<rect x="11.8867" y="26.9417" width="0.825487" height="0.825487" transform="rotate(90 11.8867 26.9417)" fill="#EF5243"/>
<rect x="11.0605" y="26.9417" width="0.825487" height="0.825487" transform="rotate(90 11.0605 26.9417)" fill="#EF5243"/>
<rect x="10.2344" y="26.1174" width="0.825487" height="0.825487" transform="rotate(90 10.2344 26.1174)" fill="#EF5243"/>
<rect x="9.41016" y="26.1174" width="0.825487" height="0.825487" transform="rotate(90 9.41016 26.1174)" fill="#EF5243"/>
<rect x="8.58594" y="26.1174" width="0.825487" height="0.825487" transform="rotate(90 8.58594 26.1174)" fill="#EF5243"/>
<rect x="7.75977" y="25.2932" width="0.825487" height="0.825487" transform="rotate(90 7.75977 25.2932)" fill="#EF5243"/>
<rect x="6.93359" y="24.469" width="0.825487" height="0.825487" transform="rotate(90 6.93359 24.469)" fill="#EF5243"/>
<rect x="6.10938" y="23.6409" width="0.825487" height="0.825487" transform="rotate(90 6.10938 23.6409)" fill="#EF5243"/>
<rect x="5.36523" y="21.9885" width="0.825487" height="0.825487" transform="rotate(90 5.36523 21.9885)" fill="#EF5243"/>
<rect width="0.825487" height="0.825487" transform="matrix(4.37114e-08 -1 -1 -4.37114e-08 18.4082 10.844)" fill="#EF5243"/>
<rect x="19.3164" y="19.5159" width="0.825487" height="0.825487" transform="rotate(90 19.3164 19.5159)" fill="#EF5243"/>
<rect x="16.8418" y="26.9417" width="0.825487" height="0.825487" transform="rotate(90 16.8418 26.9417)" fill="#EF5243"/>
<rect x="16.0156" y="27.7698" width="0.825487" height="0.825487" transform="rotate(90 16.0156 27.7698)" fill="#EF5243"/>
<rect x="15.1895" y="27.7698" width="0.825487" height="0.825487" transform="rotate(90 15.1895 27.7698)" fill="#EF5243"/>
<rect x="12.7129" y="27.7698" width="0.825487" height="0.825487" transform="rotate(90 12.7129 27.7698)" fill="#EF5243"/>
<rect x="14.3613" y="27.7698" width="0.825487" height="0.825487" transform="rotate(90 14.3613 27.7698)" fill="#EF5243"/>
<rect x="13.5371" y="27.7698" width="0.825487" height="0.825487" transform="rotate(90 13.5371 27.7698)" fill="#EF5243"/>
<rect x="11.8867" y="27.7698" width="0.825487" height="0.825487" transform="rotate(90 11.8867 27.7698)" fill="#EF5243"/>
<rect x="11.0605" y="27.7698" width="0.825487" height="0.825487" transform="rotate(90 11.0605 27.7698)" fill="#EF5243"/>
<rect x="10.2344" y="26.9417" width="0.825487" height="0.825487" transform="rotate(90 10.2344 26.9417)" fill="#EF5243"/>
<rect x="9.41016" y="26.9417" width="0.825487" height="0.825487" transform="rotate(90 9.41016 26.9417)" fill="#EF5243"/>
<rect x="8.58594" y="26.9417" width="0.825487" height="0.825487" transform="rotate(90 8.58594 26.9417)" fill="#EF5243"/>
<rect x="7.75977" y="26.1174" width="0.825487" height="0.825487" transform="rotate(90 7.75977 26.1174)" fill="#EF5243"/>
<rect x="6.93359" y="25.2932" width="0.825487" height="0.825487" transform="rotate(90 6.93359 25.2932)" fill="#EF5243"/>
<rect x="6.10938" y="24.469" width="0.825487" height="0.825487" transform="rotate(90 6.10938 24.469)" fill="#EF5243"/>
<rect x="5.36523" y="22.8167" width="0.825487" height="0.825487" transform="rotate(90 5.36523 22.8167)" fill="#EF5243"/>
<rect x="16.0156" y="26.1174" width="0.825487" height="0.825487" transform="rotate(90 16.0156 26.1174)" fill="#EF5243"/>
<rect x="12.7129" y="26.1174" width="0.825487" height="0.825487" transform="rotate(90 12.7129 26.1174)" fill="#EF5243"/>
<rect x="12.7129" y="25.2932" width="0.825487" height="0.825487" transform="rotate(90 12.7129 25.2932)" fill="#EF5243"/>
<rect x="15.1895" y="26.1174" width="0.825487" height="0.825487" transform="rotate(90 15.1895 26.1174)" fill="#EF5243"/>
<rect x="15.1895" y="25.2932" width="0.825487" height="0.825487" transform="rotate(90 15.1895 25.2932)" fill="#EF5243"/>
<rect x="14.3613" y="26.1174" width="0.825487" height="0.825487" transform="rotate(90 14.3613 26.1174)" fill="#EF5243"/>
<rect x="14.3613" y="25.2932" width="0.825487" height="0.825487" transform="rotate(90 14.3613 25.2932)" fill="#EF5243"/>
<rect x="13.5371" y="26.1174" width="0.825487" height="0.825487" transform="rotate(90 13.5371 26.1174)" fill="#EF5243"/>
<rect x="13.5371" y="25.2932" width="0.825487" height="0.825487" transform="rotate(90 13.5371 25.2932)" fill="#EF5243"/>
<rect x="11.8867" y="26.1174" width="0.825487" height="0.825487" transform="rotate(90 11.8867 26.1174)" fill="#EF5243"/>
<rect x="11.8867" y="25.2932" width="0.825487" height="0.825487" transform="rotate(90 11.8867 25.2932)" fill="#EF5243"/>
<rect x="11.0605" y="26.1174" width="0.825487" height="0.825487" transform="rotate(90 11.0605 26.1174)" fill="#EF5243"/>
<rect x="11.0605" y="25.2932" width="0.825487" height="0.825487" transform="rotate(90 11.0605 25.2932)" fill="#EF5243"/>
<rect x="10.2344" y="25.2932" width="0.825487" height="0.825487" transform="rotate(90 10.2344 25.2932)" fill="#EF5243"/>
<rect x="9.41016" y="25.2932" width="0.825487" height="0.825487" transform="rotate(90 9.41016 25.2932)" fill="#EF5243"/>
<rect x="8.58594" y="25.2932" width="0.825487" height="0.825487" transform="rotate(90 8.58594 25.2932)" fill="#EF5243"/>
<rect x="7.75977" y="24.469" width="0.825487" height="0.825487" transform="rotate(90 7.75977 24.469)" fill="#EF5243"/>
<rect x="6.93359" y="23.6409" width="0.825487" height="0.825487" transform="rotate(90 6.93359 23.6409)" fill="#EF5243"/>
<rect x="6.10938" y="22.8167" width="0.825487" height="0.825487" transform="rotate(90 6.10938 22.8167)" fill="#EF5243"/>
<rect x="5.36523" y="21.1643" width="0.825487" height="0.825487" transform="rotate(90 5.36523 21.1643)" fill="#EF5243"/>
<rect width="0.825487" height="0.825487" transform="matrix(4.37114e-08 -1 -1 -4.37114e-08 18.4082 11.6721)" fill="#EF5243"/>
<rect x="15.1895" y="14.5627" width="0.825487" height="0.825487" transform="rotate(90 15.1895 14.5627)" fill="#EF5243"/>
<rect x="16.0156" y="14.5627" width="0.825487" height="0.825487" transform="rotate(90 16.0156 14.5627)" fill="#EF5243"/>
<rect x="9.41016" y="12.0862" width="0.825487" height="0.825487" transform="rotate(90 9.41016 12.0862)" fill="#EF5243"/>
<rect x="9.41016" y="11.2581" width="0.825487" height="0.825487" transform="rotate(90 9.41016 11.2581)" fill="#EF5243"/>
<rect x="8.58594" y="12.0862" width="0.825487" height="0.825487" transform="rotate(90 8.58594 12.0862)" fill="#EF5243"/>
<rect x="11.0605" y="12.0823" width="0.825487" height="0.825487" transform="rotate(90 11.0605 12.0823)" fill="#EF5243"/>
<rect x="11.8867" y="12.0823" width="0.825487" height="0.825487" transform="rotate(90 11.8867 12.0823)" fill="#EF5243"/>
<rect x="7.75977" y="14.5627" width="0.825487" height="0.825487" transform="rotate(90 7.75977 14.5627)" fill="#EF5243"/>
<rect x="7.75977" y="15.387" width="0.825487" height="0.825487" transform="rotate(90 7.75977 15.387)" fill="#EF5243"/>
<rect x="7.75977" y="16.2112" width="0.825487" height="0.825487" transform="rotate(90 7.75977 16.2112)" fill="#EF5243"/>
<rect x="7.75977" y="17.0393" width="0.825487" height="0.825487" transform="rotate(90 7.75977 17.0393)" fill="#EF5243"/>
<rect x="6.93359" y="17.0393" width="0.825487" height="0.825487" transform="rotate(90 6.93359 17.0393)" fill="#EF5243"/>
<rect x="7.75977" y="17.8635" width="0.825487" height="0.825487" transform="rotate(90 7.75977 17.8635)" fill="#EF5243"/>
<rect x="4.45898" y="15.387" width="0.825487" height="0.825487" transform="rotate(90 4.45898 15.387)" fill="#EF5243"/>
</svg>
