<svg width="311" height="35" viewBox="0 0 311 35" fill="none" xmlns="http://www.w3.org/2000/svg">
<path d="M9.84574 4.88721H4.92291V7.15256e-06H9.84574V4.88721Z" fill="#FFB261"/>
<path d="M44.3056 4.88721H39.3828V7.15256e-06H44.3056V4.88721Z" fill="#FFB261"/>
<path d="M78.7657 4.88721H73.8429V7.15256e-06H78.7657V4.88721Z" fill="#FFB261"/>
<path d="M113.224 4.88721H108.301V7.15256e-06H113.224V4.88721Z" fill="#FFB261"/>
<path d="M147.685 4.88721H142.762V7.15256e-06H147.685V4.88721Z" fill="#FFB261"/>
<path d="M4.92283 4.88721H0V7.15256e-06H4.92283V4.88721Z" fill="#FFB261"/>
<path d="M39.3829 4.88721H34.46V7.15256e-06H39.3829V4.88721Z" fill="#FFB261"/>
<path d="M73.8428 4.88721H68.92V7.15256e-06H73.8428V4.88721Z" fill="#FFB261"/>
<path d="M108.303 4.88721H103.38V7.15256e-06H108.303V4.88721Z" fill="#FFB261"/>
<path d="M142.761 4.88721H137.838V7.15256e-06H142.761V4.88721Z" fill="#FFB261"/>
<path d="M9.84574 9.77686H4.92291V4.88966H9.84574V9.77686Z" fill="#FFB261"/>
<path d="M44.3056 9.77686H39.3828V4.88966H44.3056V9.77686Z" fill="#FFB261"/>
<path d="M78.7657 9.77686H73.8429V4.88966H78.7657V9.77686Z" fill="#FFB261"/>
<path d="M113.224 9.77686H108.301V4.88966H113.224V9.77686Z" fill="#FFB261"/>
<path d="M147.685 9.77686H142.762V4.88966H147.685V9.77686Z" fill="#FFB261"/>
<path d="M4.92283 9.77686H0V4.88966H4.92283V9.77686Z" fill="#FFB261"/>
<path d="M39.3829 9.77686H34.46V4.88966H39.3829V9.77686Z" fill="#FFB261"/>
<path d="M73.8428 9.77686H68.92V4.88966H73.8428V9.77686Z" fill="#FFB261"/>
<path d="M108.303 9.77686H103.38V4.88966H108.303V9.77686Z" fill="#FFB261"/>
<path d="M142.761 9.77686H137.838V4.88966H142.761V9.77686Z" fill="#FFB261"/>
<path d="M9.84574 14.6636H4.92291V9.7764H9.84574V14.6636Z" fill="#FFB261"/>
<path d="M44.3056 14.6636H39.3828V9.7764H44.3056V14.6636Z" fill="#FFB261"/>
<path d="M78.7657 14.6636H73.8429V9.7764H78.7657V14.6636Z" fill="#FFB261"/>
<path d="M113.224 14.6636H108.301V9.7764H113.224V14.6636Z" fill="#FFB261"/>
<path d="M147.685 14.6636H142.762V9.7764H147.685V14.6636Z" fill="#FFB261"/>
<path d="M4.92283 14.6636H0V9.7764H4.92283V14.6636Z" fill="#FFB261"/>
<path d="M39.3829 14.6636H34.46V9.7764H39.3829V14.6636Z" fill="#FFB261"/>
<path d="M73.8428 14.6636H68.92V9.7764H73.8428V14.6636Z" fill="#FFB261"/>
<path d="M108.303 14.6636H103.38V9.7764H108.303V14.6636Z" fill="#FFB261"/>
<path d="M142.761 14.6636H137.838V9.7764H142.761V14.6636Z" fill="#FFB261"/>
<path d="M9.84574 19.5532H4.92291V14.666H9.84574V19.5532Z" fill="#FFB261"/>
<path d="M44.3056 19.5532H39.3828V14.666H44.3056V19.5532Z" fill="#FFB261"/>
<path d="M78.7657 19.5532H73.8429V14.666H78.7657V19.5532Z" fill="#FFB261"/>
<path d="M113.224 19.5532H108.301V14.666H113.224V19.5532Z" fill="#FFB261"/>
<path d="M147.685 19.5532H142.762V14.666H147.685V19.5532Z" fill="#FFB261"/>
<path d="M4.92283 19.5532H0V14.666H4.92283V19.5532Z" fill="#FFB261"/>
<path d="M39.3829 19.5532H34.46V14.666H39.3829V19.5532Z" fill="#FFB261"/>
<path d="M73.8428 19.5532H68.92V14.666H73.8428V19.5532Z" fill="#FFB261"/>
<path d="M108.303 19.5532H103.38V14.666H108.303V19.5532Z" fill="#FFB261"/>
<path d="M142.761 19.5532H137.838V14.666H142.761V19.5532Z" fill="#FFB261"/>
<path d="M9.84574 24.4395H4.92291V19.5523H9.84574V24.4395Z" fill="#FFB261"/>
<path d="M44.3056 24.4395H39.3828V19.5523H44.3056V24.4395Z" fill="#FFB261"/>
<path d="M78.7657 24.4395H73.8429V19.5523H78.7657V24.4395Z" fill="#FFB261"/>
<path d="M113.224 24.4395H108.301V19.5523H113.224V24.4395Z" fill="#FFB261"/>
<path d="M147.685 24.4395H142.762V19.5523H147.685V24.4395Z" fill="#FFB261"/>
<path d="M14.7677 4.88721H9.84485V7.15256e-06H14.7677V4.88721Z" fill="#FFB261"/>
<path d="M49.2278 4.88721H44.3049V7.15256e-06H49.2278V4.88721Z" fill="#FFB261"/>
<path d="M83.6877 4.88721H78.7649V7.15256e-06H83.6877V4.88721Z" fill="#FFB261"/>
<path d="M118.148 4.88721H113.225V7.15256e-06H118.148V4.88721Z" fill="#FFB261"/>
<path d="M152.608 4.88721H147.685V7.15256e-06H152.608V4.88721Z" fill="#FFB261"/>
<path d="M14.7677 9.77686H9.84485V4.88966H14.7677V9.77686Z" fill="#FFB261"/>
<path d="M49.2278 9.77686H44.3049V4.88966H49.2278V9.77686Z" fill="#FFB261"/>
<path d="M83.6877 9.77686H78.7649V4.88966H83.6877V9.77686Z" fill="#FFB261"/>
<path d="M118.148 9.77686H113.225V4.88966H118.148V9.77686Z" fill="#FFB261"/>
<path d="M152.608 9.77686H147.685V4.88966H152.608V9.77686Z" fill="#FFB261"/>
<path d="M14.7677 14.6636H9.84485V9.7764H14.7677V14.6636Z" fill="#FFB261"/>
<path d="M49.2278 14.6636H44.3049V9.7764H49.2278V14.6636Z" fill="#FFB261"/>
<path d="M83.6877 14.6636H78.7649V9.7764H83.6877V14.6636Z" fill="#FFB261"/>
<path d="M118.148 14.6636H113.225V9.7764H118.148V14.6636Z" fill="#FFB261"/>
<path d="M152.608 14.6636H147.685V9.7764H152.608V14.6636Z" fill="#FFB261"/>
<path d="M14.7677 19.5532H9.84485V14.666H14.7677V19.5532Z" fill="#FFB261"/>
<path d="M49.2278 19.5532H44.3049V14.666H49.2278V19.5532Z" fill="#FFB261"/>
<path d="M83.6877 19.5532H78.7649V14.666H83.6877V19.5532Z" fill="#FFB261"/>
<path d="M118.148 19.5532H113.225V14.666H118.148V19.5532Z" fill="#FFB261"/>
<path d="M152.608 19.5532H147.685V14.666H152.608V19.5532Z" fill="#FFB261"/>
<path d="M14.7677 24.4395H9.84485V19.5523H14.7677V24.4395Z" fill="#FFB261"/>
<path d="M49.2278 24.4395H44.3049V19.5523H49.2278V24.4395Z" fill="#FFB261"/>
<path d="M83.6877 24.4395H78.7649V19.5523H83.6877V24.4395Z" fill="#FFB261"/>
<path d="M118.148 24.4395H113.225V19.5523H118.148V24.4395Z" fill="#FFB261"/>
<path d="M152.608 24.4395H147.685V19.5523H152.608V24.4395Z" fill="#FFB261"/>
<path d="M14.7677 29.3262H9.84485V24.439H14.7677V29.3262Z" fill="#FFB261"/>
<path d="M49.2278 29.3262H44.3049V24.439H49.2278V29.3262Z" fill="#FFB261"/>
<path d="M83.6877 29.3262H78.7649V24.439H83.6877V29.3262Z" fill="#FFB261"/>
<path d="M118.148 29.3262H113.225V24.439H118.148V29.3262Z" fill="#FFB261"/>
<path d="M152.608 29.3262H147.685V24.439H152.608V29.3262Z" fill="#FFB261"/>
<path d="M19.6907 4.88721H14.7678V7.15256e-06H19.6907V4.88721Z" fill="#FFB261"/>
<path d="M54.1514 4.88721H49.2286V7.15256e-06H54.1514V4.88721Z" fill="#FFB261"/>
<path d="M88.6105 4.88721H83.6877V7.15256e-06H88.6105V4.88721Z" fill="#FFB261"/>
<path d="M123.071 4.88721H118.148V7.15256e-06H123.071V4.88721Z" fill="#FFB261"/>
<path d="M157.531 4.88721H152.608V7.15256e-06H157.531V4.88721Z" fill="#FFB261"/>
<path d="M19.6907 9.77686H14.7678V4.88966H19.6907V9.77686Z" fill="#FFB261"/>
<path d="M54.1514 9.77686H49.2286V4.88966H54.1514V9.77686Z" fill="#FFB261"/>
<path d="M88.6105 9.77686H83.6877V4.88966H88.6105V9.77686Z" fill="#FFB261"/>
<path d="M123.071 9.77686H118.148V4.88966H123.071V9.77686Z" fill="#FFB261"/>
<path d="M157.531 9.77686H152.608V4.88966H157.531V9.77686Z" fill="#FFB261"/>
<path d="M19.6907 14.6636H14.7678V9.7764H19.6907V14.6636Z" fill="#FFB261"/>
<path d="M54.1514 14.6636H49.2286V9.7764H54.1514V14.6636Z" fill="#FFB261"/>
<path d="M88.6105 14.6636H83.6877V9.7764H88.6105V14.6636Z" fill="#FFB261"/>
<path d="M123.071 14.6636H118.148V9.7764H123.071V14.6636Z" fill="#FFB261"/>
<path d="M157.531 14.6636H152.608V9.7764H157.531V14.6636Z" fill="#FFB261"/>
<path d="M19.6907 19.5532H14.7678V14.666H19.6907V19.5532Z" fill="#FFB261"/>
<path d="M54.1514 19.5532H49.2286V14.666H54.1514V19.5532Z" fill="#FFB261"/>
<path d="M88.6105 19.5532H83.6877V14.666H88.6105V19.5532Z" fill="#FFB261"/>
<path d="M123.071 19.5532H118.148V14.666H123.071V19.5532Z" fill="#FFB261"/>
<path d="M157.531 19.5532H152.608V14.666H157.531V19.5532Z" fill="#FFB261"/>
<path d="M19.6907 24.4395H14.7678V19.5523H19.6907V24.4395Z" fill="#FFB261"/>
<path d="M54.1514 24.4395H49.2286V19.5523H54.1514V24.4395Z" fill="#FFB261"/>
<path d="M88.6105 24.4395H83.6877V19.5523H88.6105V24.4395Z" fill="#FFB261"/>
<path d="M123.071 24.4395H118.148V19.5523H123.071V24.4395Z" fill="#FFB261"/>
<path d="M157.531 24.4395H152.608V19.5523H157.531V24.4395Z" fill="#FFB261"/>
<path d="M19.6907 29.3262H14.7678V24.439H19.6907V29.3262Z" fill="#FFB261"/>
<path d="M54.1514 29.3262H49.2286V24.439H54.1514V29.3262Z" fill="#FFB261"/>
<path d="M88.6105 29.3262H83.6877V24.439H88.6105V29.3262Z" fill="#FFB261"/>
<path d="M123.071 29.3262H118.148V24.439H123.071V29.3262Z" fill="#FFB261"/>
<path d="M157.531 29.3262H152.608V24.439H157.531V29.3262Z" fill="#FFB261"/>
<path d="M17.2295 34.2124H12.3067V29.3252H17.2295V34.2124Z" fill="#FFB261"/>
<path d="M51.6904 34.2124H46.7676V29.3252H51.6904V34.2124Z" fill="#FFB261"/>
<path d="M86.1496 34.2124H81.2268V29.3252H86.1496V34.2124Z" fill="#FFB261"/>
<path d="M120.609 34.2124H115.686V29.3252H120.609V34.2124Z" fill="#FFB261"/>
<path d="M155.069 34.2124H150.146V29.3252H155.069V34.2124Z" fill="#FFB261"/>
<path d="M24.6142 4.88721H19.6914V7.15256e-06H24.6142V4.88721Z" fill="#FFB261"/>
<path d="M59.0734 4.88721H54.1506V7.15256e-06H59.0734V4.88721Z" fill="#FFB261"/>
<path d="M93.5343 4.88721H88.6115V7.15256e-06H93.5343V4.88721Z" fill="#FFB261"/>
<path d="M127.993 4.88721H123.07V7.15256e-06H127.993V4.88721Z" fill="#FFB261"/>
<path d="M162.453 4.88721H157.53V7.15256e-06H162.453V4.88721Z" fill="#FFB261"/>
<path d="M24.6142 9.77686H19.6914V4.88966H24.6142V9.77686Z" fill="#FFB261"/>
<path d="M59.0734 9.77686H54.1506V4.88966H59.0734V9.77686Z" fill="#FFB261"/>
<path d="M93.5343 9.77686H88.6115V4.88966H93.5343V9.77686Z" fill="#FFB261"/>
<path d="M127.993 9.77686H123.07V4.88966H127.993V9.77686Z" fill="#FFB261"/>
<path d="M162.453 9.77686H157.53V4.88966H162.453V9.77686Z" fill="#FFB261"/>
<path d="M24.6142 14.6636H19.6914V9.7764H24.6142V14.6636Z" fill="#FFB261"/>
<path d="M59.0734 14.6636H54.1506V9.7764H59.0734V14.6636Z" fill="#FFB261"/>
<path d="M93.5343 14.6636H88.6115V9.7764H93.5343V14.6636Z" fill="#FFB261"/>
<path d="M127.993 14.6636H123.07V9.7764H127.993V14.6636Z" fill="#FFB261"/>
<path d="M162.453 14.6636H157.53V9.7764H162.453V14.6636Z" fill="#FFB261"/>
<path d="M29.5364 4.88721H24.6135V7.15256e-06H29.5364V4.88721Z" fill="#FFB261"/>
<path d="M63.9971 4.88721H59.0743V7.15256e-06H63.9971V4.88721Z" fill="#FFB261"/>
<path d="M98.4563 4.88721H93.5335V7.15256e-06H98.4563V4.88721Z" fill="#FFB261"/>
<path d="M132.916 4.88721H127.993V7.15256e-06H132.916V4.88721Z" fill="#FFB261"/>
<path d="M167.376 4.88721H162.453V7.15256e-06H167.376V4.88721Z" fill="#FFB261"/>
<path d="M29.5364 9.77686H24.6135V4.88966H29.5364V9.77686Z" fill="#FFB261"/>
<path d="M63.9971 9.77686H59.0743V4.88966H63.9971V9.77686Z" fill="#FFB261"/>
<path d="M98.4563 9.77686H93.5335V4.88966H98.4563V9.77686Z" fill="#FFB261"/>
<path d="M132.916 9.77686H127.993V4.88966H132.916V9.77686Z" fill="#FFB261"/>
<path d="M167.376 9.77686H162.453V4.88966H167.376V9.77686Z" fill="#FFB261"/>
<path d="M29.5364 14.6636H24.6135V9.7764H29.5364V14.6636Z" fill="#FFB261"/>
<path d="M63.9971 14.6636H59.0743V9.7764H63.9971V14.6636Z" fill="#FFB261"/>
<path d="M98.4563 14.6636H93.5335V9.7764H98.4563V14.6636Z" fill="#FFB261"/>
<path d="M132.916 14.6636H127.993V9.7764H132.916V14.6636Z" fill="#FFB261"/>
<path d="M167.376 14.6636H162.453V9.7764H167.376V14.6636Z" fill="#FFB261"/>
<path d="M24.6142 19.5532H19.6914V14.666H24.6142V19.5532Z" fill="#FFB261"/>
<path d="M59.0734 19.5532H54.1506V14.666H59.0734V19.5532Z" fill="#FFB261"/>
<path d="M93.5343 19.5532H88.6115V14.666H93.5343V19.5532Z" fill="#FFB261"/>
<path d="M127.993 19.5532H123.07V14.666H127.993V19.5532Z" fill="#FFB261"/>
<path d="M162.453 19.5532H157.53V14.666H162.453V19.5532Z" fill="#FFB261"/>
<path d="M29.5364 19.5532H24.6135V14.666H29.5364V19.5532Z" fill="#FFB261"/>
<path d="M63.9971 19.5532H59.0743V14.666H63.9971V19.5532Z" fill="#FFB261"/>
<path d="M98.4563 19.5532H93.5335V14.666H98.4563V19.5532Z" fill="#FFB261"/>
<path d="M132.916 19.5532H127.993V14.666H132.916V19.5532Z" fill="#FFB261"/>
<path d="M167.376 19.5532H162.453V14.666H167.376V19.5532Z" fill="#FFB261"/>
<path d="M24.6142 24.4395H19.6914V19.5523H24.6142V24.4395Z" fill="#FFB261"/>
<path d="M59.0734 24.4395H54.1506V19.5523H59.0734V24.4395Z" fill="#FFB261"/>
<path d="M93.5343 24.4395H88.6115V19.5523H93.5343V24.4395Z" fill="#FFB261"/>
<path d="M127.993 24.4395H123.07V19.5523H127.993V24.4395Z" fill="#FFB261"/>
<path d="M162.453 24.4395H157.53V19.5523H162.453V24.4395Z" fill="#FFB261"/>
<path d="M183.13 4.88721H178.207V7.15256e-06H183.13V4.88721Z" fill="#EEECD9"/>
<path d="M217.59 4.88721H212.667V7.15256e-06H217.59V4.88721Z" fill="#EEECD9"/>
<path d="M252.05 4.88721H247.127V7.15256e-06H252.05V4.88721Z" fill="#EEECD9"/>
<path d="M286.508 4.88721H281.585V7.15256e-06H286.508V4.88721Z" fill="#EEECD9"/>
<path d="M178.206 4.88721H173.283V7.15256e-06H178.206V4.88721Z" fill="#EEECD9"/>
<path d="M212.666 4.88721H207.743V7.15256e-06H212.666V4.88721Z" fill="#EEECD9"/>
<path d="M247.127 4.88721H242.204V7.15256e-06H247.127V4.88721Z" fill="#EEECD9"/>
<path d="M281.587 4.88721H276.664V7.15256e-06H281.587V4.88721Z" fill="#EEECD9"/>
<path d="M183.13 9.77686H178.207V4.88966H183.13V9.77686Z" fill="#EEECD9"/>
<path d="M217.59 9.77686H212.667V4.88966H217.59V9.77686Z" fill="#EEECD9"/>
<path d="M252.05 9.77686H247.127V4.88966H252.05V9.77686Z" fill="#EEECD9"/>
<path d="M286.508 9.77686H281.585V4.88966H286.508V9.77686Z" fill="#EEECD9"/>
<path d="M178.206 9.77686H173.283V4.88966H178.206V9.77686Z" fill="#EEECD9"/>
<path d="M212.666 9.77686H207.743V4.88966H212.666V9.77686Z" fill="#EEECD9"/>
<path d="M247.127 9.77686H242.204V4.88966H247.127V9.77686Z" fill="#EEECD9"/>
<path d="M281.587 9.77686H276.664V4.88966H281.587V9.77686Z" fill="#EEECD9"/>
<path d="M183.13 14.6636H178.207V9.7764H183.13V14.6636Z" fill="#EEECD9"/>
<path d="M217.59 14.6636H212.667V9.7764H217.59V14.6636Z" fill="#EEECD9"/>
<path d="M252.05 14.6636H247.127V9.7764H252.05V14.6636Z" fill="#EEECD9"/>
<path d="M286.508 14.6636H281.585V9.7764H286.508V14.6636Z" fill="#EEECD9"/>
<path d="M178.206 14.6636H173.283V9.7764H178.206V14.6636Z" fill="#EEECD9"/>
<path d="M212.666 14.6636H207.743V9.7764H212.666V14.6636Z" fill="#EEECD9"/>
<path d="M247.127 14.6636H242.204V9.7764H247.127V14.6636Z" fill="#EEECD9"/>
<path d="M281.587 14.6636H276.664V9.7764H281.587V14.6636Z" fill="#EEECD9"/>
<path d="M183.13 19.5532H178.207V14.666H183.13V19.5532Z" fill="#EEECD9"/>
<path d="M217.59 19.5532H212.667V14.666H217.59V19.5532Z" fill="#EEECD9"/>
<path d="M252.05 19.5532H247.127V14.666H252.05V19.5532Z" fill="#EEECD9"/>
<path d="M286.508 19.5532H281.585V14.666H286.508V19.5532Z" fill="#EEECD9"/>
<path d="M178.206 19.5532H173.283V14.666H178.206V19.5532Z" fill="#EEECD9"/>
<path d="M212.666 19.5532H207.743V14.666H212.666V19.5532Z" fill="#EEECD9"/>
<path d="M247.127 19.5532H242.204V14.666H247.127V19.5532Z" fill="#EEECD9"/>
<path d="M281.587 19.5532H276.664V14.666H281.587V19.5532Z" fill="#EEECD9"/>
<path d="M183.13 24.4395H178.207V19.5523H183.13V24.4395Z" fill="#EEECD9"/>
<path d="M217.59 24.4395H212.667V19.5523H217.59V24.4395Z" fill="#EEECD9"/>
<path d="M252.05 24.4395H247.127V19.5523H252.05V24.4395Z" fill="#EEECD9"/>
<path d="M286.508 24.4395H281.585V19.5523H286.508V24.4395Z" fill="#EEECD9"/>
<path d="M188.052 4.88721H183.129V7.15256e-06H188.052V4.88721Z" fill="#EEECD9"/>
<path d="M222.512 4.88721H217.589V7.15256e-06H222.512V4.88721Z" fill="#EEECD9"/>
<path d="M256.972 4.88721H252.049V7.15256e-06H256.972V4.88721Z" fill="#EEECD9"/>
<path d="M291.432 4.88721H286.509V7.15256e-06H291.432V4.88721Z" fill="#EEECD9"/>
<path d="M188.052 9.77686H183.129V4.88966H188.052V9.77686Z" fill="#EEECD9"/>
<path d="M222.512 9.77686H217.589V4.88966H222.512V9.77686Z" fill="#EEECD9"/>
<path d="M256.972 9.77686H252.049V4.88966H256.972V9.77686Z" fill="#EEECD9"/>
<path d="M291.432 9.77686H286.509V4.88966H291.432V9.77686Z" fill="#EEECD9"/>
<path d="M188.052 14.6636H183.129V9.7764H188.052V14.6636Z" fill="#EEECD9"/>
<path d="M222.512 14.6636H217.589V9.7764H222.512V14.6636Z" fill="#EEECD9"/>
<path d="M256.972 14.6636H252.049V9.7764H256.972V14.6636Z" fill="#EEECD9"/>
<path d="M291.432 14.6636H286.509V9.7764H291.432V14.6636Z" fill="#EEECD9"/>
<path d="M188.052 19.5532H183.129V14.666H188.052V19.5532Z" fill="#EEECD9"/>
<path d="M222.512 19.5532H217.589V14.666H222.512V19.5532Z" fill="#EEECD9"/>
<path d="M256.972 19.5532H252.049V14.666H256.972V19.5532Z" fill="#EEECD9"/>
<path d="M291.432 19.5532H286.509V14.666H291.432V19.5532Z" fill="#EEECD9"/>
<path d="M188.052 24.4395H183.129V19.5523H188.052V24.4395Z" fill="#EEECD9"/>
<path d="M222.512 24.4395H217.589V19.5523H222.512V24.4395Z" fill="#EEECD9"/>
<path d="M256.972 24.4395H252.049V19.5523H256.972V24.4395Z" fill="#EEECD9"/>
<path d="M291.432 24.4395H286.509V19.5523H291.432V24.4395Z" fill="#EEECD9"/>
<path d="M188.052 29.3262H183.129V24.439H188.052V29.3262Z" fill="#EEECD9"/>
<path d="M222.512 29.3262H217.589V24.439H222.512V29.3262Z" fill="#EEECD9"/>
<path d="M256.972 29.3262H252.049V24.439H256.972V29.3262Z" fill="#EEECD9"/>
<path d="M291.432 29.3262H286.509V24.439H291.432V29.3262Z" fill="#EEECD9"/>
<path d="M192.975 4.88721H188.052V7.15256e-06H192.975V4.88721Z" fill="#EEECD9"/>
<path d="M227.435 4.88721H222.512V7.15256e-06H227.435V4.88721Z" fill="#EEECD9"/>
<path d="M261.894 4.88721H256.971V7.15256e-06H261.894V4.88721Z" fill="#EEECD9"/>
<path d="M296.354 4.88721H291.431V7.15256e-06H296.354V4.88721Z" fill="#EEECD9"/>
<path d="M192.975 9.77686H188.052V4.88966H192.975V9.77686Z" fill="#EEECD9"/>
<path d="M227.435 9.77686H222.512V4.88966H227.435V9.77686Z" fill="#EEECD9"/>
<path d="M261.894 9.77686H256.971V4.88966H261.894V9.77686Z" fill="#EEECD9"/>
<path d="M296.354 9.77686H291.431V4.88966H296.354V9.77686Z" fill="#EEECD9"/>
<path d="M192.975 14.6636H188.052V9.7764H192.975V14.6636Z" fill="#EEECD9"/>
<path d="M227.435 14.6636H222.512V9.7764H227.435V14.6636Z" fill="#EEECD9"/>
<path d="M261.894 14.6636H256.971V9.7764H261.894V14.6636Z" fill="#EEECD9"/>
<path d="M296.354 14.6636H291.431V9.7764H296.354V14.6636Z" fill="#EEECD9"/>
<path d="M192.975 19.5532H188.052V14.666H192.975V19.5532Z" fill="#EEECD9"/>
<path d="M227.435 19.5532H222.512V14.666H227.435V19.5532Z" fill="#EEECD9"/>
<path d="M261.894 19.5532H256.971V14.666H261.894V19.5532Z" fill="#EEECD9"/>
<path d="M296.354 19.5532H291.431V14.666H296.354V19.5532Z" fill="#EEECD9"/>
<path d="M192.975 24.4395H188.052V19.5523H192.975V24.4395Z" fill="#EEECD9"/>
<path d="M227.435 24.4395H222.512V19.5523H227.435V24.4395Z" fill="#EEECD9"/>
<path d="M261.894 24.4395H256.971V19.5523H261.894V24.4395Z" fill="#EEECD9"/>
<path d="M296.354 24.4395H291.431V19.5523H296.354V24.4395Z" fill="#EEECD9"/>
<path d="M192.975 29.3262H188.052V24.439H192.975V29.3262Z" fill="#EEECD9"/>
<path d="M227.435 29.3262H222.512V24.439H227.435V29.3262Z" fill="#EEECD9"/>
<path d="M261.894 29.3262H256.971V24.439H261.894V29.3262Z" fill="#EEECD9"/>
<path d="M296.354 29.3262H291.431V24.439H296.354V29.3262Z" fill="#EEECD9"/>
<path d="M190.514 34.2124H185.591V29.3252H190.514V34.2124Z" fill="#EEECD9"/>
<path d="M224.973 34.2124H220.05V29.3252H224.973V34.2124Z" fill="#EEECD9"/>
<path d="M259.433 34.2124H254.51V29.3252H259.433V34.2124Z" fill="#EEECD9"/>
<path d="M293.894 34.2124H288.971V29.3252H293.894V34.2124Z" fill="#EEECD9"/>
<path d="M197.898 4.88721H192.975V7.15256e-06H197.898V4.88721Z" fill="#EEECD9"/>
<path d="M232.358 4.88721H227.435V7.15256e-06H232.358V4.88721Z" fill="#EEECD9"/>
<path d="M266.818 4.88721H261.895V7.15256e-06H266.818V4.88721Z" fill="#EEECD9"/>
<path d="M301.277 4.88721H296.354V7.15256e-06H301.277V4.88721Z" fill="#EEECD9"/>
<path d="M197.898 9.77686H192.975V4.88966H197.898V9.77686Z" fill="#EEECD9"/>
<path d="M232.358 9.77686H227.435V4.88966H232.358V9.77686Z" fill="#EEECD9"/>
<path d="M266.818 9.77686H261.895V4.88966H266.818V9.77686Z" fill="#EEECD9"/>
<path d="M301.277 9.77686H296.354V4.88966H301.277V9.77686Z" fill="#EEECD9"/>
<path d="M197.898 14.6636H192.975V9.7764H197.898V14.6636Z" fill="#EEECD9"/>
<path d="M232.358 14.6636H227.435V9.7764H232.358V14.6636Z" fill="#EEECD9"/>
<path d="M266.818 14.6636H261.895V9.7764H266.818V14.6636Z" fill="#EEECD9"/>
<path d="M301.277 14.6636H296.354V9.7764H301.277V14.6636Z" fill="#EEECD9"/>
<path d="M202.82 4.88721H197.897V7.15256e-06H202.82V4.88721Z" fill="#EEECD9"/>
<path d="M237.282 4.88721H232.359V7.15256e-06H237.282V4.88721Z" fill="#EEECD9"/>
<path d="M271.74 4.88721H266.817V7.15256e-06H271.74V4.88721Z" fill="#EEECD9"/>
<path d="M306.2 4.88721H301.277V7.15256e-06H306.2V4.88721Z" fill="#EEECD9"/>
<path d="M202.82 9.77686H197.897V4.88966H202.82V9.77686Z" fill="#EEECD9"/>
<path d="M237.282 9.77686H232.359V4.88966H237.282V9.77686Z" fill="#EEECD9"/>
<path d="M271.74 9.77686H266.817V4.88966H271.74V9.77686Z" fill="#EEECD9"/>
<path d="M306.2 9.77686H301.277V4.88966H306.2V9.77686Z" fill="#EEECD9"/>
<path d="M202.82 14.6636H197.897V9.7764H202.82V14.6636Z" fill="#EEECD9"/>
<path d="M237.282 14.6636H232.359V9.7764H237.282V14.6636Z" fill="#EEECD9"/>
<path d="M271.74 14.6636H266.817V9.7764H271.74V14.6636Z" fill="#EEECD9"/>
<path d="M306.2 14.6636H301.277V9.7764H306.2V14.6636Z" fill="#EEECD9"/>
<path d="M197.898 19.5532H192.975V14.666H197.898V19.5532Z" fill="#EEECD9"/>
<path d="M232.358 19.5532H227.435V14.666H232.358V19.5532Z" fill="#EEECD9"/>
<path d="M266.818 19.5532H261.895V14.666H266.818V19.5532Z" fill="#EEECD9"/>
<path d="M301.277 19.5532H296.354V14.666H301.277V19.5532Z" fill="#EEECD9"/>
<path d="M202.82 19.5532H197.897V14.666H202.82V19.5532Z" fill="#EEECD9"/>
<path d="M237.282 19.5532H232.359V14.666H237.282V19.5532Z" fill="#EEECD9"/>
<path d="M271.74 19.5532H266.817V14.666H271.74V19.5532Z" fill="#EEECD9"/>
<path d="M306.2 19.5532H301.277V14.666H306.2V19.5532Z" fill="#EEECD9"/>
<path d="M197.898 24.4395H192.975V19.5523H197.898V24.4395Z" fill="#EEECD9"/>
<path d="M232.358 24.4395H227.435V19.5523H232.358V24.4395Z" fill="#EEECD9"/>
<path d="M266.818 24.4395H261.895V19.5523H266.818V24.4395Z" fill="#EEECD9"/>
<path d="M301.277 24.4395H296.354V19.5523H301.277V24.4395Z" fill="#EEECD9"/>
<path d="M183.13 4.88721H178.207V7.15256e-06H183.13V4.88721Z" fill="#FFB261"/>
<path d="M217.59 4.88721H212.667V7.15256e-06H217.59V4.88721Z" fill="#FFB261"/>
<path d="M252.05 4.88721H247.127V7.15256e-06H252.05V4.88721Z" fill="#FFB261"/>
<path d="M286.508 4.88721H281.585V7.15256e-06H286.508V4.88721Z" fill="#FFB261"/>
<path d="M178.206 4.88721H173.283V7.15256e-06H178.206V4.88721Z" fill="#FFB261"/>
<path d="M212.666 4.88721H207.743V7.15256e-06H212.666V4.88721Z" fill="#FFB261"/>
<path d="M247.127 4.88721H242.204V7.15256e-06H247.127V4.88721Z" fill="#FFB261"/>
<path d="M281.587 4.88721H276.664V7.15256e-06H281.587V4.88721Z" fill="#FFB261"/>
<path d="M183.13 9.77686H178.207V4.88966H183.13V9.77686Z" fill="#FFB261"/>
<path d="M217.59 9.77686H212.667V4.88966H217.59V9.77686Z" fill="#FFB261"/>
<path d="M252.05 9.77686H247.127V4.88966H252.05V9.77686Z" fill="#FFB261"/>
<path d="M286.508 9.77686H281.585V4.88966H286.508V9.77686Z" fill="#FFB261"/>
<path d="M178.206 9.77686H173.283V4.88966H178.206V9.77686Z" fill="#FFB261"/>
<path d="M212.666 9.77686H207.743V4.88966H212.666V9.77686Z" fill="#FFB261"/>
<path d="M247.127 9.77686H242.204V4.88966H247.127V9.77686Z" fill="#FFB261"/>
<path d="M281.587 9.77686H276.664V4.88966H281.587V9.77686Z" fill="#FFB261"/>
<path d="M183.13 14.6636H178.207V9.7764H183.13V14.6636Z" fill="#FFB261"/>
<path d="M217.59 14.6636H212.667V9.7764H217.59V14.6636Z" fill="#FFB261"/>
<path d="M252.05 14.6636H247.127V9.7764H252.05V14.6636Z" fill="#FFB261"/>
<path d="M286.508 14.6636H281.585V9.7764H286.508V14.6636Z" fill="#FFB261"/>
<path d="M178.206 14.6636H173.283V9.7764H178.206V14.6636Z" fill="#FFB261"/>
<path d="M212.666 14.6636H207.743V9.7764H212.666V14.6636Z" fill="#FFB261"/>
<path d="M247.127 14.6636H242.204V9.7764H247.127V14.6636Z" fill="#FFB261"/>
<path d="M281.587 14.6636H276.664V9.7764H281.587V14.6636Z" fill="#FFB261"/>
<path d="M183.13 19.5532H178.207V14.666H183.13V19.5532Z" fill="#FFB261"/>
<path d="M217.59 19.5532H212.667V14.666H217.59V19.5532Z" fill="#FFB261"/>
<path d="M252.05 19.5532H247.127V14.666H252.05V19.5532Z" fill="#FFB261"/>
<path d="M286.508 19.5532H281.585V14.666H286.508V19.5532Z" fill="#FFB261"/>
<path d="M178.206 19.5532H173.283V14.666H178.206V19.5532Z" fill="#FFB261"/>
<path d="M212.666 19.5532H207.743V14.666H212.666V19.5532Z" fill="#FFB261"/>
<path d="M247.127 19.5532H242.204V14.666H247.127V19.5532Z" fill="#FFB261"/>
<path d="M281.587 19.5532H276.664V14.666H281.587V19.5532Z" fill="#FFB261"/>
<path d="M183.13 24.4395H178.207V19.5523H183.13V24.4395Z" fill="#FFB261"/>
<path d="M217.59 24.4395H212.667V19.5523H217.59V24.4395Z" fill="#FFB261"/>
<path d="M252.05 24.4395H247.127V19.5523H252.05V24.4395Z" fill="#FFB261"/>
<path d="M286.508 24.4395H281.585V19.5523H286.508V24.4395Z" fill="#FFB261"/>
<path d="M188.052 4.88721H183.129V7.15256e-06H188.052V4.88721Z" fill="#FFB261"/>
<path d="M222.512 4.88721H217.589V7.15256e-06H222.512V4.88721Z" fill="#FFB261"/>
<path d="M256.972 4.88721H252.049V7.15256e-06H256.972V4.88721Z" fill="#FFB261"/>
<path d="M291.432 4.88721H286.509V7.15256e-06H291.432V4.88721Z" fill="#FFB261"/>
<path d="M188.052 9.77686H183.129V4.88966H188.052V9.77686Z" fill="#FFB261"/>
<path d="M222.512 9.77686H217.589V4.88966H222.512V9.77686Z" fill="#FFB261"/>
<path d="M256.972 9.77686H252.049V4.88966H256.972V9.77686Z" fill="#FFB261"/>
<path d="M291.432 9.77686H286.509V4.88966H291.432V9.77686Z" fill="#FFB261"/>
<path d="M188.052 14.6636H183.129V9.7764H188.052V14.6636Z" fill="#FFB261"/>
<path d="M222.512 14.6636H217.589V9.7764H222.512V14.6636Z" fill="#FFB261"/>
<path d="M256.972 14.6636H252.049V9.7764H256.972V14.6636Z" fill="#FFB261"/>
<path d="M291.432 14.6636H286.509V9.7764H291.432V14.6636Z" fill="#FFB261"/>
<path d="M188.052 19.5532H183.129V14.666H188.052V19.5532Z" fill="#FFB261"/>
<path d="M222.512 19.5532H217.589V14.666H222.512V19.5532Z" fill="#FFB261"/>
<path d="M256.972 19.5532H252.049V14.666H256.972V19.5532Z" fill="#FFB261"/>
<path d="M291.432 19.5532H286.509V14.666H291.432V19.5532Z" fill="#FFB261"/>
<path d="M188.052 24.4395H183.129V19.5523H188.052V24.4395Z" fill="#FFB261"/>
<path d="M222.512 24.4395H217.589V19.5523H222.512V24.4395Z" fill="#FFB261"/>
<path d="M256.972 24.4395H252.049V19.5523H256.972V24.4395Z" fill="#FFB261"/>
<path d="M291.432 24.4395H286.509V19.5523H291.432V24.4395Z" fill="#FFB261"/>
<path d="M188.052 29.3262H183.129V24.439H188.052V29.3262Z" fill="#FFB261"/>
<path d="M222.512 29.3262H217.589V24.439H222.512V29.3262Z" fill="#FFB261"/>
<path d="M256.972 29.3262H252.049V24.439H256.972V29.3262Z" fill="#FFB261"/>
<path d="M291.432 29.3262H286.509V24.439H291.432V29.3262Z" fill="#FFB261"/>
<path d="M192.975 4.88721H188.052V7.15256e-06H192.975V4.88721Z" fill="#FFB261"/>
<path d="M227.435 4.88721H222.512V7.15256e-06H227.435V4.88721Z" fill="#FFB261"/>
<path d="M261.894 4.88721H256.971V7.15256e-06H261.894V4.88721Z" fill="#FFB261"/>
<path d="M296.354 4.88721H291.431V7.15256e-06H296.354V4.88721Z" fill="#FFB261"/>
<path d="M192.975 9.77686H188.052V4.88966H192.975V9.77686Z" fill="#FFB261"/>
<path d="M227.435 9.77686H222.512V4.88966H227.435V9.77686Z" fill="#FFB261"/>
<path d="M261.894 9.77686H256.971V4.88966H261.894V9.77686Z" fill="#FFB261"/>
<path d="M296.354 9.77686H291.431V4.88966H296.354V9.77686Z" fill="#FFB261"/>
<path d="M192.975 14.6636H188.052V9.7764H192.975V14.6636Z" fill="#FFB261"/>
<path d="M227.435 14.6636H222.512V9.7764H227.435V14.6636Z" fill="#FFB261"/>
<path d="M261.894 14.6636H256.971V9.7764H261.894V14.6636Z" fill="#FFB261"/>
<path d="M296.354 14.6636H291.431V9.7764H296.354V14.6636Z" fill="#FFB261"/>
<path d="M192.975 19.5532H188.052V14.666H192.975V19.5532Z" fill="#FFB261"/>
<path d="M227.435 19.5532H222.512V14.666H227.435V19.5532Z" fill="#FFB261"/>
<path d="M261.894 19.5532H256.971V14.666H261.894V19.5532Z" fill="#FFB261"/>
<path d="M296.354 19.5532H291.431V14.666H296.354V19.5532Z" fill="#FFB261"/>
<path d="M192.975 24.4395H188.052V19.5523H192.975V24.4395Z" fill="#FFB261"/>
<path d="M227.435 24.4395H222.512V19.5523H227.435V24.4395Z" fill="#FFB261"/>
<path d="M261.894 24.4395H256.971V19.5523H261.894V24.4395Z" fill="#FFB261"/>
<path d="M296.354 24.4395H291.431V19.5523H296.354V24.4395Z" fill="#FFB261"/>
<path d="M192.975 29.3262H188.052V24.439H192.975V29.3262Z" fill="#FFB261"/>
<path d="M227.435 29.3262H222.512V24.439H227.435V29.3262Z" fill="#FFB261"/>
<path d="M261.894 29.3262H256.971V24.439H261.894V29.3262Z" fill="#FFB261"/>
<path d="M296.354 29.3262H291.431V24.439H296.354V29.3262Z" fill="#FFB261"/>
<path d="M190.514 34.2124H185.591V29.3252H190.514V34.2124Z" fill="#FFB261"/>
<path d="M224.973 34.2124H220.05V29.3252H224.973V34.2124Z" fill="#FFB261"/>
<path d="M259.433 34.2124H254.51V29.3252H259.433V34.2124Z" fill="#FFB261"/>
<path d="M293.894 34.2124H288.971V29.3252H293.894V34.2124Z" fill="#FFB261"/>
<path d="M197.898 4.88721H192.975V7.15256e-06H197.898V4.88721Z" fill="#FFB261"/>
<path d="M232.358 4.88721H227.435V7.15256e-06H232.358V4.88721Z" fill="#FFB261"/>
<path d="M266.818 4.88721H261.895V7.15256e-06H266.818V4.88721Z" fill="#FFB261"/>
<path d="M301.277 4.88721H296.354V7.15256e-06H301.277V4.88721Z" fill="#FFB261"/>
<path d="M197.898 9.77686H192.975V4.88966H197.898V9.77686Z" fill="#FFB261"/>
<path d="M232.358 9.77686H227.435V4.88966H232.358V9.77686Z" fill="#FFB261"/>
<path d="M266.818 9.77686H261.895V4.88966H266.818V9.77686Z" fill="#FFB261"/>
<path d="M301.277 9.77686H296.354V4.88966H301.277V9.77686Z" fill="#FFB261"/>
<path d="M197.898 14.6636H192.975V9.7764H197.898V14.6636Z" fill="#FFB261"/>
<path d="M232.358 14.6636H227.435V9.7764H232.358V14.6636Z" fill="#FFB261"/>
<path d="M266.818 14.6636H261.895V9.7764H266.818V14.6636Z" fill="#FFB261"/>
<path d="M301.277 14.6636H296.354V9.7764H301.277V14.6636Z" fill="#FFB261"/>
<path d="M202.82 4.88721H197.897V7.15256e-06H202.82V4.88721Z" fill="#FFB261"/>
<path d="M237.282 4.88721H232.359V7.15256e-06H237.282V4.88721Z" fill="#FFB261"/>
<path d="M271.74 4.88721H266.817V7.15256e-06H271.74V4.88721Z" fill="#FFB261"/>
<path d="M306.2 4.88721H301.277V7.15256e-06H306.2V4.88721Z" fill="#FFB261"/>
<path d="M202.82 9.77686H197.897V4.88966H202.82V9.77686Z" fill="#FFB261"/>
<path d="M237.282 9.77686H232.359V4.88966H237.282V9.77686Z" fill="#FFB261"/>
<path d="M271.74 9.77686H266.817V4.88966H271.74V9.77686Z" fill="#FFB261"/>
<path d="M306.2 9.77686H301.277V4.88966H306.2V9.77686Z" fill="#FFB261"/>
<path d="M202.82 14.6636H197.897V9.7764H202.82V14.6636Z" fill="#FFB261"/>
<path d="M237.282 14.6636H232.359V9.7764H237.282V14.6636Z" fill="#FFB261"/>
<path d="M271.74 14.6636H266.817V9.7764H271.74V14.6636Z" fill="#FFB261"/>
<path d="M306.2 14.6636H301.277V9.7764H306.2V14.6636Z" fill="#FFB261"/>
<path d="M197.898 19.5532H192.975V14.666H197.898V19.5532Z" fill="#FFB261"/>
<path d="M232.358 19.5532H227.435V14.666H232.358V19.5532Z" fill="#FFB261"/>
<path d="M266.818 19.5532H261.895V14.666H266.818V19.5532Z" fill="#FFB261"/>
<path d="M301.277 19.5532H296.354V14.666H301.277V19.5532Z" fill="#FFB261"/>
<path d="M202.82 19.5532H197.897V14.666H202.82V19.5532Z" fill="#FFB261"/>
<path d="M237.282 19.5532H232.359V14.666H237.282V19.5532Z" fill="#FFB261"/>
<path d="M271.74 19.5532H266.817V14.666H271.74V19.5532Z" fill="#FFB261"/>
<path d="M306.2 19.5532H301.277V14.666H306.2V19.5532Z" fill="#FFB261"/>
<path d="M197.898 24.4395H192.975V19.5523H197.898V24.4395Z" fill="#FFB261"/>
<path d="M232.358 24.4395H227.435V19.5523H232.358V24.4395Z" fill="#FFB261"/>
<path d="M266.818 24.4395H261.895V19.5523H266.818V24.4395Z" fill="#FFB261"/>
<path d="M301.277 24.4395H296.354V19.5523H301.277V24.4395Z" fill="#FFB261"/>
</svg>
