<svg width="311" height="35" viewBox="0 0 311 35" fill="none" xmlns="http://www.w3.org/2000/svg">
<path d="M9.97984 4.88721H5.05701V1.09673e-05H9.97984V4.88721Z" fill="#EEECD9" fill-opacity="0.8"/>
<path d="M44.4405 4.88721H39.5177V1.09673e-05H44.4405V4.88721Z" fill="#EEECD9" fill-opacity="0.8"/>
<path d="M78.8988 4.88721H73.976V1.09673e-05H78.8988V4.88721Z" fill="#EEECD9" fill-opacity="0.8"/>
<path d="M113.359 4.88721H108.436V1.09673e-05H113.359V4.88721Z" fill="#EEECD9" fill-opacity="0.8"/>
<path d="M147.819 4.88721H142.896V1.09673e-05H147.819V4.88721Z" fill="#EEECD9" fill-opacity="0.8"/>
<path d="M5.05686 4.88721H0.134033V1.09673e-05H5.05686V4.88721Z" fill="#EEECD9" fill-opacity="0.8"/>
<path d="M39.5168 4.88721H34.594V1.09673e-05H39.5168V4.88721Z" fill="#EEECD9" fill-opacity="0.8"/>
<path d="M73.9777 4.88721H69.0549V1.09673e-05H73.9777V4.88721Z" fill="#EEECD9" fill-opacity="0.8"/>
<path d="M108.437 4.88721H103.514V1.09673e-05H108.437V4.88721Z" fill="#EEECD9" fill-opacity="0.8"/>
<path d="M142.897 4.88721H137.974V1.09673e-05H142.897V4.88721Z" fill="#EEECD9" fill-opacity="0.8"/>
<path d="M9.97984 9.77686H5.05701V4.88966H9.97984V9.77686Z" fill="#EEECD9" fill-opacity="0.8"/>
<path d="M44.4405 9.77686H39.5177V4.88966H44.4405V9.77686Z" fill="#EEECD9" fill-opacity="0.8"/>
<path d="M78.8988 9.77686H73.976V4.88966H78.8988V9.77686Z" fill="#EEECD9" fill-opacity="0.8"/>
<path d="M113.359 9.77686H108.436V4.88966H113.359V9.77686Z" fill="#EEECD9" fill-opacity="0.8"/>
<path d="M147.819 9.77686H142.896V4.88966H147.819V9.77686Z" fill="#EEECD9" fill-opacity="0.8"/>
<path d="M5.05686 9.77686H0.134033V4.88966H5.05686V9.77686Z" fill="#EEECD9" fill-opacity="0.8"/>
<path d="M39.5168 9.77686H34.594V4.88966H39.5168V9.77686Z" fill="#EEECD9" fill-opacity="0.8"/>
<path d="M73.9777 9.77686H69.0549V4.88966H73.9777V9.77686Z" fill="#EEECD9" fill-opacity="0.8"/>
<path d="M108.437 9.77686H103.514V4.88966H108.437V9.77686Z" fill="#EEECD9" fill-opacity="0.8"/>
<path d="M142.897 9.77686H137.974V4.88966H142.897V9.77686Z" fill="#EEECD9" fill-opacity="0.8"/>
<path d="M9.97984 14.6636H5.05701V9.7764H9.97984V14.6636Z" fill="#EEECD9" fill-opacity="0.8"/>
<path d="M44.4405 14.6636H39.5177V9.7764H44.4405V14.6636Z" fill="#EEECD9" fill-opacity="0.8"/>
<path d="M78.8988 14.6636H73.976V9.7764H78.8988V14.6636Z" fill="#EEECD9" fill-opacity="0.8"/>
<path d="M113.359 14.6636H108.436V9.7764H113.359V14.6636Z" fill="#EEECD9" fill-opacity="0.8"/>
<path d="M147.819 14.6636H142.896V9.7764H147.819V14.6636Z" fill="#EEECD9" fill-opacity="0.8"/>
<path d="M5.05686 14.6636H0.134033V9.7764H5.05686V14.6636Z" fill="#EEECD9" fill-opacity="0.8"/>
<path d="M39.5168 14.6636H34.594V9.7764H39.5168V14.6636Z" fill="#EEECD9" fill-opacity="0.8"/>
<path d="M73.9777 14.6636H69.0549V9.7764H73.9777V14.6636Z" fill="#EEECD9" fill-opacity="0.8"/>
<path d="M108.437 14.6636H103.514V9.7764H108.437V14.6636Z" fill="#EEECD9" fill-opacity="0.8"/>
<path d="M142.897 14.6636H137.974V9.7764H142.897V14.6636Z" fill="#EEECD9" fill-opacity="0.8"/>
<path d="M9.97984 19.5532H5.05701V14.666H9.97984V19.5532Z" fill="#EEECD9" fill-opacity="0.8"/>
<path d="M44.4405 19.5532H39.5177V14.666H44.4405V19.5532Z" fill="#EEECD9" fill-opacity="0.8"/>
<path d="M78.8988 19.5532H73.976V14.666H78.8988V19.5532Z" fill="#EEECD9" fill-opacity="0.8"/>
<path d="M113.359 19.5532H108.436V14.666H113.359V19.5532Z" fill="#EEECD9" fill-opacity="0.8"/>
<path d="M147.819 19.5532H142.896V14.666H147.819V19.5532Z" fill="#EEECD9" fill-opacity="0.8"/>
<path d="M5.05686 19.5532H0.134033V14.666H5.05686V19.5532Z" fill="#EEECD9" fill-opacity="0.8"/>
<path d="M39.5168 19.5532H34.594V14.666H39.5168V19.5532Z" fill="#EEECD9" fill-opacity="0.8"/>
<path d="M73.9777 19.5532H69.0549V14.666H73.9777V19.5532Z" fill="#EEECD9" fill-opacity="0.8"/>
<path d="M108.437 19.5532H103.514V14.666H108.437V19.5532Z" fill="#EEECD9" fill-opacity="0.8"/>
<path d="M142.897 19.5532H137.974V14.666H142.897V19.5532Z" fill="#EEECD9" fill-opacity="0.8"/>
<path d="M9.97984 24.4395H5.05701V19.5523H9.97984V24.4395Z" fill="#EEECD9" fill-opacity="0.8"/>
<path d="M44.4405 24.4395H39.5177V19.5523H44.4405V24.4395Z" fill="#EEECD9" fill-opacity="0.8"/>
<path d="M78.8988 24.4395H73.976V19.5523H78.8988V24.4395Z" fill="#EEECD9" fill-opacity="0.8"/>
<path d="M113.359 24.4395H108.436V19.5523H113.359V24.4395Z" fill="#EEECD9" fill-opacity="0.8"/>
<path d="M147.819 24.4395H142.896V19.5523H147.819V24.4395Z" fill="#EEECD9" fill-opacity="0.8"/>
<path d="M14.9024 4.88721H9.97961V1.09673e-05H14.9024V4.88721Z" fill="#EEECD9" fill-opacity="0.8"/>
<path d="M49.3626 4.88721H44.4398V1.09673e-05H49.3626V4.88721Z" fill="#EEECD9" fill-opacity="0.8"/>
<path d="M83.8216 4.88721H78.8988V1.09673e-05H83.8216V4.88721Z" fill="#EEECD9" fill-opacity="0.8"/>
<path d="M118.283 4.88721H113.36V1.09673e-05H118.283V4.88721Z" fill="#EEECD9" fill-opacity="0.8"/>
<path d="M152.742 4.88721H147.819V1.09673e-05H152.742V4.88721Z" fill="#EEECD9" fill-opacity="0.8"/>
<path d="M14.9024 9.77686H9.97961V4.88966H14.9024V9.77686Z" fill="#EEECD9" fill-opacity="0.8"/>
<path d="M49.3626 9.77686H44.4398V4.88966H49.3626V9.77686Z" fill="#EEECD9" fill-opacity="0.8"/>
<path d="M83.8216 9.77686H78.8988V4.88966H83.8216V9.77686Z" fill="#EEECD9" fill-opacity="0.8"/>
<path d="M118.283 9.77686H113.36V4.88966H118.283V9.77686Z" fill="#EEECD9" fill-opacity="0.8"/>
<path d="M152.742 9.77686H147.819V4.88966H152.742V9.77686Z" fill="#EEECD9" fill-opacity="0.8"/>
<path d="M14.9024 14.6636H9.97961V9.7764H14.9024V14.6636Z" fill="#EEECD9" fill-opacity="0.8"/>
<path d="M49.3626 14.6636H44.4398V9.7764H49.3626V14.6636Z" fill="#EEECD9" fill-opacity="0.8"/>
<path d="M83.8216 14.6636H78.8988V9.7764H83.8216V14.6636Z" fill="#EEECD9" fill-opacity="0.8"/>
<path d="M118.283 14.6636H113.36V9.7764H118.283V14.6636Z" fill="#EEECD9" fill-opacity="0.8"/>
<path d="M152.742 14.6636H147.819V9.7764H152.742V14.6636Z" fill="#EEECD9" fill-opacity="0.8"/>
<path d="M14.9024 19.5532H9.97961V14.666H14.9024V19.5532Z" fill="#EEECD9" fill-opacity="0.8"/>
<path d="M49.3626 19.5532H44.4398V14.666H49.3626V19.5532Z" fill="#EEECD9" fill-opacity="0.8"/>
<path d="M83.8216 19.5532H78.8988V14.666H83.8216V19.5532Z" fill="#EEECD9" fill-opacity="0.8"/>
<path d="M118.283 19.5532H113.36V14.666H118.283V19.5532Z" fill="#EEECD9" fill-opacity="0.8"/>
<path d="M152.742 19.5532H147.819V14.666H152.742V19.5532Z" fill="#EEECD9" fill-opacity="0.8"/>
<path d="M14.9024 24.4395H9.97961V19.5523H14.9024V24.4395Z" fill="#EEECD9" fill-opacity="0.8"/>
<path d="M49.3626 24.4395H44.4398V19.5523H49.3626V24.4395Z" fill="#EEECD9" fill-opacity="0.8"/>
<path d="M83.8216 24.4395H78.8988V19.5523H83.8216V24.4395Z" fill="#EEECD9" fill-opacity="0.8"/>
<path d="M118.283 24.4395H113.36V19.5523H118.283V24.4395Z" fill="#EEECD9" fill-opacity="0.8"/>
<path d="M152.742 24.4395H147.819V19.5523H152.742V24.4395Z" fill="#EEECD9" fill-opacity="0.8"/>
<path d="M14.9024 29.3262H9.97961V24.439H14.9024V29.3262Z" fill="#EEECD9" fill-opacity="0.8"/>
<path d="M49.3626 29.3262H44.4398V24.439H49.3626V29.3262Z" fill="#EEECD9" fill-opacity="0.8"/>
<path d="M83.8216 29.3262H78.8988V24.439H83.8216V29.3262Z" fill="#EEECD9" fill-opacity="0.8"/>
<path d="M118.283 29.3262H113.36V24.439H118.283V29.3262Z" fill="#EEECD9" fill-opacity="0.8"/>
<path d="M152.742 29.3262H147.819V24.439H152.742V29.3262Z" fill="#EEECD9" fill-opacity="0.8"/>
<path d="M19.8254 4.88721H14.9026V1.09673e-05H19.8254V4.88721Z" fill="#EEECD9" fill-opacity="0.8"/>
<path d="M54.2855 4.88721H49.3627V1.09673e-05H54.2855V4.88721Z" fill="#EEECD9" fill-opacity="0.8"/>
<path d="M88.7454 4.88721H83.8226V1.09673e-05H88.7454V4.88721Z" fill="#EEECD9" fill-opacity="0.8"/>
<path d="M123.205 4.88721H118.282V1.09673e-05H123.205V4.88721Z" fill="#EEECD9" fill-opacity="0.8"/>
<path d="M157.666 4.88721H152.743V1.09673e-05H157.666V4.88721Z" fill="#EEECD9" fill-opacity="0.8"/>
<path d="M19.8254 9.77686H14.9026V4.88966H19.8254V9.77686Z" fill="#EEECD9" fill-opacity="0.8"/>
<path d="M54.2855 9.77686H49.3627V4.88966H54.2855V9.77686Z" fill="#EEECD9" fill-opacity="0.8"/>
<path d="M88.7454 9.77686H83.8226V4.88966H88.7454V9.77686Z" fill="#EEECD9" fill-opacity="0.8"/>
<path d="M123.205 9.77686H118.282V4.88966H123.205V9.77686Z" fill="#EEECD9" fill-opacity="0.8"/>
<path d="M157.666 9.77686H152.743V4.88966H157.666V9.77686Z" fill="#EEECD9" fill-opacity="0.8"/>
<path d="M19.8254 14.6636H14.9026V9.7764H19.8254V14.6636Z" fill="#EEECD9" fill-opacity="0.8"/>
<path d="M54.2855 14.6636H49.3627V9.7764H54.2855V14.6636Z" fill="#EEECD9" fill-opacity="0.8"/>
<path d="M88.7454 14.6636H83.8226V9.7764H88.7454V14.6636Z" fill="#EEECD9" fill-opacity="0.8"/>
<path d="M123.205 14.6636H118.282V9.7764H123.205V14.6636Z" fill="#EEECD9" fill-opacity="0.8"/>
<path d="M157.666 14.6636H152.743V9.7764H157.666V14.6636Z" fill="#EEECD9" fill-opacity="0.8"/>
<path d="M19.8254 19.5532H14.9026V14.666H19.8254V19.5532Z" fill="#EEECD9" fill-opacity="0.8"/>
<path d="M54.2855 19.5532H49.3627V14.666H54.2855V19.5532Z" fill="#EEECD9" fill-opacity="0.8"/>
<path d="M88.7454 19.5532H83.8226V14.666H88.7454V19.5532Z" fill="#EEECD9" fill-opacity="0.8"/>
<path d="M123.205 19.5532H118.282V14.666H123.205V19.5532Z" fill="#EEECD9" fill-opacity="0.8"/>
<path d="M157.666 19.5532H152.743V14.666H157.666V19.5532Z" fill="#EEECD9" fill-opacity="0.8"/>
<path d="M19.8254 24.4395H14.9026V19.5523H19.8254V24.4395Z" fill="#EEECD9" fill-opacity="0.8"/>
<path d="M54.2855 24.4395H49.3627V19.5523H54.2855V24.4395Z" fill="#EEECD9" fill-opacity="0.8"/>
<path d="M88.7454 24.4395H83.8226V19.5523H88.7454V24.4395Z" fill="#EEECD9" fill-opacity="0.8"/>
<path d="M123.205 24.4395H118.282V19.5523H123.205V24.4395Z" fill="#EEECD9" fill-opacity="0.8"/>
<path d="M157.666 24.4395H152.743V19.5523H157.666V24.4395Z" fill="#EEECD9" fill-opacity="0.8"/>
<path d="M19.8254 29.3262H14.9026V24.439H19.8254V29.3262Z" fill="#EEECD9" fill-opacity="0.8"/>
<path d="M54.2855 29.3262H49.3627V24.439H54.2855V29.3262Z" fill="#EEECD9" fill-opacity="0.8"/>
<path d="M88.7454 29.3262H83.8226V24.439H88.7454V29.3262Z" fill="#EEECD9" fill-opacity="0.8"/>
<path d="M123.205 29.3262H118.282V24.439H123.205V29.3262Z" fill="#EEECD9" fill-opacity="0.8"/>
<path d="M157.666 29.3262H152.743V24.439H157.666V29.3262Z" fill="#EEECD9" fill-opacity="0.8"/>
<path d="M17.3643 34.2124H12.4415V29.3252H17.3643V34.2124Z" fill="#EEECD9" fill-opacity="0.8"/>
<path d="M51.8237 34.2124H46.9009V29.3252H51.8237V34.2124Z" fill="#EEECD9" fill-opacity="0.8"/>
<path d="M86.2844 34.2124H81.3616V29.3252H86.2844V34.2124Z" fill="#EEECD9" fill-opacity="0.8"/>
<path d="M120.743 34.2124H115.82V29.3252H120.743V34.2124Z" fill="#EEECD9" fill-opacity="0.8"/>
<path d="M155.203 34.2124H150.28V29.3252H155.203V34.2124Z" fill="#EEECD9" fill-opacity="0.8"/>
<path d="M24.7491 4.88721H19.8263V1.09673e-05H24.7491V4.88721Z" fill="#EEECD9" fill-opacity="0.8"/>
<path d="M59.2091 4.88721H54.2863V1.09673e-05H59.2091V4.88721Z" fill="#EEECD9" fill-opacity="0.8"/>
<path d="M93.6674 4.88721H88.7446V1.09673e-05H93.6674V4.88721Z" fill="#EEECD9" fill-opacity="0.8"/>
<path d="M128.128 4.88721H123.205V1.09673e-05H128.128V4.88721Z" fill="#EEECD9" fill-opacity="0.8"/>
<path d="M162.587 4.88721H157.664V1.09673e-05H162.587V4.88721Z" fill="#EEECD9" fill-opacity="0.8"/>
<path d="M24.7491 9.77686H19.8263V4.88966H24.7491V9.77686Z" fill="#EEECD9" fill-opacity="0.8"/>
<path d="M59.2091 9.77686H54.2863V4.88966H59.2091V9.77686Z" fill="#EEECD9" fill-opacity="0.8"/>
<path d="M93.6674 9.77686H88.7446V4.88966H93.6674V9.77686Z" fill="#EEECD9" fill-opacity="0.8"/>
<path d="M128.128 9.77686H123.205V4.88966H128.128V9.77686Z" fill="#EEECD9" fill-opacity="0.8"/>
<path d="M162.587 9.77686H157.664V4.88966H162.587V9.77686Z" fill="#EEECD9" fill-opacity="0.8"/>
<path d="M24.7491 14.6636H19.8263V9.7764H24.7491V14.6636Z" fill="#EEECD9" fill-opacity="0.8"/>
<path d="M59.2091 14.6636H54.2863V9.7764H59.2091V14.6636Z" fill="#EEECD9" fill-opacity="0.8"/>
<path d="M93.6674 14.6636H88.7446V9.7764H93.6674V14.6636Z" fill="#EEECD9" fill-opacity="0.8"/>
<path d="M128.128 14.6636H123.205V9.7764H128.128V14.6636Z" fill="#EEECD9" fill-opacity="0.8"/>
<path d="M162.587 14.6636H157.664V9.7764H162.587V14.6636Z" fill="#EEECD9" fill-opacity="0.8"/>
<path d="M29.6712 4.88721H24.7484V1.09673e-05H29.6712V4.88721Z" fill="#EEECD9" fill-opacity="0.8"/>
<path d="M64.1311 4.88721H59.2083V1.09673e-05H64.1311V4.88721Z" fill="#EEECD9" fill-opacity="0.8"/>
<path d="M98.5913 4.88721H93.6685V1.09673e-05H98.5913V4.88721Z" fill="#EEECD9" fill-opacity="0.8"/>
<path d="M133.051 4.88721H128.128V1.09673e-05H133.051V4.88721Z" fill="#EEECD9" fill-opacity="0.8"/>
<path d="M167.51 4.88721H162.587V1.09673e-05H167.51V4.88721Z" fill="#EEECD9" fill-opacity="0.8"/>
<path d="M29.6712 9.77686H24.7484V4.88966H29.6712V9.77686Z" fill="#EEECD9" fill-opacity="0.8"/>
<path d="M64.1311 9.77686H59.2083V4.88966H64.1311V9.77686Z" fill="#EEECD9" fill-opacity="0.8"/>
<path d="M98.5913 9.77686H93.6685V4.88966H98.5913V9.77686Z" fill="#EEECD9" fill-opacity="0.8"/>
<path d="M133.051 9.77686H128.128V4.88966H133.051V9.77686Z" fill="#EEECD9" fill-opacity="0.8"/>
<path d="M167.51 9.77686H162.587V4.88966H167.51V9.77686Z" fill="#EEECD9" fill-opacity="0.8"/>
<path d="M29.6712 14.6636H24.7484V9.7764H29.6712V14.6636Z" fill="#EEECD9" fill-opacity="0.8"/>
<path d="M64.1311 14.6636H59.2083V9.7764H64.1311V14.6636Z" fill="#EEECD9" fill-opacity="0.8"/>
<path d="M98.5913 14.6636H93.6685V9.7764H98.5913V14.6636Z" fill="#EEECD9" fill-opacity="0.8"/>
<path d="M133.051 14.6636H128.128V9.7764H133.051V14.6636Z" fill="#EEECD9" fill-opacity="0.8"/>
<path d="M167.51 14.6636H162.587V9.7764H167.51V14.6636Z" fill="#EEECD9" fill-opacity="0.8"/>
<path d="M24.7491 19.5532H19.8263V14.666H24.7491V19.5532Z" fill="#EEECD9" fill-opacity="0.8"/>
<path d="M59.2091 19.5532H54.2863V14.666H59.2091V19.5532Z" fill="#EEECD9" fill-opacity="0.8"/>
<path d="M93.6674 19.5532H88.7446V14.666H93.6674V19.5532Z" fill="#EEECD9" fill-opacity="0.8"/>
<path d="M128.128 19.5532H123.205V14.666H128.128V19.5532Z" fill="#EEECD9" fill-opacity="0.8"/>
<path d="M162.587 19.5532H157.664V14.666H162.587V19.5532Z" fill="#EEECD9" fill-opacity="0.8"/>
<path d="M29.6712 19.5532H24.7484V14.666H29.6712V19.5532Z" fill="#EEECD9" fill-opacity="0.8"/>
<path d="M64.1311 19.5532H59.2083V14.666H64.1311V19.5532Z" fill="#EEECD9" fill-opacity="0.8"/>
<path d="M98.5913 19.5532H93.6685V14.666H98.5913V19.5532Z" fill="#EEECD9" fill-opacity="0.8"/>
<path d="M133.051 19.5532H128.128V14.666H133.051V19.5532Z" fill="#EEECD9" fill-opacity="0.8"/>
<path d="M167.51 19.5532H162.587V14.666H167.51V19.5532Z" fill="#EEECD9" fill-opacity="0.8"/>
<path d="M24.7491 24.4395H19.8263V19.5523H24.7491V24.4395Z" fill="#EEECD9" fill-opacity="0.8"/>
<path d="M59.2091 24.4395H54.2863V19.5523H59.2091V24.4395Z" fill="#EEECD9" fill-opacity="0.8"/>
<path d="M93.6674 24.4395H88.7446V19.5523H93.6674V24.4395Z" fill="#EEECD9" fill-opacity="0.8"/>
<path d="M128.128 24.4395H123.205V19.5523H128.128V24.4395Z" fill="#EEECD9" fill-opacity="0.8"/>
<path d="M162.587 24.4395H157.664V19.5523H162.587V24.4395Z" fill="#EEECD9" fill-opacity="0.8"/>
<path d="M183.264 4.88721H178.341V1.09673e-05H183.264V4.88721Z" fill="#EEECD9" fill-opacity="0.8"/>
<path d="M217.725 4.88721H212.802V1.09673e-05H217.725V4.88721Z" fill="#EEECD9" fill-opacity="0.8"/>
<path d="M252.184 4.88721H247.261V1.09673e-05H252.184V4.88721Z" fill="#EEECD9" fill-opacity="0.8"/>
<path d="M286.643 4.88721H281.72V1.09673e-05H286.643V4.88721Z" fill="#EEECD9" fill-opacity="0.8"/>
<path d="M178.341 4.88721H173.418V1.09673e-05H178.341V4.88721Z" fill="#EEECD9" fill-opacity="0.8"/>
<path d="M212.801 4.88721H207.878V1.09673e-05H212.801V4.88721Z" fill="#EEECD9" fill-opacity="0.8"/>
<path d="M247.262 4.88721H242.339V1.09673e-05H247.262V4.88721Z" fill="#EEECD9" fill-opacity="0.8"/>
<path d="M281.721 4.88721H276.798V1.09673e-05H281.721V4.88721Z" fill="#EEECD9" fill-opacity="0.8"/>
<path d="M183.264 9.77686H178.341V4.88966H183.264V9.77686Z" fill="#EEECD9" fill-opacity="0.8"/>
<path d="M217.725 9.77686H212.802V4.88966H217.725V9.77686Z" fill="#EEECD9" fill-opacity="0.8"/>
<path d="M252.184 9.77686H247.261V4.88966H252.184V9.77686Z" fill="#EEECD9" fill-opacity="0.8"/>
<path d="M286.643 9.77686H281.72V4.88966H286.643V9.77686Z" fill="#EEECD9" fill-opacity="0.8"/>
<path d="M178.341 9.77686H173.418V4.88966H178.341V9.77686Z" fill="#EEECD9" fill-opacity="0.8"/>
<path d="M212.801 9.77686H207.878V4.88966H212.801V9.77686Z" fill="#EEECD9" fill-opacity="0.8"/>
<path d="M247.262 9.77686H242.339V4.88966H247.262V9.77686Z" fill="#EEECD9" fill-opacity="0.8"/>
<path d="M281.721 9.77686H276.798V4.88966H281.721V9.77686Z" fill="#EEECD9" fill-opacity="0.8"/>
<path d="M183.264 14.6636H178.341V9.7764H183.264V14.6636Z" fill="#EEECD9" fill-opacity="0.8"/>
<path d="M217.725 14.6636H212.802V9.7764H217.725V14.6636Z" fill="#EEECD9" fill-opacity="0.8"/>
<path d="M252.184 14.6636H247.261V9.7764H252.184V14.6636Z" fill="#EEECD9" fill-opacity="0.8"/>
<path d="M286.643 14.6636H281.72V9.7764H286.643V14.6636Z" fill="#EEECD9" fill-opacity="0.8"/>
<path d="M178.341 14.6636H173.418V9.7764H178.341V14.6636Z" fill="#EEECD9" fill-opacity="0.8"/>
<path d="M212.801 14.6636H207.878V9.7764H212.801V14.6636Z" fill="#EEECD9" fill-opacity="0.8"/>
<path d="M247.262 14.6636H242.339V9.7764H247.262V14.6636Z" fill="#EEECD9" fill-opacity="0.8"/>
<path d="M281.721 14.6636H276.798V9.7764H281.721V14.6636Z" fill="#EEECD9" fill-opacity="0.8"/>
<path d="M183.264 19.5532H178.341V14.666H183.264V19.5532Z" fill="#EEECD9" fill-opacity="0.8"/>
<path d="M217.725 19.5532H212.802V14.666H217.725V19.5532Z" fill="#EEECD9" fill-opacity="0.8"/>
<path d="M252.184 19.5532H247.261V14.666H252.184V19.5532Z" fill="#EEECD9" fill-opacity="0.8"/>
<path d="M286.643 19.5532H281.72V14.666H286.643V19.5532Z" fill="#EEECD9" fill-opacity="0.8"/>
<path d="M178.341 19.5532H173.418V14.666H178.341V19.5532Z" fill="#EEECD9" fill-opacity="0.8"/>
<path d="M212.801 19.5532H207.878V14.666H212.801V19.5532Z" fill="#EEECD9" fill-opacity="0.8"/>
<path d="M247.262 19.5532H242.339V14.666H247.262V19.5532Z" fill="#EEECD9" fill-opacity="0.8"/>
<path d="M281.721 19.5532H276.798V14.666H281.721V19.5532Z" fill="#EEECD9" fill-opacity="0.8"/>
<path d="M183.264 24.4395H178.341V19.5523H183.264V24.4395Z" fill="#EEECD9" fill-opacity="0.8"/>
<path d="M217.725 24.4395H212.802V19.5523H217.725V24.4395Z" fill="#EEECD9" fill-opacity="0.8"/>
<path d="M252.184 24.4395H247.261V19.5523H252.184V24.4395Z" fill="#EEECD9" fill-opacity="0.8"/>
<path d="M286.643 24.4395H281.72V19.5523H286.643V24.4395Z" fill="#EEECD9" fill-opacity="0.8"/>
<path d="M188.187 4.88721H183.264V1.09673e-05H188.187V4.88721Z" fill="#EEECD9" fill-opacity="0.8"/>
<path d="M222.647 4.88721H217.724V1.09673e-05H222.647V4.88721Z" fill="#EEECD9" fill-opacity="0.8"/>
<path d="M257.107 4.88721H252.184V1.09673e-05H257.107V4.88721Z" fill="#EEECD9" fill-opacity="0.8"/>
<path d="M291.567 4.88721H286.644V1.09673e-05H291.567V4.88721Z" fill="#EEECD9" fill-opacity="0.8"/>
<path d="M188.187 9.77686H183.264V4.88966H188.187V9.77686Z" fill="#EEECD9" fill-opacity="0.8"/>
<path d="M222.647 9.77686H217.724V4.88966H222.647V9.77686Z" fill="#EEECD9" fill-opacity="0.8"/>
<path d="M257.107 9.77686H252.184V4.88966H257.107V9.77686Z" fill="#EEECD9" fill-opacity="0.8"/>
<path d="M291.567 9.77686H286.644V4.88966H291.567V9.77686Z" fill="#EEECD9" fill-opacity="0.8"/>
<path d="M188.187 14.6636H183.264V9.7764H188.187V14.6636Z" fill="#EEECD9" fill-opacity="0.8"/>
<path d="M222.647 14.6636H217.724V9.7764H222.647V14.6636Z" fill="#EEECD9" fill-opacity="0.8"/>
<path d="M257.107 14.6636H252.184V9.7764H257.107V14.6636Z" fill="#EEECD9" fill-opacity="0.8"/>
<path d="M291.567 14.6636H286.644V9.7764H291.567V14.6636Z" fill="#EEECD9" fill-opacity="0.8"/>
<path d="M188.187 19.5532H183.264V14.666H188.187V19.5532Z" fill="#EEECD9" fill-opacity="0.8"/>
<path d="M222.647 19.5532H217.724V14.666H222.647V19.5532Z" fill="#EEECD9" fill-opacity="0.8"/>
<path d="M257.107 19.5532H252.184V14.666H257.107V19.5532Z" fill="#EEECD9" fill-opacity="0.8"/>
<path d="M291.567 19.5532H286.644V14.666H291.567V19.5532Z" fill="#EEECD9" fill-opacity="0.8"/>
<path d="M188.187 24.4395H183.264V19.5523H188.187V24.4395Z" fill="#EEECD9" fill-opacity="0.8"/>
<path d="M222.647 24.4395H217.724V19.5523H222.647V24.4395Z" fill="#EEECD9" fill-opacity="0.8"/>
<path d="M257.107 24.4395H252.184V19.5523H257.107V24.4395Z" fill="#EEECD9" fill-opacity="0.8"/>
<path d="M291.567 24.4395H286.644V19.5523H291.567V24.4395Z" fill="#EEECD9" fill-opacity="0.8"/>
<path d="M188.187 29.3262H183.264V24.439H188.187V29.3262Z" fill="#EEECD9" fill-opacity="0.8"/>
<path d="M222.647 29.3262H217.724V24.439H222.647V29.3262Z" fill="#EEECD9" fill-opacity="0.8"/>
<path d="M257.107 29.3262H252.184V24.439H257.107V29.3262Z" fill="#EEECD9" fill-opacity="0.8"/>
<path d="M291.567 29.3262H286.644V24.439H291.567V29.3262Z" fill="#EEECD9" fill-opacity="0.8"/>
<path d="M193.109 4.88721H188.186V1.09673e-05H193.109V4.88721Z" fill="#EEECD9" fill-opacity="0.8"/>
<path d="M227.57 4.88721H222.647V1.09673e-05H227.57V4.88721Z" fill="#EEECD9" fill-opacity="0.8"/>
<path d="M262.03 4.88721H257.107V1.09673e-05H262.03V4.88721Z" fill="#EEECD9" fill-opacity="0.8"/>
<path d="M296.489 4.88721H291.566V1.09673e-05H296.489V4.88721Z" fill="#EEECD9" fill-opacity="0.8"/>
<path d="M193.109 9.77686H188.186V4.88966H193.109V9.77686Z" fill="#EEECD9" fill-opacity="0.8"/>
<path d="M227.57 9.77686H222.647V4.88966H227.57V9.77686Z" fill="#EEECD9" fill-opacity="0.8"/>
<path d="M262.03 9.77686H257.107V4.88966H262.03V9.77686Z" fill="#EEECD9" fill-opacity="0.8"/>
<path d="M296.489 9.77686H291.566V4.88966H296.489V9.77686Z" fill="#EEECD9" fill-opacity="0.8"/>
<path d="M193.109 14.6636H188.186V9.7764H193.109V14.6636Z" fill="#EEECD9" fill-opacity="0.8"/>
<path d="M227.57 14.6636H222.647V9.7764H227.57V14.6636Z" fill="#EEECD9" fill-opacity="0.8"/>
<path d="M262.03 14.6636H257.107V9.7764H262.03V14.6636Z" fill="#EEECD9" fill-opacity="0.8"/>
<path d="M296.489 14.6636H291.566V9.7764H296.489V14.6636Z" fill="#EEECD9" fill-opacity="0.8"/>
<path d="M193.109 19.5532H188.186V14.666H193.109V19.5532Z" fill="#EEECD9" fill-opacity="0.8"/>
<path d="M227.57 19.5532H222.647V14.666H227.57V19.5532Z" fill="#EEECD9" fill-opacity="0.8"/>
<path d="M262.03 19.5532H257.107V14.666H262.03V19.5532Z" fill="#EEECD9" fill-opacity="0.8"/>
<path d="M296.489 19.5532H291.566V14.666H296.489V19.5532Z" fill="#EEECD9" fill-opacity="0.8"/>
<path d="M193.109 24.4395H188.186V19.5523H193.109V24.4395Z" fill="#EEECD9" fill-opacity="0.8"/>
<path d="M227.57 24.4395H222.647V19.5523H227.57V24.4395Z" fill="#EEECD9" fill-opacity="0.8"/>
<path d="M262.03 24.4395H257.107V19.5523H262.03V24.4395Z" fill="#EEECD9" fill-opacity="0.8"/>
<path d="M296.489 24.4395H291.566V19.5523H296.489V24.4395Z" fill="#EEECD9" fill-opacity="0.8"/>
<path d="M193.109 29.3262H188.186V24.439H193.109V29.3262Z" fill="#EEECD9" fill-opacity="0.8"/>
<path d="M227.57 29.3262H222.647V24.439H227.57V29.3262Z" fill="#EEECD9" fill-opacity="0.8"/>
<path d="M262.03 29.3262H257.107V24.439H262.03V29.3262Z" fill="#EEECD9" fill-opacity="0.8"/>
<path d="M296.489 29.3262H291.566V24.439H296.489V29.3262Z" fill="#EEECD9" fill-opacity="0.8"/>
<path d="M190.648 34.2124H185.725V29.3252H190.648V34.2124Z" fill="#EEECD9" fill-opacity="0.8"/>
<path d="M225.108 34.2124H220.185V29.3252H225.108V34.2124Z" fill="#EEECD9" fill-opacity="0.8"/>
<path d="M259.569 34.2124H254.646V29.3252H259.569V34.2124Z" fill="#EEECD9" fill-opacity="0.8"/>
<path d="M294.028 34.2124H289.105V29.3252H294.028V34.2124Z" fill="#EEECD9" fill-opacity="0.8"/>
<path d="M198.033 4.88721H193.11V1.09673e-05H198.033V4.88721Z" fill="#EEECD9" fill-opacity="0.8"/>
<path d="M232.493 4.88721H227.57V1.09673e-05H232.493V4.88721Z" fill="#EEECD9" fill-opacity="0.8"/>
<path d="M266.952 4.88721H262.029V1.09673e-05H266.952V4.88721Z" fill="#EEECD9" fill-opacity="0.8"/>
<path d="M301.413 4.88721H296.49V1.09673e-05H301.413V4.88721Z" fill="#EEECD9" fill-opacity="0.8"/>
<path d="M198.033 9.77686H193.11V4.88966H198.033V9.77686Z" fill="#EEECD9" fill-opacity="0.8"/>
<path d="M232.493 9.77686H227.57V4.88966H232.493V9.77686Z" fill="#EEECD9" fill-opacity="0.8"/>
<path d="M266.952 9.77686H262.029V4.88966H266.952V9.77686Z" fill="#EEECD9" fill-opacity="0.8"/>
<path d="M301.413 9.77686H296.49V4.88966H301.413V9.77686Z" fill="#EEECD9" fill-opacity="0.8"/>
<path d="M198.033 14.6636H193.11V9.7764H198.033V14.6636Z" fill="#EEECD9" fill-opacity="0.8"/>
<path d="M232.493 14.6636H227.57V9.7764H232.493V14.6636Z" fill="#EEECD9" fill-opacity="0.8"/>
<path d="M266.952 14.6636H262.029V9.7764H266.952V14.6636Z" fill="#EEECD9" fill-opacity="0.8"/>
<path d="M301.413 14.6636H296.49V9.7764H301.413V14.6636Z" fill="#EEECD9" fill-opacity="0.8"/>
<path d="M202.955 4.88721H198.032V1.09673e-05H202.955V4.88721Z" fill="#EEECD9" fill-opacity="0.8"/>
<path d="M237.415 4.88721H232.492V1.09673e-05H237.415V4.88721Z" fill="#EEECD9" fill-opacity="0.8"/>
<path d="M271.875 4.88721H266.952V1.09673e-05H271.875V4.88721Z" fill="#EEECD9" fill-opacity="0.8"/>
<path d="M306.334 4.88721H301.411V1.09673e-05H306.334V4.88721Z" fill="#EEECD9" fill-opacity="0.8"/>
<path d="M202.955 9.77686H198.032V4.88966H202.955V9.77686Z" fill="#EEECD9" fill-opacity="0.8"/>
<path d="M237.415 9.77686H232.492V4.88966H237.415V9.77686Z" fill="#EEECD9" fill-opacity="0.8"/>
<path d="M271.875 9.77686H266.952V4.88966H271.875V9.77686Z" fill="#EEECD9" fill-opacity="0.8"/>
<path d="M306.334 9.77686H301.411V4.88966H306.334V9.77686Z" fill="#EEECD9" fill-opacity="0.8"/>
<path d="M202.955 14.6636H198.032V9.7764H202.955V14.6636Z" fill="#EEECD9" fill-opacity="0.8"/>
<path d="M237.415 14.6636H232.492V9.7764H237.415V14.6636Z" fill="#EEECD9" fill-opacity="0.8"/>
<path d="M271.875 14.6636H266.952V9.7764H271.875V14.6636Z" fill="#EEECD9" fill-opacity="0.8"/>
<path d="M306.334 14.6636H301.411V9.7764H306.334V14.6636Z" fill="#EEECD9" fill-opacity="0.8"/>
<path d="M198.033 19.5532H193.11V14.666H198.033V19.5532Z" fill="#EEECD9" fill-opacity="0.8"/>
<path d="M232.493 19.5532H227.57V14.666H232.493V19.5532Z" fill="#EEECD9" fill-opacity="0.8"/>
<path d="M266.952 19.5532H262.029V14.666H266.952V19.5532Z" fill="#EEECD9" fill-opacity="0.8"/>
<path d="M301.413 19.5532H296.49V14.666H301.413V19.5532Z" fill="#EEECD9" fill-opacity="0.8"/>
<path d="M202.955 19.5532H198.032V14.666H202.955V19.5532Z" fill="#EEECD9" fill-opacity="0.8"/>
<path d="M237.415 19.5532H232.492V14.666H237.415V19.5532Z" fill="#EEECD9" fill-opacity="0.8"/>
<path d="M271.875 19.5532H266.952V14.666H271.875V19.5532Z" fill="#EEECD9" fill-opacity="0.8"/>
<path d="M306.334 19.5532H301.411V14.666H306.334V19.5532Z" fill="#EEECD9" fill-opacity="0.8"/>
<path d="M198.033 24.4395H193.11V19.5523H198.033V24.4395Z" fill="#EEECD9" fill-opacity="0.8"/>
<path d="M232.493 24.4395H227.57V19.5523H232.493V24.4395Z" fill="#EEECD9" fill-opacity="0.8"/>
<path d="M266.952 24.4395H262.029V19.5523H266.952V24.4395Z" fill="#EEECD9" fill-opacity="0.8"/>
<path d="M301.413 24.4395H296.49V19.5523H301.413V24.4395Z" fill="#EEECD9" fill-opacity="0.8"/>
</svg>
