<svg width="73" height="58" viewBox="0 0 73 58" fill="none" xmlns="http://www.w3.org/2000/svg">
<rect x="16.7891" y="28.9341" width="14.0455" height="15.8947" transform="rotate(90 16.7891 28.9341)" fill="#EF5243"/>
<rect x="16.7891" y="14.8887" width="14.0455" height="15.8947" transform="rotate(90 16.7891 14.8887)" fill="#EF5243"/>
<rect x="56.5273" y="14.8884" width="14.0455" height="15.8947" transform="rotate(90 56.5273 14.8884)" fill="#EF5243"/>
<rect x="16.7891" y="0.843262" width="14.0455" height="15.8947" transform="rotate(90 16.7891 0.843262)" fill="#EF5243"/>
<rect x="56.5273" y="0.843018" width="14.0455" height="15.8947" transform="rotate(90 56.5273 0.843018)" fill="#EF5243"/>
<rect x="32.6836" y="0.843262" width="14.0455" height="15.8947" transform="rotate(90 32.6836 0.843262)" fill="#EF5243"/>
<rect x="72.4219" y="0.843018" width="14.0455" height="15.8947" transform="rotate(90 72.4219 0.843018)" fill="#EF5243"/>
<rect x="56.5273" y="28.9338" width="14.0455" height="15.8947" transform="rotate(90 56.5273 28.9338)" fill="#EF5243"/>
<rect x="16.7891" y="42.979" width="14.0455" height="15.8947" transform="rotate(90 16.7891 42.979)" fill="#EF5243"/>
<rect x="56.5273" y="42.458" width="14.0455" height="15.8947" transform="rotate(90 56.5273 42.458)" fill="#EF5243"/>
<rect x="32.6836" y="28.9341" width="14.0455" height="15.8947" transform="rotate(90 32.6836 28.9341)" fill="#EF5243"/>
<rect x="72.4219" y="28.9338" width="14.0455" height="15.8947" transform="rotate(90 72.4219 28.9338)" fill="#EF5243"/>
<rect x="32.6836" y="42.979" width="14.0455" height="15.8947" transform="rotate(90 32.6836 42.979)" fill="#EF5243"/>
<rect x="72.4219" y="42.458" width="14.0455" height="15.8947" transform="rotate(90 72.4219 42.458)" fill="#EF5243"/>
</svg>
