<svg width="93" height="32" viewBox="0 0 93 32" fill="none" xmlns="http://www.w3.org/2000/svg">
<path d="M8.20144 6.12195V1H84.7986V6.12195H88.7266V11.2439H92V20.7561H88.7266V25.878H84.7986V31H8.20144V25.878H4.27338V20.7561H1V11.2439H4.27338V6.12195H8.20144Z" fill="#FFB261" stroke="#FFB261"/>
<path d="M15.12 22V10.48H19.88C19.992 10.48 20.136 10.4853 20.312 10.496C20.488 10.5013 20.6507 10.5173 20.8 10.544C21.4667 10.6453 22.016 10.8667 22.448 11.208C22.8853 11.5493 23.208 11.9813 23.416 12.504C23.6293 13.0213 23.736 13.5973 23.736 14.232C23.736 15.1707 23.4987 15.9787 23.024 16.656C22.5493 17.328 21.8213 17.744 20.84 17.904L20.016 17.976H17.048V22H15.12ZM21.736 22L19.464 17.312L21.424 16.88L23.92 22H21.736ZM17.048 16.176H19.8C19.9067 16.176 20.0267 16.1707 20.16 16.16C20.2933 16.1493 20.416 16.128 20.528 16.096C20.848 16.016 21.0987 15.8747 21.28 15.672C21.4667 15.4693 21.5973 15.24 21.672 14.984C21.752 14.728 21.792 14.4773 21.792 14.232C21.792 13.9867 21.752 13.736 21.672 13.48C21.5973 13.2187 21.4667 12.9867 21.28 12.784C21.0987 12.5813 20.848 12.44 20.528 12.36C20.416 12.328 20.2933 12.3093 20.16 12.304C20.0267 12.2933 19.9067 12.288 19.8 12.288H17.048V16.176ZM29.6105 22.24C28.7358 22.24 27.9678 22.0507 27.3065 21.672C26.6452 21.2933 26.1278 20.768 25.7545 20.096C25.3865 19.424 25.2025 18.6507 25.2025 17.776C25.2025 16.832 25.3838 16.0133 25.7465 15.32C26.1092 14.6213 26.6132 14.08 27.2585 13.696C27.9038 13.312 28.6505 13.12 29.4985 13.12C30.3945 13.12 31.1545 13.3307 31.7785 13.752C32.4078 14.168 32.8745 14.7573 33.1785 15.52C33.4825 16.2827 33.5972 17.1813 33.5225 18.216H31.6105V17.512C31.6052 16.5733 31.4398 15.888 31.1145 15.456C30.7892 15.024 30.2772 14.808 29.5785 14.808C28.7892 14.808 28.2025 15.0533 27.8185 15.544C27.4345 16.0293 27.2425 16.7413 27.2425 17.68C27.2425 18.5547 27.4345 19.232 27.8185 19.712C28.2025 20.192 28.7625 20.432 29.4985 20.432C29.9732 20.432 30.3812 20.328 30.7225 20.12C31.0692 19.9067 31.3358 19.6 31.5225 19.2L33.4265 19.776C33.0958 20.5547 32.5838 21.16 31.8905 21.592C31.2025 22.024 30.4425 22.24 29.6105 22.24ZM26.6345 18.216V16.76H32.5785V18.216H26.6345ZM38.9395 26.08C38.4595 26.08 37.9982 26.0053 37.5555 25.856C37.1182 25.7067 36.7235 25.4907 36.3715 25.208C36.0195 24.9307 35.7315 24.5947 35.5075 24.2L37.2835 23.32C37.4488 23.6347 37.6808 23.8667 37.9795 24.016C38.2835 24.1707 38.6062 24.248 38.9475 24.248C39.3475 24.248 39.7048 24.176 40.0195 24.032C40.3342 23.8933 40.5768 23.6853 40.7475 23.408C40.9235 23.136 41.0062 22.7947 40.9955 22.384V19.928H41.2355V13.36H42.9235V22.416C42.9235 22.6347 42.9128 22.8427 42.8915 23.04C42.8755 23.2427 42.8462 23.44 42.8035 23.632C42.6755 24.192 42.4302 24.6507 42.0675 25.008C41.7048 25.3707 41.2542 25.64 40.7155 25.816C40.1822 25.992 39.5902 26.08 38.9395 26.08ZM38.7715 22.24C37.9768 22.24 37.2835 22.04 36.6915 21.64C36.0995 21.24 35.6408 20.696 35.3155 20.008C34.9902 19.32 34.8275 18.544 34.8275 17.68C34.8275 16.8053 34.9902 16.0267 35.3155 15.344C35.6462 14.656 36.1128 14.1147 36.7155 13.72C37.3182 13.32 38.0275 13.12 38.8435 13.12C39.6648 13.12 40.3528 13.32 40.9075 13.72C41.4675 14.1147 41.8915 14.656 42.1795 15.344C42.4675 16.032 42.6115 16.8107 42.6115 17.68C42.6115 18.5387 42.4675 19.3147 42.1795 20.008C41.8915 20.696 41.4622 21.24 40.8915 21.64C40.3208 22.04 39.6142 22.24 38.7715 22.24ZM39.0675 20.512C39.5848 20.512 40.0008 20.3947 40.3155 20.16C40.6355 19.92 40.8675 19.5867 41.0115 19.16C41.1608 18.7333 41.2355 18.24 41.2355 17.68C41.2355 17.1147 41.1608 16.6213 41.0115 16.2C40.8675 15.7733 40.6408 15.4427 40.3315 15.208C40.0222 14.968 39.6222 14.848 39.1315 14.848C38.6142 14.848 38.1875 14.976 37.8515 15.232C37.5155 15.4827 37.2675 15.824 37.1075 16.256C36.9475 16.6827 36.8675 17.1573 36.8675 17.68C36.8675 18.208 36.9448 18.688 37.0995 19.12C37.2595 19.5467 37.5022 19.8853 37.8275 20.136C38.1528 20.3867 38.5662 20.512 39.0675 20.512ZM45.3269 12.048V10.28H47.2549V12.048H45.3269ZM45.3269 22V13.36H47.2549V22H45.3269ZM52.9873 22.24C51.9206 22.24 51.0539 22 50.3873 21.52C49.7206 21.04 49.3153 20.3653 49.1713 19.496L51.1393 19.192C51.2406 19.6187 51.4646 19.9547 51.8113 20.2C52.1579 20.4453 52.5953 20.568 53.1233 20.568C53.5873 20.568 53.9446 20.4773 54.1953 20.296C54.4513 20.1093 54.5793 19.856 54.5793 19.536C54.5793 19.3387 54.5313 19.1813 54.4353 19.064C54.3446 18.9413 54.1419 18.824 53.8273 18.712C53.5126 18.6 53.0299 18.4587 52.3793 18.288C51.6539 18.096 51.0779 17.8907 50.6513 17.672C50.2246 17.448 49.9179 17.184 49.7313 16.88C49.5446 16.576 49.4513 16.208 49.4513 15.776C49.4513 15.2373 49.5926 14.768 49.8753 14.368C50.1579 13.968 50.5526 13.6613 51.0593 13.448C51.5659 13.2293 52.1633 13.12 52.8513 13.12C53.5233 13.12 54.1179 13.224 54.6353 13.432C55.1579 13.64 55.5793 13.936 55.8993 14.32C56.2193 14.704 56.4166 15.1547 56.4913 15.672L54.5233 16.024C54.4753 15.656 54.3073 15.3653 54.0193 15.152C53.7366 14.9387 53.3579 14.8187 52.8833 14.792C52.4299 14.7653 52.0646 14.8347 51.7873 15C51.5099 15.16 51.3713 15.3867 51.3713 15.68C51.3713 15.8453 51.4273 15.9867 51.5393 16.104C51.6513 16.2213 51.8753 16.3387 52.2113 16.456C52.5526 16.5733 53.0593 16.7173 53.7313 16.888C54.4193 17.064 54.9686 17.2667 55.3793 17.496C55.7953 17.72 56.0939 17.9893 56.2753 18.304C56.4619 18.6187 56.5553 19 56.5553 19.448C56.5553 20.3173 56.2379 21 55.6033 21.496C54.9739 21.992 54.1019 22.24 52.9873 22.24ZM63.3715 22C62.8008 22.1067 62.2408 22.152 61.6915 22.136C61.1475 22.1253 60.6595 22.0267 60.2275 21.84C59.7955 21.648 59.4675 21.3467 59.2435 20.936C59.0462 20.5627 58.9422 20.1813 58.9315 19.792C58.9208 19.4027 58.9155 18.9627 58.9155 18.472V10.96H60.8355V18.36C60.8355 18.7067 60.8382 19.0107 60.8435 19.272C60.8542 19.5333 60.9102 19.7467 61.0115 19.912C61.2035 20.232 61.5102 20.4107 61.9315 20.448C62.3528 20.4853 62.8328 20.464 63.3715 20.384V22ZM57.3475 14.872V13.36H63.3715V14.872H57.3475ZM68.7199 22.24C67.8452 22.24 67.0772 22.0507 66.4159 21.672C65.7545 21.2933 65.2372 20.768 64.8639 20.096C64.4959 19.424 64.3119 18.6507 64.3119 17.776C64.3119 16.832 64.4932 16.0133 64.8559 15.32C65.2185 14.6213 65.7225 14.08 66.3679 13.696C67.0132 13.312 67.7599 13.12 68.6079 13.12C69.5039 13.12 70.2639 13.3307 70.8879 13.752C71.5172 14.168 71.9839 14.7573 72.2879 15.52C72.5919 16.2827 72.7065 17.1813 72.6319 18.216H70.7199V17.512C70.7145 16.5733 70.5492 15.888 70.2239 15.456C69.8985 15.024 69.3865 14.808 68.6879 14.808C67.8985 14.808 67.3119 15.0533 66.9279 15.544C66.5439 16.0293 66.3519 16.7413 66.3519 17.68C66.3519 18.5547 66.5439 19.232 66.9279 19.712C67.3119 20.192 67.8719 20.432 68.6079 20.432C69.0825 20.432 69.4905 20.328 69.8319 20.12C70.1785 19.9067 70.4452 19.6 70.6319 19.2L72.5359 19.776C72.2052 20.5547 71.6932 21.16 70.9999 21.592C70.3119 22.024 69.5519 22.24 68.7199 22.24ZM65.7439 18.216V16.76H71.6879V18.216H65.7439ZM74.4169 22V13.36H76.1209V15.464L75.9129 15.192C76.0195 14.904 76.1609 14.6427 76.3369 14.408C76.5182 14.168 76.7342 13.9707 76.9849 13.816C77.1982 13.672 77.4329 13.56 77.6889 13.48C77.9502 13.3947 78.2169 13.344 78.4889 13.328C78.7609 13.3067 79.0249 13.3173 79.2809 13.36V15.16C79.0249 15.0853 78.7289 15.0613 78.3929 15.088C78.0622 15.1147 77.7635 15.208 77.4969 15.368C77.2302 15.512 77.0115 15.696 76.8409 15.92C76.6755 16.144 76.5529 16.4 76.4729 16.688C76.3929 16.9707 76.3529 17.2773 76.3529 17.608V22H74.4169Z" fill="#090909"/>
</svg>
