<svg width="35" height="34" viewBox="0 0 35 34" fill="none" xmlns="http://www.w3.org/2000/svg">
<path fill-rule="evenodd" clip-rule="evenodd" d="M22.8672 11.7261C23.1601 12.019 23.1601 12.4939 22.8672 12.7868L13.3213 22.3327C13.0284 22.6256 12.5535 22.6256 12.2606 22.3327C11.9677 22.0398 11.9677 21.565 12.2606 21.2721L21.8066 11.7261C22.0995 11.4332 22.5744 11.4332 22.8672 11.7261Z" fill="#171717"/>
<path fill-rule="evenodd" clip-rule="evenodd" d="M12.2607 11.7261C12.5536 11.4332 13.0285 11.4332 13.3213 11.7261L22.8673 21.2721C23.1602 21.565 23.1602 22.0398 22.8673 22.3327C22.5744 22.6256 22.0995 22.6256 21.8066 22.3327L12.2607 12.7868C11.9678 12.4939 11.9678 12.019 12.2607 11.7261Z" fill="#171717"/>
</svg>
