<svg width="271" height="10" viewBox="0 0 271 10" fill="none" xmlns="http://www.w3.org/2000/svg">
<rect x="0.894531" width="10" height="10" fill="#FFB261"/>
<rect x="10.8945" width="10" height="10" fill="#FFB261"/>
<rect x="20.8945" width="10" height="10" fill="#FFB261"/>
<rect x="120.895" width="10" height="10" fill="#FED4A8"/>
<rect x="30.8945" width="10" height="10" fill="#FFB261"/>
<rect x="130.895" width="10" height="10" fill="#FED4A8"/>
<rect x="40.8945" width="10" height="10" fill="#FFB261"/>
<rect x="140.895" width="10" height="10" fill="#FED4A8"/>
<rect x="50.8945" width="10" height="10" fill="#FFB261"/>
<rect x="150.895" width="10" height="10" fill="#FED4A8"/>
<rect x="60.8945" width="10" height="10" fill="#FED4A8"/>
<rect x="160.895" width="10" height="10" fill="#FED4A8"/>
<rect x="70.8945" width="10" height="10" fill="#FED4A8"/>
<rect x="170.895" width="10" height="10" fill="#FED4A8"/>
<rect x="220.895" width="10" height="10" fill="#FED4A8"/>
<rect x="80.8945" width="10" height="10" fill="#FED4A8"/>
<rect x="180.895" width="10" height="10" fill="#FED4A8"/>
<rect x="230.895" width="10" height="10" fill="#FED4A8"/>
<rect x="90.8945" width="10" height="10" fill="#FED4A8"/>
<rect x="190.895" width="10" height="10" fill="#FED4A8"/>
<rect x="240.895" width="10" height="10" fill="#FED4A8"/>
<rect x="100.895" width="10" height="10" fill="#FED4A8"/>
<rect x="200.895" width="10" height="10" fill="#FED4A8"/>
<rect x="250.895" width="10" height="10" fill="#FED4A8"/>
<rect x="260.895" width="10" height="10" fill="#FED4A8"/>
<rect x="110.895" width="10" height="10" fill="#FED4A8"/>
<rect x="210.895" width="10" height="10" fill="#FED4A8"/>
</svg>
