<svg width="19" height="16" viewBox="0 0 19 16" fill="none" xmlns="http://www.w3.org/2000/svg">
<rect width="2.66662" height="2.66662" transform="matrix(4.37114e-08 1 1 -4.37114e-08 16.002 2.66797)" fill="#FFB261"/>
<rect width="2.66662" height="2.66662" transform="matrix(4.37114e-08 1 1 -4.37114e-08 16.002 0)" fill="#FFB261"/>
<rect width="2.66662" height="2.66662" transform="matrix(4.37114e-08 1 1 -4.37114e-08 13.334 2.66797)" fill="#FFB261"/>
<rect width="2.66662" height="2.66662" transform="matrix(4.37114e-08 1 1 -4.37114e-08 13.3359 0)" fill="#FFB261"/>
<rect width="2.66662" height="2.66662" transform="matrix(4.37114e-08 1 1 -4.37114e-08 10.668 2.66797)" fill="#FFB261"/>
<rect width="2.66662" height="2.66662" transform="matrix(4.37114e-08 1 1 -4.37114e-08 10.668 0)" fill="#FFB261"/>
<rect width="2.66662" height="2.66662" transform="matrix(4.37114e-08 1 1 -4.37114e-08 8.00195 2.66797)" fill="#FFB261"/>
<rect width="2.66662" height="2.66662" transform="matrix(4.37114e-08 1 1 -4.37114e-08 8 0)" fill="#FFB261"/>
<rect width="2.66662" height="2.66662" transform="matrix(4.37114e-08 1 1 -4.37114e-08 5.33398 2.66797)" fill="#FFB261"/>
<rect width="2.66662" height="2.66662" transform="matrix(4.37114e-08 1 1 -4.37114e-08 16.002 5.33594)" fill="#FFB261"/>
<rect width="2.66662" height="2.66662" transform="matrix(4.37114e-08 1 1 -4.37114e-08 13.3359 5.33594)" fill="#FFB261"/>
<rect width="2.66662" height="2.66662" transform="matrix(4.37114e-08 1 1 -4.37114e-08 10.668 5.33594)" fill="#FFB261"/>
<rect width="2.66662" height="2.66662" transform="matrix(4.37114e-08 1 1 -4.37114e-08 8.00195 5.33594)" fill="#FFB261"/>
<rect width="2.66662" height="2.66662" transform="matrix(4.37114e-08 1 1 -4.37114e-08 5.33398 5.33594)" fill="#FFB261"/>
<rect width="2.66662" height="2.66662" transform="matrix(4.37114e-08 1 1 -4.37114e-08 2.66602 5.33594)" fill="#FFB261"/>
<rect width="2.66662" height="2.66662" transform="matrix(4.37114e-08 1 1 -4.37114e-08 16.002 8.00391)" fill="#FFB261"/>
<rect width="2.66662" height="2.66662" transform="matrix(4.37114e-08 1 1 -4.37114e-08 13.3359 8.00391)" fill="#FFB261"/>
<rect width="2.66662" height="2.66662" transform="matrix(4.37114e-08 1 1 -4.37114e-08 10.668 8)" fill="#FFB261"/>
<rect width="2.66662" height="2.66662" transform="matrix(4.37114e-08 1 1 -4.37114e-08 8.00195 8)" fill="#FFB261"/>
<rect width="2.66662" height="2.66662" transform="matrix(4.37114e-08 1 1 -4.37114e-08 5.33398 8)" fill="#FFB261"/>
<rect width="2.66662" height="2.66662" transform="matrix(4.37114e-08 1 1 -4.37114e-08 2.66797 8)" fill="#FFB261"/>
<rect width="2.66662" height="2.66662" transform="matrix(4.37114e-08 1 1 -4.37114e-08 0 6.66797)" fill="#FFB261"/>
<rect width="2.66662" height="2.66662" transform="matrix(4.37114e-08 1 1 -4.37114e-08 16.002 10.668)" fill="#FFB261"/>
<rect width="2.66662" height="2.66662" transform="matrix(4.37114e-08 1 1 -4.37114e-08 13.3359 10.668)" fill="#FFB261"/>
<rect width="2.66662" height="2.66662" transform="matrix(4.37114e-08 1 1 -4.37114e-08 10.668 10.668)" fill="#FFB261"/>
<rect width="2.66662" height="2.66662" transform="matrix(4.37114e-08 1 1 -4.37114e-08 16.002 13.3359)" fill="#FFB261"/>
<rect width="2.66662" height="2.66662" transform="matrix(4.37114e-08 1 1 -4.37114e-08 13.334 13.3359)" fill="#FFB261"/>
<rect width="2.66662" height="2.66662" transform="matrix(4.37114e-08 1 1 -4.37114e-08 10.668 13.3359)" fill="#FFB261"/>
<rect width="2.66662" height="2.66662" transform="matrix(4.37114e-08 1 1 -4.37114e-08 8.00195 10.668)" fill="#FFB261"/>
<rect width="2.66662" height="2.66662" transform="matrix(4.37114e-08 1 1 -4.37114e-08 8 13.3359)" fill="#FFB261"/>
<rect width="2.66662" height="2.66662" transform="matrix(4.37114e-08 1 1 -4.37114e-08 5.33398 10.668)" fill="#FFB261"/>
</svg>

