<svg width="25" height="24" viewBox="0 0 25 24" fill="none" xmlns="http://www.w3.org/2000/svg">
<rect x="1" y="0.5" width="23" height="23" stroke="#9C9B93"/>
<path opacity="0.8" d="M9.1 16.494L9.106 15.378L12.868 12.006C13.172 11.738 13.378 11.482 13.486 11.238C13.598 10.994 13.654 10.75 13.654 10.506C13.654 10.198 13.586 9.922 13.45 9.678C13.314 9.43 13.126 9.234 12.886 9.09C12.646 8.946 12.37 8.874 12.058 8.874C11.738 8.874 11.452 8.95 11.2 9.102C10.952 9.25 10.758 9.448 10.618 9.696C10.478 9.944 10.41 10.212 10.414 10.5H9.13C9.13 9.94 9.256 9.45 9.508 9.03C9.764 8.606 10.114 8.276 10.558 8.04C11.002 7.8 11.51 7.68 12.082 7.68C12.626 7.68 13.114 7.804 13.546 8.052C13.978 8.296 14.318 8.632 14.566 9.06C14.818 9.488 14.944 9.976 14.944 10.524C14.944 10.92 14.892 11.256 14.788 11.532C14.684 11.808 14.528 12.064 14.32 12.3C14.112 12.536 13.852 12.792 13.54 13.068L10.636 15.66L10.498 15.3H14.944V16.494H9.1Z" fill="#9C9B93"/>
</svg>
